%TF.GenerationSoftware,KiCad,Pcbnew,9.0.7*%
%TF.CreationDate,2026-02-12T15:19:16-05:00*%
%TF.ProjectId,OSHE-Reader-PCB,4f534845-2d52-4656-9164-65722d504342,rev?*%
%TF.SameCoordinates,Original*%
%TF.FileFunction,Copper,L1,Top*%
%TF.FilePolarity,Positive*%
%FSLAX46Y46*%
G04 Gerber Fmt 4.6, Leading zero omitted, Abs format (unit mm)*
G04 Created by KiCad (PCBNEW 9.0.7) date 2026-02-12 15:19:16*
%MOMM*%
%LPD*%
G01*
G04 APERTURE LIST*
%TA.AperFunction,EtchedComponent*%
%ADD10C,0.010000*%
%TD*%
%TA.AperFunction,WasherPad*%
%ADD11C,6.000000*%
%TD*%
%TA.AperFunction,SMDPad,CuDef*%
%ADD12R,1.000000X1.250000*%
%TD*%
%TA.AperFunction,SMDPad,CuDef*%
%ADD13R,1.250000X1.000000*%
%TD*%
%TA.AperFunction,ComponentPad*%
%ADD14C,1.400000*%
%TD*%
%TA.AperFunction,ComponentPad*%
%ADD15C,1.320800*%
%TD*%
%TA.AperFunction,WasherPad*%
%ADD16O,1.092200X1.701800*%
%TD*%
%TA.AperFunction,ViaPad*%
%ADD17C,0.600000*%
%TD*%
%TA.AperFunction,ViaPad*%
%ADD18C,0.800000*%
%TD*%
%TA.AperFunction,ViaPad*%
%ADD19C,1.000000*%
%TD*%
%TA.AperFunction,Conductor*%
%ADD20C,0.200000*%
%TD*%
%TA.AperFunction,Conductor*%
%ADD21C,0.500000*%
%TD*%
G04 APERTURE END LIST*
D10*
%TO.C,REF\u002A\u002A*%
X39278027Y-170900427D02*
X39390609Y-171497618D01*
X39806022Y-171668865D01*
X40221436Y-171840112D01*
X40719793Y-171501233D01*
X40859360Y-171406877D01*
X40985520Y-171322630D01*
X41092387Y-171252338D01*
X41174074Y-171199847D01*
X41224693Y-171169004D01*
X41238478Y-171162353D01*
X41263312Y-171179458D01*
X41316380Y-171226744D01*
X41391732Y-171298172D01*
X41483421Y-171387700D01*
X41585499Y-171489289D01*
X41692018Y-171596898D01*
X41797028Y-171704487D01*
X41894583Y-171806015D01*
X41978734Y-171895441D01*
X42043532Y-171966726D01*
X42083029Y-172013828D01*
X42092472Y-172029592D01*
X42078883Y-172058653D01*
X42040785Y-172122321D01*
X41982185Y-172214367D01*
X41907089Y-172328564D01*
X41819500Y-172458684D01*
X41768746Y-172532901D01*
X41676237Y-172668422D01*
X41594032Y-172790716D01*
X41526122Y-172893695D01*
X41476492Y-172971273D01*
X41449132Y-173017361D01*
X41445021Y-173027047D01*
X41454341Y-173054574D01*
X41479746Y-173118728D01*
X41517403Y-173210490D01*
X41563478Y-173320839D01*
X41614138Y-173440755D01*
X41665551Y-173561219D01*
X41713881Y-173673209D01*
X41755298Y-173767707D01*
X41785966Y-173835692D01*
X41802053Y-173868143D01*
X41803003Y-173869420D01*
X41828264Y-173875617D01*
X41895537Y-173889440D01*
X41997852Y-173909532D01*
X42128233Y-173934534D01*
X42279708Y-173963086D01*
X42368085Y-173979551D01*
X42529944Y-174010369D01*
X42676141Y-174039694D01*
X42799279Y-174065921D01*
X42891961Y-174087446D01*
X42946793Y-174102665D01*
X42957815Y-174107493D01*
X42968610Y-174140174D01*
X42977321Y-174213985D01*
X42983952Y-174320292D01*
X42988510Y-174450467D01*
X42991001Y-174595876D01*
X42991430Y-174747890D01*
X42989803Y-174897877D01*
X42986127Y-175037206D01*
X42980407Y-175157245D01*
X42972649Y-175249365D01*
X42962860Y-175304932D01*
X42956988Y-175316500D01*
X42921891Y-175330365D01*
X42847520Y-175350188D01*
X42743715Y-175373639D01*
X42620311Y-175398391D01*
X42577233Y-175406398D01*
X42369539Y-175444441D01*
X42205476Y-175475079D01*
X42079622Y-175499529D01*
X41986557Y-175519009D01*
X41920859Y-175534736D01*
X41877109Y-175547928D01*
X41849884Y-175559804D01*
X41833764Y-175571580D01*
X41831509Y-175573908D01*
X41808995Y-175611400D01*
X41774650Y-175684365D01*
X41731903Y-175783867D01*
X41684184Y-175900973D01*
X41634922Y-176026748D01*
X41587547Y-176152257D01*
X41545487Y-176268565D01*
X41512172Y-176366739D01*
X41491033Y-176437843D01*
X41485497Y-176472942D01*
X41485958Y-176474172D01*
X41504715Y-176502861D01*
X41547268Y-176565985D01*
X41609145Y-176656973D01*
X41685874Y-176769255D01*
X41772983Y-176896260D01*
X41797790Y-176932353D01*
X41886244Y-177063203D01*
X41964080Y-177182591D01*
X42027058Y-177283662D01*
X42070937Y-177359559D01*
X42091477Y-177403427D01*
X42092472Y-177408817D01*
X42075214Y-177437144D01*
X42027527Y-177493261D01*
X41955542Y-177571137D01*
X41865389Y-177664740D01*
X41763197Y-177768041D01*
X41655097Y-177875006D01*
X41547220Y-177979606D01*
X41445696Y-178075809D01*
X41356654Y-178157584D01*
X41286225Y-178218900D01*
X41240539Y-178253726D01*
X41227901Y-178259412D01*
X41198483Y-178246020D01*
X41138253Y-178209899D01*
X41057021Y-178157136D01*
X40994522Y-178114667D01*
X40881277Y-178036740D01*
X40747166Y-177944984D01*
X40612647Y-177853375D01*
X40540325Y-177804346D01*
X40295530Y-177638770D01*
X40090042Y-177749875D01*
X39996428Y-177798548D01*
X39916822Y-177836381D01*
X39862959Y-177857958D01*
X39849249Y-177860961D01*
X39832762Y-177838793D01*
X39800237Y-177776149D01*
X39754100Y-177678809D01*
X39696782Y-177552549D01*
X39630708Y-177403150D01*
X39558307Y-177236388D01*
X39482008Y-177058042D01*
X39404238Y-176873891D01*
X39327426Y-176689712D01*
X39253998Y-176511285D01*
X39186384Y-176344387D01*
X39127012Y-176194797D01*
X39078308Y-176068293D01*
X39042702Y-175970654D01*
X39022622Y-175907657D01*
X39019392Y-175886021D01*
X39044988Y-175858424D01*
X39101030Y-175813625D01*
X39175803Y-175760934D01*
X39182079Y-175756765D01*
X39375337Y-175602069D01*
X39531166Y-175421591D01*
X39648216Y-175221102D01*
X39725137Y-175006374D01*
X39760578Y-174783177D01*
X39753189Y-174557281D01*
X39701619Y-174334459D01*
X39604518Y-174120479D01*
X39575950Y-174073664D01*
X39427360Y-173884618D01*
X39251819Y-173732812D01*
X39055402Y-173619034D01*
X38844185Y-173544075D01*
X38624245Y-173508722D01*
X38401655Y-173513767D01*
X38182493Y-173559999D01*
X37972834Y-173648206D01*
X37778753Y-173779179D01*
X37718718Y-173832337D01*
X37565927Y-173998739D01*
X37454589Y-174173912D01*
X37378215Y-174370266D01*
X37335679Y-174564717D01*
X37325178Y-174783342D01*
X37360192Y-175003052D01*
X37437165Y-175216420D01*
X37552539Y-175416022D01*
X37702757Y-175594429D01*
X37884265Y-175744217D01*
X37908119Y-175760006D01*
X37983693Y-175811712D01*
X38041143Y-175856512D01*
X38068609Y-175885117D01*
X38069009Y-175886021D01*
X38063112Y-175916964D01*
X38039737Y-175987191D01*
X38001313Y-176090925D01*
X37950269Y-176222390D01*
X37889034Y-176375807D01*
X37820036Y-176545401D01*
X37745705Y-176725393D01*
X37668470Y-176910008D01*
X37590760Y-177093468D01*
X37515003Y-177269996D01*
X37443629Y-177433814D01*
X37379066Y-177579147D01*
X37323744Y-177700217D01*
X37280092Y-177791247D01*
X37250538Y-177846460D01*
X37238636Y-177860961D01*
X37202269Y-177849669D01*
X37134222Y-177819385D01*
X37046228Y-177775520D01*
X36997842Y-177749875D01*
X36792355Y-177638770D01*
X36547560Y-177804346D01*
X36422598Y-177889170D01*
X36285787Y-177982516D01*
X36157580Y-178070408D01*
X36093363Y-178114667D01*
X36003043Y-178175318D01*
X35926563Y-178223381D01*
X35873899Y-178252770D01*
X35856794Y-178258982D01*
X35831897Y-178242223D01*
X35776797Y-178195436D01*
X35696835Y-178123480D01*
X35597352Y-178031212D01*
X35483692Y-177923490D01*
X35411807Y-177854326D01*
X35286043Y-177730757D01*
X35177355Y-177620234D01*
X35090137Y-177527485D01*
X35028781Y-177457237D01*
X34997683Y-177414220D01*
X34994700Y-177405490D01*
X35008545Y-177372284D01*
X35046804Y-177305142D01*
X35105233Y-177210863D01*
X35179589Y-177096245D01*
X35265627Y-176968083D01*
X35290094Y-176932353D01*
X35379246Y-176802489D01*
X35459230Y-176685569D01*
X35525572Y-176588162D01*
X35573803Y-176516839D01*
X35599449Y-176478170D01*
X35601927Y-176474172D01*
X35598221Y-176443355D01*
X35578553Y-176375599D01*
X35546352Y-176279839D01*
X35505047Y-176165009D01*
X35458067Y-176040044D01*
X35408841Y-175913879D01*
X35360800Y-175795448D01*
X35317373Y-175693685D01*
X35281988Y-175617526D01*
X35258076Y-175575904D01*
X35256376Y-175573908D01*
X35241754Y-175562013D01*
X35217057Y-175550250D01*
X35176864Y-175537401D01*
X35115755Y-175522249D01*
X35028309Y-175503576D01*
X34909104Y-175480165D01*
X34752719Y-175450797D01*
X34553735Y-175414255D01*
X34510652Y-175406398D01*
X34382962Y-175381727D01*
X34271645Y-175357593D01*
X34186537Y-175336324D01*
X34137475Y-175320248D01*
X34130897Y-175316500D01*
X34120056Y-175283273D01*
X34111245Y-175209021D01*
X34104468Y-175102376D01*
X34099732Y-174971967D01*
X34097042Y-174826427D01*
X34096405Y-174674386D01*
X34097826Y-174524476D01*
X34101312Y-174385328D01*
X34106868Y-174265572D01*
X34114500Y-174173841D01*
X34124214Y-174118766D01*
X34130070Y-174107493D01*
X34162672Y-174096123D01*
X34236910Y-174077624D01*
X34345388Y-174053602D01*
X34480709Y-174025662D01*
X34635477Y-173995408D01*
X34719799Y-173979551D01*
X34879788Y-173949644D01*
X35022459Y-173922550D01*
X35140840Y-173899631D01*
X35227957Y-173882243D01*
X35276837Y-173871747D01*
X35284882Y-173869420D01*
X35298479Y-173843186D01*
X35327221Y-173779995D01*
X35367277Y-173688877D01*
X35414816Y-173578857D01*
X35466007Y-173458965D01*
X35517018Y-173338227D01*
X35564018Y-173225671D01*
X35603176Y-173130326D01*
X35630661Y-173061217D01*
X35642641Y-173027374D01*
X35642864Y-173025895D01*
X35629283Y-172999197D01*
X35591207Y-172937760D01*
X35532639Y-172847689D01*
X35457580Y-172735090D01*
X35370032Y-172606070D01*
X35319139Y-172531961D01*
X35226401Y-172396077D01*
X35144033Y-172272709D01*
X35076053Y-172168097D01*
X35026480Y-172088483D01*
X34999334Y-172040107D01*
X34995413Y-172029262D01*
X35012267Y-172004020D01*
X35058860Y-171950124D01*
X35129240Y-171873613D01*
X35217457Y-171780523D01*
X35317557Y-171676895D01*
X35423590Y-171568764D01*
X35529603Y-171462170D01*
X35629644Y-171363150D01*
X35717762Y-171277742D01*
X35788005Y-171211985D01*
X35834420Y-171171916D01*
X35849948Y-171162353D01*
X35875231Y-171175800D01*
X35935703Y-171213575D01*
X36025484Y-171271835D01*
X36138695Y-171346734D01*
X36269455Y-171434425D01*
X36368091Y-171501233D01*
X36866449Y-171840112D01*
X37281862Y-171668865D01*
X37697276Y-171497618D01*
X37809858Y-170900427D01*
X37922441Y-170303235D01*
X39165444Y-170303235D01*
X39278027Y-170900427D01*
%TA.AperFunction,EtchedComponent*%
G36*
X39278027Y-170900427D02*
G01*
X39390609Y-171497618D01*
X39806022Y-171668865D01*
X40221436Y-171840112D01*
X40719793Y-171501233D01*
X40859360Y-171406877D01*
X40985520Y-171322630D01*
X41092387Y-171252338D01*
X41174074Y-171199847D01*
X41224693Y-171169004D01*
X41238478Y-171162353D01*
X41263312Y-171179458D01*
X41316380Y-171226744D01*
X41391732Y-171298172D01*
X41483421Y-171387700D01*
X41585499Y-171489289D01*
X41692018Y-171596898D01*
X41797028Y-171704487D01*
X41894583Y-171806015D01*
X41978734Y-171895441D01*
X42043532Y-171966726D01*
X42083029Y-172013828D01*
X42092472Y-172029592D01*
X42078883Y-172058653D01*
X42040785Y-172122321D01*
X41982185Y-172214367D01*
X41907089Y-172328564D01*
X41819500Y-172458684D01*
X41768746Y-172532901D01*
X41676237Y-172668422D01*
X41594032Y-172790716D01*
X41526122Y-172893695D01*
X41476492Y-172971273D01*
X41449132Y-173017361D01*
X41445021Y-173027047D01*
X41454341Y-173054574D01*
X41479746Y-173118728D01*
X41517403Y-173210490D01*
X41563478Y-173320839D01*
X41614138Y-173440755D01*
X41665551Y-173561219D01*
X41713881Y-173673209D01*
X41755298Y-173767707D01*
X41785966Y-173835692D01*
X41802053Y-173868143D01*
X41803003Y-173869420D01*
X41828264Y-173875617D01*
X41895537Y-173889440D01*
X41997852Y-173909532D01*
X42128233Y-173934534D01*
X42279708Y-173963086D01*
X42368085Y-173979551D01*
X42529944Y-174010369D01*
X42676141Y-174039694D01*
X42799279Y-174065921D01*
X42891961Y-174087446D01*
X42946793Y-174102665D01*
X42957815Y-174107493D01*
X42968610Y-174140174D01*
X42977321Y-174213985D01*
X42983952Y-174320292D01*
X42988510Y-174450467D01*
X42991001Y-174595876D01*
X42991430Y-174747890D01*
X42989803Y-174897877D01*
X42986127Y-175037206D01*
X42980407Y-175157245D01*
X42972649Y-175249365D01*
X42962860Y-175304932D01*
X42956988Y-175316500D01*
X42921891Y-175330365D01*
X42847520Y-175350188D01*
X42743715Y-175373639D01*
X42620311Y-175398391D01*
X42577233Y-175406398D01*
X42369539Y-175444441D01*
X42205476Y-175475079D01*
X42079622Y-175499529D01*
X41986557Y-175519009D01*
X41920859Y-175534736D01*
X41877109Y-175547928D01*
X41849884Y-175559804D01*
X41833764Y-175571580D01*
X41831509Y-175573908D01*
X41808995Y-175611400D01*
X41774650Y-175684365D01*
X41731903Y-175783867D01*
X41684184Y-175900973D01*
X41634922Y-176026748D01*
X41587547Y-176152257D01*
X41545487Y-176268565D01*
X41512172Y-176366739D01*
X41491033Y-176437843D01*
X41485497Y-176472942D01*
X41485958Y-176474172D01*
X41504715Y-176502861D01*
X41547268Y-176565985D01*
X41609145Y-176656973D01*
X41685874Y-176769255D01*
X41772983Y-176896260D01*
X41797790Y-176932353D01*
X41886244Y-177063203D01*
X41964080Y-177182591D01*
X42027058Y-177283662D01*
X42070937Y-177359559D01*
X42091477Y-177403427D01*
X42092472Y-177408817D01*
X42075214Y-177437144D01*
X42027527Y-177493261D01*
X41955542Y-177571137D01*
X41865389Y-177664740D01*
X41763197Y-177768041D01*
X41655097Y-177875006D01*
X41547220Y-177979606D01*
X41445696Y-178075809D01*
X41356654Y-178157584D01*
X41286225Y-178218900D01*
X41240539Y-178253726D01*
X41227901Y-178259412D01*
X41198483Y-178246020D01*
X41138253Y-178209899D01*
X41057021Y-178157136D01*
X40994522Y-178114667D01*
X40881277Y-178036740D01*
X40747166Y-177944984D01*
X40612647Y-177853375D01*
X40540325Y-177804346D01*
X40295530Y-177638770D01*
X40090042Y-177749875D01*
X39996428Y-177798548D01*
X39916822Y-177836381D01*
X39862959Y-177857958D01*
X39849249Y-177860961D01*
X39832762Y-177838793D01*
X39800237Y-177776149D01*
X39754100Y-177678809D01*
X39696782Y-177552549D01*
X39630708Y-177403150D01*
X39558307Y-177236388D01*
X39482008Y-177058042D01*
X39404238Y-176873891D01*
X39327426Y-176689712D01*
X39253998Y-176511285D01*
X39186384Y-176344387D01*
X39127012Y-176194797D01*
X39078308Y-176068293D01*
X39042702Y-175970654D01*
X39022622Y-175907657D01*
X39019392Y-175886021D01*
X39044988Y-175858424D01*
X39101030Y-175813625D01*
X39175803Y-175760934D01*
X39182079Y-175756765D01*
X39375337Y-175602069D01*
X39531166Y-175421591D01*
X39648216Y-175221102D01*
X39725137Y-175006374D01*
X39760578Y-174783177D01*
X39753189Y-174557281D01*
X39701619Y-174334459D01*
X39604518Y-174120479D01*
X39575950Y-174073664D01*
X39427360Y-173884618D01*
X39251819Y-173732812D01*
X39055402Y-173619034D01*
X38844185Y-173544075D01*
X38624245Y-173508722D01*
X38401655Y-173513767D01*
X38182493Y-173559999D01*
X37972834Y-173648206D01*
X37778753Y-173779179D01*
X37718718Y-173832337D01*
X37565927Y-173998739D01*
X37454589Y-174173912D01*
X37378215Y-174370266D01*
X37335679Y-174564717D01*
X37325178Y-174783342D01*
X37360192Y-175003052D01*
X37437165Y-175216420D01*
X37552539Y-175416022D01*
X37702757Y-175594429D01*
X37884265Y-175744217D01*
X37908119Y-175760006D01*
X37983693Y-175811712D01*
X38041143Y-175856512D01*
X38068609Y-175885117D01*
X38069009Y-175886021D01*
X38063112Y-175916964D01*
X38039737Y-175987191D01*
X38001313Y-176090925D01*
X37950269Y-176222390D01*
X37889034Y-176375807D01*
X37820036Y-176545401D01*
X37745705Y-176725393D01*
X37668470Y-176910008D01*
X37590760Y-177093468D01*
X37515003Y-177269996D01*
X37443629Y-177433814D01*
X37379066Y-177579147D01*
X37323744Y-177700217D01*
X37280092Y-177791247D01*
X37250538Y-177846460D01*
X37238636Y-177860961D01*
X37202269Y-177849669D01*
X37134222Y-177819385D01*
X37046228Y-177775520D01*
X36997842Y-177749875D01*
X36792355Y-177638770D01*
X36547560Y-177804346D01*
X36422598Y-177889170D01*
X36285787Y-177982516D01*
X36157580Y-178070408D01*
X36093363Y-178114667D01*
X36003043Y-178175318D01*
X35926563Y-178223381D01*
X35873899Y-178252770D01*
X35856794Y-178258982D01*
X35831897Y-178242223D01*
X35776797Y-178195436D01*
X35696835Y-178123480D01*
X35597352Y-178031212D01*
X35483692Y-177923490D01*
X35411807Y-177854326D01*
X35286043Y-177730757D01*
X35177355Y-177620234D01*
X35090137Y-177527485D01*
X35028781Y-177457237D01*
X34997683Y-177414220D01*
X34994700Y-177405490D01*
X35008545Y-177372284D01*
X35046804Y-177305142D01*
X35105233Y-177210863D01*
X35179589Y-177096245D01*
X35265627Y-176968083D01*
X35290094Y-176932353D01*
X35379246Y-176802489D01*
X35459230Y-176685569D01*
X35525572Y-176588162D01*
X35573803Y-176516839D01*
X35599449Y-176478170D01*
X35601927Y-176474172D01*
X35598221Y-176443355D01*
X35578553Y-176375599D01*
X35546352Y-176279839D01*
X35505047Y-176165009D01*
X35458067Y-176040044D01*
X35408841Y-175913879D01*
X35360800Y-175795448D01*
X35317373Y-175693685D01*
X35281988Y-175617526D01*
X35258076Y-175575904D01*
X35256376Y-175573908D01*
X35241754Y-175562013D01*
X35217057Y-175550250D01*
X35176864Y-175537401D01*
X35115755Y-175522249D01*
X35028309Y-175503576D01*
X34909104Y-175480165D01*
X34752719Y-175450797D01*
X34553735Y-175414255D01*
X34510652Y-175406398D01*
X34382962Y-175381727D01*
X34271645Y-175357593D01*
X34186537Y-175336324D01*
X34137475Y-175320248D01*
X34130897Y-175316500D01*
X34120056Y-175283273D01*
X34111245Y-175209021D01*
X34104468Y-175102376D01*
X34099732Y-174971967D01*
X34097042Y-174826427D01*
X34096405Y-174674386D01*
X34097826Y-174524476D01*
X34101312Y-174385328D01*
X34106868Y-174265572D01*
X34114500Y-174173841D01*
X34124214Y-174118766D01*
X34130070Y-174107493D01*
X34162672Y-174096123D01*
X34236910Y-174077624D01*
X34345388Y-174053602D01*
X34480709Y-174025662D01*
X34635477Y-173995408D01*
X34719799Y-173979551D01*
X34879788Y-173949644D01*
X35022459Y-173922550D01*
X35140840Y-173899631D01*
X35227957Y-173882243D01*
X35276837Y-173871747D01*
X35284882Y-173869420D01*
X35298479Y-173843186D01*
X35327221Y-173779995D01*
X35367277Y-173688877D01*
X35414816Y-173578857D01*
X35466007Y-173458965D01*
X35517018Y-173338227D01*
X35564018Y-173225671D01*
X35603176Y-173130326D01*
X35630661Y-173061217D01*
X35642641Y-173027374D01*
X35642864Y-173025895D01*
X35629283Y-172999197D01*
X35591207Y-172937760D01*
X35532639Y-172847689D01*
X35457580Y-172735090D01*
X35370032Y-172606070D01*
X35319139Y-172531961D01*
X35226401Y-172396077D01*
X35144033Y-172272709D01*
X35076053Y-172168097D01*
X35026480Y-172088483D01*
X34999334Y-172040107D01*
X34995413Y-172029262D01*
X35012267Y-172004020D01*
X35058860Y-171950124D01*
X35129240Y-171873613D01*
X35217457Y-171780523D01*
X35317557Y-171676895D01*
X35423590Y-171568764D01*
X35529603Y-171462170D01*
X35629644Y-171363150D01*
X35717762Y-171277742D01*
X35788005Y-171211985D01*
X35834420Y-171171916D01*
X35849948Y-171162353D01*
X35875231Y-171175800D01*
X35935703Y-171213575D01*
X36025484Y-171271835D01*
X36138695Y-171346734D01*
X36269455Y-171434425D01*
X36368091Y-171501233D01*
X36866449Y-171840112D01*
X37281862Y-171668865D01*
X37697276Y-171497618D01*
X37809858Y-170900427D01*
X37922441Y-170303235D01*
X39165444Y-170303235D01*
X39278027Y-170900427D01*
G37*
%TD.AperFunction*%
%TD*%
D11*
%TO.P,H2,*%
%TO.N,*%
X131250000Y-160000000D03*
%TD*%
D12*
%TO.P,SW2,1,1*%
%TO.N,+3V3*%
X143400131Y-143675700D03*
%TO.P,SW2,2,2*%
%TO.N,/Buttons/RightButton*%
X143400131Y-135925700D03*
%TD*%
D13*
%TO.P,SW5,1,1*%
%TO.N,+3V3*%
X86125000Y-168000000D03*
%TO.P,SW5,2,2*%
%TO.N,/Buttons/HomeButton*%
X93875000Y-168000000D03*
%TD*%
D14*
%TO.P,TH2,1*%
%TO.N,/Battery Charging/TS*%
X87490000Y-85775800D03*
%TO.P,TH2,2*%
%TO.N,GND*%
X92570000Y-85775800D03*
%TD*%
D12*
%TO.P,SW3,1,1*%
%TO.N,+3V3*%
X36500000Y-91125001D03*
%TO.P,SW3,2,2*%
%TO.N,/Buttons/UpButton*%
X36500000Y-98875001D03*
%TD*%
%TO.P,SW1,1,1*%
%TO.N,/Buttons/LeftButton*%
X143400000Y-98875001D03*
%TO.P,SW1,2,2*%
%TO.N,+3V3*%
X143400000Y-91125001D03*
%TD*%
%TO.P,SW4,1,1*%
%TO.N,+3V3*%
X36500000Y-135925702D03*
%TO.P,SW4,2,2*%
%TO.N,/Buttons/DownButton*%
X36500000Y-143675702D03*
%TD*%
D11*
%TO.P,H1,*%
%TO.N,*%
X48750000Y-160000000D03*
%TD*%
D15*
%TO.P,J4,1,1*%
%TO.N,/BAT+*%
X43486400Y-88040000D03*
%TO.P,J4,2,2*%
%TO.N,GND*%
X45486401Y-88040000D03*
%TD*%
D16*
%TO.P,J1,*%
%TO.N,*%
X94320000Y-177345599D03*
X94320000Y-173545600D03*
X85680000Y-177345599D03*
X85680000Y-173545600D03*
%TD*%
D17*
%TO.N,/Battery Charging/VBUS*%
X61250000Y-97500000D03*
X60500000Y-95750000D03*
%TO.N,GND*%
X75000000Y-179000000D03*
X43250000Y-95500000D03*
X55000000Y-123500000D03*
X36500000Y-106000000D03*
X39500000Y-114000000D03*
X118000000Y-162000000D03*
X44000000Y-126274202D03*
D18*
X82600000Y-173000000D03*
D19*
X102750000Y-99500000D03*
X102750000Y-94750000D03*
D17*
X61091350Y-118200000D03*
X105750000Y-107400000D03*
X101200000Y-123400000D03*
X51000000Y-114000000D03*
X36500000Y-151500000D03*
X46500000Y-100250000D03*
X110500000Y-162000000D03*
X51500000Y-118108375D03*
D19*
X102750000Y-96000000D03*
D17*
X104750000Y-107400000D03*
X131000000Y-153000000D03*
X124000000Y-162000000D03*
X60500000Y-132000000D03*
X116800000Y-154000000D03*
X51200000Y-133000000D03*
X92500000Y-99000000D03*
D19*
X102750000Y-98250000D03*
D17*
X51086273Y-125665039D03*
X121000000Y-153000000D03*
X105750000Y-103300000D03*
X95140000Y-152640000D03*
X106750000Y-107425000D03*
X106750000Y-103325000D03*
X100500000Y-179000000D03*
X51086273Y-128165039D03*
X80500000Y-104750000D03*
X104725000Y-103325000D03*
X108500000Y-178500000D03*
X51000000Y-111500000D03*
X125000000Y-178500000D03*
X78500000Y-88500000D03*
X60500000Y-135000000D03*
X121000000Y-162000000D03*
X120000000Y-154200000D03*
X78000000Y-176500000D03*
X52750000Y-92000000D03*
X41000000Y-121674201D03*
X102750000Y-91250000D03*
X89000000Y-123600000D03*
X59500000Y-96000000D03*
X94500000Y-86000000D03*
D18*
X87000000Y-172000000D03*
D17*
X51086273Y-130165039D03*
X100500000Y-171000000D03*
X143400000Y-119800000D03*
X131000000Y-123500000D03*
X101500000Y-168000000D03*
D18*
X92749936Y-171749936D03*
D17*
X38000000Y-133500000D03*
X143500000Y-106500000D03*
%TO.N,+3V3*%
X84500000Y-168000000D03*
X36500000Y-89500000D03*
D19*
X96250000Y-96000000D03*
D17*
X36500000Y-134500000D03*
X41000000Y-122500000D03*
X143500000Y-89500000D03*
D19*
X96250000Y-94750000D03*
D17*
X143500000Y-145000000D03*
X95200000Y-123400000D03*
X120000000Y-160000000D03*
X61500000Y-128000000D03*
D19*
X96250000Y-98250000D03*
D17*
X45600000Y-130200000D03*
X60500000Y-123500000D03*
D19*
X96250000Y-99500000D03*
D17*
%TO.N,/SCK*%
X104500000Y-120000000D03*
X44176702Y-122893731D03*
X108500000Y-161000000D03*
X95500000Y-120000000D03*
X118933800Y-162000000D03*
%TO.N,/COPI*%
X106000000Y-119000000D03*
X108776000Y-156776000D03*
X116033799Y-160400000D03*
X43576700Y-122293731D03*
%TO.N,/EP_RESET*%
X44500000Y-124000000D03*
X68500000Y-121000000D03*
X124500000Y-121000000D03*
%TO.N,/EP_CS*%
X41000000Y-146000000D03*
X40000000Y-129500000D03*
X47000000Y-146000000D03*
X40000000Y-134000000D03*
X114500000Y-146000000D03*
%TO.N,/EP_BUSY*%
X44500000Y-125000000D03*
X115000000Y-122000000D03*
%TO.N,/EP_D{slash}C*%
X58000000Y-147000000D03*
X43500000Y-147000000D03*
X112500000Y-147000000D03*
%TO.N,/Buttons/RightButton*%
X120540000Y-134960000D03*
X143400131Y-133865669D03*
%TO.N,Net-(U4-GPIO0)*%
X51000000Y-108500000D03*
X109000000Y-116250000D03*
%TO.N,/Buttons/DownButton*%
X107250000Y-144750000D03*
X36500000Y-145500000D03*
%TO.N,/BAT_STAT*%
X101400000Y-148400000D03*
X58000000Y-113500000D03*
X52000000Y-95500000D03*
X57500000Y-100000000D03*
X112920000Y-140400000D03*
X102800000Y-142800000D03*
X112920000Y-116170000D03*
X79800000Y-150400000D03*
%TO.N,/BAT+*%
X54250000Y-97250000D03*
%TO.N,Net-(U1-CC)*%
X63000000Y-87500000D03*
X55500000Y-92000000D03*
%TO.N,/Battery Charging/TS*%
X53000000Y-95750000D03*
X82000000Y-93750000D03*
%TO.N,Net-(U3-EN)*%
X110079226Y-105500000D03*
X93329226Y-104750000D03*
%TO.N,/Buttons/LeftButton*%
X105300000Y-148700000D03*
X143500000Y-100500000D03*
X145500000Y-147000000D03*
%TO.N,/Buttons/UpButton*%
X36500000Y-100500000D03*
X37705050Y-114602525D03*
X115500000Y-117508375D03*
%TO.N,/Buttons/HomeButton*%
X95500000Y-168000000D03*
X109500000Y-153000000D03*
X98000000Y-153000000D03*
%TO.N,Net-(U3-BOOT)*%
X95750000Y-106750000D03*
X102000000Y-108000000D03*
%TD*%
D20*
%TO.N,/Battery Charging/VBUS*%
X61250000Y-97500000D02*
X61250000Y-96500000D01*
X61250000Y-96500000D02*
X60500000Y-95750000D01*
%TO.N,GND*%
X102750000Y-91250000D02*
X102750000Y-94750000D01*
%TO.N,+3V3*%
X86125000Y-168000000D02*
X84500000Y-168000000D01*
X143400000Y-91125001D02*
X143400000Y-89600000D01*
X36500000Y-135925702D02*
X36500000Y-134500000D01*
X143400131Y-144900131D02*
X143500000Y-145000000D01*
X143400000Y-89600000D02*
X143500000Y-89500000D01*
X36500000Y-91125001D02*
X36500000Y-89500000D01*
X143400131Y-143675700D02*
X143400131Y-144900131D01*
%TO.N,/SCK*%
X95500000Y-120000000D02*
X104500000Y-120000000D01*
X44176702Y-121323298D02*
X45500000Y-120000000D01*
X108500000Y-161000000D02*
X118000000Y-161000000D01*
X118933800Y-161933800D02*
X118933800Y-162000000D01*
X45500000Y-120000000D02*
X95500000Y-120000000D01*
X118000000Y-161000000D02*
X118933800Y-161933800D01*
X44176702Y-122893731D02*
X44176702Y-121323298D01*
%TO.N,/COPI*%
X116033799Y-160400000D02*
X115033799Y-159400000D01*
X111400000Y-159400000D02*
X108776000Y-156776000D01*
X43576700Y-122293731D02*
X43576700Y-120423300D01*
X106000000Y-119000000D02*
X45000000Y-119000000D01*
X43576700Y-120423300D02*
X45000000Y-119000000D01*
X115033799Y-159400000D02*
X111400000Y-159400000D01*
%TO.N,/EP_RESET*%
X68500000Y-121000000D02*
X47500000Y-121000000D01*
X47500000Y-121000000D02*
X44500000Y-124000000D01*
X124500000Y-121000000D02*
X68500000Y-121000000D01*
%TO.N,/EP_CS*%
X114500000Y-146000000D02*
X47000000Y-146000000D01*
X47000000Y-146000000D02*
X41000000Y-146000000D01*
X40000000Y-129500000D02*
X40000000Y-134000000D01*
%TO.N,/EP_BUSY*%
X44500000Y-125000000D02*
X47500000Y-122000000D01*
X47500000Y-122000000D02*
X115000000Y-122000000D01*
%TO.N,/EP_D{slash}C*%
X54000000Y-147000000D02*
X112500000Y-147000000D01*
X43500000Y-147000000D02*
X54000000Y-147000000D01*
%TO.N,/Buttons/RightButton*%
X121425700Y-135925700D02*
X143400131Y-135925700D01*
X120540000Y-134960000D02*
X120540000Y-135040000D01*
X143400131Y-133865669D02*
X143400131Y-135925700D01*
X120540000Y-135040000D02*
X121425700Y-135925700D01*
%TO.N,Net-(U4-GPIO0)*%
X51000000Y-108500000D02*
X58750000Y-116250000D01*
X58750000Y-116250000D02*
X64750000Y-116250000D01*
X64750000Y-116250000D02*
X109000000Y-116250000D01*
%TO.N,/Buttons/DownButton*%
X36500000Y-145500000D02*
X36500000Y-143675702D01*
X106175702Y-143675702D02*
X36500000Y-143675702D01*
X107250000Y-144750000D02*
X106175702Y-143675702D01*
%TO.N,/BAT_STAT*%
X52000000Y-95599943D02*
X52000000Y-95500000D01*
X57500000Y-99500000D02*
X57500000Y-100000000D01*
X111720000Y-141600000D02*
X104000000Y-141600000D01*
X111750000Y-115000000D02*
X112920000Y-116170000D01*
X81800000Y-148400000D02*
X101400000Y-148400000D01*
X54549972Y-96549972D02*
X57500000Y-99500000D01*
X79800000Y-150400000D02*
X81800000Y-148400000D01*
X52950028Y-96549972D02*
X52000000Y-95599943D01*
X112920000Y-140400000D02*
X111720000Y-141600000D01*
X58000000Y-113500000D02*
X59500000Y-115000000D01*
X104000000Y-141600000D02*
X102800000Y-142800000D01*
X59500000Y-115000000D02*
X111750000Y-115000000D01*
X52950028Y-96549972D02*
X54549972Y-96549972D01*
D21*
%TO.N,/BAT+*%
X52696400Y-97250000D02*
X43486400Y-88040000D01*
D20*
X54250000Y-97250000D02*
X52696400Y-97250000D01*
%TO.N,Net-(U1-CC)*%
X55500000Y-92000000D02*
X58500000Y-92000000D01*
X60500000Y-90000000D02*
X63000000Y-87500000D01*
X58500000Y-92000000D02*
X60500000Y-90000000D01*
%TO.N,/Battery Charging/TS*%
X53000000Y-95750000D02*
X55000000Y-93750000D01*
X55000000Y-93750000D02*
X82000000Y-93750000D01*
%TO.N,Net-(U3-EN)*%
X110079226Y-105500000D02*
X109329226Y-104750000D01*
X109329226Y-104750000D02*
X93329226Y-104750000D01*
%TO.N,/Buttons/LeftButton*%
X143400000Y-100400000D02*
X143500000Y-100500000D01*
X144500000Y-148000000D02*
X106000000Y-148000000D01*
X143400000Y-98875001D02*
X143400000Y-100400000D01*
X145500000Y-147000000D02*
X144500000Y-148000000D01*
X106000000Y-148000000D02*
X105300000Y-148700000D01*
%TO.N,/Buttons/UpButton*%
X37705050Y-114602525D02*
X40610900Y-117508375D01*
X40610900Y-117508375D02*
X115500000Y-117508375D01*
X36500000Y-100500000D02*
X36500000Y-98875001D01*
%TO.N,/Buttons/HomeButton*%
X98000000Y-153000000D02*
X109500000Y-153000000D01*
X93875000Y-168000000D02*
X95500000Y-168000000D01*
%TO.N,Net-(U3-BOOT)*%
X95750000Y-106750000D02*
X97000000Y-108000000D01*
X97000000Y-108000000D02*
X102000000Y-108000000D01*
%TD*%
M02*
