%TF.GenerationSoftware,KiCad,Pcbnew,9.0.7*%
%TF.CreationDate,2026-02-12T15:19:17-05:00*%
%TF.ProjectId,OSHE-Reader-PCB,4f534845-2d52-4656-9164-65722d504342,rev?*%
%TF.SameCoordinates,Original*%
%TF.FileFunction,Legend,Bot*%
%TF.FilePolarity,Positive*%
%FSLAX46Y46*%
G04 Gerber Fmt 4.6, Leading zero omitted, Abs format (unit mm)*
G04 Created by KiCad (PCBNEW 9.0.7) date 2026-02-12 15:19:17*
%MOMM*%
%LPD*%
G01*
G04 APERTURE LIST*
%ADD10C,0.100000*%
%ADD11C,0.500000*%
%ADD12C,0.150000*%
%ADD13C,0.120000*%
%ADD14C,0.152400*%
%ADD15C,0.508000*%
G04 APERTURE END LIST*
D10*
X123096115Y-82347419D02*
X123096115Y-81347419D01*
X123096115Y-81347419D02*
X122762782Y-82061704D01*
X122762782Y-82061704D02*
X122429449Y-81347419D01*
X122429449Y-81347419D02*
X122429449Y-82347419D01*
X121524687Y-82347419D02*
X121524687Y-81823609D01*
X121524687Y-81823609D02*
X121572306Y-81728371D01*
X121572306Y-81728371D02*
X121667544Y-81680752D01*
X121667544Y-81680752D02*
X121858020Y-81680752D01*
X121858020Y-81680752D02*
X121953258Y-81728371D01*
X121524687Y-82299800D02*
X121619925Y-82347419D01*
X121619925Y-82347419D02*
X121858020Y-82347419D01*
X121858020Y-82347419D02*
X121953258Y-82299800D01*
X121953258Y-82299800D02*
X122000877Y-82204561D01*
X122000877Y-82204561D02*
X122000877Y-82109323D01*
X122000877Y-82109323D02*
X121953258Y-82014085D01*
X121953258Y-82014085D02*
X121858020Y-81966466D01*
X121858020Y-81966466D02*
X121619925Y-81966466D01*
X121619925Y-81966466D02*
X121524687Y-81918847D01*
X120619925Y-82347419D02*
X120619925Y-81347419D01*
X120619925Y-82299800D02*
X120715163Y-82347419D01*
X120715163Y-82347419D02*
X120905639Y-82347419D01*
X120905639Y-82347419D02*
X121000877Y-82299800D01*
X121000877Y-82299800D02*
X121048496Y-82252180D01*
X121048496Y-82252180D02*
X121096115Y-82156942D01*
X121096115Y-82156942D02*
X121096115Y-81871228D01*
X121096115Y-81871228D02*
X121048496Y-81775990D01*
X121048496Y-81775990D02*
X121000877Y-81728371D01*
X121000877Y-81728371D02*
X120905639Y-81680752D01*
X120905639Y-81680752D02*
X120715163Y-81680752D01*
X120715163Y-81680752D02*
X120619925Y-81728371D01*
X119762782Y-82299800D02*
X119858020Y-82347419D01*
X119858020Y-82347419D02*
X120048496Y-82347419D01*
X120048496Y-82347419D02*
X120143734Y-82299800D01*
X120143734Y-82299800D02*
X120191353Y-82204561D01*
X120191353Y-82204561D02*
X120191353Y-81823609D01*
X120191353Y-81823609D02*
X120143734Y-81728371D01*
X120143734Y-81728371D02*
X120048496Y-81680752D01*
X120048496Y-81680752D02*
X119858020Y-81680752D01*
X119858020Y-81680752D02*
X119762782Y-81728371D01*
X119762782Y-81728371D02*
X119715163Y-81823609D01*
X119715163Y-81823609D02*
X119715163Y-81918847D01*
X119715163Y-81918847D02*
X120191353Y-82014085D01*
X118524686Y-82347419D02*
X118524686Y-81347419D01*
X118524686Y-81728371D02*
X118429448Y-81680752D01*
X118429448Y-81680752D02*
X118238972Y-81680752D01*
X118238972Y-81680752D02*
X118143734Y-81728371D01*
X118143734Y-81728371D02*
X118096115Y-81775990D01*
X118096115Y-81775990D02*
X118048496Y-81871228D01*
X118048496Y-81871228D02*
X118048496Y-82156942D01*
X118048496Y-82156942D02*
X118096115Y-82252180D01*
X118096115Y-82252180D02*
X118143734Y-82299800D01*
X118143734Y-82299800D02*
X118238972Y-82347419D01*
X118238972Y-82347419D02*
X118429448Y-82347419D01*
X118429448Y-82347419D02*
X118524686Y-82299800D01*
X117715162Y-81680752D02*
X117477067Y-82347419D01*
X117238972Y-81680752D02*
X117477067Y-82347419D01*
X117477067Y-82347419D02*
X117572305Y-82585514D01*
X117572305Y-82585514D02*
X117619924Y-82633133D01*
X117619924Y-82633133D02*
X117715162Y-82680752D01*
X116858019Y-82252180D02*
X116810400Y-82299800D01*
X116810400Y-82299800D02*
X116858019Y-82347419D01*
X116858019Y-82347419D02*
X116905638Y-82299800D01*
X116905638Y-82299800D02*
X116858019Y-82252180D01*
X116858019Y-82252180D02*
X116858019Y-82347419D01*
X116858019Y-81728371D02*
X116810400Y-81775990D01*
X116810400Y-81775990D02*
X116858019Y-81823609D01*
X116858019Y-81823609D02*
X116905638Y-81775990D01*
X116905638Y-81775990D02*
X116858019Y-81728371D01*
X116858019Y-81728371D02*
X116858019Y-81823609D01*
X115619924Y-82347419D02*
X115619924Y-81347419D01*
X114715163Y-82347419D02*
X114715163Y-81823609D01*
X114715163Y-81823609D02*
X114762782Y-81728371D01*
X114762782Y-81728371D02*
X114858020Y-81680752D01*
X114858020Y-81680752D02*
X115048496Y-81680752D01*
X115048496Y-81680752D02*
X115143734Y-81728371D01*
X114715163Y-82299800D02*
X114810401Y-82347419D01*
X114810401Y-82347419D02*
X115048496Y-82347419D01*
X115048496Y-82347419D02*
X115143734Y-82299800D01*
X115143734Y-82299800D02*
X115191353Y-82204561D01*
X115191353Y-82204561D02*
X115191353Y-82109323D01*
X115191353Y-82109323D02*
X115143734Y-82014085D01*
X115143734Y-82014085D02*
X115048496Y-81966466D01*
X115048496Y-81966466D02*
X114810401Y-81966466D01*
X114810401Y-81966466D02*
X114715163Y-81918847D01*
X114238972Y-81680752D02*
X114238972Y-82347419D01*
X114238972Y-81775990D02*
X114191353Y-81728371D01*
X114191353Y-81728371D02*
X114096115Y-81680752D01*
X114096115Y-81680752D02*
X113953258Y-81680752D01*
X113953258Y-81680752D02*
X113858020Y-81728371D01*
X113858020Y-81728371D02*
X113810401Y-81823609D01*
X113810401Y-81823609D02*
X113810401Y-82347419D01*
X112572305Y-82347419D02*
X112572305Y-81347419D01*
X112572305Y-81347419D02*
X112238972Y-82061704D01*
X112238972Y-82061704D02*
X111905639Y-81347419D01*
X111905639Y-81347419D02*
X111905639Y-82347419D01*
X111429448Y-82347419D02*
X111429448Y-81680752D01*
X111429448Y-81347419D02*
X111477067Y-81395038D01*
X111477067Y-81395038D02*
X111429448Y-81442657D01*
X111429448Y-81442657D02*
X111381829Y-81395038D01*
X111381829Y-81395038D02*
X111429448Y-81347419D01*
X111429448Y-81347419D02*
X111429448Y-81442657D01*
X111096115Y-81680752D02*
X110715163Y-81680752D01*
X110953258Y-81347419D02*
X110953258Y-82204561D01*
X110953258Y-82204561D02*
X110905639Y-82299800D01*
X110905639Y-82299800D02*
X110810401Y-82347419D01*
X110810401Y-82347419D02*
X110715163Y-82347419D01*
X109953258Y-82299800D02*
X110048496Y-82347419D01*
X110048496Y-82347419D02*
X110238972Y-82347419D01*
X110238972Y-82347419D02*
X110334210Y-82299800D01*
X110334210Y-82299800D02*
X110381829Y-82252180D01*
X110381829Y-82252180D02*
X110429448Y-82156942D01*
X110429448Y-82156942D02*
X110429448Y-81871228D01*
X110429448Y-81871228D02*
X110381829Y-81775990D01*
X110381829Y-81775990D02*
X110334210Y-81728371D01*
X110334210Y-81728371D02*
X110238972Y-81680752D01*
X110238972Y-81680752D02*
X110048496Y-81680752D01*
X110048496Y-81680752D02*
X109953258Y-81728371D01*
X109524686Y-82347419D02*
X109524686Y-81347419D01*
X109096115Y-82347419D02*
X109096115Y-81823609D01*
X109096115Y-81823609D02*
X109143734Y-81728371D01*
X109143734Y-81728371D02*
X109238972Y-81680752D01*
X109238972Y-81680752D02*
X109381829Y-81680752D01*
X109381829Y-81680752D02*
X109477067Y-81728371D01*
X109477067Y-81728371D02*
X109524686Y-81775990D01*
X108238972Y-82299800D02*
X108334210Y-82347419D01*
X108334210Y-82347419D02*
X108524686Y-82347419D01*
X108524686Y-82347419D02*
X108619924Y-82299800D01*
X108619924Y-82299800D02*
X108667543Y-82204561D01*
X108667543Y-82204561D02*
X108667543Y-81823609D01*
X108667543Y-81823609D02*
X108619924Y-81728371D01*
X108619924Y-81728371D02*
X108524686Y-81680752D01*
X108524686Y-81680752D02*
X108334210Y-81680752D01*
X108334210Y-81680752D02*
X108238972Y-81728371D01*
X108238972Y-81728371D02*
X108191353Y-81823609D01*
X108191353Y-81823609D02*
X108191353Y-81918847D01*
X108191353Y-81918847D02*
X108667543Y-82014085D01*
X107619924Y-82347419D02*
X107715162Y-82299800D01*
X107715162Y-82299800D02*
X107762781Y-82204561D01*
X107762781Y-82204561D02*
X107762781Y-81347419D01*
X107096114Y-82347419D02*
X107191352Y-82299800D01*
X107191352Y-82299800D02*
X107238971Y-82204561D01*
X107238971Y-82204561D02*
X107238971Y-81347419D01*
X106667542Y-82299800D02*
X106667542Y-82347419D01*
X106667542Y-82347419D02*
X106715161Y-82442657D01*
X106715161Y-82442657D02*
X106762780Y-82490276D01*
X104905638Y-82347419D02*
X105238971Y-81871228D01*
X105477066Y-82347419D02*
X105477066Y-81347419D01*
X105477066Y-81347419D02*
X105096114Y-81347419D01*
X105096114Y-81347419D02*
X105000876Y-81395038D01*
X105000876Y-81395038D02*
X104953257Y-81442657D01*
X104953257Y-81442657D02*
X104905638Y-81537895D01*
X104905638Y-81537895D02*
X104905638Y-81680752D01*
X104905638Y-81680752D02*
X104953257Y-81775990D01*
X104953257Y-81775990D02*
X105000876Y-81823609D01*
X105000876Y-81823609D02*
X105096114Y-81871228D01*
X105096114Y-81871228D02*
X105477066Y-81871228D01*
X104477066Y-82347419D02*
X104477066Y-81680752D01*
X104477066Y-81347419D02*
X104524685Y-81395038D01*
X104524685Y-81395038D02*
X104477066Y-81442657D01*
X104477066Y-81442657D02*
X104429447Y-81395038D01*
X104429447Y-81395038D02*
X104477066Y-81347419D01*
X104477066Y-81347419D02*
X104477066Y-81442657D01*
X103858019Y-82347419D02*
X103953257Y-82299800D01*
X103953257Y-82299800D02*
X104000876Y-82204561D01*
X104000876Y-82204561D02*
X104000876Y-81347419D01*
X103096114Y-82299800D02*
X103191352Y-82347419D01*
X103191352Y-82347419D02*
X103381828Y-82347419D01*
X103381828Y-82347419D02*
X103477066Y-82299800D01*
X103477066Y-82299800D02*
X103524685Y-82204561D01*
X103524685Y-82204561D02*
X103524685Y-81823609D01*
X103524685Y-81823609D02*
X103477066Y-81728371D01*
X103477066Y-81728371D02*
X103381828Y-81680752D01*
X103381828Y-81680752D02*
X103191352Y-81680752D01*
X103191352Y-81680752D02*
X103096114Y-81728371D01*
X103096114Y-81728371D02*
X103048495Y-81823609D01*
X103048495Y-81823609D02*
X103048495Y-81918847D01*
X103048495Y-81918847D02*
X103524685Y-82014085D01*
X102715161Y-81680752D02*
X102477066Y-82347419D01*
X102238971Y-81680752D02*
X102477066Y-82347419D01*
X102477066Y-82347419D02*
X102572304Y-82585514D01*
X102572304Y-82585514D02*
X102619923Y-82633133D01*
X102619923Y-82633133D02*
X102715161Y-82680752D01*
X101096113Y-82347419D02*
X101096113Y-81347419D01*
X101096113Y-81347419D02*
X100715161Y-81347419D01*
X100715161Y-81347419D02*
X100619923Y-81395038D01*
X100619923Y-81395038D02*
X100572304Y-81442657D01*
X100572304Y-81442657D02*
X100524685Y-81537895D01*
X100524685Y-81537895D02*
X100524685Y-81680752D01*
X100524685Y-81680752D02*
X100572304Y-81775990D01*
X100572304Y-81775990D02*
X100619923Y-81823609D01*
X100619923Y-81823609D02*
X100715161Y-81871228D01*
X100715161Y-81871228D02*
X101096113Y-81871228D01*
X99667542Y-82347419D02*
X99667542Y-81823609D01*
X99667542Y-81823609D02*
X99715161Y-81728371D01*
X99715161Y-81728371D02*
X99810399Y-81680752D01*
X99810399Y-81680752D02*
X100000875Y-81680752D01*
X100000875Y-81680752D02*
X100096113Y-81728371D01*
X99667542Y-82299800D02*
X99762780Y-82347419D01*
X99762780Y-82347419D02*
X100000875Y-82347419D01*
X100000875Y-82347419D02*
X100096113Y-82299800D01*
X100096113Y-82299800D02*
X100143732Y-82204561D01*
X100143732Y-82204561D02*
X100143732Y-82109323D01*
X100143732Y-82109323D02*
X100096113Y-82014085D01*
X100096113Y-82014085D02*
X100000875Y-81966466D01*
X100000875Y-81966466D02*
X99762780Y-81966466D01*
X99762780Y-81966466D02*
X99667542Y-81918847D01*
X99334208Y-81680752D02*
X98953256Y-81680752D01*
X99191351Y-81347419D02*
X99191351Y-82204561D01*
X99191351Y-82204561D02*
X99143732Y-82299800D01*
X99143732Y-82299800D02*
X99048494Y-82347419D01*
X99048494Y-82347419D02*
X98953256Y-82347419D01*
X98762779Y-81680752D02*
X98381827Y-81680752D01*
X98619922Y-81347419D02*
X98619922Y-82204561D01*
X98619922Y-82204561D02*
X98572303Y-82299800D01*
X98572303Y-82299800D02*
X98477065Y-82347419D01*
X98477065Y-82347419D02*
X98381827Y-82347419D01*
X97667541Y-82299800D02*
X97762779Y-82347419D01*
X97762779Y-82347419D02*
X97953255Y-82347419D01*
X97953255Y-82347419D02*
X98048493Y-82299800D01*
X98048493Y-82299800D02*
X98096112Y-82204561D01*
X98096112Y-82204561D02*
X98096112Y-81823609D01*
X98096112Y-81823609D02*
X98048493Y-81728371D01*
X98048493Y-81728371D02*
X97953255Y-81680752D01*
X97953255Y-81680752D02*
X97762779Y-81680752D01*
X97762779Y-81680752D02*
X97667541Y-81728371D01*
X97667541Y-81728371D02*
X97619922Y-81823609D01*
X97619922Y-81823609D02*
X97619922Y-81918847D01*
X97619922Y-81918847D02*
X98096112Y-82014085D01*
X97191350Y-82347419D02*
X97191350Y-81680752D01*
X97191350Y-81871228D02*
X97143731Y-81775990D01*
X97143731Y-81775990D02*
X97096112Y-81728371D01*
X97096112Y-81728371D02*
X97000874Y-81680752D01*
X97000874Y-81680752D02*
X96905636Y-81680752D01*
X96619921Y-82299800D02*
X96524683Y-82347419D01*
X96524683Y-82347419D02*
X96334207Y-82347419D01*
X96334207Y-82347419D02*
X96238969Y-82299800D01*
X96238969Y-82299800D02*
X96191350Y-82204561D01*
X96191350Y-82204561D02*
X96191350Y-82156942D01*
X96191350Y-82156942D02*
X96238969Y-82061704D01*
X96238969Y-82061704D02*
X96334207Y-82014085D01*
X96334207Y-82014085D02*
X96477064Y-82014085D01*
X96477064Y-82014085D02*
X96572302Y-81966466D01*
X96572302Y-81966466D02*
X96619921Y-81871228D01*
X96619921Y-81871228D02*
X96619921Y-81823609D01*
X96619921Y-81823609D02*
X96572302Y-81728371D01*
X96572302Y-81728371D02*
X96477064Y-81680752D01*
X96477064Y-81680752D02*
X96334207Y-81680752D01*
X96334207Y-81680752D02*
X96238969Y-81728371D01*
X95619921Y-82347419D02*
X95715159Y-82299800D01*
X95715159Y-82299800D02*
X95762778Y-82252180D01*
X95762778Y-82252180D02*
X95810397Y-82156942D01*
X95810397Y-82156942D02*
X95810397Y-81871228D01*
X95810397Y-81871228D02*
X95762778Y-81775990D01*
X95762778Y-81775990D02*
X95715159Y-81728371D01*
X95715159Y-81728371D02*
X95619921Y-81680752D01*
X95619921Y-81680752D02*
X95477064Y-81680752D01*
X95477064Y-81680752D02*
X95381826Y-81728371D01*
X95381826Y-81728371D02*
X95334207Y-81775990D01*
X95334207Y-81775990D02*
X95286588Y-81871228D01*
X95286588Y-81871228D02*
X95286588Y-82156942D01*
X95286588Y-82156942D02*
X95334207Y-82252180D01*
X95334207Y-82252180D02*
X95381826Y-82299800D01*
X95381826Y-82299800D02*
X95477064Y-82347419D01*
X95477064Y-82347419D02*
X95619921Y-82347419D01*
X94858016Y-81680752D02*
X94858016Y-82347419D01*
X94858016Y-81775990D02*
X94810397Y-81728371D01*
X94810397Y-81728371D02*
X94715159Y-81680752D01*
X94715159Y-81680752D02*
X94572302Y-81680752D01*
X94572302Y-81680752D02*
X94477064Y-81728371D01*
X94477064Y-81728371D02*
X94429445Y-81823609D01*
X94429445Y-81823609D02*
X94429445Y-82347419D01*
X93905635Y-82299800D02*
X93905635Y-82347419D01*
X93905635Y-82347419D02*
X93953254Y-82442657D01*
X93953254Y-82442657D02*
X94000873Y-82490276D01*
X92762778Y-82061704D02*
X92286588Y-82061704D01*
X92858016Y-82347419D02*
X92524683Y-81347419D01*
X92524683Y-81347419D02*
X92191350Y-82347419D01*
X91715159Y-82347419D02*
X91810397Y-82299800D01*
X91810397Y-82299800D02*
X91858016Y-82204561D01*
X91858016Y-82204561D02*
X91858016Y-81347419D01*
X91429444Y-81680752D02*
X91191349Y-82347419D01*
X90953254Y-81680752D02*
X91191349Y-82347419D01*
X91191349Y-82347419D02*
X91286587Y-82585514D01*
X91286587Y-82585514D02*
X91334206Y-82633133D01*
X91334206Y-82633133D02*
X91429444Y-82680752D01*
X90143730Y-82299800D02*
X90238968Y-82347419D01*
X90238968Y-82347419D02*
X90429444Y-82347419D01*
X90429444Y-82347419D02*
X90524682Y-82299800D01*
X90524682Y-82299800D02*
X90572301Y-82252180D01*
X90572301Y-82252180D02*
X90619920Y-82156942D01*
X90619920Y-82156942D02*
X90619920Y-81871228D01*
X90619920Y-81871228D02*
X90572301Y-81775990D01*
X90572301Y-81775990D02*
X90524682Y-81728371D01*
X90524682Y-81728371D02*
X90429444Y-81680752D01*
X90429444Y-81680752D02*
X90238968Y-81680752D01*
X90238968Y-81680752D02*
X90143730Y-81728371D01*
X89715158Y-82347419D02*
X89715158Y-81680752D01*
X89715158Y-81347419D02*
X89762777Y-81395038D01*
X89762777Y-81395038D02*
X89715158Y-81442657D01*
X89715158Y-81442657D02*
X89667539Y-81395038D01*
X89667539Y-81395038D02*
X89715158Y-81347419D01*
X89715158Y-81347419D02*
X89715158Y-81442657D01*
X88810397Y-82347419D02*
X88810397Y-81823609D01*
X88810397Y-81823609D02*
X88858016Y-81728371D01*
X88858016Y-81728371D02*
X88953254Y-81680752D01*
X88953254Y-81680752D02*
X89143730Y-81680752D01*
X89143730Y-81680752D02*
X89238968Y-81728371D01*
X88810397Y-82299800D02*
X88905635Y-82347419D01*
X88905635Y-82347419D02*
X89143730Y-82347419D01*
X89143730Y-82347419D02*
X89238968Y-82299800D01*
X89238968Y-82299800D02*
X89286587Y-82204561D01*
X89286587Y-82204561D02*
X89286587Y-82109323D01*
X89286587Y-82109323D02*
X89238968Y-82014085D01*
X89238968Y-82014085D02*
X89143730Y-81966466D01*
X89143730Y-81966466D02*
X88905635Y-81966466D01*
X88905635Y-81966466D02*
X88810397Y-81918847D01*
X87048492Y-81395038D02*
X87143730Y-81347419D01*
X87143730Y-81347419D02*
X87286587Y-81347419D01*
X87286587Y-81347419D02*
X87429444Y-81395038D01*
X87429444Y-81395038D02*
X87524682Y-81490276D01*
X87524682Y-81490276D02*
X87572301Y-81585514D01*
X87572301Y-81585514D02*
X87619920Y-81775990D01*
X87619920Y-81775990D02*
X87619920Y-81918847D01*
X87619920Y-81918847D02*
X87572301Y-82109323D01*
X87572301Y-82109323D02*
X87524682Y-82204561D01*
X87524682Y-82204561D02*
X87429444Y-82299800D01*
X87429444Y-82299800D02*
X87286587Y-82347419D01*
X87286587Y-82347419D02*
X87191349Y-82347419D01*
X87191349Y-82347419D02*
X87048492Y-82299800D01*
X87048492Y-82299800D02*
X87000873Y-82252180D01*
X87000873Y-82252180D02*
X87000873Y-81918847D01*
X87000873Y-81918847D02*
X87191349Y-81918847D01*
X86572301Y-82347419D02*
X86572301Y-81680752D01*
X86572301Y-81871228D02*
X86524682Y-81775990D01*
X86524682Y-81775990D02*
X86477063Y-81728371D01*
X86477063Y-81728371D02*
X86381825Y-81680752D01*
X86381825Y-81680752D02*
X86286587Y-81680752D01*
X85572301Y-82299800D02*
X85667539Y-82347419D01*
X85667539Y-82347419D02*
X85858015Y-82347419D01*
X85858015Y-82347419D02*
X85953253Y-82299800D01*
X85953253Y-82299800D02*
X86000872Y-82204561D01*
X86000872Y-82204561D02*
X86000872Y-81823609D01*
X86000872Y-81823609D02*
X85953253Y-81728371D01*
X85953253Y-81728371D02*
X85858015Y-81680752D01*
X85858015Y-81680752D02*
X85667539Y-81680752D01*
X85667539Y-81680752D02*
X85572301Y-81728371D01*
X85572301Y-81728371D02*
X85524682Y-81823609D01*
X85524682Y-81823609D02*
X85524682Y-81918847D01*
X85524682Y-81918847D02*
X86000872Y-82014085D01*
X84715158Y-82299800D02*
X84810396Y-82347419D01*
X84810396Y-82347419D02*
X85000872Y-82347419D01*
X85000872Y-82347419D02*
X85096110Y-82299800D01*
X85096110Y-82299800D02*
X85143729Y-82204561D01*
X85143729Y-82204561D02*
X85143729Y-81823609D01*
X85143729Y-81823609D02*
X85096110Y-81728371D01*
X85096110Y-81728371D02*
X85000872Y-81680752D01*
X85000872Y-81680752D02*
X84810396Y-81680752D01*
X84810396Y-81680752D02*
X84715158Y-81728371D01*
X84715158Y-81728371D02*
X84667539Y-81823609D01*
X84667539Y-81823609D02*
X84667539Y-81918847D01*
X84667539Y-81918847D02*
X85143729Y-82014085D01*
X84238967Y-82347419D02*
X84238967Y-81680752D01*
X84238967Y-81871228D02*
X84191348Y-81775990D01*
X84191348Y-81775990D02*
X84143729Y-81728371D01*
X84143729Y-81728371D02*
X84048491Y-81680752D01*
X84048491Y-81680752D02*
X83953253Y-81680752D01*
X83572300Y-82299800D02*
X83572300Y-82347419D01*
X83572300Y-82347419D02*
X83619919Y-82442657D01*
X83619919Y-82442657D02*
X83667538Y-82490276D01*
X82191348Y-81347419D02*
X82000872Y-81347419D01*
X82000872Y-81347419D02*
X81905634Y-81395038D01*
X81905634Y-81395038D02*
X81810396Y-81490276D01*
X81810396Y-81490276D02*
X81762777Y-81680752D01*
X81762777Y-81680752D02*
X81762777Y-82014085D01*
X81762777Y-82014085D02*
X81810396Y-82204561D01*
X81810396Y-82204561D02*
X81905634Y-82299800D01*
X81905634Y-82299800D02*
X82000872Y-82347419D01*
X82000872Y-82347419D02*
X82191348Y-82347419D01*
X82191348Y-82347419D02*
X82286586Y-82299800D01*
X82286586Y-82299800D02*
X82381824Y-82204561D01*
X82381824Y-82204561D02*
X82429443Y-82014085D01*
X82429443Y-82014085D02*
X82429443Y-81680752D01*
X82429443Y-81680752D02*
X82381824Y-81490276D01*
X82381824Y-81490276D02*
X82286586Y-81395038D01*
X82286586Y-81395038D02*
X82191348Y-81347419D01*
X81429443Y-81680752D02*
X81238967Y-82347419D01*
X81238967Y-82347419D02*
X81048491Y-81871228D01*
X81048491Y-81871228D02*
X80858015Y-82347419D01*
X80858015Y-82347419D02*
X80667539Y-81680752D01*
X79905634Y-82299800D02*
X80000872Y-82347419D01*
X80000872Y-82347419D02*
X80191348Y-82347419D01*
X80191348Y-82347419D02*
X80286586Y-82299800D01*
X80286586Y-82299800D02*
X80334205Y-82204561D01*
X80334205Y-82204561D02*
X80334205Y-81823609D01*
X80334205Y-81823609D02*
X80286586Y-81728371D01*
X80286586Y-81728371D02*
X80191348Y-81680752D01*
X80191348Y-81680752D02*
X80000872Y-81680752D01*
X80000872Y-81680752D02*
X79905634Y-81728371D01*
X79905634Y-81728371D02*
X79858015Y-81823609D01*
X79858015Y-81823609D02*
X79858015Y-81918847D01*
X79858015Y-81918847D02*
X80334205Y-82014085D01*
X79429443Y-81680752D02*
X79429443Y-82347419D01*
X79429443Y-81775990D02*
X79381824Y-81728371D01*
X79381824Y-81728371D02*
X79286586Y-81680752D01*
X79286586Y-81680752D02*
X79143729Y-81680752D01*
X79143729Y-81680752D02*
X79048491Y-81728371D01*
X79048491Y-81728371D02*
X79000872Y-81823609D01*
X79000872Y-81823609D02*
X79000872Y-82347419D01*
X77762776Y-82347419D02*
X77762776Y-81347419D01*
X77762776Y-81347419D02*
X77524681Y-81347419D01*
X77524681Y-81347419D02*
X77381824Y-81395038D01*
X77381824Y-81395038D02*
X77286586Y-81490276D01*
X77286586Y-81490276D02*
X77238967Y-81585514D01*
X77238967Y-81585514D02*
X77191348Y-81775990D01*
X77191348Y-81775990D02*
X77191348Y-81918847D01*
X77191348Y-81918847D02*
X77238967Y-82109323D01*
X77238967Y-82109323D02*
X77286586Y-82204561D01*
X77286586Y-82204561D02*
X77381824Y-82299800D01*
X77381824Y-82299800D02*
X77524681Y-82347419D01*
X77524681Y-82347419D02*
X77762776Y-82347419D01*
X76619919Y-82347419D02*
X76715157Y-82299800D01*
X76715157Y-82299800D02*
X76762776Y-82252180D01*
X76762776Y-82252180D02*
X76810395Y-82156942D01*
X76810395Y-82156942D02*
X76810395Y-81871228D01*
X76810395Y-81871228D02*
X76762776Y-81775990D01*
X76762776Y-81775990D02*
X76715157Y-81728371D01*
X76715157Y-81728371D02*
X76619919Y-81680752D01*
X76619919Y-81680752D02*
X76477062Y-81680752D01*
X76477062Y-81680752D02*
X76381824Y-81728371D01*
X76381824Y-81728371D02*
X76334205Y-81775990D01*
X76334205Y-81775990D02*
X76286586Y-81871228D01*
X76286586Y-81871228D02*
X76286586Y-82156942D01*
X76286586Y-82156942D02*
X76334205Y-82252180D01*
X76334205Y-82252180D02*
X76381824Y-82299800D01*
X76381824Y-82299800D02*
X76477062Y-82347419D01*
X76477062Y-82347419D02*
X76619919Y-82347419D01*
X75429443Y-82347419D02*
X75429443Y-81347419D01*
X75429443Y-82299800D02*
X75524681Y-82347419D01*
X75524681Y-82347419D02*
X75715157Y-82347419D01*
X75715157Y-82347419D02*
X75810395Y-82299800D01*
X75810395Y-82299800D02*
X75858014Y-82252180D01*
X75858014Y-82252180D02*
X75905633Y-82156942D01*
X75905633Y-82156942D02*
X75905633Y-81871228D01*
X75905633Y-81871228D02*
X75858014Y-81775990D01*
X75858014Y-81775990D02*
X75810395Y-81728371D01*
X75810395Y-81728371D02*
X75715157Y-81680752D01*
X75715157Y-81680752D02*
X75524681Y-81680752D01*
X75524681Y-81680752D02*
X75429443Y-81728371D01*
X75000871Y-82299800D02*
X74905633Y-82347419D01*
X74905633Y-82347419D02*
X74715157Y-82347419D01*
X74715157Y-82347419D02*
X74619919Y-82299800D01*
X74619919Y-82299800D02*
X74572300Y-82204561D01*
X74572300Y-82204561D02*
X74572300Y-82156942D01*
X74572300Y-82156942D02*
X74619919Y-82061704D01*
X74619919Y-82061704D02*
X74715157Y-82014085D01*
X74715157Y-82014085D02*
X74858014Y-82014085D01*
X74858014Y-82014085D02*
X74953252Y-81966466D01*
X74953252Y-81966466D02*
X75000871Y-81871228D01*
X75000871Y-81871228D02*
X75000871Y-81823609D01*
X75000871Y-81823609D02*
X74953252Y-81728371D01*
X74953252Y-81728371D02*
X74858014Y-81680752D01*
X74858014Y-81680752D02*
X74715157Y-81680752D01*
X74715157Y-81680752D02*
X74619919Y-81728371D01*
X74000871Y-82347419D02*
X74096109Y-82299800D01*
X74096109Y-82299800D02*
X74143728Y-82252180D01*
X74143728Y-82252180D02*
X74191347Y-82156942D01*
X74191347Y-82156942D02*
X74191347Y-81871228D01*
X74191347Y-81871228D02*
X74143728Y-81775990D01*
X74143728Y-81775990D02*
X74096109Y-81728371D01*
X74096109Y-81728371D02*
X74000871Y-81680752D01*
X74000871Y-81680752D02*
X73858014Y-81680752D01*
X73858014Y-81680752D02*
X73762776Y-81728371D01*
X73762776Y-81728371D02*
X73715157Y-81775990D01*
X73715157Y-81775990D02*
X73667538Y-81871228D01*
X73667538Y-81871228D02*
X73667538Y-82156942D01*
X73667538Y-82156942D02*
X73715157Y-82252180D01*
X73715157Y-82252180D02*
X73762776Y-82299800D01*
X73762776Y-82299800D02*
X73858014Y-82347419D01*
X73858014Y-82347419D02*
X74000871Y-82347419D01*
X73238966Y-81680752D02*
X73238966Y-82347419D01*
X73238966Y-81775990D02*
X73191347Y-81728371D01*
X73191347Y-81728371D02*
X73096109Y-81680752D01*
X73096109Y-81680752D02*
X72953252Y-81680752D01*
X72953252Y-81680752D02*
X72858014Y-81728371D01*
X72858014Y-81728371D02*
X72810395Y-81823609D01*
X72810395Y-81823609D02*
X72810395Y-82347419D01*
X72286585Y-82299800D02*
X72286585Y-82347419D01*
X72286585Y-82347419D02*
X72334204Y-82442657D01*
X72334204Y-82442657D02*
X72381823Y-82490276D01*
X71096109Y-82347419D02*
X71096109Y-81347419D01*
X70191348Y-82347419D02*
X70191348Y-81823609D01*
X70191348Y-81823609D02*
X70238967Y-81728371D01*
X70238967Y-81728371D02*
X70334205Y-81680752D01*
X70334205Y-81680752D02*
X70524681Y-81680752D01*
X70524681Y-81680752D02*
X70619919Y-81728371D01*
X70191348Y-82299800D02*
X70286586Y-82347419D01*
X70286586Y-82347419D02*
X70524681Y-82347419D01*
X70524681Y-82347419D02*
X70619919Y-82299800D01*
X70619919Y-82299800D02*
X70667538Y-82204561D01*
X70667538Y-82204561D02*
X70667538Y-82109323D01*
X70667538Y-82109323D02*
X70619919Y-82014085D01*
X70619919Y-82014085D02*
X70524681Y-81966466D01*
X70524681Y-81966466D02*
X70286586Y-81966466D01*
X70286586Y-81966466D02*
X70191348Y-81918847D01*
X69715157Y-81680752D02*
X69715157Y-82347419D01*
X69715157Y-81775990D02*
X69667538Y-81728371D01*
X69667538Y-81728371D02*
X69572300Y-81680752D01*
X69572300Y-81680752D02*
X69429443Y-81680752D01*
X69429443Y-81680752D02*
X69334205Y-81728371D01*
X69334205Y-81728371D02*
X69286586Y-81823609D01*
X69286586Y-81823609D02*
X69286586Y-82347419D01*
X67477062Y-82347419D02*
X67810395Y-81871228D01*
X68048490Y-82347419D02*
X68048490Y-81347419D01*
X68048490Y-81347419D02*
X67667538Y-81347419D01*
X67667538Y-81347419D02*
X67572300Y-81395038D01*
X67572300Y-81395038D02*
X67524681Y-81442657D01*
X67524681Y-81442657D02*
X67477062Y-81537895D01*
X67477062Y-81537895D02*
X67477062Y-81680752D01*
X67477062Y-81680752D02*
X67524681Y-81775990D01*
X67524681Y-81775990D02*
X67572300Y-81823609D01*
X67572300Y-81823609D02*
X67667538Y-81871228D01*
X67667538Y-81871228D02*
X68048490Y-81871228D01*
X66619919Y-82347419D02*
X66619919Y-81823609D01*
X66619919Y-81823609D02*
X66667538Y-81728371D01*
X66667538Y-81728371D02*
X66762776Y-81680752D01*
X66762776Y-81680752D02*
X66953252Y-81680752D01*
X66953252Y-81680752D02*
X67048490Y-81728371D01*
X66619919Y-82299800D02*
X66715157Y-82347419D01*
X66715157Y-82347419D02*
X66953252Y-82347419D01*
X66953252Y-82347419D02*
X67048490Y-82299800D01*
X67048490Y-82299800D02*
X67096109Y-82204561D01*
X67096109Y-82204561D02*
X67096109Y-82109323D01*
X67096109Y-82109323D02*
X67048490Y-82014085D01*
X67048490Y-82014085D02*
X66953252Y-81966466D01*
X66953252Y-81966466D02*
X66715157Y-81966466D01*
X66715157Y-81966466D02*
X66619919Y-81918847D01*
X66143728Y-81680752D02*
X66143728Y-82347419D01*
X66143728Y-81775990D02*
X66096109Y-81728371D01*
X66096109Y-81728371D02*
X66000871Y-81680752D01*
X66000871Y-81680752D02*
X65858014Y-81680752D01*
X65858014Y-81680752D02*
X65762776Y-81728371D01*
X65762776Y-81728371D02*
X65715157Y-81823609D01*
X65715157Y-81823609D02*
X65715157Y-82347419D01*
X65286585Y-82299800D02*
X65191347Y-82347419D01*
X65191347Y-82347419D02*
X65000871Y-82347419D01*
X65000871Y-82347419D02*
X64905633Y-82299800D01*
X64905633Y-82299800D02*
X64858014Y-82204561D01*
X64858014Y-82204561D02*
X64858014Y-82156942D01*
X64858014Y-82156942D02*
X64905633Y-82061704D01*
X64905633Y-82061704D02*
X65000871Y-82014085D01*
X65000871Y-82014085D02*
X65143728Y-82014085D01*
X65143728Y-82014085D02*
X65238966Y-81966466D01*
X65238966Y-81966466D02*
X65286585Y-81871228D01*
X65286585Y-81871228D02*
X65286585Y-81823609D01*
X65286585Y-81823609D02*
X65238966Y-81728371D01*
X65238966Y-81728371D02*
X65143728Y-81680752D01*
X65143728Y-81680752D02*
X65000871Y-81680752D01*
X65000871Y-81680752D02*
X64905633Y-81728371D01*
X64572299Y-81680752D02*
X64191347Y-81680752D01*
X64429442Y-81347419D02*
X64429442Y-82204561D01*
X64429442Y-82204561D02*
X64381823Y-82299800D01*
X64381823Y-82299800D02*
X64286585Y-82347419D01*
X64286585Y-82347419D02*
X64191347Y-82347419D01*
X63429442Y-82347419D02*
X63429442Y-81823609D01*
X63429442Y-81823609D02*
X63477061Y-81728371D01*
X63477061Y-81728371D02*
X63572299Y-81680752D01*
X63572299Y-81680752D02*
X63762775Y-81680752D01*
X63762775Y-81680752D02*
X63858013Y-81728371D01*
X63429442Y-82299800D02*
X63524680Y-82347419D01*
X63524680Y-82347419D02*
X63762775Y-82347419D01*
X63762775Y-82347419D02*
X63858013Y-82299800D01*
X63858013Y-82299800D02*
X63905632Y-82204561D01*
X63905632Y-82204561D02*
X63905632Y-82109323D01*
X63905632Y-82109323D02*
X63858013Y-82014085D01*
X63858013Y-82014085D02*
X63762775Y-81966466D01*
X63762775Y-81966466D02*
X63524680Y-81966466D01*
X63524680Y-81966466D02*
X63429442Y-81918847D01*
X62524680Y-82347419D02*
X62524680Y-81347419D01*
X62524680Y-82299800D02*
X62619918Y-82347419D01*
X62619918Y-82347419D02*
X62810394Y-82347419D01*
X62810394Y-82347419D02*
X62905632Y-82299800D01*
X62905632Y-82299800D02*
X62953251Y-82252180D01*
X62953251Y-82252180D02*
X63000870Y-82156942D01*
X63000870Y-82156942D02*
X63000870Y-81871228D01*
X63000870Y-81871228D02*
X62953251Y-81775990D01*
X62953251Y-81775990D02*
X62905632Y-81728371D01*
X62905632Y-81728371D02*
X62810394Y-81680752D01*
X62810394Y-81680752D02*
X62619918Y-81680752D01*
X62619918Y-81680752D02*
X62524680Y-81728371D01*
X61905632Y-82347419D02*
X62000870Y-82299800D01*
X62000870Y-82299800D02*
X62048489Y-82204561D01*
X62048489Y-82204561D02*
X62048489Y-81347419D01*
X61143727Y-82299800D02*
X61238965Y-82347419D01*
X61238965Y-82347419D02*
X61429441Y-82347419D01*
X61429441Y-82347419D02*
X61524679Y-82299800D01*
X61524679Y-82299800D02*
X61572298Y-82204561D01*
X61572298Y-82204561D02*
X61572298Y-81823609D01*
X61572298Y-81823609D02*
X61524679Y-81728371D01*
X61524679Y-81728371D02*
X61429441Y-81680752D01*
X61429441Y-81680752D02*
X61238965Y-81680752D01*
X61238965Y-81680752D02*
X61143727Y-81728371D01*
X61143727Y-81728371D02*
X61096108Y-81823609D01*
X61096108Y-81823609D02*
X61096108Y-81918847D01*
X61096108Y-81918847D02*
X61572298Y-82014085D01*
X60667536Y-82347419D02*
X60667536Y-81680752D01*
X60667536Y-81871228D02*
X60619917Y-81775990D01*
X60619917Y-81775990D02*
X60572298Y-81728371D01*
X60572298Y-81728371D02*
X60477060Y-81680752D01*
X60477060Y-81680752D02*
X60381822Y-81680752D01*
D11*
X75091682Y-173056857D02*
X74520254Y-173056857D01*
X74520254Y-173056857D02*
X74234539Y-173199714D01*
X74234539Y-173199714D02*
X73948825Y-173485428D01*
X73948825Y-173485428D02*
X73805968Y-174056857D01*
X73805968Y-174056857D02*
X73805968Y-175056857D01*
X73805968Y-175056857D02*
X73948825Y-175628285D01*
X73948825Y-175628285D02*
X74234539Y-175914000D01*
X74234539Y-175914000D02*
X74520254Y-176056857D01*
X74520254Y-176056857D02*
X75091682Y-176056857D01*
X75091682Y-176056857D02*
X75377397Y-175914000D01*
X75377397Y-175914000D02*
X75663111Y-175628285D01*
X75663111Y-175628285D02*
X75805968Y-175056857D01*
X75805968Y-175056857D02*
X75805968Y-174056857D01*
X75805968Y-174056857D02*
X75663111Y-173485428D01*
X75663111Y-173485428D02*
X75377397Y-173199714D01*
X75377397Y-173199714D02*
X75091682Y-173056857D01*
X72663111Y-175914000D02*
X72234540Y-176056857D01*
X72234540Y-176056857D02*
X71520254Y-176056857D01*
X71520254Y-176056857D02*
X71234540Y-175914000D01*
X71234540Y-175914000D02*
X71091682Y-175771142D01*
X71091682Y-175771142D02*
X70948825Y-175485428D01*
X70948825Y-175485428D02*
X70948825Y-175199714D01*
X70948825Y-175199714D02*
X71091682Y-174914000D01*
X71091682Y-174914000D02*
X71234540Y-174771142D01*
X71234540Y-174771142D02*
X71520254Y-174628285D01*
X71520254Y-174628285D02*
X72091682Y-174485428D01*
X72091682Y-174485428D02*
X72377397Y-174342571D01*
X72377397Y-174342571D02*
X72520254Y-174199714D01*
X72520254Y-174199714D02*
X72663111Y-173914000D01*
X72663111Y-173914000D02*
X72663111Y-173628285D01*
X72663111Y-173628285D02*
X72520254Y-173342571D01*
X72520254Y-173342571D02*
X72377397Y-173199714D01*
X72377397Y-173199714D02*
X72091682Y-173056857D01*
X72091682Y-173056857D02*
X71377397Y-173056857D01*
X71377397Y-173056857D02*
X70948825Y-173199714D01*
X69663111Y-176056857D02*
X69663111Y-173056857D01*
X69663111Y-174485428D02*
X67948825Y-174485428D01*
X67948825Y-176056857D02*
X67948825Y-173056857D01*
X66520254Y-174485428D02*
X65520254Y-174485428D01*
X65091682Y-176056857D02*
X66520254Y-176056857D01*
X66520254Y-176056857D02*
X66520254Y-173056857D01*
X66520254Y-173056857D02*
X65091682Y-173056857D01*
X63805968Y-174914000D02*
X61520254Y-174914000D01*
X58377396Y-176056857D02*
X59377396Y-174628285D01*
X60091682Y-176056857D02*
X60091682Y-173056857D01*
X60091682Y-173056857D02*
X58948825Y-173056857D01*
X58948825Y-173056857D02*
X58663110Y-173199714D01*
X58663110Y-173199714D02*
X58520253Y-173342571D01*
X58520253Y-173342571D02*
X58377396Y-173628285D01*
X58377396Y-173628285D02*
X58377396Y-174056857D01*
X58377396Y-174056857D02*
X58520253Y-174342571D01*
X58520253Y-174342571D02*
X58663110Y-174485428D01*
X58663110Y-174485428D02*
X58948825Y-174628285D01*
X58948825Y-174628285D02*
X60091682Y-174628285D01*
X57091682Y-174485428D02*
X56091682Y-174485428D01*
X55663110Y-176056857D02*
X57091682Y-176056857D01*
X57091682Y-176056857D02*
X57091682Y-173056857D01*
X57091682Y-173056857D02*
X55663110Y-173056857D01*
X54520253Y-175199714D02*
X53091682Y-175199714D01*
X54805967Y-176056857D02*
X53805967Y-173056857D01*
X53805967Y-173056857D02*
X52805967Y-176056857D01*
X51805967Y-176056857D02*
X51805967Y-173056857D01*
X51805967Y-173056857D02*
X51091681Y-173056857D01*
X51091681Y-173056857D02*
X50663110Y-173199714D01*
X50663110Y-173199714D02*
X50377395Y-173485428D01*
X50377395Y-173485428D02*
X50234538Y-173771142D01*
X50234538Y-173771142D02*
X50091681Y-174342571D01*
X50091681Y-174342571D02*
X50091681Y-174771142D01*
X50091681Y-174771142D02*
X50234538Y-175342571D01*
X50234538Y-175342571D02*
X50377395Y-175628285D01*
X50377395Y-175628285D02*
X50663110Y-175914000D01*
X50663110Y-175914000D02*
X51091681Y-176056857D01*
X51091681Y-176056857D02*
X51805967Y-176056857D01*
X48805967Y-174485428D02*
X47805967Y-174485428D01*
X47377395Y-176056857D02*
X48805967Y-176056857D01*
X48805967Y-176056857D02*
X48805967Y-173056857D01*
X48805967Y-173056857D02*
X47377395Y-173056857D01*
X44377395Y-176056857D02*
X45377395Y-174628285D01*
X46091681Y-176056857D02*
X46091681Y-173056857D01*
X46091681Y-173056857D02*
X44948824Y-173056857D01*
X44948824Y-173056857D02*
X44663109Y-173199714D01*
X44663109Y-173199714D02*
X44520252Y-173342571D01*
X44520252Y-173342571D02*
X44377395Y-173628285D01*
X44377395Y-173628285D02*
X44377395Y-174056857D01*
X44377395Y-174056857D02*
X44520252Y-174342571D01*
X44520252Y-174342571D02*
X44663109Y-174485428D01*
X44663109Y-174485428D02*
X44948824Y-174628285D01*
X44948824Y-174628285D02*
X46091681Y-174628285D01*
D12*
X141917719Y-122015242D02*
X141441528Y-121681909D01*
X141917719Y-121443814D02*
X140917719Y-121443814D01*
X140917719Y-121443814D02*
X140917719Y-121824766D01*
X140917719Y-121824766D02*
X140965338Y-121920004D01*
X140965338Y-121920004D02*
X141012957Y-121967623D01*
X141012957Y-121967623D02*
X141108195Y-122015242D01*
X141108195Y-122015242D02*
X141251052Y-122015242D01*
X141251052Y-122015242D02*
X141346290Y-121967623D01*
X141346290Y-121967623D02*
X141393909Y-121920004D01*
X141393909Y-121920004D02*
X141441528Y-121824766D01*
X141441528Y-121824766D02*
X141441528Y-121443814D01*
X141917719Y-122967623D02*
X141917719Y-122396195D01*
X141917719Y-122681909D02*
X140917719Y-122681909D01*
X140917719Y-122681909D02*
X141060576Y-122586671D01*
X141060576Y-122586671D02*
X141155814Y-122491433D01*
X141155814Y-122491433D02*
X141203433Y-122396195D01*
X140917719Y-123300957D02*
X140917719Y-123967623D01*
X140917719Y-123967623D02*
X141917719Y-123539052D01*
X53188843Y-130697956D02*
X53236462Y-130745576D01*
X53236462Y-130745576D02*
X53379319Y-130793195D01*
X53379319Y-130793195D02*
X53474557Y-130793195D01*
X53474557Y-130793195D02*
X53617414Y-130745576D01*
X53617414Y-130745576D02*
X53712652Y-130650337D01*
X53712652Y-130650337D02*
X53760271Y-130555099D01*
X53760271Y-130555099D02*
X53807890Y-130364623D01*
X53807890Y-130364623D02*
X53807890Y-130221766D01*
X53807890Y-130221766D02*
X53760271Y-130031290D01*
X53760271Y-130031290D02*
X53712652Y-129936052D01*
X53712652Y-129936052D02*
X53617414Y-129840814D01*
X53617414Y-129840814D02*
X53474557Y-129793195D01*
X53474557Y-129793195D02*
X53379319Y-129793195D01*
X53379319Y-129793195D02*
X53236462Y-129840814D01*
X53236462Y-129840814D02*
X53188843Y-129888433D01*
X52236462Y-130793195D02*
X52807890Y-130793195D01*
X52522176Y-130793195D02*
X52522176Y-129793195D01*
X52522176Y-129793195D02*
X52617414Y-129936052D01*
X52617414Y-129936052D02*
X52712652Y-130031290D01*
X52712652Y-130031290D02*
X52807890Y-130078909D01*
X51665033Y-130221766D02*
X51760271Y-130174147D01*
X51760271Y-130174147D02*
X51807890Y-130126528D01*
X51807890Y-130126528D02*
X51855509Y-130031290D01*
X51855509Y-130031290D02*
X51855509Y-129983671D01*
X51855509Y-129983671D02*
X51807890Y-129888433D01*
X51807890Y-129888433D02*
X51760271Y-129840814D01*
X51760271Y-129840814D02*
X51665033Y-129793195D01*
X51665033Y-129793195D02*
X51474557Y-129793195D01*
X51474557Y-129793195D02*
X51379319Y-129840814D01*
X51379319Y-129840814D02*
X51331700Y-129888433D01*
X51331700Y-129888433D02*
X51284081Y-129983671D01*
X51284081Y-129983671D02*
X51284081Y-130031290D01*
X51284081Y-130031290D02*
X51331700Y-130126528D01*
X51331700Y-130126528D02*
X51379319Y-130174147D01*
X51379319Y-130174147D02*
X51474557Y-130221766D01*
X51474557Y-130221766D02*
X51665033Y-130221766D01*
X51665033Y-130221766D02*
X51760271Y-130269385D01*
X51760271Y-130269385D02*
X51807890Y-130317004D01*
X51807890Y-130317004D02*
X51855509Y-130412242D01*
X51855509Y-130412242D02*
X51855509Y-130602718D01*
X51855509Y-130602718D02*
X51807890Y-130697956D01*
X51807890Y-130697956D02*
X51760271Y-130745576D01*
X51760271Y-130745576D02*
X51665033Y-130793195D01*
X51665033Y-130793195D02*
X51474557Y-130793195D01*
X51474557Y-130793195D02*
X51379319Y-130745576D01*
X51379319Y-130745576D02*
X51331700Y-130697956D01*
X51331700Y-130697956D02*
X51284081Y-130602718D01*
X51284081Y-130602718D02*
X51284081Y-130412242D01*
X51284081Y-130412242D02*
X51331700Y-130317004D01*
X51331700Y-130317004D02*
X51379319Y-130269385D01*
X51379319Y-130269385D02*
X51474557Y-130221766D01*
X58726307Y-117942480D02*
X58773926Y-117990100D01*
X58773926Y-117990100D02*
X58916783Y-118037719D01*
X58916783Y-118037719D02*
X59012021Y-118037719D01*
X59012021Y-118037719D02*
X59154878Y-117990100D01*
X59154878Y-117990100D02*
X59250116Y-117894861D01*
X59250116Y-117894861D02*
X59297735Y-117799623D01*
X59297735Y-117799623D02*
X59345354Y-117609147D01*
X59345354Y-117609147D02*
X59345354Y-117466290D01*
X59345354Y-117466290D02*
X59297735Y-117275814D01*
X59297735Y-117275814D02*
X59250116Y-117180576D01*
X59250116Y-117180576D02*
X59154878Y-117085338D01*
X59154878Y-117085338D02*
X59012021Y-117037719D01*
X59012021Y-117037719D02*
X58916783Y-117037719D01*
X58916783Y-117037719D02*
X58773926Y-117085338D01*
X58773926Y-117085338D02*
X58726307Y-117132957D01*
X57773926Y-118037719D02*
X58345354Y-118037719D01*
X58059640Y-118037719D02*
X58059640Y-117037719D01*
X58059640Y-117037719D02*
X58154878Y-117180576D01*
X58154878Y-117180576D02*
X58250116Y-117275814D01*
X58250116Y-117275814D02*
X58345354Y-117323433D01*
X56869164Y-117037719D02*
X57345354Y-117037719D01*
X57345354Y-117037719D02*
X57392973Y-117513909D01*
X57392973Y-117513909D02*
X57345354Y-117466290D01*
X57345354Y-117466290D02*
X57250116Y-117418671D01*
X57250116Y-117418671D02*
X57012021Y-117418671D01*
X57012021Y-117418671D02*
X56916783Y-117466290D01*
X56916783Y-117466290D02*
X56869164Y-117513909D01*
X56869164Y-117513909D02*
X56821545Y-117609147D01*
X56821545Y-117609147D02*
X56821545Y-117847242D01*
X56821545Y-117847242D02*
X56869164Y-117942480D01*
X56869164Y-117942480D02*
X56916783Y-117990100D01*
X56916783Y-117990100D02*
X57012021Y-118037719D01*
X57012021Y-118037719D02*
X57250116Y-118037719D01*
X57250116Y-118037719D02*
X57345354Y-117990100D01*
X57345354Y-117990100D02*
X57392973Y-117942480D01*
X58429407Y-137627719D02*
X58762740Y-137151528D01*
X59000835Y-137627719D02*
X59000835Y-136627719D01*
X59000835Y-136627719D02*
X58619883Y-136627719D01*
X58619883Y-136627719D02*
X58524645Y-136675338D01*
X58524645Y-136675338D02*
X58477026Y-136722957D01*
X58477026Y-136722957D02*
X58429407Y-136818195D01*
X58429407Y-136818195D02*
X58429407Y-136961052D01*
X58429407Y-136961052D02*
X58477026Y-137056290D01*
X58477026Y-137056290D02*
X58524645Y-137103909D01*
X58524645Y-137103909D02*
X58619883Y-137151528D01*
X58619883Y-137151528D02*
X59000835Y-137151528D01*
X58048454Y-136722957D02*
X58000835Y-136675338D01*
X58000835Y-136675338D02*
X57905597Y-136627719D01*
X57905597Y-136627719D02*
X57667502Y-136627719D01*
X57667502Y-136627719D02*
X57572264Y-136675338D01*
X57572264Y-136675338D02*
X57524645Y-136722957D01*
X57524645Y-136722957D02*
X57477026Y-136818195D01*
X57477026Y-136818195D02*
X57477026Y-136913433D01*
X57477026Y-136913433D02*
X57524645Y-137056290D01*
X57524645Y-137056290D02*
X58096073Y-137627719D01*
X58096073Y-137627719D02*
X57477026Y-137627719D01*
X56857978Y-136627719D02*
X56762740Y-136627719D01*
X56762740Y-136627719D02*
X56667502Y-136675338D01*
X56667502Y-136675338D02*
X56619883Y-136722957D01*
X56619883Y-136722957D02*
X56572264Y-136818195D01*
X56572264Y-136818195D02*
X56524645Y-137008671D01*
X56524645Y-137008671D02*
X56524645Y-137246766D01*
X56524645Y-137246766D02*
X56572264Y-137437242D01*
X56572264Y-137437242D02*
X56619883Y-137532480D01*
X56619883Y-137532480D02*
X56667502Y-137580100D01*
X56667502Y-137580100D02*
X56762740Y-137627719D01*
X56762740Y-137627719D02*
X56857978Y-137627719D01*
X56857978Y-137627719D02*
X56953216Y-137580100D01*
X56953216Y-137580100D02*
X57000835Y-137532480D01*
X57000835Y-137532480D02*
X57048454Y-137437242D01*
X57048454Y-137437242D02*
X57096073Y-137246766D01*
X57096073Y-137246766D02*
X57096073Y-137008671D01*
X57096073Y-137008671D02*
X57048454Y-136818195D01*
X57048454Y-136818195D02*
X57000835Y-136722957D01*
X57000835Y-136722957D02*
X56953216Y-136675338D01*
X56953216Y-136675338D02*
X56857978Y-136627719D01*
X61821666Y-87479819D02*
X62154999Y-87003628D01*
X62393094Y-87479819D02*
X62393094Y-86479819D01*
X62393094Y-86479819D02*
X62012142Y-86479819D01*
X62012142Y-86479819D02*
X61916904Y-86527438D01*
X61916904Y-86527438D02*
X61869285Y-86575057D01*
X61869285Y-86575057D02*
X61821666Y-86670295D01*
X61821666Y-86670295D02*
X61821666Y-86813152D01*
X61821666Y-86813152D02*
X61869285Y-86908390D01*
X61869285Y-86908390D02*
X61916904Y-86956009D01*
X61916904Y-86956009D02*
X62012142Y-87003628D01*
X62012142Y-87003628D02*
X62393094Y-87003628D01*
X60916904Y-86479819D02*
X61393094Y-86479819D01*
X61393094Y-86479819D02*
X61440713Y-86956009D01*
X61440713Y-86956009D02*
X61393094Y-86908390D01*
X61393094Y-86908390D02*
X61297856Y-86860771D01*
X61297856Y-86860771D02*
X61059761Y-86860771D01*
X61059761Y-86860771D02*
X60964523Y-86908390D01*
X60964523Y-86908390D02*
X60916904Y-86956009D01*
X60916904Y-86956009D02*
X60869285Y-87051247D01*
X60869285Y-87051247D02*
X60869285Y-87289342D01*
X60869285Y-87289342D02*
X60916904Y-87384580D01*
X60916904Y-87384580D02*
X60964523Y-87432200D01*
X60964523Y-87432200D02*
X61059761Y-87479819D01*
X61059761Y-87479819D02*
X61297856Y-87479819D01*
X61297856Y-87479819D02*
X61393094Y-87432200D01*
X61393094Y-87432200D02*
X61440713Y-87384580D01*
X113285785Y-94688599D02*
X113333405Y-94640980D01*
X113333405Y-94640980D02*
X113381024Y-94498123D01*
X113381024Y-94498123D02*
X113381024Y-94402885D01*
X113381024Y-94402885D02*
X113333405Y-94260028D01*
X113333405Y-94260028D02*
X113238166Y-94164790D01*
X113238166Y-94164790D02*
X113142928Y-94117171D01*
X113142928Y-94117171D02*
X112952452Y-94069552D01*
X112952452Y-94069552D02*
X112809595Y-94069552D01*
X112809595Y-94069552D02*
X112619119Y-94117171D01*
X112619119Y-94117171D02*
X112523881Y-94164790D01*
X112523881Y-94164790D02*
X112428643Y-94260028D01*
X112428643Y-94260028D02*
X112381024Y-94402885D01*
X112381024Y-94402885D02*
X112381024Y-94498123D01*
X112381024Y-94498123D02*
X112428643Y-94640980D01*
X112428643Y-94640980D02*
X112476262Y-94688599D01*
X113381024Y-95164790D02*
X113381024Y-95355266D01*
X113381024Y-95355266D02*
X113333405Y-95450504D01*
X113333405Y-95450504D02*
X113285785Y-95498123D01*
X113285785Y-95498123D02*
X113142928Y-95593361D01*
X113142928Y-95593361D02*
X112952452Y-95640980D01*
X112952452Y-95640980D02*
X112571500Y-95640980D01*
X112571500Y-95640980D02*
X112476262Y-95593361D01*
X112476262Y-95593361D02*
X112428643Y-95545742D01*
X112428643Y-95545742D02*
X112381024Y-95450504D01*
X112381024Y-95450504D02*
X112381024Y-95260028D01*
X112381024Y-95260028D02*
X112428643Y-95164790D01*
X112428643Y-95164790D02*
X112476262Y-95117171D01*
X112476262Y-95117171D02*
X112571500Y-95069552D01*
X112571500Y-95069552D02*
X112809595Y-95069552D01*
X112809595Y-95069552D02*
X112904833Y-95117171D01*
X112904833Y-95117171D02*
X112952452Y-95164790D01*
X112952452Y-95164790D02*
X113000071Y-95260028D01*
X113000071Y-95260028D02*
X113000071Y-95450504D01*
X113000071Y-95450504D02*
X112952452Y-95545742D01*
X112952452Y-95545742D02*
X112904833Y-95593361D01*
X112904833Y-95593361D02*
X112809595Y-95640980D01*
X92667857Y-121984580D02*
X92715476Y-122032200D01*
X92715476Y-122032200D02*
X92858333Y-122079819D01*
X92858333Y-122079819D02*
X92953571Y-122079819D01*
X92953571Y-122079819D02*
X93096428Y-122032200D01*
X93096428Y-122032200D02*
X93191666Y-121936961D01*
X93191666Y-121936961D02*
X93239285Y-121841723D01*
X93239285Y-121841723D02*
X93286904Y-121651247D01*
X93286904Y-121651247D02*
X93286904Y-121508390D01*
X93286904Y-121508390D02*
X93239285Y-121317914D01*
X93239285Y-121317914D02*
X93191666Y-121222676D01*
X93191666Y-121222676D02*
X93096428Y-121127438D01*
X93096428Y-121127438D02*
X92953571Y-121079819D01*
X92953571Y-121079819D02*
X92858333Y-121079819D01*
X92858333Y-121079819D02*
X92715476Y-121127438D01*
X92715476Y-121127438D02*
X92667857Y-121175057D01*
X91715476Y-122079819D02*
X92286904Y-122079819D01*
X92001190Y-122079819D02*
X92001190Y-121079819D01*
X92001190Y-121079819D02*
X92096428Y-121222676D01*
X92096428Y-121222676D02*
X92191666Y-121317914D01*
X92191666Y-121317914D02*
X92286904Y-121365533D01*
X91334523Y-121175057D02*
X91286904Y-121127438D01*
X91286904Y-121127438D02*
X91191666Y-121079819D01*
X91191666Y-121079819D02*
X90953571Y-121079819D01*
X90953571Y-121079819D02*
X90858333Y-121127438D01*
X90858333Y-121127438D02*
X90810714Y-121175057D01*
X90810714Y-121175057D02*
X90763095Y-121270295D01*
X90763095Y-121270295D02*
X90763095Y-121365533D01*
X90763095Y-121365533D02*
X90810714Y-121508390D01*
X90810714Y-121508390D02*
X91382142Y-122079819D01*
X91382142Y-122079819D02*
X90763095Y-122079819D01*
X102145894Y-111884580D02*
X102193513Y-111932200D01*
X102193513Y-111932200D02*
X102336370Y-111979819D01*
X102336370Y-111979819D02*
X102431608Y-111979819D01*
X102431608Y-111979819D02*
X102574465Y-111932200D01*
X102574465Y-111932200D02*
X102669703Y-111836961D01*
X102669703Y-111836961D02*
X102717322Y-111741723D01*
X102717322Y-111741723D02*
X102764941Y-111551247D01*
X102764941Y-111551247D02*
X102764941Y-111408390D01*
X102764941Y-111408390D02*
X102717322Y-111217914D01*
X102717322Y-111217914D02*
X102669703Y-111122676D01*
X102669703Y-111122676D02*
X102574465Y-111027438D01*
X102574465Y-111027438D02*
X102431608Y-110979819D01*
X102431608Y-110979819D02*
X102336370Y-110979819D01*
X102336370Y-110979819D02*
X102193513Y-111027438D01*
X102193513Y-111027438D02*
X102145894Y-111075057D01*
X101288751Y-111313152D02*
X101288751Y-111979819D01*
X101526846Y-110932200D02*
X101764941Y-111646485D01*
X101764941Y-111646485D02*
X101145894Y-111646485D01*
X126379761Y-117329819D02*
X125808333Y-117329819D01*
X126094047Y-118329819D02*
X126094047Y-117329819D01*
X125474999Y-118329819D02*
X125474999Y-117329819D01*
X125474999Y-117329819D02*
X125094047Y-117329819D01*
X125094047Y-117329819D02*
X124998809Y-117377438D01*
X124998809Y-117377438D02*
X124951190Y-117425057D01*
X124951190Y-117425057D02*
X124903571Y-117520295D01*
X124903571Y-117520295D02*
X124903571Y-117663152D01*
X124903571Y-117663152D02*
X124951190Y-117758390D01*
X124951190Y-117758390D02*
X124998809Y-117806009D01*
X124998809Y-117806009D02*
X125094047Y-117853628D01*
X125094047Y-117853628D02*
X125474999Y-117853628D01*
X124713095Y-118425057D02*
X123951190Y-118425057D01*
X123141666Y-118234580D02*
X123189285Y-118282200D01*
X123189285Y-118282200D02*
X123332142Y-118329819D01*
X123332142Y-118329819D02*
X123427380Y-118329819D01*
X123427380Y-118329819D02*
X123570237Y-118282200D01*
X123570237Y-118282200D02*
X123665475Y-118186961D01*
X123665475Y-118186961D02*
X123713094Y-118091723D01*
X123713094Y-118091723D02*
X123760713Y-117901247D01*
X123760713Y-117901247D02*
X123760713Y-117758390D01*
X123760713Y-117758390D02*
X123713094Y-117567914D01*
X123713094Y-117567914D02*
X123665475Y-117472676D01*
X123665475Y-117472676D02*
X123570237Y-117377438D01*
X123570237Y-117377438D02*
X123427380Y-117329819D01*
X123427380Y-117329819D02*
X123332142Y-117329819D01*
X123332142Y-117329819D02*
X123189285Y-117377438D01*
X123189285Y-117377438D02*
X123141666Y-117425057D01*
X122713094Y-118329819D02*
X122713094Y-117329819D01*
X122236904Y-118329819D02*
X122236904Y-117329819D01*
X122236904Y-117329819D02*
X121855952Y-117329819D01*
X121855952Y-117329819D02*
X121760714Y-117377438D01*
X121760714Y-117377438D02*
X121713095Y-117425057D01*
X121713095Y-117425057D02*
X121665476Y-117520295D01*
X121665476Y-117520295D02*
X121665476Y-117663152D01*
X121665476Y-117663152D02*
X121713095Y-117758390D01*
X121713095Y-117758390D02*
X121760714Y-117806009D01*
X121760714Y-117806009D02*
X121855952Y-117853628D01*
X121855952Y-117853628D02*
X122236904Y-117853628D01*
X121046428Y-117329819D02*
X120855952Y-117329819D01*
X120855952Y-117329819D02*
X120760714Y-117377438D01*
X120760714Y-117377438D02*
X120665476Y-117472676D01*
X120665476Y-117472676D02*
X120617857Y-117663152D01*
X120617857Y-117663152D02*
X120617857Y-117996485D01*
X120617857Y-117996485D02*
X120665476Y-118186961D01*
X120665476Y-118186961D02*
X120760714Y-118282200D01*
X120760714Y-118282200D02*
X120855952Y-118329819D01*
X120855952Y-118329819D02*
X121046428Y-118329819D01*
X121046428Y-118329819D02*
X121141666Y-118282200D01*
X121141666Y-118282200D02*
X121236904Y-118186961D01*
X121236904Y-118186961D02*
X121284523Y-117996485D01*
X121284523Y-117996485D02*
X121284523Y-117663152D01*
X121284523Y-117663152D02*
X121236904Y-117472676D01*
X121236904Y-117472676D02*
X121141666Y-117377438D01*
X121141666Y-117377438D02*
X121046428Y-117329819D01*
X119665476Y-118329819D02*
X120236904Y-118329819D01*
X119951190Y-118329819D02*
X119951190Y-117329819D01*
X119951190Y-117329819D02*
X120046428Y-117472676D01*
X120046428Y-117472676D02*
X120141666Y-117567914D01*
X120141666Y-117567914D02*
X120236904Y-117615533D01*
X78491919Y-172320592D02*
X78015728Y-171987259D01*
X78491919Y-171749164D02*
X77491919Y-171749164D01*
X77491919Y-171749164D02*
X77491919Y-172130116D01*
X77491919Y-172130116D02*
X77539538Y-172225354D01*
X77539538Y-172225354D02*
X77587157Y-172272973D01*
X77587157Y-172272973D02*
X77682395Y-172320592D01*
X77682395Y-172320592D02*
X77825252Y-172320592D01*
X77825252Y-172320592D02*
X77920490Y-172272973D01*
X77920490Y-172272973D02*
X77968109Y-172225354D01*
X77968109Y-172225354D02*
X78015728Y-172130116D01*
X78015728Y-172130116D02*
X78015728Y-171749164D01*
X77587157Y-172701545D02*
X77539538Y-172749164D01*
X77539538Y-172749164D02*
X77491919Y-172844402D01*
X77491919Y-172844402D02*
X77491919Y-173082497D01*
X77491919Y-173082497D02*
X77539538Y-173177735D01*
X77539538Y-173177735D02*
X77587157Y-173225354D01*
X77587157Y-173225354D02*
X77682395Y-173272973D01*
X77682395Y-173272973D02*
X77777633Y-173272973D01*
X77777633Y-173272973D02*
X77920490Y-173225354D01*
X77920490Y-173225354D02*
X78491919Y-172653926D01*
X78491919Y-172653926D02*
X78491919Y-173272973D01*
X77491919Y-173606307D02*
X77491919Y-174225354D01*
X77491919Y-174225354D02*
X77872871Y-173892021D01*
X77872871Y-173892021D02*
X77872871Y-174034878D01*
X77872871Y-174034878D02*
X77920490Y-174130116D01*
X77920490Y-174130116D02*
X77968109Y-174177735D01*
X77968109Y-174177735D02*
X78063347Y-174225354D01*
X78063347Y-174225354D02*
X78301442Y-174225354D01*
X78301442Y-174225354D02*
X78396680Y-174177735D01*
X78396680Y-174177735D02*
X78444300Y-174130116D01*
X78444300Y-174130116D02*
X78491919Y-174034878D01*
X78491919Y-174034878D02*
X78491919Y-173749164D01*
X78491919Y-173749164D02*
X78444300Y-173653926D01*
X78444300Y-173653926D02*
X78396680Y-173606307D01*
X43883819Y-123390866D02*
X44598104Y-123390866D01*
X44598104Y-123390866D02*
X44740961Y-123343247D01*
X44740961Y-123343247D02*
X44836200Y-123248009D01*
X44836200Y-123248009D02*
X44883819Y-123105152D01*
X44883819Y-123105152D02*
X44883819Y-123009914D01*
X43883819Y-123771819D02*
X43883819Y-124390866D01*
X43883819Y-124390866D02*
X44264771Y-124057533D01*
X44264771Y-124057533D02*
X44264771Y-124200390D01*
X44264771Y-124200390D02*
X44312390Y-124295628D01*
X44312390Y-124295628D02*
X44360009Y-124343247D01*
X44360009Y-124343247D02*
X44455247Y-124390866D01*
X44455247Y-124390866D02*
X44693342Y-124390866D01*
X44693342Y-124390866D02*
X44788580Y-124343247D01*
X44788580Y-124343247D02*
X44836200Y-124295628D01*
X44836200Y-124295628D02*
X44883819Y-124200390D01*
X44883819Y-124200390D02*
X44883819Y-123914676D01*
X44883819Y-123914676D02*
X44836200Y-123819438D01*
X44836200Y-123819438D02*
X44788580Y-123771819D01*
X41659580Y-92333333D02*
X41707200Y-92285714D01*
X41707200Y-92285714D02*
X41754819Y-92142857D01*
X41754819Y-92142857D02*
X41754819Y-92047619D01*
X41754819Y-92047619D02*
X41707200Y-91904762D01*
X41707200Y-91904762D02*
X41611961Y-91809524D01*
X41611961Y-91809524D02*
X41516723Y-91761905D01*
X41516723Y-91761905D02*
X41326247Y-91714286D01*
X41326247Y-91714286D02*
X41183390Y-91714286D01*
X41183390Y-91714286D02*
X40992914Y-91761905D01*
X40992914Y-91761905D02*
X40897676Y-91809524D01*
X40897676Y-91809524D02*
X40802438Y-91904762D01*
X40802438Y-91904762D02*
X40754819Y-92047619D01*
X40754819Y-92047619D02*
X40754819Y-92142857D01*
X40754819Y-92142857D02*
X40802438Y-92285714D01*
X40802438Y-92285714D02*
X40850057Y-92333333D01*
X40850057Y-92714286D02*
X40802438Y-92761905D01*
X40802438Y-92761905D02*
X40754819Y-92857143D01*
X40754819Y-92857143D02*
X40754819Y-93095238D01*
X40754819Y-93095238D02*
X40802438Y-93190476D01*
X40802438Y-93190476D02*
X40850057Y-93238095D01*
X40850057Y-93238095D02*
X40945295Y-93285714D01*
X40945295Y-93285714D02*
X41040533Y-93285714D01*
X41040533Y-93285714D02*
X41183390Y-93238095D01*
X41183390Y-93238095D02*
X41754819Y-92666667D01*
X41754819Y-92666667D02*
X41754819Y-93285714D01*
X108029761Y-117279819D02*
X107458333Y-117279819D01*
X107744047Y-118279819D02*
X107744047Y-117279819D01*
X107124999Y-118279819D02*
X107124999Y-117279819D01*
X107124999Y-117279819D02*
X106744047Y-117279819D01*
X106744047Y-117279819D02*
X106648809Y-117327438D01*
X106648809Y-117327438D02*
X106601190Y-117375057D01*
X106601190Y-117375057D02*
X106553571Y-117470295D01*
X106553571Y-117470295D02*
X106553571Y-117613152D01*
X106553571Y-117613152D02*
X106601190Y-117708390D01*
X106601190Y-117708390D02*
X106648809Y-117756009D01*
X106648809Y-117756009D02*
X106744047Y-117803628D01*
X106744047Y-117803628D02*
X107124999Y-117803628D01*
X106363095Y-118375057D02*
X105601190Y-118375057D01*
X104791666Y-118184580D02*
X104839285Y-118232200D01*
X104839285Y-118232200D02*
X104982142Y-118279819D01*
X104982142Y-118279819D02*
X105077380Y-118279819D01*
X105077380Y-118279819D02*
X105220237Y-118232200D01*
X105220237Y-118232200D02*
X105315475Y-118136961D01*
X105315475Y-118136961D02*
X105363094Y-118041723D01*
X105363094Y-118041723D02*
X105410713Y-117851247D01*
X105410713Y-117851247D02*
X105410713Y-117708390D01*
X105410713Y-117708390D02*
X105363094Y-117517914D01*
X105363094Y-117517914D02*
X105315475Y-117422676D01*
X105315475Y-117422676D02*
X105220237Y-117327438D01*
X105220237Y-117327438D02*
X105077380Y-117279819D01*
X105077380Y-117279819D02*
X104982142Y-117279819D01*
X104982142Y-117279819D02*
X104839285Y-117327438D01*
X104839285Y-117327438D02*
X104791666Y-117375057D01*
X104172618Y-117279819D02*
X103982142Y-117279819D01*
X103982142Y-117279819D02*
X103886904Y-117327438D01*
X103886904Y-117327438D02*
X103791666Y-117422676D01*
X103791666Y-117422676D02*
X103744047Y-117613152D01*
X103744047Y-117613152D02*
X103744047Y-117946485D01*
X103744047Y-117946485D02*
X103791666Y-118136961D01*
X103791666Y-118136961D02*
X103886904Y-118232200D01*
X103886904Y-118232200D02*
X103982142Y-118279819D01*
X103982142Y-118279819D02*
X104172618Y-118279819D01*
X104172618Y-118279819D02*
X104267856Y-118232200D01*
X104267856Y-118232200D02*
X104363094Y-118136961D01*
X104363094Y-118136961D02*
X104410713Y-117946485D01*
X104410713Y-117946485D02*
X104410713Y-117613152D01*
X104410713Y-117613152D02*
X104363094Y-117422676D01*
X104363094Y-117422676D02*
X104267856Y-117327438D01*
X104267856Y-117327438D02*
X104172618Y-117279819D01*
X103315475Y-118279819D02*
X103315475Y-117279819D01*
X103315475Y-117279819D02*
X102934523Y-117279819D01*
X102934523Y-117279819D02*
X102839285Y-117327438D01*
X102839285Y-117327438D02*
X102791666Y-117375057D01*
X102791666Y-117375057D02*
X102744047Y-117470295D01*
X102744047Y-117470295D02*
X102744047Y-117613152D01*
X102744047Y-117613152D02*
X102791666Y-117708390D01*
X102791666Y-117708390D02*
X102839285Y-117756009D01*
X102839285Y-117756009D02*
X102934523Y-117803628D01*
X102934523Y-117803628D02*
X103315475Y-117803628D01*
X102315475Y-118279819D02*
X102315475Y-117279819D01*
X101315476Y-118279819D02*
X101886904Y-118279819D01*
X101601190Y-118279819D02*
X101601190Y-117279819D01*
X101601190Y-117279819D02*
X101696428Y-117422676D01*
X101696428Y-117422676D02*
X101791666Y-117517914D01*
X101791666Y-117517914D02*
X101886904Y-117565533D01*
X58559407Y-121926680D02*
X58607026Y-121974300D01*
X58607026Y-121974300D02*
X58749883Y-122021919D01*
X58749883Y-122021919D02*
X58845121Y-122021919D01*
X58845121Y-122021919D02*
X58987978Y-121974300D01*
X58987978Y-121974300D02*
X59083216Y-121879061D01*
X59083216Y-121879061D02*
X59130835Y-121783823D01*
X59130835Y-121783823D02*
X59178454Y-121593347D01*
X59178454Y-121593347D02*
X59178454Y-121450490D01*
X59178454Y-121450490D02*
X59130835Y-121260014D01*
X59130835Y-121260014D02*
X59083216Y-121164776D01*
X59083216Y-121164776D02*
X58987978Y-121069538D01*
X58987978Y-121069538D02*
X58845121Y-121021919D01*
X58845121Y-121021919D02*
X58749883Y-121021919D01*
X58749883Y-121021919D02*
X58607026Y-121069538D01*
X58607026Y-121069538D02*
X58559407Y-121117157D01*
X57607026Y-122021919D02*
X58178454Y-122021919D01*
X57892740Y-122021919D02*
X57892740Y-121021919D01*
X57892740Y-121021919D02*
X57987978Y-121164776D01*
X57987978Y-121164776D02*
X58083216Y-121260014D01*
X58083216Y-121260014D02*
X58178454Y-121307633D01*
X56749883Y-121355252D02*
X56749883Y-122021919D01*
X56987978Y-120974300D02*
X57226073Y-121688585D01*
X57226073Y-121688585D02*
X56607026Y-121688585D01*
X38979819Y-100458333D02*
X38979819Y-101029761D01*
X39979819Y-100744047D02*
X38979819Y-100744047D01*
X39979819Y-101363095D02*
X38979819Y-101363095D01*
X38979819Y-101363095D02*
X38979819Y-101744047D01*
X38979819Y-101744047D02*
X39027438Y-101839285D01*
X39027438Y-101839285D02*
X39075057Y-101886904D01*
X39075057Y-101886904D02*
X39170295Y-101934523D01*
X39170295Y-101934523D02*
X39313152Y-101934523D01*
X39313152Y-101934523D02*
X39408390Y-101886904D01*
X39408390Y-101886904D02*
X39456009Y-101839285D01*
X39456009Y-101839285D02*
X39503628Y-101744047D01*
X39503628Y-101744047D02*
X39503628Y-101363095D01*
X40075057Y-102125000D02*
X40075057Y-102886904D01*
X38979819Y-103125000D02*
X39789342Y-103125000D01*
X39789342Y-103125000D02*
X39884580Y-103172619D01*
X39884580Y-103172619D02*
X39932200Y-103220238D01*
X39932200Y-103220238D02*
X39979819Y-103315476D01*
X39979819Y-103315476D02*
X39979819Y-103505952D01*
X39979819Y-103505952D02*
X39932200Y-103601190D01*
X39932200Y-103601190D02*
X39884580Y-103648809D01*
X39884580Y-103648809D02*
X39789342Y-103696428D01*
X39789342Y-103696428D02*
X38979819Y-103696428D01*
X39979819Y-104172619D02*
X38979819Y-104172619D01*
X38979819Y-104172619D02*
X38979819Y-104553571D01*
X38979819Y-104553571D02*
X39027438Y-104648809D01*
X39027438Y-104648809D02*
X39075057Y-104696428D01*
X39075057Y-104696428D02*
X39170295Y-104744047D01*
X39170295Y-104744047D02*
X39313152Y-104744047D01*
X39313152Y-104744047D02*
X39408390Y-104696428D01*
X39408390Y-104696428D02*
X39456009Y-104648809D01*
X39456009Y-104648809D02*
X39503628Y-104553571D01*
X39503628Y-104553571D02*
X39503628Y-104172619D01*
X39979819Y-105696428D02*
X39979819Y-105125000D01*
X39979819Y-105410714D02*
X38979819Y-105410714D01*
X38979819Y-105410714D02*
X39122676Y-105315476D01*
X39122676Y-105315476D02*
X39217914Y-105220238D01*
X39217914Y-105220238D02*
X39265533Y-105125000D01*
X95719819Y-100247670D02*
X95767439Y-100200051D01*
X95767439Y-100200051D02*
X95815058Y-100057194D01*
X95815058Y-100057194D02*
X95815058Y-99961956D01*
X95815058Y-99961956D02*
X95767439Y-99819099D01*
X95767439Y-99819099D02*
X95672200Y-99723861D01*
X95672200Y-99723861D02*
X95576962Y-99676242D01*
X95576962Y-99676242D02*
X95386486Y-99628623D01*
X95386486Y-99628623D02*
X95243629Y-99628623D01*
X95243629Y-99628623D02*
X95053153Y-99676242D01*
X95053153Y-99676242D02*
X94957915Y-99723861D01*
X94957915Y-99723861D02*
X94862677Y-99819099D01*
X94862677Y-99819099D02*
X94815058Y-99961956D01*
X94815058Y-99961956D02*
X94815058Y-100057194D01*
X94815058Y-100057194D02*
X94862677Y-100200051D01*
X94862677Y-100200051D02*
X94910296Y-100247670D01*
X95243629Y-100819099D02*
X95196010Y-100723861D01*
X95196010Y-100723861D02*
X95148391Y-100676242D01*
X95148391Y-100676242D02*
X95053153Y-100628623D01*
X95053153Y-100628623D02*
X95005534Y-100628623D01*
X95005534Y-100628623D02*
X94910296Y-100676242D01*
X94910296Y-100676242D02*
X94862677Y-100723861D01*
X94862677Y-100723861D02*
X94815058Y-100819099D01*
X94815058Y-100819099D02*
X94815058Y-101009575D01*
X94815058Y-101009575D02*
X94862677Y-101104813D01*
X94862677Y-101104813D02*
X94910296Y-101152432D01*
X94910296Y-101152432D02*
X95005534Y-101200051D01*
X95005534Y-101200051D02*
X95053153Y-101200051D01*
X95053153Y-101200051D02*
X95148391Y-101152432D01*
X95148391Y-101152432D02*
X95196010Y-101104813D01*
X95196010Y-101104813D02*
X95243629Y-101009575D01*
X95243629Y-101009575D02*
X95243629Y-100819099D01*
X95243629Y-100819099D02*
X95291248Y-100723861D01*
X95291248Y-100723861D02*
X95338867Y-100676242D01*
X95338867Y-100676242D02*
X95434105Y-100628623D01*
X95434105Y-100628623D02*
X95624581Y-100628623D01*
X95624581Y-100628623D02*
X95719819Y-100676242D01*
X95719819Y-100676242D02*
X95767439Y-100723861D01*
X95767439Y-100723861D02*
X95815058Y-100819099D01*
X95815058Y-100819099D02*
X95815058Y-101009575D01*
X95815058Y-101009575D02*
X95767439Y-101104813D01*
X95767439Y-101104813D02*
X95719819Y-101152432D01*
X95719819Y-101152432D02*
X95624581Y-101200051D01*
X95624581Y-101200051D02*
X95434105Y-101200051D01*
X95434105Y-101200051D02*
X95338867Y-101152432D01*
X95338867Y-101152432D02*
X95291248Y-101104813D01*
X95291248Y-101104813D02*
X95243629Y-101009575D01*
X53080938Y-111702636D02*
X53128557Y-111750256D01*
X53128557Y-111750256D02*
X53271414Y-111797875D01*
X53271414Y-111797875D02*
X53366652Y-111797875D01*
X53366652Y-111797875D02*
X53509509Y-111750256D01*
X53509509Y-111750256D02*
X53604747Y-111655017D01*
X53604747Y-111655017D02*
X53652366Y-111559779D01*
X53652366Y-111559779D02*
X53699985Y-111369303D01*
X53699985Y-111369303D02*
X53699985Y-111226446D01*
X53699985Y-111226446D02*
X53652366Y-111035970D01*
X53652366Y-111035970D02*
X53604747Y-110940732D01*
X53604747Y-110940732D02*
X53509509Y-110845494D01*
X53509509Y-110845494D02*
X53366652Y-110797875D01*
X53366652Y-110797875D02*
X53271414Y-110797875D01*
X53271414Y-110797875D02*
X53128557Y-110845494D01*
X53128557Y-110845494D02*
X53080938Y-110893113D01*
X52699985Y-110893113D02*
X52652366Y-110845494D01*
X52652366Y-110845494D02*
X52557128Y-110797875D01*
X52557128Y-110797875D02*
X52319033Y-110797875D01*
X52319033Y-110797875D02*
X52223795Y-110845494D01*
X52223795Y-110845494D02*
X52176176Y-110893113D01*
X52176176Y-110893113D02*
X52128557Y-110988351D01*
X52128557Y-110988351D02*
X52128557Y-111083589D01*
X52128557Y-111083589D02*
X52176176Y-111226446D01*
X52176176Y-111226446D02*
X52747604Y-111797875D01*
X52747604Y-111797875D02*
X52128557Y-111797875D01*
X51795223Y-110797875D02*
X51176176Y-110797875D01*
X51176176Y-110797875D02*
X51509509Y-111178827D01*
X51509509Y-111178827D02*
X51366652Y-111178827D01*
X51366652Y-111178827D02*
X51271414Y-111226446D01*
X51271414Y-111226446D02*
X51223795Y-111274065D01*
X51223795Y-111274065D02*
X51176176Y-111369303D01*
X51176176Y-111369303D02*
X51176176Y-111607398D01*
X51176176Y-111607398D02*
X51223795Y-111702636D01*
X51223795Y-111702636D02*
X51271414Y-111750256D01*
X51271414Y-111750256D02*
X51366652Y-111797875D01*
X51366652Y-111797875D02*
X51652366Y-111797875D01*
X51652366Y-111797875D02*
X51747604Y-111750256D01*
X51747604Y-111750256D02*
X51795223Y-111702636D01*
X53195461Y-128335444D02*
X53243080Y-128383064D01*
X53243080Y-128383064D02*
X53385937Y-128430683D01*
X53385937Y-128430683D02*
X53481175Y-128430683D01*
X53481175Y-128430683D02*
X53624032Y-128383064D01*
X53624032Y-128383064D02*
X53719270Y-128287825D01*
X53719270Y-128287825D02*
X53766889Y-128192587D01*
X53766889Y-128192587D02*
X53814508Y-128002111D01*
X53814508Y-128002111D02*
X53814508Y-127859254D01*
X53814508Y-127859254D02*
X53766889Y-127668778D01*
X53766889Y-127668778D02*
X53719270Y-127573540D01*
X53719270Y-127573540D02*
X53624032Y-127478302D01*
X53624032Y-127478302D02*
X53481175Y-127430683D01*
X53481175Y-127430683D02*
X53385937Y-127430683D01*
X53385937Y-127430683D02*
X53243080Y-127478302D01*
X53243080Y-127478302D02*
X53195461Y-127525921D01*
X52243080Y-128430683D02*
X52814508Y-128430683D01*
X52528794Y-128430683D02*
X52528794Y-127430683D01*
X52528794Y-127430683D02*
X52624032Y-127573540D01*
X52624032Y-127573540D02*
X52719270Y-127668778D01*
X52719270Y-127668778D02*
X52814508Y-127716397D01*
X51766889Y-128430683D02*
X51576413Y-128430683D01*
X51576413Y-128430683D02*
X51481175Y-128383064D01*
X51481175Y-128383064D02*
X51433556Y-128335444D01*
X51433556Y-128335444D02*
X51338318Y-128192587D01*
X51338318Y-128192587D02*
X51290699Y-128002111D01*
X51290699Y-128002111D02*
X51290699Y-127621159D01*
X51290699Y-127621159D02*
X51338318Y-127525921D01*
X51338318Y-127525921D02*
X51385937Y-127478302D01*
X51385937Y-127478302D02*
X51481175Y-127430683D01*
X51481175Y-127430683D02*
X51671651Y-127430683D01*
X51671651Y-127430683D02*
X51766889Y-127478302D01*
X51766889Y-127478302D02*
X51814508Y-127525921D01*
X51814508Y-127525921D02*
X51862127Y-127621159D01*
X51862127Y-127621159D02*
X51862127Y-127859254D01*
X51862127Y-127859254D02*
X51814508Y-127954492D01*
X51814508Y-127954492D02*
X51766889Y-128002111D01*
X51766889Y-128002111D02*
X51671651Y-128049730D01*
X51671651Y-128049730D02*
X51481175Y-128049730D01*
X51481175Y-128049730D02*
X51385937Y-128002111D01*
X51385937Y-128002111D02*
X51338318Y-127954492D01*
X51338318Y-127954492D02*
X51290699Y-127859254D01*
X38179819Y-146363095D02*
X38179819Y-146934523D01*
X39179819Y-146648809D02*
X38179819Y-146648809D01*
X39179819Y-147267857D02*
X38179819Y-147267857D01*
X38179819Y-147267857D02*
X38179819Y-147648809D01*
X38179819Y-147648809D02*
X38227438Y-147744047D01*
X38227438Y-147744047D02*
X38275057Y-147791666D01*
X38275057Y-147791666D02*
X38370295Y-147839285D01*
X38370295Y-147839285D02*
X38513152Y-147839285D01*
X38513152Y-147839285D02*
X38608390Y-147791666D01*
X38608390Y-147791666D02*
X38656009Y-147744047D01*
X38656009Y-147744047D02*
X38703628Y-147648809D01*
X38703628Y-147648809D02*
X38703628Y-147267857D01*
X39275057Y-148029762D02*
X39275057Y-148791666D01*
X39179819Y-149029762D02*
X38179819Y-149029762D01*
X38179819Y-149029762D02*
X38179819Y-149267857D01*
X38179819Y-149267857D02*
X38227438Y-149410714D01*
X38227438Y-149410714D02*
X38322676Y-149505952D01*
X38322676Y-149505952D02*
X38417914Y-149553571D01*
X38417914Y-149553571D02*
X38608390Y-149601190D01*
X38608390Y-149601190D02*
X38751247Y-149601190D01*
X38751247Y-149601190D02*
X38941723Y-149553571D01*
X38941723Y-149553571D02*
X39036961Y-149505952D01*
X39036961Y-149505952D02*
X39132200Y-149410714D01*
X39132200Y-149410714D02*
X39179819Y-149267857D01*
X39179819Y-149267857D02*
X39179819Y-149029762D01*
X38179819Y-150220238D02*
X38179819Y-150410714D01*
X38179819Y-150410714D02*
X38227438Y-150505952D01*
X38227438Y-150505952D02*
X38322676Y-150601190D01*
X38322676Y-150601190D02*
X38513152Y-150648809D01*
X38513152Y-150648809D02*
X38846485Y-150648809D01*
X38846485Y-150648809D02*
X39036961Y-150601190D01*
X39036961Y-150601190D02*
X39132200Y-150505952D01*
X39132200Y-150505952D02*
X39179819Y-150410714D01*
X39179819Y-150410714D02*
X39179819Y-150220238D01*
X39179819Y-150220238D02*
X39132200Y-150125000D01*
X39132200Y-150125000D02*
X39036961Y-150029762D01*
X39036961Y-150029762D02*
X38846485Y-149982143D01*
X38846485Y-149982143D02*
X38513152Y-149982143D01*
X38513152Y-149982143D02*
X38322676Y-150029762D01*
X38322676Y-150029762D02*
X38227438Y-150125000D01*
X38227438Y-150125000D02*
X38179819Y-150220238D01*
X38179819Y-150982143D02*
X39179819Y-151220238D01*
X39179819Y-151220238D02*
X38465533Y-151410714D01*
X38465533Y-151410714D02*
X39179819Y-151601190D01*
X39179819Y-151601190D02*
X38179819Y-151839286D01*
X39179819Y-152220238D02*
X38179819Y-152220238D01*
X38179819Y-152220238D02*
X39179819Y-152791666D01*
X39179819Y-152791666D02*
X38179819Y-152791666D01*
X39179819Y-153791666D02*
X39179819Y-153220238D01*
X39179819Y-153505952D02*
X38179819Y-153505952D01*
X38179819Y-153505952D02*
X38322676Y-153410714D01*
X38322676Y-153410714D02*
X38417914Y-153315476D01*
X38417914Y-153315476D02*
X38465533Y-153220238D01*
X74513095Y-127829819D02*
X73941667Y-127829819D01*
X74227381Y-128829819D02*
X74227381Y-127829819D01*
X73608333Y-128829819D02*
X73608333Y-127829819D01*
X73608333Y-127829819D02*
X73227381Y-127829819D01*
X73227381Y-127829819D02*
X73132143Y-127877438D01*
X73132143Y-127877438D02*
X73084524Y-127925057D01*
X73084524Y-127925057D02*
X73036905Y-128020295D01*
X73036905Y-128020295D02*
X73036905Y-128163152D01*
X73036905Y-128163152D02*
X73084524Y-128258390D01*
X73084524Y-128258390D02*
X73132143Y-128306009D01*
X73132143Y-128306009D02*
X73227381Y-128353628D01*
X73227381Y-128353628D02*
X73608333Y-128353628D01*
X72846429Y-128925057D02*
X72084524Y-128925057D01*
X71846428Y-128306009D02*
X71513095Y-128306009D01*
X71370238Y-128829819D02*
X71846428Y-128829819D01*
X71846428Y-128829819D02*
X71846428Y-127829819D01*
X71846428Y-127829819D02*
X71370238Y-127829819D01*
X70941666Y-128829819D02*
X70941666Y-127829819D01*
X70941666Y-127829819D02*
X70560714Y-127829819D01*
X70560714Y-127829819D02*
X70465476Y-127877438D01*
X70465476Y-127877438D02*
X70417857Y-127925057D01*
X70417857Y-127925057D02*
X70370238Y-128020295D01*
X70370238Y-128020295D02*
X70370238Y-128163152D01*
X70370238Y-128163152D02*
X70417857Y-128258390D01*
X70417857Y-128258390D02*
X70465476Y-128306009D01*
X70465476Y-128306009D02*
X70560714Y-128353628D01*
X70560714Y-128353628D02*
X70941666Y-128353628D01*
X70179762Y-128925057D02*
X69417857Y-128925057D01*
X68608333Y-128829819D02*
X68941666Y-128353628D01*
X69179761Y-128829819D02*
X69179761Y-127829819D01*
X69179761Y-127829819D02*
X68798809Y-127829819D01*
X68798809Y-127829819D02*
X68703571Y-127877438D01*
X68703571Y-127877438D02*
X68655952Y-127925057D01*
X68655952Y-127925057D02*
X68608333Y-128020295D01*
X68608333Y-128020295D02*
X68608333Y-128163152D01*
X68608333Y-128163152D02*
X68655952Y-128258390D01*
X68655952Y-128258390D02*
X68703571Y-128306009D01*
X68703571Y-128306009D02*
X68798809Y-128353628D01*
X68798809Y-128353628D02*
X69179761Y-128353628D01*
X68179761Y-128306009D02*
X67846428Y-128306009D01*
X67703571Y-128829819D02*
X68179761Y-128829819D01*
X68179761Y-128829819D02*
X68179761Y-127829819D01*
X68179761Y-127829819D02*
X67703571Y-127829819D01*
X67322618Y-128782200D02*
X67179761Y-128829819D01*
X67179761Y-128829819D02*
X66941666Y-128829819D01*
X66941666Y-128829819D02*
X66846428Y-128782200D01*
X66846428Y-128782200D02*
X66798809Y-128734580D01*
X66798809Y-128734580D02*
X66751190Y-128639342D01*
X66751190Y-128639342D02*
X66751190Y-128544104D01*
X66751190Y-128544104D02*
X66798809Y-128448866D01*
X66798809Y-128448866D02*
X66846428Y-128401247D01*
X66846428Y-128401247D02*
X66941666Y-128353628D01*
X66941666Y-128353628D02*
X67132142Y-128306009D01*
X67132142Y-128306009D02*
X67227380Y-128258390D01*
X67227380Y-128258390D02*
X67274999Y-128210771D01*
X67274999Y-128210771D02*
X67322618Y-128115533D01*
X67322618Y-128115533D02*
X67322618Y-128020295D01*
X67322618Y-128020295D02*
X67274999Y-127925057D01*
X67274999Y-127925057D02*
X67227380Y-127877438D01*
X67227380Y-127877438D02*
X67132142Y-127829819D01*
X67132142Y-127829819D02*
X66894047Y-127829819D01*
X66894047Y-127829819D02*
X66751190Y-127877438D01*
X66322618Y-128306009D02*
X65989285Y-128306009D01*
X65846428Y-128829819D02*
X66322618Y-128829819D01*
X66322618Y-128829819D02*
X66322618Y-127829819D01*
X66322618Y-127829819D02*
X65846428Y-127829819D01*
X65560713Y-127829819D02*
X64989285Y-127829819D01*
X65274999Y-128829819D02*
X65274999Y-127829819D01*
X64132142Y-128829819D02*
X64703570Y-128829819D01*
X64417856Y-128829819D02*
X64417856Y-127829819D01*
X64417856Y-127829819D02*
X64513094Y-127972676D01*
X64513094Y-127972676D02*
X64608332Y-128067914D01*
X64608332Y-128067914D02*
X64703570Y-128115533D01*
X39579819Y-85216666D02*
X40294104Y-85216666D01*
X40294104Y-85216666D02*
X40436961Y-85169047D01*
X40436961Y-85169047D02*
X40532200Y-85073809D01*
X40532200Y-85073809D02*
X40579819Y-84930952D01*
X40579819Y-84930952D02*
X40579819Y-84835714D01*
X39913152Y-86121428D02*
X40579819Y-86121428D01*
X39532200Y-85883333D02*
X40246485Y-85645238D01*
X40246485Y-85645238D02*
X40246485Y-86264285D01*
X105839285Y-160129819D02*
X105267857Y-160129819D01*
X105553571Y-161129819D02*
X105553571Y-160129819D01*
X104934523Y-161129819D02*
X104934523Y-160129819D01*
X104934523Y-160129819D02*
X104553571Y-160129819D01*
X104553571Y-160129819D02*
X104458333Y-160177438D01*
X104458333Y-160177438D02*
X104410714Y-160225057D01*
X104410714Y-160225057D02*
X104363095Y-160320295D01*
X104363095Y-160320295D02*
X104363095Y-160463152D01*
X104363095Y-160463152D02*
X104410714Y-160558390D01*
X104410714Y-160558390D02*
X104458333Y-160606009D01*
X104458333Y-160606009D02*
X104553571Y-160653628D01*
X104553571Y-160653628D02*
X104934523Y-160653628D01*
X104172619Y-161225057D02*
X103410714Y-161225057D01*
X103172618Y-161129819D02*
X103172618Y-160129819D01*
X103172618Y-160606009D02*
X102601190Y-160606009D01*
X102601190Y-161129819D02*
X102601190Y-160129819D01*
X101934523Y-160129819D02*
X101744047Y-160129819D01*
X101744047Y-160129819D02*
X101648809Y-160177438D01*
X101648809Y-160177438D02*
X101553571Y-160272676D01*
X101553571Y-160272676D02*
X101505952Y-160463152D01*
X101505952Y-160463152D02*
X101505952Y-160796485D01*
X101505952Y-160796485D02*
X101553571Y-160986961D01*
X101553571Y-160986961D02*
X101648809Y-161082200D01*
X101648809Y-161082200D02*
X101744047Y-161129819D01*
X101744047Y-161129819D02*
X101934523Y-161129819D01*
X101934523Y-161129819D02*
X102029761Y-161082200D01*
X102029761Y-161082200D02*
X102124999Y-160986961D01*
X102124999Y-160986961D02*
X102172618Y-160796485D01*
X102172618Y-160796485D02*
X102172618Y-160463152D01*
X102172618Y-160463152D02*
X102124999Y-160272676D01*
X102124999Y-160272676D02*
X102029761Y-160177438D01*
X102029761Y-160177438D02*
X101934523Y-160129819D01*
X101077380Y-161129819D02*
X101077380Y-160129819D01*
X101077380Y-160129819D02*
X100744047Y-160844104D01*
X100744047Y-160844104D02*
X100410714Y-160129819D01*
X100410714Y-160129819D02*
X100410714Y-161129819D01*
X99934523Y-160606009D02*
X99601190Y-160606009D01*
X99458333Y-161129819D02*
X99934523Y-161129819D01*
X99934523Y-161129819D02*
X99934523Y-160129819D01*
X99934523Y-160129819D02*
X99458333Y-160129819D01*
X98505952Y-161129819D02*
X99077380Y-161129819D01*
X98791666Y-161129819D02*
X98791666Y-160129819D01*
X98791666Y-160129819D02*
X98886904Y-160272676D01*
X98886904Y-160272676D02*
X98982142Y-160367914D01*
X98982142Y-160367914D02*
X99077380Y-160415533D01*
X55327380Y-146829819D02*
X54755952Y-146829819D01*
X55041666Y-147829819D02*
X55041666Y-146829819D01*
X54422618Y-147829819D02*
X54422618Y-146829819D01*
X54422618Y-146829819D02*
X54041666Y-146829819D01*
X54041666Y-146829819D02*
X53946428Y-146877438D01*
X53946428Y-146877438D02*
X53898809Y-146925057D01*
X53898809Y-146925057D02*
X53851190Y-147020295D01*
X53851190Y-147020295D02*
X53851190Y-147163152D01*
X53851190Y-147163152D02*
X53898809Y-147258390D01*
X53898809Y-147258390D02*
X53946428Y-147306009D01*
X53946428Y-147306009D02*
X54041666Y-147353628D01*
X54041666Y-147353628D02*
X54422618Y-147353628D01*
X53660714Y-147925057D02*
X52898809Y-147925057D01*
X52660713Y-147306009D02*
X52327380Y-147306009D01*
X52184523Y-147829819D02*
X52660713Y-147829819D01*
X52660713Y-147829819D02*
X52660713Y-146829819D01*
X52660713Y-146829819D02*
X52184523Y-146829819D01*
X51755951Y-147829819D02*
X51755951Y-146829819D01*
X51755951Y-146829819D02*
X51374999Y-146829819D01*
X51374999Y-146829819D02*
X51279761Y-146877438D01*
X51279761Y-146877438D02*
X51232142Y-146925057D01*
X51232142Y-146925057D02*
X51184523Y-147020295D01*
X51184523Y-147020295D02*
X51184523Y-147163152D01*
X51184523Y-147163152D02*
X51232142Y-147258390D01*
X51232142Y-147258390D02*
X51279761Y-147306009D01*
X51279761Y-147306009D02*
X51374999Y-147353628D01*
X51374999Y-147353628D02*
X51755951Y-147353628D01*
X50994047Y-147925057D02*
X50232142Y-147925057D01*
X49422618Y-147734580D02*
X49470237Y-147782200D01*
X49470237Y-147782200D02*
X49613094Y-147829819D01*
X49613094Y-147829819D02*
X49708332Y-147829819D01*
X49708332Y-147829819D02*
X49851189Y-147782200D01*
X49851189Y-147782200D02*
X49946427Y-147686961D01*
X49946427Y-147686961D02*
X49994046Y-147591723D01*
X49994046Y-147591723D02*
X50041665Y-147401247D01*
X50041665Y-147401247D02*
X50041665Y-147258390D01*
X50041665Y-147258390D02*
X49994046Y-147067914D01*
X49994046Y-147067914D02*
X49946427Y-146972676D01*
X49946427Y-146972676D02*
X49851189Y-146877438D01*
X49851189Y-146877438D02*
X49708332Y-146829819D01*
X49708332Y-146829819D02*
X49613094Y-146829819D01*
X49613094Y-146829819D02*
X49470237Y-146877438D01*
X49470237Y-146877438D02*
X49422618Y-146925057D01*
X49041665Y-147782200D02*
X48898808Y-147829819D01*
X48898808Y-147829819D02*
X48660713Y-147829819D01*
X48660713Y-147829819D02*
X48565475Y-147782200D01*
X48565475Y-147782200D02*
X48517856Y-147734580D01*
X48517856Y-147734580D02*
X48470237Y-147639342D01*
X48470237Y-147639342D02*
X48470237Y-147544104D01*
X48470237Y-147544104D02*
X48517856Y-147448866D01*
X48517856Y-147448866D02*
X48565475Y-147401247D01*
X48565475Y-147401247D02*
X48660713Y-147353628D01*
X48660713Y-147353628D02*
X48851189Y-147306009D01*
X48851189Y-147306009D02*
X48946427Y-147258390D01*
X48946427Y-147258390D02*
X48994046Y-147210771D01*
X48994046Y-147210771D02*
X49041665Y-147115533D01*
X49041665Y-147115533D02*
X49041665Y-147020295D01*
X49041665Y-147020295D02*
X48994046Y-146925057D01*
X48994046Y-146925057D02*
X48946427Y-146877438D01*
X48946427Y-146877438D02*
X48851189Y-146829819D01*
X48851189Y-146829819D02*
X48613094Y-146829819D01*
X48613094Y-146829819D02*
X48470237Y-146877438D01*
X47517856Y-147829819D02*
X48089284Y-147829819D01*
X47803570Y-147829819D02*
X47803570Y-146829819D01*
X47803570Y-146829819D02*
X47898808Y-146972676D01*
X47898808Y-146972676D02*
X47994046Y-147067914D01*
X47994046Y-147067914D02*
X48089284Y-147115533D01*
X53056487Y-114001940D02*
X53104106Y-114049560D01*
X53104106Y-114049560D02*
X53246963Y-114097179D01*
X53246963Y-114097179D02*
X53342201Y-114097179D01*
X53342201Y-114097179D02*
X53485058Y-114049560D01*
X53485058Y-114049560D02*
X53580296Y-113954321D01*
X53580296Y-113954321D02*
X53627915Y-113859083D01*
X53627915Y-113859083D02*
X53675534Y-113668607D01*
X53675534Y-113668607D02*
X53675534Y-113525750D01*
X53675534Y-113525750D02*
X53627915Y-113335274D01*
X53627915Y-113335274D02*
X53580296Y-113240036D01*
X53580296Y-113240036D02*
X53485058Y-113144798D01*
X53485058Y-113144798D02*
X53342201Y-113097179D01*
X53342201Y-113097179D02*
X53246963Y-113097179D01*
X53246963Y-113097179D02*
X53104106Y-113144798D01*
X53104106Y-113144798D02*
X53056487Y-113192417D01*
X52675534Y-113192417D02*
X52627915Y-113144798D01*
X52627915Y-113144798D02*
X52532677Y-113097179D01*
X52532677Y-113097179D02*
X52294582Y-113097179D01*
X52294582Y-113097179D02*
X52199344Y-113144798D01*
X52199344Y-113144798D02*
X52151725Y-113192417D01*
X52151725Y-113192417D02*
X52104106Y-113287655D01*
X52104106Y-113287655D02*
X52104106Y-113382893D01*
X52104106Y-113382893D02*
X52151725Y-113525750D01*
X52151725Y-113525750D02*
X52723153Y-114097179D01*
X52723153Y-114097179D02*
X52104106Y-114097179D01*
X51723153Y-113192417D02*
X51675534Y-113144798D01*
X51675534Y-113144798D02*
X51580296Y-113097179D01*
X51580296Y-113097179D02*
X51342201Y-113097179D01*
X51342201Y-113097179D02*
X51246963Y-113144798D01*
X51246963Y-113144798D02*
X51199344Y-113192417D01*
X51199344Y-113192417D02*
X51151725Y-113287655D01*
X51151725Y-113287655D02*
X51151725Y-113382893D01*
X51151725Y-113382893D02*
X51199344Y-113525750D01*
X51199344Y-113525750D02*
X51770772Y-114097179D01*
X51770772Y-114097179D02*
X51151725Y-114097179D01*
X118934580Y-156332142D02*
X118982200Y-156284523D01*
X118982200Y-156284523D02*
X119029819Y-156141666D01*
X119029819Y-156141666D02*
X119029819Y-156046428D01*
X119029819Y-156046428D02*
X118982200Y-155903571D01*
X118982200Y-155903571D02*
X118886961Y-155808333D01*
X118886961Y-155808333D02*
X118791723Y-155760714D01*
X118791723Y-155760714D02*
X118601247Y-155713095D01*
X118601247Y-155713095D02*
X118458390Y-155713095D01*
X118458390Y-155713095D02*
X118267914Y-155760714D01*
X118267914Y-155760714D02*
X118172676Y-155808333D01*
X118172676Y-155808333D02*
X118077438Y-155903571D01*
X118077438Y-155903571D02*
X118029819Y-156046428D01*
X118029819Y-156046428D02*
X118029819Y-156141666D01*
X118029819Y-156141666D02*
X118077438Y-156284523D01*
X118077438Y-156284523D02*
X118125057Y-156332142D01*
X118125057Y-156713095D02*
X118077438Y-156760714D01*
X118077438Y-156760714D02*
X118029819Y-156855952D01*
X118029819Y-156855952D02*
X118029819Y-157094047D01*
X118029819Y-157094047D02*
X118077438Y-157189285D01*
X118077438Y-157189285D02*
X118125057Y-157236904D01*
X118125057Y-157236904D02*
X118220295Y-157284523D01*
X118220295Y-157284523D02*
X118315533Y-157284523D01*
X118315533Y-157284523D02*
X118458390Y-157236904D01*
X118458390Y-157236904D02*
X119029819Y-156665476D01*
X119029819Y-156665476D02*
X119029819Y-157284523D01*
X118029819Y-158189285D02*
X118029819Y-157713095D01*
X118029819Y-157713095D02*
X118506009Y-157665476D01*
X118506009Y-157665476D02*
X118458390Y-157713095D01*
X118458390Y-157713095D02*
X118410771Y-157808333D01*
X118410771Y-157808333D02*
X118410771Y-158046428D01*
X118410771Y-158046428D02*
X118458390Y-158141666D01*
X118458390Y-158141666D02*
X118506009Y-158189285D01*
X118506009Y-158189285D02*
X118601247Y-158236904D01*
X118601247Y-158236904D02*
X118839342Y-158236904D01*
X118839342Y-158236904D02*
X118934580Y-158189285D01*
X118934580Y-158189285D02*
X118982200Y-158141666D01*
X118982200Y-158141666D02*
X119029819Y-158046428D01*
X119029819Y-158046428D02*
X119029819Y-157808333D01*
X119029819Y-157808333D02*
X118982200Y-157713095D01*
X118982200Y-157713095D02*
X118934580Y-157665476D01*
X135529819Y-118839286D02*
X135529819Y-119410714D01*
X136529819Y-119125000D02*
X135529819Y-119125000D01*
X136529819Y-119744048D02*
X135529819Y-119744048D01*
X135529819Y-119744048D02*
X135529819Y-120125000D01*
X135529819Y-120125000D02*
X135577438Y-120220238D01*
X135577438Y-120220238D02*
X135625057Y-120267857D01*
X135625057Y-120267857D02*
X135720295Y-120315476D01*
X135720295Y-120315476D02*
X135863152Y-120315476D01*
X135863152Y-120315476D02*
X135958390Y-120267857D01*
X135958390Y-120267857D02*
X136006009Y-120220238D01*
X136006009Y-120220238D02*
X136053628Y-120125000D01*
X136053628Y-120125000D02*
X136053628Y-119744048D01*
X136625057Y-120505953D02*
X136625057Y-121267857D01*
X136529819Y-122077381D02*
X136053628Y-121744048D01*
X136529819Y-121505953D02*
X135529819Y-121505953D01*
X135529819Y-121505953D02*
X135529819Y-121886905D01*
X135529819Y-121886905D02*
X135577438Y-121982143D01*
X135577438Y-121982143D02*
X135625057Y-122029762D01*
X135625057Y-122029762D02*
X135720295Y-122077381D01*
X135720295Y-122077381D02*
X135863152Y-122077381D01*
X135863152Y-122077381D02*
X135958390Y-122029762D01*
X135958390Y-122029762D02*
X136006009Y-121982143D01*
X136006009Y-121982143D02*
X136053628Y-121886905D01*
X136053628Y-121886905D02*
X136053628Y-121505953D01*
X136529819Y-122505953D02*
X135529819Y-122505953D01*
X135577438Y-123505952D02*
X135529819Y-123410714D01*
X135529819Y-123410714D02*
X135529819Y-123267857D01*
X135529819Y-123267857D02*
X135577438Y-123125000D01*
X135577438Y-123125000D02*
X135672676Y-123029762D01*
X135672676Y-123029762D02*
X135767914Y-122982143D01*
X135767914Y-122982143D02*
X135958390Y-122934524D01*
X135958390Y-122934524D02*
X136101247Y-122934524D01*
X136101247Y-122934524D02*
X136291723Y-122982143D01*
X136291723Y-122982143D02*
X136386961Y-123029762D01*
X136386961Y-123029762D02*
X136482200Y-123125000D01*
X136482200Y-123125000D02*
X136529819Y-123267857D01*
X136529819Y-123267857D02*
X136529819Y-123363095D01*
X136529819Y-123363095D02*
X136482200Y-123505952D01*
X136482200Y-123505952D02*
X136434580Y-123553571D01*
X136434580Y-123553571D02*
X136101247Y-123553571D01*
X136101247Y-123553571D02*
X136101247Y-123363095D01*
X136529819Y-123982143D02*
X135529819Y-123982143D01*
X136006009Y-123982143D02*
X136006009Y-124553571D01*
X136529819Y-124553571D02*
X135529819Y-124553571D01*
X135529819Y-124886905D02*
X135529819Y-125458333D01*
X136529819Y-125172619D02*
X135529819Y-125172619D01*
X136529819Y-126315476D02*
X136529819Y-125744048D01*
X136529819Y-126029762D02*
X135529819Y-126029762D01*
X135529819Y-126029762D02*
X135672676Y-125934524D01*
X135672676Y-125934524D02*
X135767914Y-125839286D01*
X135767914Y-125839286D02*
X135815533Y-125744048D01*
X96147083Y-95934580D02*
X96194702Y-95982200D01*
X96194702Y-95982200D02*
X96337559Y-96029819D01*
X96337559Y-96029819D02*
X96432797Y-96029819D01*
X96432797Y-96029819D02*
X96575654Y-95982200D01*
X96575654Y-95982200D02*
X96670892Y-95886961D01*
X96670892Y-95886961D02*
X96718511Y-95791723D01*
X96718511Y-95791723D02*
X96766130Y-95601247D01*
X96766130Y-95601247D02*
X96766130Y-95458390D01*
X96766130Y-95458390D02*
X96718511Y-95267914D01*
X96718511Y-95267914D02*
X96670892Y-95172676D01*
X96670892Y-95172676D02*
X96575654Y-95077438D01*
X96575654Y-95077438D02*
X96432797Y-95029819D01*
X96432797Y-95029819D02*
X96337559Y-95029819D01*
X96337559Y-95029819D02*
X96194702Y-95077438D01*
X96194702Y-95077438D02*
X96147083Y-95125057D01*
X95194702Y-96029819D02*
X95766130Y-96029819D01*
X95480416Y-96029819D02*
X95480416Y-95029819D01*
X95480416Y-95029819D02*
X95575654Y-95172676D01*
X95575654Y-95172676D02*
X95670892Y-95267914D01*
X95670892Y-95267914D02*
X95766130Y-95315533D01*
X94575654Y-95029819D02*
X94480416Y-95029819D01*
X94480416Y-95029819D02*
X94385178Y-95077438D01*
X94385178Y-95077438D02*
X94337559Y-95125057D01*
X94337559Y-95125057D02*
X94289940Y-95220295D01*
X94289940Y-95220295D02*
X94242321Y-95410771D01*
X94242321Y-95410771D02*
X94242321Y-95648866D01*
X94242321Y-95648866D02*
X94289940Y-95839342D01*
X94289940Y-95839342D02*
X94337559Y-95934580D01*
X94337559Y-95934580D02*
X94385178Y-95982200D01*
X94385178Y-95982200D02*
X94480416Y-96029819D01*
X94480416Y-96029819D02*
X94575654Y-96029819D01*
X94575654Y-96029819D02*
X94670892Y-95982200D01*
X94670892Y-95982200D02*
X94718511Y-95934580D01*
X94718511Y-95934580D02*
X94766130Y-95839342D01*
X94766130Y-95839342D02*
X94813749Y-95648866D01*
X94813749Y-95648866D02*
X94813749Y-95410771D01*
X94813749Y-95410771D02*
X94766130Y-95220295D01*
X94766130Y-95220295D02*
X94718511Y-95125057D01*
X94718511Y-95125057D02*
X94670892Y-95077438D01*
X94670892Y-95077438D02*
X94575654Y-95029819D01*
X98509342Y-105819425D02*
X98509342Y-105343235D01*
X98509342Y-105343235D02*
X97509342Y-105343235D01*
X98509342Y-106676568D02*
X98509342Y-106105140D01*
X98509342Y-106390854D02*
X97509342Y-106390854D01*
X97509342Y-106390854D02*
X97652199Y-106295616D01*
X97652199Y-106295616D02*
X97747437Y-106200378D01*
X97747437Y-106200378D02*
X97795056Y-106105140D01*
X98842857Y-121834580D02*
X98890476Y-121882200D01*
X98890476Y-121882200D02*
X99033333Y-121929819D01*
X99033333Y-121929819D02*
X99128571Y-121929819D01*
X99128571Y-121929819D02*
X99271428Y-121882200D01*
X99271428Y-121882200D02*
X99366666Y-121786961D01*
X99366666Y-121786961D02*
X99414285Y-121691723D01*
X99414285Y-121691723D02*
X99461904Y-121501247D01*
X99461904Y-121501247D02*
X99461904Y-121358390D01*
X99461904Y-121358390D02*
X99414285Y-121167914D01*
X99414285Y-121167914D02*
X99366666Y-121072676D01*
X99366666Y-121072676D02*
X99271428Y-120977438D01*
X99271428Y-120977438D02*
X99128571Y-120929819D01*
X99128571Y-120929819D02*
X99033333Y-120929819D01*
X99033333Y-120929819D02*
X98890476Y-120977438D01*
X98890476Y-120977438D02*
X98842857Y-121025057D01*
X97890476Y-121929819D02*
X98461904Y-121929819D01*
X98176190Y-121929819D02*
X98176190Y-120929819D01*
X98176190Y-120929819D02*
X98271428Y-121072676D01*
X98271428Y-121072676D02*
X98366666Y-121167914D01*
X98366666Y-121167914D02*
X98461904Y-121215533D01*
X97557142Y-120929819D02*
X96938095Y-120929819D01*
X96938095Y-120929819D02*
X97271428Y-121310771D01*
X97271428Y-121310771D02*
X97128571Y-121310771D01*
X97128571Y-121310771D02*
X97033333Y-121358390D01*
X97033333Y-121358390D02*
X96985714Y-121406009D01*
X96985714Y-121406009D02*
X96938095Y-121501247D01*
X96938095Y-121501247D02*
X96938095Y-121739342D01*
X96938095Y-121739342D02*
X96985714Y-121834580D01*
X96985714Y-121834580D02*
X97033333Y-121882200D01*
X97033333Y-121882200D02*
X97128571Y-121929819D01*
X97128571Y-121929819D02*
X97414285Y-121929819D01*
X97414285Y-121929819D02*
X97509523Y-121882200D01*
X97509523Y-121882200D02*
X97557142Y-121834580D01*
X49079819Y-91907142D02*
X48603628Y-91573809D01*
X49079819Y-91335714D02*
X48079819Y-91335714D01*
X48079819Y-91335714D02*
X48079819Y-91716666D01*
X48079819Y-91716666D02*
X48127438Y-91811904D01*
X48127438Y-91811904D02*
X48175057Y-91859523D01*
X48175057Y-91859523D02*
X48270295Y-91907142D01*
X48270295Y-91907142D02*
X48413152Y-91907142D01*
X48413152Y-91907142D02*
X48508390Y-91859523D01*
X48508390Y-91859523D02*
X48556009Y-91811904D01*
X48556009Y-91811904D02*
X48603628Y-91716666D01*
X48603628Y-91716666D02*
X48603628Y-91335714D01*
X48175057Y-92288095D02*
X48127438Y-92335714D01*
X48127438Y-92335714D02*
X48079819Y-92430952D01*
X48079819Y-92430952D02*
X48079819Y-92669047D01*
X48079819Y-92669047D02*
X48127438Y-92764285D01*
X48127438Y-92764285D02*
X48175057Y-92811904D01*
X48175057Y-92811904D02*
X48270295Y-92859523D01*
X48270295Y-92859523D02*
X48365533Y-92859523D01*
X48365533Y-92859523D02*
X48508390Y-92811904D01*
X48508390Y-92811904D02*
X49079819Y-92240476D01*
X49079819Y-92240476D02*
X49079819Y-92859523D01*
X49079819Y-93811904D02*
X49079819Y-93240476D01*
X49079819Y-93526190D02*
X48079819Y-93526190D01*
X48079819Y-93526190D02*
X48222676Y-93430952D01*
X48222676Y-93430952D02*
X48317914Y-93335714D01*
X48317914Y-93335714D02*
X48365533Y-93240476D01*
X96147083Y-99284580D02*
X96194702Y-99332200D01*
X96194702Y-99332200D02*
X96337559Y-99379819D01*
X96337559Y-99379819D02*
X96432797Y-99379819D01*
X96432797Y-99379819D02*
X96575654Y-99332200D01*
X96575654Y-99332200D02*
X96670892Y-99236961D01*
X96670892Y-99236961D02*
X96718511Y-99141723D01*
X96718511Y-99141723D02*
X96766130Y-98951247D01*
X96766130Y-98951247D02*
X96766130Y-98808390D01*
X96766130Y-98808390D02*
X96718511Y-98617914D01*
X96718511Y-98617914D02*
X96670892Y-98522676D01*
X96670892Y-98522676D02*
X96575654Y-98427438D01*
X96575654Y-98427438D02*
X96432797Y-98379819D01*
X96432797Y-98379819D02*
X96337559Y-98379819D01*
X96337559Y-98379819D02*
X96194702Y-98427438D01*
X96194702Y-98427438D02*
X96147083Y-98475057D01*
X95194702Y-99379819D02*
X95766130Y-99379819D01*
X95480416Y-99379819D02*
X95480416Y-98379819D01*
X95480416Y-98379819D02*
X95575654Y-98522676D01*
X95575654Y-98522676D02*
X95670892Y-98617914D01*
X95670892Y-98617914D02*
X95766130Y-98665533D01*
X94242321Y-99379819D02*
X94813749Y-99379819D01*
X94528035Y-99379819D02*
X94528035Y-98379819D01*
X94528035Y-98379819D02*
X94623273Y-98522676D01*
X94623273Y-98522676D02*
X94718511Y-98617914D01*
X94718511Y-98617914D02*
X94813749Y-98665533D01*
X53117564Y-121362367D02*
X53117564Y-120362367D01*
X53117564Y-120362367D02*
X52879469Y-120362367D01*
X52879469Y-120362367D02*
X52736612Y-120409986D01*
X52736612Y-120409986D02*
X52641374Y-120505224D01*
X52641374Y-120505224D02*
X52593755Y-120600462D01*
X52593755Y-120600462D02*
X52546136Y-120790938D01*
X52546136Y-120790938D02*
X52546136Y-120933795D01*
X52546136Y-120933795D02*
X52593755Y-121124271D01*
X52593755Y-121124271D02*
X52641374Y-121219509D01*
X52641374Y-121219509D02*
X52736612Y-121314748D01*
X52736612Y-121314748D02*
X52879469Y-121362367D01*
X52879469Y-121362367D02*
X53117564Y-121362367D01*
X52212802Y-120362367D02*
X51593755Y-120362367D01*
X51593755Y-120362367D02*
X51927088Y-120743319D01*
X51927088Y-120743319D02*
X51784231Y-120743319D01*
X51784231Y-120743319D02*
X51688993Y-120790938D01*
X51688993Y-120790938D02*
X51641374Y-120838557D01*
X51641374Y-120838557D02*
X51593755Y-120933795D01*
X51593755Y-120933795D02*
X51593755Y-121171890D01*
X51593755Y-121171890D02*
X51641374Y-121267128D01*
X51641374Y-121267128D02*
X51688993Y-121314748D01*
X51688993Y-121314748D02*
X51784231Y-121362367D01*
X51784231Y-121362367D02*
X52069945Y-121362367D01*
X52069945Y-121362367D02*
X52165183Y-121314748D01*
X52165183Y-121314748D02*
X52212802Y-121267128D01*
X87696428Y-159979819D02*
X87125000Y-159979819D01*
X87410714Y-160979819D02*
X87410714Y-159979819D01*
X86791666Y-160979819D02*
X86791666Y-159979819D01*
X86791666Y-159979819D02*
X86410714Y-159979819D01*
X86410714Y-159979819D02*
X86315476Y-160027438D01*
X86315476Y-160027438D02*
X86267857Y-160075057D01*
X86267857Y-160075057D02*
X86220238Y-160170295D01*
X86220238Y-160170295D02*
X86220238Y-160313152D01*
X86220238Y-160313152D02*
X86267857Y-160408390D01*
X86267857Y-160408390D02*
X86315476Y-160456009D01*
X86315476Y-160456009D02*
X86410714Y-160503628D01*
X86410714Y-160503628D02*
X86791666Y-160503628D01*
X86029762Y-161075057D02*
X85267857Y-161075057D01*
X85172618Y-159979819D02*
X84839285Y-160979819D01*
X84839285Y-160979819D02*
X84505952Y-159979819D01*
X83839285Y-160456009D02*
X83696428Y-160503628D01*
X83696428Y-160503628D02*
X83648809Y-160551247D01*
X83648809Y-160551247D02*
X83601190Y-160646485D01*
X83601190Y-160646485D02*
X83601190Y-160789342D01*
X83601190Y-160789342D02*
X83648809Y-160884580D01*
X83648809Y-160884580D02*
X83696428Y-160932200D01*
X83696428Y-160932200D02*
X83791666Y-160979819D01*
X83791666Y-160979819D02*
X84172618Y-160979819D01*
X84172618Y-160979819D02*
X84172618Y-159979819D01*
X84172618Y-159979819D02*
X83839285Y-159979819D01*
X83839285Y-159979819D02*
X83744047Y-160027438D01*
X83744047Y-160027438D02*
X83696428Y-160075057D01*
X83696428Y-160075057D02*
X83648809Y-160170295D01*
X83648809Y-160170295D02*
X83648809Y-160265533D01*
X83648809Y-160265533D02*
X83696428Y-160360771D01*
X83696428Y-160360771D02*
X83744047Y-160408390D01*
X83744047Y-160408390D02*
X83839285Y-160456009D01*
X83839285Y-160456009D02*
X84172618Y-160456009D01*
X83172618Y-159979819D02*
X83172618Y-160789342D01*
X83172618Y-160789342D02*
X83124999Y-160884580D01*
X83124999Y-160884580D02*
X83077380Y-160932200D01*
X83077380Y-160932200D02*
X82982142Y-160979819D01*
X82982142Y-160979819D02*
X82791666Y-160979819D01*
X82791666Y-160979819D02*
X82696428Y-160932200D01*
X82696428Y-160932200D02*
X82648809Y-160884580D01*
X82648809Y-160884580D02*
X82601190Y-160789342D01*
X82601190Y-160789342D02*
X82601190Y-159979819D01*
X82172618Y-160932200D02*
X82029761Y-160979819D01*
X82029761Y-160979819D02*
X81791666Y-160979819D01*
X81791666Y-160979819D02*
X81696428Y-160932200D01*
X81696428Y-160932200D02*
X81648809Y-160884580D01*
X81648809Y-160884580D02*
X81601190Y-160789342D01*
X81601190Y-160789342D02*
X81601190Y-160694104D01*
X81601190Y-160694104D02*
X81648809Y-160598866D01*
X81648809Y-160598866D02*
X81696428Y-160551247D01*
X81696428Y-160551247D02*
X81791666Y-160503628D01*
X81791666Y-160503628D02*
X81982142Y-160456009D01*
X81982142Y-160456009D02*
X82077380Y-160408390D01*
X82077380Y-160408390D02*
X82124999Y-160360771D01*
X82124999Y-160360771D02*
X82172618Y-160265533D01*
X82172618Y-160265533D02*
X82172618Y-160170295D01*
X82172618Y-160170295D02*
X82124999Y-160075057D01*
X82124999Y-160075057D02*
X82077380Y-160027438D01*
X82077380Y-160027438D02*
X81982142Y-159979819D01*
X81982142Y-159979819D02*
X81744047Y-159979819D01*
X81744047Y-159979819D02*
X81601190Y-160027438D01*
X80648809Y-160979819D02*
X81220237Y-160979819D01*
X80934523Y-160979819D02*
X80934523Y-159979819D01*
X80934523Y-159979819D02*
X81029761Y-160122676D01*
X81029761Y-160122676D02*
X81124999Y-160217914D01*
X81124999Y-160217914D02*
X81220237Y-160265533D01*
X68029819Y-94352380D02*
X67553628Y-94019047D01*
X68029819Y-93780952D02*
X67029819Y-93780952D01*
X67029819Y-93780952D02*
X67029819Y-94161904D01*
X67029819Y-94161904D02*
X67077438Y-94257142D01*
X67077438Y-94257142D02*
X67125057Y-94304761D01*
X67125057Y-94304761D02*
X67220295Y-94352380D01*
X67220295Y-94352380D02*
X67363152Y-94352380D01*
X67363152Y-94352380D02*
X67458390Y-94304761D01*
X67458390Y-94304761D02*
X67506009Y-94257142D01*
X67506009Y-94257142D02*
X67553628Y-94161904D01*
X67553628Y-94161904D02*
X67553628Y-93780952D01*
X68102200Y-94695237D02*
X68140295Y-94809523D01*
X68140295Y-94809523D02*
X68140295Y-94999999D01*
X68140295Y-94999999D02*
X68102200Y-95076190D01*
X68102200Y-95076190D02*
X68064104Y-95114285D01*
X68064104Y-95114285D02*
X67987914Y-95152380D01*
X67987914Y-95152380D02*
X67911723Y-95152380D01*
X67911723Y-95152380D02*
X67835533Y-95114285D01*
X67835533Y-95114285D02*
X67797438Y-95076190D01*
X67797438Y-95076190D02*
X67759342Y-94999999D01*
X67759342Y-94999999D02*
X67721247Y-94847618D01*
X67721247Y-94847618D02*
X67683152Y-94771428D01*
X67683152Y-94771428D02*
X67645057Y-94733333D01*
X67645057Y-94733333D02*
X67568866Y-94695237D01*
X67568866Y-94695237D02*
X67492676Y-94695237D01*
X67492676Y-94695237D02*
X67416485Y-94733333D01*
X67416485Y-94733333D02*
X67378390Y-94771428D01*
X67378390Y-94771428D02*
X67340295Y-94847618D01*
X67340295Y-94847618D02*
X67340295Y-95038095D01*
X67340295Y-95038095D02*
X67378390Y-95152380D01*
X68140295Y-95495238D02*
X67340295Y-95495238D01*
X67340295Y-95495238D02*
X68140295Y-95952381D01*
X68140295Y-95952381D02*
X67340295Y-95952381D01*
X68102200Y-96295237D02*
X68140295Y-96409523D01*
X68140295Y-96409523D02*
X68140295Y-96599999D01*
X68140295Y-96599999D02*
X68102200Y-96676190D01*
X68102200Y-96676190D02*
X68064104Y-96714285D01*
X68064104Y-96714285D02*
X67987914Y-96752380D01*
X67987914Y-96752380D02*
X67911723Y-96752380D01*
X67911723Y-96752380D02*
X67835533Y-96714285D01*
X67835533Y-96714285D02*
X67797438Y-96676190D01*
X67797438Y-96676190D02*
X67759342Y-96599999D01*
X67759342Y-96599999D02*
X67721247Y-96447618D01*
X67721247Y-96447618D02*
X67683152Y-96371428D01*
X67683152Y-96371428D02*
X67645057Y-96333333D01*
X67645057Y-96333333D02*
X67568866Y-96295237D01*
X67568866Y-96295237D02*
X67492676Y-96295237D01*
X67492676Y-96295237D02*
X67416485Y-96333333D01*
X67416485Y-96333333D02*
X67378390Y-96371428D01*
X67378390Y-96371428D02*
X67340295Y-96447618D01*
X67340295Y-96447618D02*
X67340295Y-96638095D01*
X67340295Y-96638095D02*
X67378390Y-96752380D01*
X67125057Y-97095238D02*
X67077438Y-97142857D01*
X67077438Y-97142857D02*
X67029819Y-97238095D01*
X67029819Y-97238095D02*
X67029819Y-97476190D01*
X67029819Y-97476190D02*
X67077438Y-97571428D01*
X67077438Y-97571428D02*
X67125057Y-97619047D01*
X67125057Y-97619047D02*
X67220295Y-97666666D01*
X67220295Y-97666666D02*
X67315533Y-97666666D01*
X67315533Y-97666666D02*
X67458390Y-97619047D01*
X67458390Y-97619047D02*
X68029819Y-97047619D01*
X68029819Y-97047619D02*
X68029819Y-97666666D01*
X59375000Y-102079819D02*
X58803572Y-102079819D01*
X59089286Y-103079819D02*
X59089286Y-102079819D01*
X58470238Y-103079819D02*
X58470238Y-102079819D01*
X58470238Y-102079819D02*
X58089286Y-102079819D01*
X58089286Y-102079819D02*
X57994048Y-102127438D01*
X57994048Y-102127438D02*
X57946429Y-102175057D01*
X57946429Y-102175057D02*
X57898810Y-102270295D01*
X57898810Y-102270295D02*
X57898810Y-102413152D01*
X57898810Y-102413152D02*
X57946429Y-102508390D01*
X57946429Y-102508390D02*
X57994048Y-102556009D01*
X57994048Y-102556009D02*
X58089286Y-102603628D01*
X58089286Y-102603628D02*
X58470238Y-102603628D01*
X57708334Y-103175057D02*
X56946429Y-103175057D01*
X56375000Y-102556009D02*
X56232143Y-102603628D01*
X56232143Y-102603628D02*
X56184524Y-102651247D01*
X56184524Y-102651247D02*
X56136905Y-102746485D01*
X56136905Y-102746485D02*
X56136905Y-102889342D01*
X56136905Y-102889342D02*
X56184524Y-102984580D01*
X56184524Y-102984580D02*
X56232143Y-103032200D01*
X56232143Y-103032200D02*
X56327381Y-103079819D01*
X56327381Y-103079819D02*
X56708333Y-103079819D01*
X56708333Y-103079819D02*
X56708333Y-102079819D01*
X56708333Y-102079819D02*
X56375000Y-102079819D01*
X56375000Y-102079819D02*
X56279762Y-102127438D01*
X56279762Y-102127438D02*
X56232143Y-102175057D01*
X56232143Y-102175057D02*
X56184524Y-102270295D01*
X56184524Y-102270295D02*
X56184524Y-102365533D01*
X56184524Y-102365533D02*
X56232143Y-102460771D01*
X56232143Y-102460771D02*
X56279762Y-102508390D01*
X56279762Y-102508390D02*
X56375000Y-102556009D01*
X56375000Y-102556009D02*
X56708333Y-102556009D01*
X55755952Y-102794104D02*
X55279762Y-102794104D01*
X55851190Y-103079819D02*
X55517857Y-102079819D01*
X55517857Y-102079819D02*
X55184524Y-103079819D01*
X54994047Y-102079819D02*
X54422619Y-102079819D01*
X54708333Y-103079819D02*
X54708333Y-102079819D01*
X54327381Y-103175057D02*
X53565476Y-103175057D01*
X53374999Y-103032200D02*
X53232142Y-103079819D01*
X53232142Y-103079819D02*
X52994047Y-103079819D01*
X52994047Y-103079819D02*
X52898809Y-103032200D01*
X52898809Y-103032200D02*
X52851190Y-102984580D01*
X52851190Y-102984580D02*
X52803571Y-102889342D01*
X52803571Y-102889342D02*
X52803571Y-102794104D01*
X52803571Y-102794104D02*
X52851190Y-102698866D01*
X52851190Y-102698866D02*
X52898809Y-102651247D01*
X52898809Y-102651247D02*
X52994047Y-102603628D01*
X52994047Y-102603628D02*
X53184523Y-102556009D01*
X53184523Y-102556009D02*
X53279761Y-102508390D01*
X53279761Y-102508390D02*
X53327380Y-102460771D01*
X53327380Y-102460771D02*
X53374999Y-102365533D01*
X53374999Y-102365533D02*
X53374999Y-102270295D01*
X53374999Y-102270295D02*
X53327380Y-102175057D01*
X53327380Y-102175057D02*
X53279761Y-102127438D01*
X53279761Y-102127438D02*
X53184523Y-102079819D01*
X53184523Y-102079819D02*
X52946428Y-102079819D01*
X52946428Y-102079819D02*
X52803571Y-102127438D01*
X52517856Y-102079819D02*
X51946428Y-102079819D01*
X52232142Y-103079819D02*
X52232142Y-102079819D01*
X51660713Y-102794104D02*
X51184523Y-102794104D01*
X51755951Y-103079819D02*
X51422618Y-102079819D01*
X51422618Y-102079819D02*
X51089285Y-103079819D01*
X50898808Y-102079819D02*
X50327380Y-102079819D01*
X50613094Y-103079819D02*
X50613094Y-102079819D01*
X49470237Y-103079819D02*
X50041665Y-103079819D01*
X49755951Y-103079819D02*
X49755951Y-102079819D01*
X49755951Y-102079819D02*
X49851189Y-102222676D01*
X49851189Y-102222676D02*
X49946427Y-102317914D01*
X49946427Y-102317914D02*
X50041665Y-102365533D01*
X86091666Y-109868990D02*
X85758333Y-109868990D01*
X85758333Y-109345180D02*
X85758333Y-110345180D01*
X85758333Y-110345180D02*
X86234523Y-110345180D01*
X86567857Y-110249942D02*
X86615476Y-110297561D01*
X86615476Y-110297561D02*
X86710714Y-110345180D01*
X86710714Y-110345180D02*
X86948809Y-110345180D01*
X86948809Y-110345180D02*
X87044047Y-110297561D01*
X87044047Y-110297561D02*
X87091666Y-110249942D01*
X87091666Y-110249942D02*
X87139285Y-110154704D01*
X87139285Y-110154704D02*
X87139285Y-110059466D01*
X87139285Y-110059466D02*
X87091666Y-109916609D01*
X87091666Y-109916609D02*
X86520238Y-109345180D01*
X86520238Y-109345180D02*
X87139285Y-109345180D01*
X53086808Y-119032498D02*
X53134427Y-119080118D01*
X53134427Y-119080118D02*
X53277284Y-119127737D01*
X53277284Y-119127737D02*
X53372522Y-119127737D01*
X53372522Y-119127737D02*
X53515379Y-119080118D01*
X53515379Y-119080118D02*
X53610617Y-118984879D01*
X53610617Y-118984879D02*
X53658236Y-118889641D01*
X53658236Y-118889641D02*
X53705855Y-118699165D01*
X53705855Y-118699165D02*
X53705855Y-118556308D01*
X53705855Y-118556308D02*
X53658236Y-118365832D01*
X53658236Y-118365832D02*
X53610617Y-118270594D01*
X53610617Y-118270594D02*
X53515379Y-118175356D01*
X53515379Y-118175356D02*
X53372522Y-118127737D01*
X53372522Y-118127737D02*
X53277284Y-118127737D01*
X53277284Y-118127737D02*
X53134427Y-118175356D01*
X53134427Y-118175356D02*
X53086808Y-118222975D01*
X52705855Y-118222975D02*
X52658236Y-118175356D01*
X52658236Y-118175356D02*
X52562998Y-118127737D01*
X52562998Y-118127737D02*
X52324903Y-118127737D01*
X52324903Y-118127737D02*
X52229665Y-118175356D01*
X52229665Y-118175356D02*
X52182046Y-118222975D01*
X52182046Y-118222975D02*
X52134427Y-118318213D01*
X52134427Y-118318213D02*
X52134427Y-118413451D01*
X52134427Y-118413451D02*
X52182046Y-118556308D01*
X52182046Y-118556308D02*
X52753474Y-119127737D01*
X52753474Y-119127737D02*
X52134427Y-119127737D01*
X51182046Y-119127737D02*
X51753474Y-119127737D01*
X51467760Y-119127737D02*
X51467760Y-118127737D01*
X51467760Y-118127737D02*
X51562998Y-118270594D01*
X51562998Y-118270594D02*
X51658236Y-118365832D01*
X51658236Y-118365832D02*
X51753474Y-118413451D01*
X72446428Y-83629819D02*
X71875000Y-83629819D01*
X72160714Y-84629819D02*
X72160714Y-83629819D01*
X71541666Y-84629819D02*
X71541666Y-83629819D01*
X71541666Y-83629819D02*
X71160714Y-83629819D01*
X71160714Y-83629819D02*
X71065476Y-83677438D01*
X71065476Y-83677438D02*
X71017857Y-83725057D01*
X71017857Y-83725057D02*
X70970238Y-83820295D01*
X70970238Y-83820295D02*
X70970238Y-83963152D01*
X70970238Y-83963152D02*
X71017857Y-84058390D01*
X71017857Y-84058390D02*
X71065476Y-84106009D01*
X71065476Y-84106009D02*
X71160714Y-84153628D01*
X71160714Y-84153628D02*
X71541666Y-84153628D01*
X70779762Y-84725057D02*
X70017857Y-84725057D01*
X69446428Y-84106009D02*
X69303571Y-84153628D01*
X69303571Y-84153628D02*
X69255952Y-84201247D01*
X69255952Y-84201247D02*
X69208333Y-84296485D01*
X69208333Y-84296485D02*
X69208333Y-84439342D01*
X69208333Y-84439342D02*
X69255952Y-84534580D01*
X69255952Y-84534580D02*
X69303571Y-84582200D01*
X69303571Y-84582200D02*
X69398809Y-84629819D01*
X69398809Y-84629819D02*
X69779761Y-84629819D01*
X69779761Y-84629819D02*
X69779761Y-83629819D01*
X69779761Y-83629819D02*
X69446428Y-83629819D01*
X69446428Y-83629819D02*
X69351190Y-83677438D01*
X69351190Y-83677438D02*
X69303571Y-83725057D01*
X69303571Y-83725057D02*
X69255952Y-83820295D01*
X69255952Y-83820295D02*
X69255952Y-83915533D01*
X69255952Y-83915533D02*
X69303571Y-84010771D01*
X69303571Y-84010771D02*
X69351190Y-84058390D01*
X69351190Y-84058390D02*
X69446428Y-84106009D01*
X69446428Y-84106009D02*
X69779761Y-84106009D01*
X68827380Y-84344104D02*
X68351190Y-84344104D01*
X68922618Y-84629819D02*
X68589285Y-83629819D01*
X68589285Y-83629819D02*
X68255952Y-84629819D01*
X68065475Y-83629819D02*
X67494047Y-83629819D01*
X67779761Y-84629819D02*
X67779761Y-83629819D01*
X67160713Y-84248866D02*
X66398809Y-84248866D01*
X66779761Y-84629819D02*
X66779761Y-83867914D01*
X65398809Y-84629819D02*
X65970237Y-84629819D01*
X65684523Y-84629819D02*
X65684523Y-83629819D01*
X65684523Y-83629819D02*
X65779761Y-83772676D01*
X65779761Y-83772676D02*
X65874999Y-83867914D01*
X65874999Y-83867914D02*
X65970237Y-83915533D01*
X81066666Y-105379819D02*
X81399999Y-104903628D01*
X81638094Y-105379819D02*
X81638094Y-104379819D01*
X81638094Y-104379819D02*
X81257142Y-104379819D01*
X81257142Y-104379819D02*
X81161904Y-104427438D01*
X81161904Y-104427438D02*
X81114285Y-104475057D01*
X81114285Y-104475057D02*
X81066666Y-104570295D01*
X81066666Y-104570295D02*
X81066666Y-104713152D01*
X81066666Y-104713152D02*
X81114285Y-104808390D01*
X81114285Y-104808390D02*
X81161904Y-104856009D01*
X81161904Y-104856009D02*
X81257142Y-104903628D01*
X81257142Y-104903628D02*
X81638094Y-104903628D01*
X80209523Y-104379819D02*
X80399999Y-104379819D01*
X80399999Y-104379819D02*
X80495237Y-104427438D01*
X80495237Y-104427438D02*
X80542856Y-104475057D01*
X80542856Y-104475057D02*
X80638094Y-104617914D01*
X80638094Y-104617914D02*
X80685713Y-104808390D01*
X80685713Y-104808390D02*
X80685713Y-105189342D01*
X80685713Y-105189342D02*
X80638094Y-105284580D01*
X80638094Y-105284580D02*
X80590475Y-105332200D01*
X80590475Y-105332200D02*
X80495237Y-105379819D01*
X80495237Y-105379819D02*
X80304761Y-105379819D01*
X80304761Y-105379819D02*
X80209523Y-105332200D01*
X80209523Y-105332200D02*
X80161904Y-105284580D01*
X80161904Y-105284580D02*
X80114285Y-105189342D01*
X80114285Y-105189342D02*
X80114285Y-104951247D01*
X80114285Y-104951247D02*
X80161904Y-104856009D01*
X80161904Y-104856009D02*
X80209523Y-104808390D01*
X80209523Y-104808390D02*
X80304761Y-104760771D01*
X80304761Y-104760771D02*
X80495237Y-104760771D01*
X80495237Y-104760771D02*
X80590475Y-104808390D01*
X80590475Y-104808390D02*
X80638094Y-104856009D01*
X80638094Y-104856009D02*
X80685713Y-104951247D01*
X115928767Y-93695026D02*
X115452576Y-93361693D01*
X115928767Y-93123598D02*
X114928767Y-93123598D01*
X114928767Y-93123598D02*
X114928767Y-93504550D01*
X114928767Y-93504550D02*
X114976386Y-93599788D01*
X114976386Y-93599788D02*
X115024005Y-93647407D01*
X115024005Y-93647407D02*
X115119243Y-93695026D01*
X115119243Y-93695026D02*
X115262100Y-93695026D01*
X115262100Y-93695026D02*
X115357338Y-93647407D01*
X115357338Y-93647407D02*
X115404957Y-93599788D01*
X115404957Y-93599788D02*
X115452576Y-93504550D01*
X115452576Y-93504550D02*
X115452576Y-93123598D01*
X115928767Y-94647407D02*
X115928767Y-94075979D01*
X115928767Y-94361693D02*
X114928767Y-94361693D01*
X114928767Y-94361693D02*
X115071624Y-94266455D01*
X115071624Y-94266455D02*
X115166862Y-94171217D01*
X115166862Y-94171217D02*
X115214481Y-94075979D01*
X115024005Y-95028360D02*
X114976386Y-95075979D01*
X114976386Y-95075979D02*
X114928767Y-95171217D01*
X114928767Y-95171217D02*
X114928767Y-95409312D01*
X114928767Y-95409312D02*
X114976386Y-95504550D01*
X114976386Y-95504550D02*
X115024005Y-95552169D01*
X115024005Y-95552169D02*
X115119243Y-95599788D01*
X115119243Y-95599788D02*
X115214481Y-95599788D01*
X115214481Y-95599788D02*
X115357338Y-95552169D01*
X115357338Y-95552169D02*
X115928767Y-94980741D01*
X115928767Y-94980741D02*
X115928767Y-95599788D01*
X88958332Y-99429819D02*
X88386904Y-99429819D01*
X88672618Y-100429819D02*
X88672618Y-99429819D01*
X88053570Y-100429819D02*
X88053570Y-99429819D01*
X88053570Y-99429819D02*
X87672618Y-99429819D01*
X87672618Y-99429819D02*
X87577380Y-99477438D01*
X87577380Y-99477438D02*
X87529761Y-99525057D01*
X87529761Y-99525057D02*
X87482142Y-99620295D01*
X87482142Y-99620295D02*
X87482142Y-99763152D01*
X87482142Y-99763152D02*
X87529761Y-99858390D01*
X87529761Y-99858390D02*
X87577380Y-99906009D01*
X87577380Y-99906009D02*
X87672618Y-99953628D01*
X87672618Y-99953628D02*
X88053570Y-99953628D01*
X87291666Y-100525057D02*
X86529761Y-100525057D01*
X86434522Y-99429819D02*
X86101189Y-100429819D01*
X86101189Y-100429819D02*
X85767856Y-99429819D01*
X85434522Y-100429819D02*
X85434522Y-99429819D01*
X84958332Y-100429819D02*
X84958332Y-99429819D01*
X84958332Y-99429819D02*
X84386904Y-100429819D01*
X84386904Y-100429819D02*
X84386904Y-99429819D01*
X83386904Y-100429819D02*
X83958332Y-100429819D01*
X83672618Y-100429819D02*
X83672618Y-99429819D01*
X83672618Y-99429819D02*
X83767856Y-99572676D01*
X83767856Y-99572676D02*
X83863094Y-99667914D01*
X83863094Y-99667914D02*
X83958332Y-99715533D01*
X78178688Y-87446852D02*
X78512021Y-86970661D01*
X78750116Y-87446852D02*
X78750116Y-86446852D01*
X78750116Y-86446852D02*
X78369164Y-86446852D01*
X78369164Y-86446852D02*
X78273926Y-86494471D01*
X78273926Y-86494471D02*
X78226307Y-86542090D01*
X78226307Y-86542090D02*
X78178688Y-86637328D01*
X78178688Y-86637328D02*
X78178688Y-86780185D01*
X78178688Y-86780185D02*
X78226307Y-86875423D01*
X78226307Y-86875423D02*
X78273926Y-86923042D01*
X78273926Y-86923042D02*
X78369164Y-86970661D01*
X78369164Y-86970661D02*
X78750116Y-86970661D01*
X77321545Y-86780185D02*
X77321545Y-87446852D01*
X77559640Y-86399233D02*
X77797735Y-87113518D01*
X77797735Y-87113518D02*
X77178688Y-87113518D01*
X93070053Y-110996097D02*
X92593862Y-110662764D01*
X93070053Y-110424669D02*
X92070053Y-110424669D01*
X92070053Y-110424669D02*
X92070053Y-110805621D01*
X92070053Y-110805621D02*
X92117672Y-110900859D01*
X92117672Y-110900859D02*
X92165291Y-110948478D01*
X92165291Y-110948478D02*
X92260529Y-110996097D01*
X92260529Y-110996097D02*
X92403386Y-110996097D01*
X92403386Y-110996097D02*
X92498624Y-110948478D01*
X92498624Y-110948478D02*
X92546243Y-110900859D01*
X92546243Y-110900859D02*
X92593862Y-110805621D01*
X92593862Y-110805621D02*
X92593862Y-110424669D01*
X92070053Y-111329431D02*
X92070053Y-111996097D01*
X92070053Y-111996097D02*
X93070053Y-111567526D01*
X114651190Y-155829819D02*
X114079762Y-155829819D01*
X114365476Y-156829819D02*
X114365476Y-155829819D01*
X113746428Y-156829819D02*
X113746428Y-155829819D01*
X113746428Y-155829819D02*
X113365476Y-155829819D01*
X113365476Y-155829819D02*
X113270238Y-155877438D01*
X113270238Y-155877438D02*
X113222619Y-155925057D01*
X113222619Y-155925057D02*
X113175000Y-156020295D01*
X113175000Y-156020295D02*
X113175000Y-156163152D01*
X113175000Y-156163152D02*
X113222619Y-156258390D01*
X113222619Y-156258390D02*
X113270238Y-156306009D01*
X113270238Y-156306009D02*
X113365476Y-156353628D01*
X113365476Y-156353628D02*
X113746428Y-156353628D01*
X112984524Y-156925057D02*
X112222619Y-156925057D01*
X112032142Y-156782200D02*
X111889285Y-156829819D01*
X111889285Y-156829819D02*
X111651190Y-156829819D01*
X111651190Y-156829819D02*
X111555952Y-156782200D01*
X111555952Y-156782200D02*
X111508333Y-156734580D01*
X111508333Y-156734580D02*
X111460714Y-156639342D01*
X111460714Y-156639342D02*
X111460714Y-156544104D01*
X111460714Y-156544104D02*
X111508333Y-156448866D01*
X111508333Y-156448866D02*
X111555952Y-156401247D01*
X111555952Y-156401247D02*
X111651190Y-156353628D01*
X111651190Y-156353628D02*
X111841666Y-156306009D01*
X111841666Y-156306009D02*
X111936904Y-156258390D01*
X111936904Y-156258390D02*
X111984523Y-156210771D01*
X111984523Y-156210771D02*
X112032142Y-156115533D01*
X112032142Y-156115533D02*
X112032142Y-156020295D01*
X112032142Y-156020295D02*
X111984523Y-155925057D01*
X111984523Y-155925057D02*
X111936904Y-155877438D01*
X111936904Y-155877438D02*
X111841666Y-155829819D01*
X111841666Y-155829819D02*
X111603571Y-155829819D01*
X111603571Y-155829819D02*
X111460714Y-155877438D01*
X111032142Y-156829819D02*
X111032142Y-155829819D01*
X111032142Y-155829819D02*
X110794047Y-155829819D01*
X110794047Y-155829819D02*
X110651190Y-155877438D01*
X110651190Y-155877438D02*
X110555952Y-155972676D01*
X110555952Y-155972676D02*
X110508333Y-156067914D01*
X110508333Y-156067914D02*
X110460714Y-156258390D01*
X110460714Y-156258390D02*
X110460714Y-156401247D01*
X110460714Y-156401247D02*
X110508333Y-156591723D01*
X110508333Y-156591723D02*
X110555952Y-156686961D01*
X110555952Y-156686961D02*
X110651190Y-156782200D01*
X110651190Y-156782200D02*
X110794047Y-156829819D01*
X110794047Y-156829819D02*
X111032142Y-156829819D01*
X110270238Y-156925057D02*
X109508333Y-156925057D01*
X108698809Y-156734580D02*
X108746428Y-156782200D01*
X108746428Y-156782200D02*
X108889285Y-156829819D01*
X108889285Y-156829819D02*
X108984523Y-156829819D01*
X108984523Y-156829819D02*
X109127380Y-156782200D01*
X109127380Y-156782200D02*
X109222618Y-156686961D01*
X109222618Y-156686961D02*
X109270237Y-156591723D01*
X109270237Y-156591723D02*
X109317856Y-156401247D01*
X109317856Y-156401247D02*
X109317856Y-156258390D01*
X109317856Y-156258390D02*
X109270237Y-156067914D01*
X109270237Y-156067914D02*
X109222618Y-155972676D01*
X109222618Y-155972676D02*
X109127380Y-155877438D01*
X109127380Y-155877438D02*
X108984523Y-155829819D01*
X108984523Y-155829819D02*
X108889285Y-155829819D01*
X108889285Y-155829819D02*
X108746428Y-155877438D01*
X108746428Y-155877438D02*
X108698809Y-155925057D01*
X108317856Y-156782200D02*
X108174999Y-156829819D01*
X108174999Y-156829819D02*
X107936904Y-156829819D01*
X107936904Y-156829819D02*
X107841666Y-156782200D01*
X107841666Y-156782200D02*
X107794047Y-156734580D01*
X107794047Y-156734580D02*
X107746428Y-156639342D01*
X107746428Y-156639342D02*
X107746428Y-156544104D01*
X107746428Y-156544104D02*
X107794047Y-156448866D01*
X107794047Y-156448866D02*
X107841666Y-156401247D01*
X107841666Y-156401247D02*
X107936904Y-156353628D01*
X107936904Y-156353628D02*
X108127380Y-156306009D01*
X108127380Y-156306009D02*
X108222618Y-156258390D01*
X108222618Y-156258390D02*
X108270237Y-156210771D01*
X108270237Y-156210771D02*
X108317856Y-156115533D01*
X108317856Y-156115533D02*
X108317856Y-156020295D01*
X108317856Y-156020295D02*
X108270237Y-155925057D01*
X108270237Y-155925057D02*
X108222618Y-155877438D01*
X108222618Y-155877438D02*
X108127380Y-155829819D01*
X108127380Y-155829819D02*
X107889285Y-155829819D01*
X107889285Y-155829819D02*
X107746428Y-155877438D01*
X106794047Y-156829819D02*
X107365475Y-156829819D01*
X107079761Y-156829819D02*
X107079761Y-155829819D01*
X107079761Y-155829819D02*
X107174999Y-155972676D01*
X107174999Y-155972676D02*
X107270237Y-156067914D01*
X107270237Y-156067914D02*
X107365475Y-156115533D01*
X108716666Y-88029819D02*
X108145238Y-88029819D01*
X108430952Y-89029819D02*
X108430952Y-88029819D01*
X107811904Y-89029819D02*
X107811904Y-88029819D01*
X107811904Y-88029819D02*
X107430952Y-88029819D01*
X107430952Y-88029819D02*
X107335714Y-88077438D01*
X107335714Y-88077438D02*
X107288095Y-88125057D01*
X107288095Y-88125057D02*
X107240476Y-88220295D01*
X107240476Y-88220295D02*
X107240476Y-88363152D01*
X107240476Y-88363152D02*
X107288095Y-88458390D01*
X107288095Y-88458390D02*
X107335714Y-88506009D01*
X107335714Y-88506009D02*
X107430952Y-88553628D01*
X107430952Y-88553628D02*
X107811904Y-88553628D01*
X107050000Y-89125057D02*
X106288095Y-89125057D01*
X105526190Y-88077438D02*
X105621428Y-88029819D01*
X105621428Y-88029819D02*
X105764285Y-88029819D01*
X105764285Y-88029819D02*
X105907142Y-88077438D01*
X105907142Y-88077438D02*
X106002380Y-88172676D01*
X106002380Y-88172676D02*
X106049999Y-88267914D01*
X106049999Y-88267914D02*
X106097618Y-88458390D01*
X106097618Y-88458390D02*
X106097618Y-88601247D01*
X106097618Y-88601247D02*
X106049999Y-88791723D01*
X106049999Y-88791723D02*
X106002380Y-88886961D01*
X106002380Y-88886961D02*
X105907142Y-88982200D01*
X105907142Y-88982200D02*
X105764285Y-89029819D01*
X105764285Y-89029819D02*
X105669047Y-89029819D01*
X105669047Y-89029819D02*
X105526190Y-88982200D01*
X105526190Y-88982200D02*
X105478571Y-88934580D01*
X105478571Y-88934580D02*
X105478571Y-88601247D01*
X105478571Y-88601247D02*
X105669047Y-88601247D01*
X105049999Y-89029819D02*
X105049999Y-88029819D01*
X105049999Y-88029819D02*
X104478571Y-89029819D01*
X104478571Y-89029819D02*
X104478571Y-88029819D01*
X104002380Y-89029819D02*
X104002380Y-88029819D01*
X104002380Y-88029819D02*
X103764285Y-88029819D01*
X103764285Y-88029819D02*
X103621428Y-88077438D01*
X103621428Y-88077438D02*
X103526190Y-88172676D01*
X103526190Y-88172676D02*
X103478571Y-88267914D01*
X103478571Y-88267914D02*
X103430952Y-88458390D01*
X103430952Y-88458390D02*
X103430952Y-88601247D01*
X103430952Y-88601247D02*
X103478571Y-88791723D01*
X103478571Y-88791723D02*
X103526190Y-88886961D01*
X103526190Y-88886961D02*
X103621428Y-88982200D01*
X103621428Y-88982200D02*
X103764285Y-89029819D01*
X103764285Y-89029819D02*
X104002380Y-89029819D01*
X102478571Y-89029819D02*
X103049999Y-89029819D01*
X102764285Y-89029819D02*
X102764285Y-88029819D01*
X102764285Y-88029819D02*
X102859523Y-88172676D01*
X102859523Y-88172676D02*
X102954761Y-88267914D01*
X102954761Y-88267914D02*
X103049999Y-88315533D01*
X98344047Y-117329819D02*
X97772619Y-117329819D01*
X98058333Y-118329819D02*
X98058333Y-117329819D01*
X97439285Y-118329819D02*
X97439285Y-117329819D01*
X97439285Y-117329819D02*
X97058333Y-117329819D01*
X97058333Y-117329819D02*
X96963095Y-117377438D01*
X96963095Y-117377438D02*
X96915476Y-117425057D01*
X96915476Y-117425057D02*
X96867857Y-117520295D01*
X96867857Y-117520295D02*
X96867857Y-117663152D01*
X96867857Y-117663152D02*
X96915476Y-117758390D01*
X96915476Y-117758390D02*
X96963095Y-117806009D01*
X96963095Y-117806009D02*
X97058333Y-117853628D01*
X97058333Y-117853628D02*
X97439285Y-117853628D01*
X96677381Y-118425057D02*
X95915476Y-118425057D01*
X95724999Y-118282200D02*
X95582142Y-118329819D01*
X95582142Y-118329819D02*
X95344047Y-118329819D01*
X95344047Y-118329819D02*
X95248809Y-118282200D01*
X95248809Y-118282200D02*
X95201190Y-118234580D01*
X95201190Y-118234580D02*
X95153571Y-118139342D01*
X95153571Y-118139342D02*
X95153571Y-118044104D01*
X95153571Y-118044104D02*
X95201190Y-117948866D01*
X95201190Y-117948866D02*
X95248809Y-117901247D01*
X95248809Y-117901247D02*
X95344047Y-117853628D01*
X95344047Y-117853628D02*
X95534523Y-117806009D01*
X95534523Y-117806009D02*
X95629761Y-117758390D01*
X95629761Y-117758390D02*
X95677380Y-117710771D01*
X95677380Y-117710771D02*
X95724999Y-117615533D01*
X95724999Y-117615533D02*
X95724999Y-117520295D01*
X95724999Y-117520295D02*
X95677380Y-117425057D01*
X95677380Y-117425057D02*
X95629761Y-117377438D01*
X95629761Y-117377438D02*
X95534523Y-117329819D01*
X95534523Y-117329819D02*
X95296428Y-117329819D01*
X95296428Y-117329819D02*
X95153571Y-117377438D01*
X94153571Y-118234580D02*
X94201190Y-118282200D01*
X94201190Y-118282200D02*
X94344047Y-118329819D01*
X94344047Y-118329819D02*
X94439285Y-118329819D01*
X94439285Y-118329819D02*
X94582142Y-118282200D01*
X94582142Y-118282200D02*
X94677380Y-118186961D01*
X94677380Y-118186961D02*
X94724999Y-118091723D01*
X94724999Y-118091723D02*
X94772618Y-117901247D01*
X94772618Y-117901247D02*
X94772618Y-117758390D01*
X94772618Y-117758390D02*
X94724999Y-117567914D01*
X94724999Y-117567914D02*
X94677380Y-117472676D01*
X94677380Y-117472676D02*
X94582142Y-117377438D01*
X94582142Y-117377438D02*
X94439285Y-117329819D01*
X94439285Y-117329819D02*
X94344047Y-117329819D01*
X94344047Y-117329819D02*
X94201190Y-117377438D01*
X94201190Y-117377438D02*
X94153571Y-117425057D01*
X93724999Y-118329819D02*
X93724999Y-117329819D01*
X93153571Y-118329819D02*
X93582142Y-117758390D01*
X93153571Y-117329819D02*
X93724999Y-117901247D01*
X92201190Y-118329819D02*
X92772618Y-118329819D01*
X92486904Y-118329819D02*
X92486904Y-117329819D01*
X92486904Y-117329819D02*
X92582142Y-117472676D01*
X92582142Y-117472676D02*
X92677380Y-117567914D01*
X92677380Y-117567914D02*
X92772618Y-117615533D01*
X110744209Y-93817431D02*
X110268018Y-93484098D01*
X110744209Y-93246003D02*
X109744209Y-93246003D01*
X109744209Y-93246003D02*
X109744209Y-93626955D01*
X109744209Y-93626955D02*
X109791828Y-93722193D01*
X109791828Y-93722193D02*
X109839447Y-93769812D01*
X109839447Y-93769812D02*
X109934685Y-93817431D01*
X109934685Y-93817431D02*
X110077542Y-93817431D01*
X110077542Y-93817431D02*
X110172780Y-93769812D01*
X110172780Y-93769812D02*
X110220399Y-93722193D01*
X110220399Y-93722193D02*
X110268018Y-93626955D01*
X110268018Y-93626955D02*
X110268018Y-93246003D01*
X110744209Y-94769812D02*
X110744209Y-94198384D01*
X110744209Y-94484098D02*
X109744209Y-94484098D01*
X109744209Y-94484098D02*
X109887066Y-94388860D01*
X109887066Y-94388860D02*
X109982304Y-94293622D01*
X109982304Y-94293622D02*
X110029923Y-94198384D01*
X110744209Y-95722193D02*
X110744209Y-95150765D01*
X110744209Y-95436479D02*
X109744209Y-95436479D01*
X109744209Y-95436479D02*
X109887066Y-95341241D01*
X109887066Y-95341241D02*
X109982304Y-95246003D01*
X109982304Y-95246003D02*
X110029923Y-95150765D01*
X89491939Y-159933133D02*
X89491939Y-160266466D01*
X88968129Y-160266466D02*
X89968129Y-160266466D01*
X89968129Y-160266466D02*
X89968129Y-159790276D01*
X88968129Y-158885514D02*
X88968129Y-159456942D01*
X88968129Y-159171228D02*
X89968129Y-159171228D01*
X89968129Y-159171228D02*
X89825272Y-159266466D01*
X89825272Y-159266466D02*
X89730034Y-159361704D01*
X89730034Y-159361704D02*
X89682415Y-159456942D01*
X84396017Y-169606379D02*
X84443636Y-169653999D01*
X84443636Y-169653999D02*
X84586493Y-169701618D01*
X84586493Y-169701618D02*
X84681731Y-169701618D01*
X84681731Y-169701618D02*
X84824588Y-169653999D01*
X84824588Y-169653999D02*
X84919826Y-169558760D01*
X84919826Y-169558760D02*
X84967445Y-169463522D01*
X84967445Y-169463522D02*
X85015064Y-169273046D01*
X85015064Y-169273046D02*
X85015064Y-169130189D01*
X85015064Y-169130189D02*
X84967445Y-168939713D01*
X84967445Y-168939713D02*
X84919826Y-168844475D01*
X84919826Y-168844475D02*
X84824588Y-168749237D01*
X84824588Y-168749237D02*
X84681731Y-168701618D01*
X84681731Y-168701618D02*
X84586493Y-168701618D01*
X84586493Y-168701618D02*
X84443636Y-168749237D01*
X84443636Y-168749237D02*
X84396017Y-168796856D01*
X83396017Y-169701618D02*
X83729350Y-169225427D01*
X83967445Y-169701618D02*
X83967445Y-168701618D01*
X83967445Y-168701618D02*
X83586493Y-168701618D01*
X83586493Y-168701618D02*
X83491255Y-168749237D01*
X83491255Y-168749237D02*
X83443636Y-168796856D01*
X83443636Y-168796856D02*
X83396017Y-168892094D01*
X83396017Y-168892094D02*
X83396017Y-169034951D01*
X83396017Y-169034951D02*
X83443636Y-169130189D01*
X83443636Y-169130189D02*
X83491255Y-169177808D01*
X83491255Y-169177808D02*
X83586493Y-169225427D01*
X83586493Y-169225427D02*
X83967445Y-169225427D01*
X82443636Y-169701618D02*
X83015064Y-169701618D01*
X82729350Y-169701618D02*
X82729350Y-168701618D01*
X82729350Y-168701618D02*
X82824588Y-168844475D01*
X82824588Y-168844475D02*
X82919826Y-168939713D01*
X82919826Y-168939713D02*
X83015064Y-168987332D01*
X86059750Y-171501618D02*
X86059750Y-171739713D01*
X86297845Y-171644475D02*
X86059750Y-171739713D01*
X86059750Y-171739713D02*
X85821655Y-171644475D01*
X86202607Y-171930189D02*
X86059750Y-171739713D01*
X86059750Y-171739713D02*
X85916893Y-171930189D01*
X86059750Y-170101618D02*
X86059750Y-170339713D01*
X86297845Y-170244475D02*
X86059750Y-170339713D01*
X86059750Y-170339713D02*
X85821655Y-170244475D01*
X86202607Y-170530189D02*
X86059750Y-170339713D01*
X86059750Y-170339713D02*
X85916893Y-170530189D01*
X105021040Y-105886280D02*
X105021040Y-105076757D01*
X105021040Y-105076757D02*
X105068659Y-104981519D01*
X105068659Y-104981519D02*
X105116278Y-104933900D01*
X105116278Y-104933900D02*
X105211516Y-104886280D01*
X105211516Y-104886280D02*
X105401992Y-104886280D01*
X105401992Y-104886280D02*
X105497230Y-104933900D01*
X105497230Y-104933900D02*
X105544849Y-104981519D01*
X105544849Y-104981519D02*
X105592468Y-105076757D01*
X105592468Y-105076757D02*
X105592468Y-105886280D01*
X105973421Y-105886280D02*
X106592468Y-105886280D01*
X106592468Y-105886280D02*
X106259135Y-105505328D01*
X106259135Y-105505328D02*
X106401992Y-105505328D01*
X106401992Y-105505328D02*
X106497230Y-105457709D01*
X106497230Y-105457709D02*
X106544849Y-105410090D01*
X106544849Y-105410090D02*
X106592468Y-105314852D01*
X106592468Y-105314852D02*
X106592468Y-105076757D01*
X106592468Y-105076757D02*
X106544849Y-104981519D01*
X106544849Y-104981519D02*
X106497230Y-104933900D01*
X106497230Y-104933900D02*
X106401992Y-104886280D01*
X106401992Y-104886280D02*
X106116278Y-104886280D01*
X106116278Y-104886280D02*
X106021040Y-104933900D01*
X106021040Y-104933900D02*
X105973421Y-104981519D01*
X102982595Y-109493080D02*
X102982595Y-109254985D01*
X102744500Y-109350223D02*
X102982595Y-109254985D01*
X102982595Y-109254985D02*
X103220690Y-109350223D01*
X102839738Y-109064509D02*
X102982595Y-109254985D01*
X102982595Y-109254985D02*
X103125452Y-109064509D01*
X102982594Y-108402719D02*
X102982594Y-108640814D01*
X103220689Y-108545576D02*
X102982594Y-108640814D01*
X102982594Y-108640814D02*
X102744499Y-108545576D01*
X103125451Y-108831290D02*
X102982594Y-108640814D01*
X102982594Y-108640814D02*
X102839737Y-108831290D01*
X122284580Y-156332142D02*
X122332200Y-156284523D01*
X122332200Y-156284523D02*
X122379819Y-156141666D01*
X122379819Y-156141666D02*
X122379819Y-156046428D01*
X122379819Y-156046428D02*
X122332200Y-155903571D01*
X122332200Y-155903571D02*
X122236961Y-155808333D01*
X122236961Y-155808333D02*
X122141723Y-155760714D01*
X122141723Y-155760714D02*
X121951247Y-155713095D01*
X121951247Y-155713095D02*
X121808390Y-155713095D01*
X121808390Y-155713095D02*
X121617914Y-155760714D01*
X121617914Y-155760714D02*
X121522676Y-155808333D01*
X121522676Y-155808333D02*
X121427438Y-155903571D01*
X121427438Y-155903571D02*
X121379819Y-156046428D01*
X121379819Y-156046428D02*
X121379819Y-156141666D01*
X121379819Y-156141666D02*
X121427438Y-156284523D01*
X121427438Y-156284523D02*
X121475057Y-156332142D01*
X121475057Y-156713095D02*
X121427438Y-156760714D01*
X121427438Y-156760714D02*
X121379819Y-156855952D01*
X121379819Y-156855952D02*
X121379819Y-157094047D01*
X121379819Y-157094047D02*
X121427438Y-157189285D01*
X121427438Y-157189285D02*
X121475057Y-157236904D01*
X121475057Y-157236904D02*
X121570295Y-157284523D01*
X121570295Y-157284523D02*
X121665533Y-157284523D01*
X121665533Y-157284523D02*
X121808390Y-157236904D01*
X121808390Y-157236904D02*
X122379819Y-156665476D01*
X122379819Y-156665476D02*
X122379819Y-157284523D01*
X121713152Y-158141666D02*
X122379819Y-158141666D01*
X121332200Y-157903571D02*
X122046485Y-157665476D01*
X122046485Y-157665476D02*
X122046485Y-158284523D01*
X53042857Y-133409580D02*
X53090476Y-133457200D01*
X53090476Y-133457200D02*
X53233333Y-133504819D01*
X53233333Y-133504819D02*
X53328571Y-133504819D01*
X53328571Y-133504819D02*
X53471428Y-133457200D01*
X53471428Y-133457200D02*
X53566666Y-133361961D01*
X53566666Y-133361961D02*
X53614285Y-133266723D01*
X53614285Y-133266723D02*
X53661904Y-133076247D01*
X53661904Y-133076247D02*
X53661904Y-132933390D01*
X53661904Y-132933390D02*
X53614285Y-132742914D01*
X53614285Y-132742914D02*
X53566666Y-132647676D01*
X53566666Y-132647676D02*
X53471428Y-132552438D01*
X53471428Y-132552438D02*
X53328571Y-132504819D01*
X53328571Y-132504819D02*
X53233333Y-132504819D01*
X53233333Y-132504819D02*
X53090476Y-132552438D01*
X53090476Y-132552438D02*
X53042857Y-132600057D01*
X52090476Y-133504819D02*
X52661904Y-133504819D01*
X52376190Y-133504819D02*
X52376190Y-132504819D01*
X52376190Y-132504819D02*
X52471428Y-132647676D01*
X52471428Y-132647676D02*
X52566666Y-132742914D01*
X52566666Y-132742914D02*
X52661904Y-132790533D01*
X51757142Y-132504819D02*
X51090476Y-132504819D01*
X51090476Y-132504819D02*
X51519047Y-133504819D01*
X97429819Y-172408333D02*
X96953628Y-172075000D01*
X97429819Y-171836905D02*
X96429819Y-171836905D01*
X96429819Y-171836905D02*
X96429819Y-172217857D01*
X96429819Y-172217857D02*
X96477438Y-172313095D01*
X96477438Y-172313095D02*
X96525057Y-172360714D01*
X96525057Y-172360714D02*
X96620295Y-172408333D01*
X96620295Y-172408333D02*
X96763152Y-172408333D01*
X96763152Y-172408333D02*
X96858390Y-172360714D01*
X96858390Y-172360714D02*
X96906009Y-172313095D01*
X96906009Y-172313095D02*
X96953628Y-172217857D01*
X96953628Y-172217857D02*
X96953628Y-171836905D01*
X97429819Y-173360714D02*
X97429819Y-172789286D01*
X97429819Y-173075000D02*
X96429819Y-173075000D01*
X96429819Y-173075000D02*
X96572676Y-172979762D01*
X96572676Y-172979762D02*
X96667914Y-172884524D01*
X96667914Y-172884524D02*
X96715533Y-172789286D01*
X97429819Y-177218333D02*
X96953628Y-176885000D01*
X97429819Y-176646905D02*
X96429819Y-176646905D01*
X96429819Y-176646905D02*
X96429819Y-177027857D01*
X96429819Y-177027857D02*
X96477438Y-177123095D01*
X96477438Y-177123095D02*
X96525057Y-177170714D01*
X96525057Y-177170714D02*
X96620295Y-177218333D01*
X96620295Y-177218333D02*
X96763152Y-177218333D01*
X96763152Y-177218333D02*
X96858390Y-177170714D01*
X96858390Y-177170714D02*
X96906009Y-177123095D01*
X96906009Y-177123095D02*
X96953628Y-177027857D01*
X96953628Y-177027857D02*
X96953628Y-176646905D01*
X96525057Y-177599286D02*
X96477438Y-177646905D01*
X96477438Y-177646905D02*
X96429819Y-177742143D01*
X96429819Y-177742143D02*
X96429819Y-177980238D01*
X96429819Y-177980238D02*
X96477438Y-178075476D01*
X96477438Y-178075476D02*
X96525057Y-178123095D01*
X96525057Y-178123095D02*
X96620295Y-178170714D01*
X96620295Y-178170714D02*
X96715533Y-178170714D01*
X96715533Y-178170714D02*
X96858390Y-178123095D01*
X96858390Y-178123095D02*
X97429819Y-177551667D01*
X97429819Y-177551667D02*
X97429819Y-178170714D01*
X53146944Y-125968573D02*
X53194563Y-126016193D01*
X53194563Y-126016193D02*
X53337420Y-126063812D01*
X53337420Y-126063812D02*
X53432658Y-126063812D01*
X53432658Y-126063812D02*
X53575515Y-126016193D01*
X53575515Y-126016193D02*
X53670753Y-125920954D01*
X53670753Y-125920954D02*
X53718372Y-125825716D01*
X53718372Y-125825716D02*
X53765991Y-125635240D01*
X53765991Y-125635240D02*
X53765991Y-125492383D01*
X53765991Y-125492383D02*
X53718372Y-125301907D01*
X53718372Y-125301907D02*
X53670753Y-125206669D01*
X53670753Y-125206669D02*
X53575515Y-125111431D01*
X53575515Y-125111431D02*
X53432658Y-125063812D01*
X53432658Y-125063812D02*
X53337420Y-125063812D01*
X53337420Y-125063812D02*
X53194563Y-125111431D01*
X53194563Y-125111431D02*
X53146944Y-125159050D01*
X52765991Y-125159050D02*
X52718372Y-125111431D01*
X52718372Y-125111431D02*
X52623134Y-125063812D01*
X52623134Y-125063812D02*
X52385039Y-125063812D01*
X52385039Y-125063812D02*
X52289801Y-125111431D01*
X52289801Y-125111431D02*
X52242182Y-125159050D01*
X52242182Y-125159050D02*
X52194563Y-125254288D01*
X52194563Y-125254288D02*
X52194563Y-125349526D01*
X52194563Y-125349526D02*
X52242182Y-125492383D01*
X52242182Y-125492383D02*
X52813610Y-126063812D01*
X52813610Y-126063812D02*
X52194563Y-126063812D01*
X51575515Y-125063812D02*
X51480277Y-125063812D01*
X51480277Y-125063812D02*
X51385039Y-125111431D01*
X51385039Y-125111431D02*
X51337420Y-125159050D01*
X51337420Y-125159050D02*
X51289801Y-125254288D01*
X51289801Y-125254288D02*
X51242182Y-125444764D01*
X51242182Y-125444764D02*
X51242182Y-125682859D01*
X51242182Y-125682859D02*
X51289801Y-125873335D01*
X51289801Y-125873335D02*
X51337420Y-125968573D01*
X51337420Y-125968573D02*
X51385039Y-126016193D01*
X51385039Y-126016193D02*
X51480277Y-126063812D01*
X51480277Y-126063812D02*
X51575515Y-126063812D01*
X51575515Y-126063812D02*
X51670753Y-126016193D01*
X51670753Y-126016193D02*
X51718372Y-125968573D01*
X51718372Y-125968573D02*
X51765991Y-125873335D01*
X51765991Y-125873335D02*
X51813610Y-125682859D01*
X51813610Y-125682859D02*
X51813610Y-125444764D01*
X51813610Y-125444764D02*
X51765991Y-125254288D01*
X51765991Y-125254288D02*
X51718372Y-125159050D01*
X51718372Y-125159050D02*
X51670753Y-125111431D01*
X51670753Y-125111431D02*
X51575515Y-125063812D01*
X122742734Y-107473765D02*
X122790353Y-107521385D01*
X122790353Y-107521385D02*
X122933210Y-107569004D01*
X122933210Y-107569004D02*
X123028448Y-107569004D01*
X123028448Y-107569004D02*
X123171305Y-107521385D01*
X123171305Y-107521385D02*
X123266543Y-107426146D01*
X123266543Y-107426146D02*
X123314162Y-107330908D01*
X123314162Y-107330908D02*
X123361781Y-107140432D01*
X123361781Y-107140432D02*
X123361781Y-106997575D01*
X123361781Y-106997575D02*
X123314162Y-106807099D01*
X123314162Y-106807099D02*
X123266543Y-106711861D01*
X123266543Y-106711861D02*
X123171305Y-106616623D01*
X123171305Y-106616623D02*
X123028448Y-106569004D01*
X123028448Y-106569004D02*
X122933210Y-106569004D01*
X122933210Y-106569004D02*
X122790353Y-106616623D01*
X122790353Y-106616623D02*
X122742734Y-106664242D01*
X121837972Y-106569004D02*
X122314162Y-106569004D01*
X122314162Y-106569004D02*
X122361781Y-107045194D01*
X122361781Y-107045194D02*
X122314162Y-106997575D01*
X122314162Y-106997575D02*
X122218924Y-106949956D01*
X122218924Y-106949956D02*
X121980829Y-106949956D01*
X121980829Y-106949956D02*
X121885591Y-106997575D01*
X121885591Y-106997575D02*
X121837972Y-107045194D01*
X121837972Y-107045194D02*
X121790353Y-107140432D01*
X121790353Y-107140432D02*
X121790353Y-107378527D01*
X121790353Y-107378527D02*
X121837972Y-107473765D01*
X121837972Y-107473765D02*
X121885591Y-107521385D01*
X121885591Y-107521385D02*
X121980829Y-107569004D01*
X121980829Y-107569004D02*
X122218924Y-107569004D01*
X122218924Y-107569004D02*
X122314162Y-107521385D01*
X122314162Y-107521385D02*
X122361781Y-107473765D01*
X53695238Y-83712557D02*
X53790476Y-83664938D01*
X53790476Y-83664938D02*
X53885714Y-83569700D01*
X53885714Y-83569700D02*
X54028571Y-83426842D01*
X54028571Y-83426842D02*
X54123809Y-83379223D01*
X54123809Y-83379223D02*
X54219047Y-83379223D01*
X54171428Y-83617319D02*
X54266666Y-83569700D01*
X54266666Y-83569700D02*
X54361904Y-83474461D01*
X54361904Y-83474461D02*
X54409523Y-83283985D01*
X54409523Y-83283985D02*
X54409523Y-82950652D01*
X54409523Y-82950652D02*
X54361904Y-82760176D01*
X54361904Y-82760176D02*
X54266666Y-82664938D01*
X54266666Y-82664938D02*
X54171428Y-82617319D01*
X54171428Y-82617319D02*
X53980952Y-82617319D01*
X53980952Y-82617319D02*
X53885714Y-82664938D01*
X53885714Y-82664938D02*
X53790476Y-82760176D01*
X53790476Y-82760176D02*
X53742857Y-82950652D01*
X53742857Y-82950652D02*
X53742857Y-83283985D01*
X53742857Y-83283985D02*
X53790476Y-83474461D01*
X53790476Y-83474461D02*
X53885714Y-83569700D01*
X53885714Y-83569700D02*
X53980952Y-83617319D01*
X53980952Y-83617319D02*
X54171428Y-83617319D01*
X52790476Y-83617319D02*
X53361904Y-83617319D01*
X53076190Y-83617319D02*
X53076190Y-82617319D01*
X53076190Y-82617319D02*
X53171428Y-82760176D01*
X53171428Y-82760176D02*
X53266666Y-82855414D01*
X53266666Y-82855414D02*
X53361904Y-82903033D01*
X79311904Y-112804819D02*
X79311904Y-113614342D01*
X79311904Y-113614342D02*
X79264285Y-113709580D01*
X79264285Y-113709580D02*
X79216666Y-113757200D01*
X79216666Y-113757200D02*
X79121428Y-113804819D01*
X79121428Y-113804819D02*
X78930952Y-113804819D01*
X78930952Y-113804819D02*
X78835714Y-113757200D01*
X78835714Y-113757200D02*
X78788095Y-113709580D01*
X78788095Y-113709580D02*
X78740476Y-113614342D01*
X78740476Y-113614342D02*
X78740476Y-112804819D01*
X78311904Y-112900057D02*
X78264285Y-112852438D01*
X78264285Y-112852438D02*
X78169047Y-112804819D01*
X78169047Y-112804819D02*
X77930952Y-112804819D01*
X77930952Y-112804819D02*
X77835714Y-112852438D01*
X77835714Y-112852438D02*
X77788095Y-112900057D01*
X77788095Y-112900057D02*
X77740476Y-112995295D01*
X77740476Y-112995295D02*
X77740476Y-113090533D01*
X77740476Y-113090533D02*
X77788095Y-113233390D01*
X77788095Y-113233390D02*
X78359523Y-113804819D01*
X78359523Y-113804819D02*
X77740476Y-113804819D01*
X35153869Y-102720042D02*
X34677678Y-102386709D01*
X35153869Y-102148614D02*
X34153869Y-102148614D01*
X34153869Y-102148614D02*
X34153869Y-102529566D01*
X34153869Y-102529566D02*
X34201488Y-102624804D01*
X34201488Y-102624804D02*
X34249107Y-102672423D01*
X34249107Y-102672423D02*
X34344345Y-102720042D01*
X34344345Y-102720042D02*
X34487202Y-102720042D01*
X34487202Y-102720042D02*
X34582440Y-102672423D01*
X34582440Y-102672423D02*
X34630059Y-102624804D01*
X34630059Y-102624804D02*
X34677678Y-102529566D01*
X34677678Y-102529566D02*
X34677678Y-102148614D01*
X35153869Y-103672423D02*
X35153869Y-103100995D01*
X35153869Y-103386709D02*
X34153869Y-103386709D01*
X34153869Y-103386709D02*
X34296726Y-103291471D01*
X34296726Y-103291471D02*
X34391964Y-103196233D01*
X34391964Y-103196233D02*
X34439583Y-103100995D01*
X34487202Y-104529566D02*
X35153869Y-104529566D01*
X34106250Y-104291471D02*
X34820535Y-104053376D01*
X34820535Y-104053376D02*
X34820535Y-104672423D01*
X53120580Y-123729286D02*
X53120580Y-122729286D01*
X53120580Y-122729286D02*
X52882485Y-122729286D01*
X52882485Y-122729286D02*
X52739628Y-122776905D01*
X52739628Y-122776905D02*
X52644390Y-122872143D01*
X52644390Y-122872143D02*
X52596771Y-122967381D01*
X52596771Y-122967381D02*
X52549152Y-123157857D01*
X52549152Y-123157857D02*
X52549152Y-123300714D01*
X52549152Y-123300714D02*
X52596771Y-123491190D01*
X52596771Y-123491190D02*
X52644390Y-123586428D01*
X52644390Y-123586428D02*
X52739628Y-123681667D01*
X52739628Y-123681667D02*
X52882485Y-123729286D01*
X52882485Y-123729286D02*
X53120580Y-123729286D01*
X52168199Y-122824524D02*
X52120580Y-122776905D01*
X52120580Y-122776905D02*
X52025342Y-122729286D01*
X52025342Y-122729286D02*
X51787247Y-122729286D01*
X51787247Y-122729286D02*
X51692009Y-122776905D01*
X51692009Y-122776905D02*
X51644390Y-122824524D01*
X51644390Y-122824524D02*
X51596771Y-122919762D01*
X51596771Y-122919762D02*
X51596771Y-123015000D01*
X51596771Y-123015000D02*
X51644390Y-123157857D01*
X51644390Y-123157857D02*
X52215818Y-123729286D01*
X52215818Y-123729286D02*
X51596771Y-123729286D01*
X90333333Y-172920419D02*
X90333333Y-173634704D01*
X90333333Y-173634704D02*
X90380952Y-173777561D01*
X90380952Y-173777561D02*
X90476190Y-173872800D01*
X90476190Y-173872800D02*
X90619047Y-173920419D01*
X90619047Y-173920419D02*
X90714285Y-173920419D01*
X89333333Y-173920419D02*
X89904761Y-173920419D01*
X89619047Y-173920419D02*
X89619047Y-172920419D01*
X89619047Y-172920419D02*
X89714285Y-173063276D01*
X89714285Y-173063276D02*
X89809523Y-173158514D01*
X89809523Y-173158514D02*
X89904761Y-173206133D01*
X90507999Y-171890819D02*
X90507999Y-172128914D01*
X90746094Y-172033676D02*
X90507999Y-172128914D01*
X90507999Y-172128914D02*
X90269904Y-172033676D01*
X90650856Y-172319390D02*
X90507999Y-172128914D01*
X90507999Y-172128914D02*
X90365142Y-172319390D01*
X90507999Y-171890819D02*
X90507999Y-172128914D01*
X90746094Y-172033676D02*
X90507999Y-172128914D01*
X90507999Y-172128914D02*
X90269904Y-172033676D01*
X90650856Y-172319390D02*
X90507999Y-172128914D01*
X90507999Y-172128914D02*
X90365142Y-172319390D01*
X58429407Y-133937719D02*
X58762740Y-133461528D01*
X59000835Y-133937719D02*
X59000835Y-132937719D01*
X59000835Y-132937719D02*
X58619883Y-132937719D01*
X58619883Y-132937719D02*
X58524645Y-132985338D01*
X58524645Y-132985338D02*
X58477026Y-133032957D01*
X58477026Y-133032957D02*
X58429407Y-133128195D01*
X58429407Y-133128195D02*
X58429407Y-133271052D01*
X58429407Y-133271052D02*
X58477026Y-133366290D01*
X58477026Y-133366290D02*
X58524645Y-133413909D01*
X58524645Y-133413909D02*
X58619883Y-133461528D01*
X58619883Y-133461528D02*
X59000835Y-133461528D01*
X57477026Y-133937719D02*
X58048454Y-133937719D01*
X57762740Y-133937719D02*
X57762740Y-132937719D01*
X57762740Y-132937719D02*
X57857978Y-133080576D01*
X57857978Y-133080576D02*
X57953216Y-133175814D01*
X57953216Y-133175814D02*
X58048454Y-133223433D01*
X57000835Y-133937719D02*
X56810359Y-133937719D01*
X56810359Y-133937719D02*
X56715121Y-133890100D01*
X56715121Y-133890100D02*
X56667502Y-133842480D01*
X56667502Y-133842480D02*
X56572264Y-133699623D01*
X56572264Y-133699623D02*
X56524645Y-133509147D01*
X56524645Y-133509147D02*
X56524645Y-133128195D01*
X56524645Y-133128195D02*
X56572264Y-133032957D01*
X56572264Y-133032957D02*
X56619883Y-132985338D01*
X56619883Y-132985338D02*
X56715121Y-132937719D01*
X56715121Y-132937719D02*
X56905597Y-132937719D01*
X56905597Y-132937719D02*
X57000835Y-132985338D01*
X57000835Y-132985338D02*
X57048454Y-133032957D01*
X57048454Y-133032957D02*
X57096073Y-133128195D01*
X57096073Y-133128195D02*
X57096073Y-133366290D01*
X57096073Y-133366290D02*
X57048454Y-133461528D01*
X57048454Y-133461528D02*
X57000835Y-133509147D01*
X57000835Y-133509147D02*
X56905597Y-133556766D01*
X56905597Y-133556766D02*
X56715121Y-133556766D01*
X56715121Y-133556766D02*
X56619883Y-133509147D01*
X56619883Y-133509147D02*
X56572264Y-133461528D01*
X56572264Y-133461528D02*
X56524645Y-133366290D01*
X93083259Y-98342950D02*
X92607068Y-98009617D01*
X93083259Y-97771522D02*
X92083259Y-97771522D01*
X92083259Y-97771522D02*
X92083259Y-98152474D01*
X92083259Y-98152474D02*
X92130878Y-98247712D01*
X92130878Y-98247712D02*
X92178497Y-98295331D01*
X92178497Y-98295331D02*
X92273735Y-98342950D01*
X92273735Y-98342950D02*
X92416592Y-98342950D01*
X92416592Y-98342950D02*
X92511830Y-98295331D01*
X92511830Y-98295331D02*
X92559449Y-98247712D01*
X92559449Y-98247712D02*
X92607068Y-98152474D01*
X92607068Y-98152474D02*
X92607068Y-97771522D01*
X92511830Y-98914379D02*
X92464211Y-98819141D01*
X92464211Y-98819141D02*
X92416592Y-98771522D01*
X92416592Y-98771522D02*
X92321354Y-98723903D01*
X92321354Y-98723903D02*
X92273735Y-98723903D01*
X92273735Y-98723903D02*
X92178497Y-98771522D01*
X92178497Y-98771522D02*
X92130878Y-98819141D01*
X92130878Y-98819141D02*
X92083259Y-98914379D01*
X92083259Y-98914379D02*
X92083259Y-99104855D01*
X92083259Y-99104855D02*
X92130878Y-99200093D01*
X92130878Y-99200093D02*
X92178497Y-99247712D01*
X92178497Y-99247712D02*
X92273735Y-99295331D01*
X92273735Y-99295331D02*
X92321354Y-99295331D01*
X92321354Y-99295331D02*
X92416592Y-99247712D01*
X92416592Y-99247712D02*
X92464211Y-99200093D01*
X92464211Y-99200093D02*
X92511830Y-99104855D01*
X92511830Y-99104855D02*
X92511830Y-98914379D01*
X92511830Y-98914379D02*
X92559449Y-98819141D01*
X92559449Y-98819141D02*
X92607068Y-98771522D01*
X92607068Y-98771522D02*
X92702306Y-98723903D01*
X92702306Y-98723903D02*
X92892782Y-98723903D01*
X92892782Y-98723903D02*
X92988020Y-98771522D01*
X92988020Y-98771522D02*
X93035640Y-98819141D01*
X93035640Y-98819141D02*
X93083259Y-98914379D01*
X93083259Y-98914379D02*
X93083259Y-99104855D01*
X93083259Y-99104855D02*
X93035640Y-99200093D01*
X93035640Y-99200093D02*
X92988020Y-99247712D01*
X92988020Y-99247712D02*
X92892782Y-99295331D01*
X92892782Y-99295331D02*
X92702306Y-99295331D01*
X92702306Y-99295331D02*
X92607068Y-99247712D01*
X92607068Y-99247712D02*
X92559449Y-99200093D01*
X92559449Y-99200093D02*
X92511830Y-99104855D01*
X141881919Y-102828092D02*
X141405728Y-102494759D01*
X141881919Y-102256664D02*
X140881919Y-102256664D01*
X140881919Y-102256664D02*
X140881919Y-102637616D01*
X140881919Y-102637616D02*
X140929538Y-102732854D01*
X140929538Y-102732854D02*
X140977157Y-102780473D01*
X140977157Y-102780473D02*
X141072395Y-102828092D01*
X141072395Y-102828092D02*
X141215252Y-102828092D01*
X141215252Y-102828092D02*
X141310490Y-102780473D01*
X141310490Y-102780473D02*
X141358109Y-102732854D01*
X141358109Y-102732854D02*
X141405728Y-102637616D01*
X141405728Y-102637616D02*
X141405728Y-102256664D01*
X141881919Y-103780473D02*
X141881919Y-103209045D01*
X141881919Y-103494759D02*
X140881919Y-103494759D01*
X140881919Y-103494759D02*
X141024776Y-103399521D01*
X141024776Y-103399521D02*
X141120014Y-103304283D01*
X141120014Y-103304283D02*
X141167633Y-103209045D01*
X140881919Y-104637616D02*
X140881919Y-104447140D01*
X140881919Y-104447140D02*
X140929538Y-104351902D01*
X140929538Y-104351902D02*
X140977157Y-104304283D01*
X140977157Y-104304283D02*
X141120014Y-104209045D01*
X141120014Y-104209045D02*
X141310490Y-104161426D01*
X141310490Y-104161426D02*
X141691442Y-104161426D01*
X141691442Y-104161426D02*
X141786680Y-104209045D01*
X141786680Y-104209045D02*
X141834300Y-104256664D01*
X141834300Y-104256664D02*
X141881919Y-104351902D01*
X141881919Y-104351902D02*
X141881919Y-104542378D01*
X141881919Y-104542378D02*
X141834300Y-104637616D01*
X141834300Y-104637616D02*
X141786680Y-104685235D01*
X141786680Y-104685235D02*
X141691442Y-104732854D01*
X141691442Y-104732854D02*
X141453347Y-104732854D01*
X141453347Y-104732854D02*
X141358109Y-104685235D01*
X141358109Y-104685235D02*
X141310490Y-104637616D01*
X141310490Y-104637616D02*
X141262871Y-104542378D01*
X141262871Y-104542378D02*
X141262871Y-104351902D01*
X141262871Y-104351902D02*
X141310490Y-104256664D01*
X141310490Y-104256664D02*
X141358109Y-104209045D01*
X141358109Y-104209045D02*
X141453347Y-104161426D01*
X67324999Y-146829819D02*
X66753571Y-146829819D01*
X67039285Y-147829819D02*
X67039285Y-146829819D01*
X66420237Y-147829819D02*
X66420237Y-146829819D01*
X66420237Y-146829819D02*
X66039285Y-146829819D01*
X66039285Y-146829819D02*
X65944047Y-146877438D01*
X65944047Y-146877438D02*
X65896428Y-146925057D01*
X65896428Y-146925057D02*
X65848809Y-147020295D01*
X65848809Y-147020295D02*
X65848809Y-147163152D01*
X65848809Y-147163152D02*
X65896428Y-147258390D01*
X65896428Y-147258390D02*
X65944047Y-147306009D01*
X65944047Y-147306009D02*
X66039285Y-147353628D01*
X66039285Y-147353628D02*
X66420237Y-147353628D01*
X65658333Y-147925057D02*
X64896428Y-147925057D01*
X64658332Y-147306009D02*
X64324999Y-147306009D01*
X64182142Y-147829819D02*
X64658332Y-147829819D01*
X64658332Y-147829819D02*
X64658332Y-146829819D01*
X64658332Y-146829819D02*
X64182142Y-146829819D01*
X63753570Y-147829819D02*
X63753570Y-146829819D01*
X63753570Y-146829819D02*
X63372618Y-146829819D01*
X63372618Y-146829819D02*
X63277380Y-146877438D01*
X63277380Y-146877438D02*
X63229761Y-146925057D01*
X63229761Y-146925057D02*
X63182142Y-147020295D01*
X63182142Y-147020295D02*
X63182142Y-147163152D01*
X63182142Y-147163152D02*
X63229761Y-147258390D01*
X63229761Y-147258390D02*
X63277380Y-147306009D01*
X63277380Y-147306009D02*
X63372618Y-147353628D01*
X63372618Y-147353628D02*
X63753570Y-147353628D01*
X62991666Y-147925057D02*
X62229761Y-147925057D01*
X61991665Y-147829819D02*
X61991665Y-146829819D01*
X61991665Y-146829819D02*
X61753570Y-146829819D01*
X61753570Y-146829819D02*
X61610713Y-146877438D01*
X61610713Y-146877438D02*
X61515475Y-146972676D01*
X61515475Y-146972676D02*
X61467856Y-147067914D01*
X61467856Y-147067914D02*
X61420237Y-147258390D01*
X61420237Y-147258390D02*
X61420237Y-147401247D01*
X61420237Y-147401247D02*
X61467856Y-147591723D01*
X61467856Y-147591723D02*
X61515475Y-147686961D01*
X61515475Y-147686961D02*
X61610713Y-147782200D01*
X61610713Y-147782200D02*
X61753570Y-147829819D01*
X61753570Y-147829819D02*
X61991665Y-147829819D01*
X60277380Y-146782200D02*
X61134522Y-148067914D01*
X59372618Y-147734580D02*
X59420237Y-147782200D01*
X59420237Y-147782200D02*
X59563094Y-147829819D01*
X59563094Y-147829819D02*
X59658332Y-147829819D01*
X59658332Y-147829819D02*
X59801189Y-147782200D01*
X59801189Y-147782200D02*
X59896427Y-147686961D01*
X59896427Y-147686961D02*
X59944046Y-147591723D01*
X59944046Y-147591723D02*
X59991665Y-147401247D01*
X59991665Y-147401247D02*
X59991665Y-147258390D01*
X59991665Y-147258390D02*
X59944046Y-147067914D01*
X59944046Y-147067914D02*
X59896427Y-146972676D01*
X59896427Y-146972676D02*
X59801189Y-146877438D01*
X59801189Y-146877438D02*
X59658332Y-146829819D01*
X59658332Y-146829819D02*
X59563094Y-146829819D01*
X59563094Y-146829819D02*
X59420237Y-146877438D01*
X59420237Y-146877438D02*
X59372618Y-146925057D01*
X58420237Y-147829819D02*
X58991665Y-147829819D01*
X58705951Y-147829819D02*
X58705951Y-146829819D01*
X58705951Y-146829819D02*
X58801189Y-146972676D01*
X58801189Y-146972676D02*
X58896427Y-147067914D01*
X58896427Y-147067914D02*
X58991665Y-147115533D01*
X49079819Y-96822142D02*
X48603628Y-96488809D01*
X49079819Y-96250714D02*
X48079819Y-96250714D01*
X48079819Y-96250714D02*
X48079819Y-96631666D01*
X48079819Y-96631666D02*
X48127438Y-96726904D01*
X48127438Y-96726904D02*
X48175057Y-96774523D01*
X48175057Y-96774523D02*
X48270295Y-96822142D01*
X48270295Y-96822142D02*
X48413152Y-96822142D01*
X48413152Y-96822142D02*
X48508390Y-96774523D01*
X48508390Y-96774523D02*
X48556009Y-96726904D01*
X48556009Y-96726904D02*
X48603628Y-96631666D01*
X48603628Y-96631666D02*
X48603628Y-96250714D01*
X48175057Y-97203095D02*
X48127438Y-97250714D01*
X48127438Y-97250714D02*
X48079819Y-97345952D01*
X48079819Y-97345952D02*
X48079819Y-97584047D01*
X48079819Y-97584047D02*
X48127438Y-97679285D01*
X48127438Y-97679285D02*
X48175057Y-97726904D01*
X48175057Y-97726904D02*
X48270295Y-97774523D01*
X48270295Y-97774523D02*
X48365533Y-97774523D01*
X48365533Y-97774523D02*
X48508390Y-97726904D01*
X48508390Y-97726904D02*
X49079819Y-97155476D01*
X49079819Y-97155476D02*
X49079819Y-97774523D01*
X48175057Y-98155476D02*
X48127438Y-98203095D01*
X48127438Y-98203095D02*
X48079819Y-98298333D01*
X48079819Y-98298333D02*
X48079819Y-98536428D01*
X48079819Y-98536428D02*
X48127438Y-98631666D01*
X48127438Y-98631666D02*
X48175057Y-98679285D01*
X48175057Y-98679285D02*
X48270295Y-98726904D01*
X48270295Y-98726904D02*
X48365533Y-98726904D01*
X48365533Y-98726904D02*
X48508390Y-98679285D01*
X48508390Y-98679285D02*
X49079819Y-98107857D01*
X49079819Y-98107857D02*
X49079819Y-98726904D01*
X54170180Y-97211904D02*
X53360657Y-97211904D01*
X53360657Y-97211904D02*
X53265419Y-97164285D01*
X53265419Y-97164285D02*
X53217800Y-97116666D01*
X53217800Y-97116666D02*
X53170180Y-97021428D01*
X53170180Y-97021428D02*
X53170180Y-96830952D01*
X53170180Y-96830952D02*
X53217800Y-96735714D01*
X53217800Y-96735714D02*
X53265419Y-96688095D01*
X53265419Y-96688095D02*
X53360657Y-96640476D01*
X53360657Y-96640476D02*
X54170180Y-96640476D01*
X53170180Y-95640476D02*
X53170180Y-96211904D01*
X53170180Y-95926190D02*
X54170180Y-95926190D01*
X54170180Y-95926190D02*
X54027323Y-96021428D01*
X54027323Y-96021428D02*
X53932085Y-96116666D01*
X53932085Y-96116666D02*
X53884466Y-96211904D01*
X56679819Y-99075000D02*
X56917914Y-99075000D01*
X56822676Y-98836905D02*
X56917914Y-99075000D01*
X56917914Y-99075000D02*
X56822676Y-99313095D01*
X57108390Y-98932143D02*
X56917914Y-99075000D01*
X56917914Y-99075000D02*
X57108390Y-99217857D01*
X56704819Y-99875000D02*
X56942914Y-99875000D01*
X56847676Y-99636905D02*
X56942914Y-99875000D01*
X56942914Y-99875000D02*
X56847676Y-100113095D01*
X57133390Y-99732143D02*
X56942914Y-99875000D01*
X56942914Y-99875000D02*
X57133390Y-100017857D01*
X98922618Y-88179819D02*
X98351190Y-88179819D01*
X98636904Y-89179819D02*
X98636904Y-88179819D01*
X98017856Y-89179819D02*
X98017856Y-88179819D01*
X98017856Y-88179819D02*
X97636904Y-88179819D01*
X97636904Y-88179819D02*
X97541666Y-88227438D01*
X97541666Y-88227438D02*
X97494047Y-88275057D01*
X97494047Y-88275057D02*
X97446428Y-88370295D01*
X97446428Y-88370295D02*
X97446428Y-88513152D01*
X97446428Y-88513152D02*
X97494047Y-88608390D01*
X97494047Y-88608390D02*
X97541666Y-88656009D01*
X97541666Y-88656009D02*
X97636904Y-88703628D01*
X97636904Y-88703628D02*
X98017856Y-88703628D01*
X97255952Y-89275057D02*
X96494047Y-89275057D01*
X96351189Y-88179819D02*
X95732142Y-88179819D01*
X95732142Y-88179819D02*
X96065475Y-88560771D01*
X96065475Y-88560771D02*
X95922618Y-88560771D01*
X95922618Y-88560771D02*
X95827380Y-88608390D01*
X95827380Y-88608390D02*
X95779761Y-88656009D01*
X95779761Y-88656009D02*
X95732142Y-88751247D01*
X95732142Y-88751247D02*
X95732142Y-88989342D01*
X95732142Y-88989342D02*
X95779761Y-89084580D01*
X95779761Y-89084580D02*
X95827380Y-89132200D01*
X95827380Y-89132200D02*
X95922618Y-89179819D01*
X95922618Y-89179819D02*
X96208332Y-89179819D01*
X96208332Y-89179819D02*
X96303570Y-89132200D01*
X96303570Y-89132200D02*
X96351189Y-89084580D01*
X95446427Y-88179819D02*
X95113094Y-89179819D01*
X95113094Y-89179819D02*
X94779761Y-88179819D01*
X94541665Y-88179819D02*
X93922618Y-88179819D01*
X93922618Y-88179819D02*
X94255951Y-88560771D01*
X94255951Y-88560771D02*
X94113094Y-88560771D01*
X94113094Y-88560771D02*
X94017856Y-88608390D01*
X94017856Y-88608390D02*
X93970237Y-88656009D01*
X93970237Y-88656009D02*
X93922618Y-88751247D01*
X93922618Y-88751247D02*
X93922618Y-88989342D01*
X93922618Y-88989342D02*
X93970237Y-89084580D01*
X93970237Y-89084580D02*
X94017856Y-89132200D01*
X94017856Y-89132200D02*
X94113094Y-89179819D01*
X94113094Y-89179819D02*
X94398808Y-89179819D01*
X94398808Y-89179819D02*
X94494046Y-89132200D01*
X94494046Y-89132200D02*
X94541665Y-89084580D01*
X123808726Y-99887027D02*
X124142059Y-99410836D01*
X124380154Y-99887027D02*
X124380154Y-98887027D01*
X124380154Y-98887027D02*
X123999202Y-98887027D01*
X123999202Y-98887027D02*
X123903964Y-98934646D01*
X123903964Y-98934646D02*
X123856345Y-98982265D01*
X123856345Y-98982265D02*
X123808726Y-99077503D01*
X123808726Y-99077503D02*
X123808726Y-99220360D01*
X123808726Y-99220360D02*
X123856345Y-99315598D01*
X123856345Y-99315598D02*
X123903964Y-99363217D01*
X123903964Y-99363217D02*
X123999202Y-99410836D01*
X123999202Y-99410836D02*
X124380154Y-99410836D01*
X122856345Y-99887027D02*
X123427773Y-99887027D01*
X123142059Y-99887027D02*
X123142059Y-98887027D01*
X123142059Y-98887027D02*
X123237297Y-99029884D01*
X123237297Y-99029884D02*
X123332535Y-99125122D01*
X123332535Y-99125122D02*
X123427773Y-99172741D01*
X122523011Y-98887027D02*
X121903964Y-98887027D01*
X121903964Y-98887027D02*
X122237297Y-99267979D01*
X122237297Y-99267979D02*
X122094440Y-99267979D01*
X122094440Y-99267979D02*
X121999202Y-99315598D01*
X121999202Y-99315598D02*
X121951583Y-99363217D01*
X121951583Y-99363217D02*
X121903964Y-99458455D01*
X121903964Y-99458455D02*
X121903964Y-99696550D01*
X121903964Y-99696550D02*
X121951583Y-99791788D01*
X121951583Y-99791788D02*
X121999202Y-99839408D01*
X121999202Y-99839408D02*
X122094440Y-99887027D01*
X122094440Y-99887027D02*
X122380154Y-99887027D01*
X122380154Y-99887027D02*
X122475392Y-99839408D01*
X122475392Y-99839408D02*
X122523011Y-99791788D01*
X67095180Y-105247619D02*
X67571371Y-105580952D01*
X67095180Y-105819047D02*
X68095180Y-105819047D01*
X68095180Y-105819047D02*
X68095180Y-105438095D01*
X68095180Y-105438095D02*
X68047561Y-105342857D01*
X68047561Y-105342857D02*
X67999942Y-105295238D01*
X67999942Y-105295238D02*
X67904704Y-105247619D01*
X67904704Y-105247619D02*
X67761847Y-105247619D01*
X67761847Y-105247619D02*
X67666609Y-105295238D01*
X67666609Y-105295238D02*
X67618990Y-105342857D01*
X67618990Y-105342857D02*
X67571371Y-105438095D01*
X67571371Y-105438095D02*
X67571371Y-105819047D01*
X67022800Y-104904762D02*
X66984704Y-104790476D01*
X66984704Y-104790476D02*
X66984704Y-104600000D01*
X66984704Y-104600000D02*
X67022800Y-104523809D01*
X67022800Y-104523809D02*
X67060895Y-104485714D01*
X67060895Y-104485714D02*
X67137085Y-104447619D01*
X67137085Y-104447619D02*
X67213276Y-104447619D01*
X67213276Y-104447619D02*
X67289466Y-104485714D01*
X67289466Y-104485714D02*
X67327561Y-104523809D01*
X67327561Y-104523809D02*
X67365657Y-104600000D01*
X67365657Y-104600000D02*
X67403752Y-104752381D01*
X67403752Y-104752381D02*
X67441847Y-104828571D01*
X67441847Y-104828571D02*
X67479942Y-104866666D01*
X67479942Y-104866666D02*
X67556133Y-104904762D01*
X67556133Y-104904762D02*
X67632323Y-104904762D01*
X67632323Y-104904762D02*
X67708514Y-104866666D01*
X67708514Y-104866666D02*
X67746609Y-104828571D01*
X67746609Y-104828571D02*
X67784704Y-104752381D01*
X67784704Y-104752381D02*
X67784704Y-104561904D01*
X67784704Y-104561904D02*
X67746609Y-104447619D01*
X66984704Y-104104761D02*
X67784704Y-104104761D01*
X67784704Y-104104761D02*
X66984704Y-103647618D01*
X66984704Y-103647618D02*
X67784704Y-103647618D01*
X67022800Y-103304762D02*
X66984704Y-103190476D01*
X66984704Y-103190476D02*
X66984704Y-103000000D01*
X66984704Y-103000000D02*
X67022800Y-102923809D01*
X67022800Y-102923809D02*
X67060895Y-102885714D01*
X67060895Y-102885714D02*
X67137085Y-102847619D01*
X67137085Y-102847619D02*
X67213276Y-102847619D01*
X67213276Y-102847619D02*
X67289466Y-102885714D01*
X67289466Y-102885714D02*
X67327561Y-102923809D01*
X67327561Y-102923809D02*
X67365657Y-103000000D01*
X67365657Y-103000000D02*
X67403752Y-103152381D01*
X67403752Y-103152381D02*
X67441847Y-103228571D01*
X67441847Y-103228571D02*
X67479942Y-103266666D01*
X67479942Y-103266666D02*
X67556133Y-103304762D01*
X67556133Y-103304762D02*
X67632323Y-103304762D01*
X67632323Y-103304762D02*
X67708514Y-103266666D01*
X67708514Y-103266666D02*
X67746609Y-103228571D01*
X67746609Y-103228571D02*
X67784704Y-103152381D01*
X67784704Y-103152381D02*
X67784704Y-102961904D01*
X67784704Y-102961904D02*
X67746609Y-102847619D01*
X67095180Y-101933333D02*
X67095180Y-102504761D01*
X67095180Y-102219047D02*
X68095180Y-102219047D01*
X68095180Y-102219047D02*
X67952323Y-102314285D01*
X67952323Y-102314285D02*
X67857085Y-102409523D01*
X67857085Y-102409523D02*
X67809466Y-102504761D01*
X35071919Y-147828092D02*
X34595728Y-147494759D01*
X35071919Y-147256664D02*
X34071919Y-147256664D01*
X34071919Y-147256664D02*
X34071919Y-147637616D01*
X34071919Y-147637616D02*
X34119538Y-147732854D01*
X34119538Y-147732854D02*
X34167157Y-147780473D01*
X34167157Y-147780473D02*
X34262395Y-147828092D01*
X34262395Y-147828092D02*
X34405252Y-147828092D01*
X34405252Y-147828092D02*
X34500490Y-147780473D01*
X34500490Y-147780473D02*
X34548109Y-147732854D01*
X34548109Y-147732854D02*
X34595728Y-147637616D01*
X34595728Y-147637616D02*
X34595728Y-147256664D01*
X35071919Y-148780473D02*
X35071919Y-148209045D01*
X35071919Y-148494759D02*
X34071919Y-148494759D01*
X34071919Y-148494759D02*
X34214776Y-148399521D01*
X34214776Y-148399521D02*
X34310014Y-148304283D01*
X34310014Y-148304283D02*
X34357633Y-148209045D01*
X34071919Y-149685235D02*
X34071919Y-149209045D01*
X34071919Y-149209045D02*
X34548109Y-149161426D01*
X34548109Y-149161426D02*
X34500490Y-149209045D01*
X34500490Y-149209045D02*
X34452871Y-149304283D01*
X34452871Y-149304283D02*
X34452871Y-149542378D01*
X34452871Y-149542378D02*
X34500490Y-149637616D01*
X34500490Y-149637616D02*
X34548109Y-149685235D01*
X34548109Y-149685235D02*
X34643347Y-149732854D01*
X34643347Y-149732854D02*
X34881442Y-149732854D01*
X34881442Y-149732854D02*
X34976680Y-149685235D01*
X34976680Y-149685235D02*
X35024300Y-149637616D01*
X35024300Y-149637616D02*
X35071919Y-149542378D01*
X35071919Y-149542378D02*
X35071919Y-149304283D01*
X35071919Y-149304283D02*
X35024300Y-149209045D01*
X35024300Y-149209045D02*
X34976680Y-149161426D01*
X57783216Y-125587719D02*
X58259406Y-125587719D01*
X58259406Y-125587719D02*
X58259406Y-124587719D01*
X57497501Y-124682957D02*
X57449882Y-124635338D01*
X57449882Y-124635338D02*
X57354644Y-124587719D01*
X57354644Y-124587719D02*
X57116549Y-124587719D01*
X57116549Y-124587719D02*
X57021311Y-124635338D01*
X57021311Y-124635338D02*
X56973692Y-124682957D01*
X56973692Y-124682957D02*
X56926073Y-124778195D01*
X56926073Y-124778195D02*
X56926073Y-124873433D01*
X56926073Y-124873433D02*
X56973692Y-125016290D01*
X56973692Y-125016290D02*
X57545120Y-125587719D01*
X57545120Y-125587719D02*
X56926073Y-125587719D01*
X58559407Y-113826680D02*
X58607026Y-113874300D01*
X58607026Y-113874300D02*
X58749883Y-113921919D01*
X58749883Y-113921919D02*
X58845121Y-113921919D01*
X58845121Y-113921919D02*
X58987978Y-113874300D01*
X58987978Y-113874300D02*
X59083216Y-113779061D01*
X59083216Y-113779061D02*
X59130835Y-113683823D01*
X59130835Y-113683823D02*
X59178454Y-113493347D01*
X59178454Y-113493347D02*
X59178454Y-113350490D01*
X59178454Y-113350490D02*
X59130835Y-113160014D01*
X59130835Y-113160014D02*
X59083216Y-113064776D01*
X59083216Y-113064776D02*
X58987978Y-112969538D01*
X58987978Y-112969538D02*
X58845121Y-112921919D01*
X58845121Y-112921919D02*
X58749883Y-112921919D01*
X58749883Y-112921919D02*
X58607026Y-112969538D01*
X58607026Y-112969538D02*
X58559407Y-113017157D01*
X57607026Y-113921919D02*
X58178454Y-113921919D01*
X57892740Y-113921919D02*
X57892740Y-112921919D01*
X57892740Y-112921919D02*
X57987978Y-113064776D01*
X57987978Y-113064776D02*
X58083216Y-113160014D01*
X58083216Y-113160014D02*
X58178454Y-113207633D01*
X56749883Y-112921919D02*
X56940359Y-112921919D01*
X56940359Y-112921919D02*
X57035597Y-112969538D01*
X57035597Y-112969538D02*
X57083216Y-113017157D01*
X57083216Y-113017157D02*
X57178454Y-113160014D01*
X57178454Y-113160014D02*
X57226073Y-113350490D01*
X57226073Y-113350490D02*
X57226073Y-113731442D01*
X57226073Y-113731442D02*
X57178454Y-113826680D01*
X57178454Y-113826680D02*
X57130835Y-113874300D01*
X57130835Y-113874300D02*
X57035597Y-113921919D01*
X57035597Y-113921919D02*
X56845121Y-113921919D01*
X56845121Y-113921919D02*
X56749883Y-113874300D01*
X56749883Y-113874300D02*
X56702264Y-113826680D01*
X56702264Y-113826680D02*
X56654645Y-113731442D01*
X56654645Y-113731442D02*
X56654645Y-113493347D01*
X56654645Y-113493347D02*
X56702264Y-113398109D01*
X56702264Y-113398109D02*
X56749883Y-113350490D01*
X56749883Y-113350490D02*
X56845121Y-113302871D01*
X56845121Y-113302871D02*
X57035597Y-113302871D01*
X57035597Y-113302871D02*
X57130835Y-113350490D01*
X57130835Y-113350490D02*
X57178454Y-113398109D01*
X57178454Y-113398109D02*
X57226073Y-113493347D01*
X60209580Y-95733333D02*
X60257200Y-95685714D01*
X60257200Y-95685714D02*
X60304819Y-95542857D01*
X60304819Y-95542857D02*
X60304819Y-95447619D01*
X60304819Y-95447619D02*
X60257200Y-95304762D01*
X60257200Y-95304762D02*
X60161961Y-95209524D01*
X60161961Y-95209524D02*
X60066723Y-95161905D01*
X60066723Y-95161905D02*
X59876247Y-95114286D01*
X59876247Y-95114286D02*
X59733390Y-95114286D01*
X59733390Y-95114286D02*
X59542914Y-95161905D01*
X59542914Y-95161905D02*
X59447676Y-95209524D01*
X59447676Y-95209524D02*
X59352438Y-95304762D01*
X59352438Y-95304762D02*
X59304819Y-95447619D01*
X59304819Y-95447619D02*
X59304819Y-95542857D01*
X59304819Y-95542857D02*
X59352438Y-95685714D01*
X59352438Y-95685714D02*
X59400057Y-95733333D01*
X60304819Y-96685714D02*
X60304819Y-96114286D01*
X60304819Y-96400000D02*
X59304819Y-96400000D01*
X59304819Y-96400000D02*
X59447676Y-96304762D01*
X59447676Y-96304762D02*
X59542914Y-96209524D01*
X59542914Y-96209524D02*
X59590533Y-96114286D01*
D10*
X116697419Y-137558095D02*
X117506942Y-137558095D01*
X117506942Y-137558095D02*
X117602180Y-137605714D01*
X117602180Y-137605714D02*
X117649800Y-137653333D01*
X117649800Y-137653333D02*
X117697419Y-137748571D01*
X117697419Y-137748571D02*
X117697419Y-137939047D01*
X117697419Y-137939047D02*
X117649800Y-138034285D01*
X117649800Y-138034285D02*
X117602180Y-138081904D01*
X117602180Y-138081904D02*
X117506942Y-138129523D01*
X117506942Y-138129523D02*
X116697419Y-138129523D01*
X117030752Y-139034285D02*
X117697419Y-139034285D01*
X116649800Y-138796190D02*
X117364085Y-138558095D01*
X117364085Y-138558095D02*
X117364085Y-139177142D01*
D12*
X101060340Y-101083165D02*
X101107960Y-101035546D01*
X101107960Y-101035546D02*
X101155579Y-100892689D01*
X101155579Y-100892689D02*
X101155579Y-100797451D01*
X101155579Y-100797451D02*
X101107960Y-100654594D01*
X101107960Y-100654594D02*
X101012721Y-100559356D01*
X101012721Y-100559356D02*
X100917483Y-100511737D01*
X100917483Y-100511737D02*
X100727007Y-100464118D01*
X100727007Y-100464118D02*
X100584150Y-100464118D01*
X100584150Y-100464118D02*
X100393674Y-100511737D01*
X100393674Y-100511737D02*
X100298436Y-100559356D01*
X100298436Y-100559356D02*
X100203198Y-100654594D01*
X100203198Y-100654594D02*
X100155579Y-100797451D01*
X100155579Y-100797451D02*
X100155579Y-100892689D01*
X100155579Y-100892689D02*
X100203198Y-101035546D01*
X100203198Y-101035546D02*
X100250817Y-101083165D01*
X100155579Y-101416499D02*
X100155579Y-102035546D01*
X100155579Y-102035546D02*
X100536531Y-101702213D01*
X100536531Y-101702213D02*
X100536531Y-101845070D01*
X100536531Y-101845070D02*
X100584150Y-101940308D01*
X100584150Y-101940308D02*
X100631769Y-101987927D01*
X100631769Y-101987927D02*
X100727007Y-102035546D01*
X100727007Y-102035546D02*
X100965102Y-102035546D01*
X100965102Y-102035546D02*
X101060340Y-101987927D01*
X101060340Y-101987927D02*
X101107960Y-101940308D01*
X101107960Y-101940308D02*
X101155579Y-101845070D01*
X101155579Y-101845070D02*
X101155579Y-101559356D01*
X101155579Y-101559356D02*
X101107960Y-101464118D01*
X101107960Y-101464118D02*
X101060340Y-101416499D01*
X52045238Y-136175057D02*
X52140476Y-136127438D01*
X52140476Y-136127438D02*
X52235714Y-136032200D01*
X52235714Y-136032200D02*
X52378571Y-135889342D01*
X52378571Y-135889342D02*
X52473809Y-135841723D01*
X52473809Y-135841723D02*
X52569047Y-135841723D01*
X52521428Y-136079819D02*
X52616666Y-136032200D01*
X52616666Y-136032200D02*
X52711904Y-135936961D01*
X52711904Y-135936961D02*
X52759523Y-135746485D01*
X52759523Y-135746485D02*
X52759523Y-135413152D01*
X52759523Y-135413152D02*
X52711904Y-135222676D01*
X52711904Y-135222676D02*
X52616666Y-135127438D01*
X52616666Y-135127438D02*
X52521428Y-135079819D01*
X52521428Y-135079819D02*
X52330952Y-135079819D01*
X52330952Y-135079819D02*
X52235714Y-135127438D01*
X52235714Y-135127438D02*
X52140476Y-135222676D01*
X52140476Y-135222676D02*
X52092857Y-135413152D01*
X52092857Y-135413152D02*
X52092857Y-135746485D01*
X52092857Y-135746485D02*
X52140476Y-135936961D01*
X52140476Y-135936961D02*
X52235714Y-136032200D01*
X52235714Y-136032200D02*
X52330952Y-136079819D01*
X52330952Y-136079819D02*
X52521428Y-136079819D01*
X51711904Y-135175057D02*
X51664285Y-135127438D01*
X51664285Y-135127438D02*
X51569047Y-135079819D01*
X51569047Y-135079819D02*
X51330952Y-135079819D01*
X51330952Y-135079819D02*
X51235714Y-135127438D01*
X51235714Y-135127438D02*
X51188095Y-135175057D01*
X51188095Y-135175057D02*
X51140476Y-135270295D01*
X51140476Y-135270295D02*
X51140476Y-135365533D01*
X51140476Y-135365533D02*
X51188095Y-135508390D01*
X51188095Y-135508390D02*
X51759523Y-136079819D01*
X51759523Y-136079819D02*
X51140476Y-136079819D01*
X122874468Y-102334428D02*
X122922087Y-102382048D01*
X122922087Y-102382048D02*
X123064944Y-102429667D01*
X123064944Y-102429667D02*
X123160182Y-102429667D01*
X123160182Y-102429667D02*
X123303039Y-102382048D01*
X123303039Y-102382048D02*
X123398277Y-102286809D01*
X123398277Y-102286809D02*
X123445896Y-102191571D01*
X123445896Y-102191571D02*
X123493515Y-102001095D01*
X123493515Y-102001095D02*
X123493515Y-101858238D01*
X123493515Y-101858238D02*
X123445896Y-101667762D01*
X123445896Y-101667762D02*
X123398277Y-101572524D01*
X123398277Y-101572524D02*
X123303039Y-101477286D01*
X123303039Y-101477286D02*
X123160182Y-101429667D01*
X123160182Y-101429667D02*
X123064944Y-101429667D01*
X123064944Y-101429667D02*
X122922087Y-101477286D01*
X122922087Y-101477286D02*
X122874468Y-101524905D01*
X122541134Y-101429667D02*
X121874468Y-101429667D01*
X121874468Y-101429667D02*
X122303039Y-102429667D01*
X122887760Y-105051285D02*
X122935379Y-105098905D01*
X122935379Y-105098905D02*
X123078236Y-105146524D01*
X123078236Y-105146524D02*
X123173474Y-105146524D01*
X123173474Y-105146524D02*
X123316331Y-105098905D01*
X123316331Y-105098905D02*
X123411569Y-105003666D01*
X123411569Y-105003666D02*
X123459188Y-104908428D01*
X123459188Y-104908428D02*
X123506807Y-104717952D01*
X123506807Y-104717952D02*
X123506807Y-104575095D01*
X123506807Y-104575095D02*
X123459188Y-104384619D01*
X123459188Y-104384619D02*
X123411569Y-104289381D01*
X123411569Y-104289381D02*
X123316331Y-104194143D01*
X123316331Y-104194143D02*
X123173474Y-104146524D01*
X123173474Y-104146524D02*
X123078236Y-104146524D01*
X123078236Y-104146524D02*
X122935379Y-104194143D01*
X122935379Y-104194143D02*
X122887760Y-104241762D01*
X122030617Y-104146524D02*
X122221093Y-104146524D01*
X122221093Y-104146524D02*
X122316331Y-104194143D01*
X122316331Y-104194143D02*
X122363950Y-104241762D01*
X122363950Y-104241762D02*
X122459188Y-104384619D01*
X122459188Y-104384619D02*
X122506807Y-104575095D01*
X122506807Y-104575095D02*
X122506807Y-104956047D01*
X122506807Y-104956047D02*
X122459188Y-105051285D01*
X122459188Y-105051285D02*
X122411569Y-105098905D01*
X122411569Y-105098905D02*
X122316331Y-105146524D01*
X122316331Y-105146524D02*
X122125855Y-105146524D01*
X122125855Y-105146524D02*
X122030617Y-105098905D01*
X122030617Y-105098905D02*
X121982998Y-105051285D01*
X121982998Y-105051285D02*
X121935379Y-104956047D01*
X121935379Y-104956047D02*
X121935379Y-104717952D01*
X121935379Y-104717952D02*
X121982998Y-104622714D01*
X121982998Y-104622714D02*
X122030617Y-104575095D01*
X122030617Y-104575095D02*
X122125855Y-104527476D01*
X122125855Y-104527476D02*
X122316331Y-104527476D01*
X122316331Y-104527476D02*
X122411569Y-104575095D01*
X122411569Y-104575095D02*
X122459188Y-104622714D01*
X122459188Y-104622714D02*
X122506807Y-104717952D01*
X117167133Y-170554820D02*
X117167133Y-171269105D01*
X117167133Y-171269105D02*
X117214752Y-171411962D01*
X117214752Y-171411962D02*
X117309990Y-171507201D01*
X117309990Y-171507201D02*
X117452847Y-171554820D01*
X117452847Y-171554820D02*
X117548085Y-171554820D01*
X116738561Y-170650058D02*
X116690942Y-170602439D01*
X116690942Y-170602439D02*
X116595704Y-170554820D01*
X116595704Y-170554820D02*
X116357609Y-170554820D01*
X116357609Y-170554820D02*
X116262371Y-170602439D01*
X116262371Y-170602439D02*
X116214752Y-170650058D01*
X116214752Y-170650058D02*
X116167133Y-170745296D01*
X116167133Y-170745296D02*
X116167133Y-170840534D01*
X116167133Y-170840534D02*
X116214752Y-170983391D01*
X116214752Y-170983391D02*
X116786180Y-171554820D01*
X116786180Y-171554820D02*
X116167133Y-171554820D01*
X52931544Y-116779819D02*
X52931544Y-115779819D01*
X52931544Y-115779819D02*
X52693449Y-115779819D01*
X52693449Y-115779819D02*
X52550592Y-115827438D01*
X52550592Y-115827438D02*
X52455354Y-115922676D01*
X52455354Y-115922676D02*
X52407735Y-116017914D01*
X52407735Y-116017914D02*
X52360116Y-116208390D01*
X52360116Y-116208390D02*
X52360116Y-116351247D01*
X52360116Y-116351247D02*
X52407735Y-116541723D01*
X52407735Y-116541723D02*
X52455354Y-116636961D01*
X52455354Y-116636961D02*
X52550592Y-116732200D01*
X52550592Y-116732200D02*
X52693449Y-116779819D01*
X52693449Y-116779819D02*
X52931544Y-116779819D01*
X51407735Y-116779819D02*
X51979163Y-116779819D01*
X51693449Y-116779819D02*
X51693449Y-115779819D01*
X51693449Y-115779819D02*
X51788687Y-115922676D01*
X51788687Y-115922676D02*
X51883925Y-116017914D01*
X51883925Y-116017914D02*
X51979163Y-116065533D01*
X135579819Y-100315476D02*
X135579819Y-100886904D01*
X136579819Y-100601190D02*
X135579819Y-100601190D01*
X136579819Y-101220238D02*
X135579819Y-101220238D01*
X135579819Y-101220238D02*
X135579819Y-101601190D01*
X135579819Y-101601190D02*
X135627438Y-101696428D01*
X135627438Y-101696428D02*
X135675057Y-101744047D01*
X135675057Y-101744047D02*
X135770295Y-101791666D01*
X135770295Y-101791666D02*
X135913152Y-101791666D01*
X135913152Y-101791666D02*
X136008390Y-101744047D01*
X136008390Y-101744047D02*
X136056009Y-101696428D01*
X136056009Y-101696428D02*
X136103628Y-101601190D01*
X136103628Y-101601190D02*
X136103628Y-101220238D01*
X136675057Y-101982143D02*
X136675057Y-102744047D01*
X136579819Y-103458333D02*
X136579819Y-102982143D01*
X136579819Y-102982143D02*
X135579819Y-102982143D01*
X136056009Y-103791667D02*
X136056009Y-104125000D01*
X136579819Y-104267857D02*
X136579819Y-103791667D01*
X136579819Y-103791667D02*
X135579819Y-103791667D01*
X135579819Y-103791667D02*
X135579819Y-104267857D01*
X136056009Y-105029762D02*
X136056009Y-104696429D01*
X136579819Y-104696429D02*
X135579819Y-104696429D01*
X135579819Y-104696429D02*
X135579819Y-105172619D01*
X135579819Y-105410715D02*
X135579819Y-105982143D01*
X136579819Y-105696429D02*
X135579819Y-105696429D01*
X136579819Y-106839286D02*
X136579819Y-106267858D01*
X136579819Y-106553572D02*
X135579819Y-106553572D01*
X135579819Y-106553572D02*
X135722676Y-106458334D01*
X135722676Y-106458334D02*
X135817914Y-106363096D01*
X135817914Y-106363096D02*
X135865533Y-106267858D01*
X99367857Y-166629819D02*
X99701190Y-166153628D01*
X99939285Y-166629819D02*
X99939285Y-165629819D01*
X99939285Y-165629819D02*
X99558333Y-165629819D01*
X99558333Y-165629819D02*
X99463095Y-165677438D01*
X99463095Y-165677438D02*
X99415476Y-165725057D01*
X99415476Y-165725057D02*
X99367857Y-165820295D01*
X99367857Y-165820295D02*
X99367857Y-165963152D01*
X99367857Y-165963152D02*
X99415476Y-166058390D01*
X99415476Y-166058390D02*
X99463095Y-166106009D01*
X99463095Y-166106009D02*
X99558333Y-166153628D01*
X99558333Y-166153628D02*
X99939285Y-166153628D01*
X98415476Y-166629819D02*
X98986904Y-166629819D01*
X98701190Y-166629819D02*
X98701190Y-165629819D01*
X98701190Y-165629819D02*
X98796428Y-165772676D01*
X98796428Y-165772676D02*
X98891666Y-165867914D01*
X98891666Y-165867914D02*
X98986904Y-165915533D01*
X97844047Y-166058390D02*
X97939285Y-166010771D01*
X97939285Y-166010771D02*
X97986904Y-165963152D01*
X97986904Y-165963152D02*
X98034523Y-165867914D01*
X98034523Y-165867914D02*
X98034523Y-165820295D01*
X98034523Y-165820295D02*
X97986904Y-165725057D01*
X97986904Y-165725057D02*
X97939285Y-165677438D01*
X97939285Y-165677438D02*
X97844047Y-165629819D01*
X97844047Y-165629819D02*
X97653571Y-165629819D01*
X97653571Y-165629819D02*
X97558333Y-165677438D01*
X97558333Y-165677438D02*
X97510714Y-165725057D01*
X97510714Y-165725057D02*
X97463095Y-165820295D01*
X97463095Y-165820295D02*
X97463095Y-165867914D01*
X97463095Y-165867914D02*
X97510714Y-165963152D01*
X97510714Y-165963152D02*
X97558333Y-166010771D01*
X97558333Y-166010771D02*
X97653571Y-166058390D01*
X97653571Y-166058390D02*
X97844047Y-166058390D01*
X97844047Y-166058390D02*
X97939285Y-166106009D01*
X97939285Y-166106009D02*
X97986904Y-166153628D01*
X97986904Y-166153628D02*
X98034523Y-166248866D01*
X98034523Y-166248866D02*
X98034523Y-166439342D01*
X98034523Y-166439342D02*
X97986904Y-166534580D01*
X97986904Y-166534580D02*
X97939285Y-166582200D01*
X97939285Y-166582200D02*
X97844047Y-166629819D01*
X97844047Y-166629819D02*
X97653571Y-166629819D01*
X97653571Y-166629819D02*
X97558333Y-166582200D01*
X97558333Y-166582200D02*
X97510714Y-166534580D01*
X97510714Y-166534580D02*
X97463095Y-166439342D01*
X97463095Y-166439342D02*
X97463095Y-166248866D01*
X97463095Y-166248866D02*
X97510714Y-166153628D01*
X97510714Y-166153628D02*
X97558333Y-166106009D01*
X97558333Y-166106009D02*
X97653571Y-166058390D01*
X78608119Y-177816052D02*
X78608119Y-177339862D01*
X78608119Y-177339862D02*
X77608119Y-177339862D01*
X78084309Y-178149386D02*
X78084309Y-178482719D01*
X78608119Y-178625576D02*
X78608119Y-178149386D01*
X78608119Y-178149386D02*
X77608119Y-178149386D01*
X77608119Y-178149386D02*
X77608119Y-178625576D01*
X78608119Y-179054148D02*
X77608119Y-179054148D01*
X77608119Y-179054148D02*
X77608119Y-179292243D01*
X77608119Y-179292243D02*
X77655738Y-179435100D01*
X77655738Y-179435100D02*
X77750976Y-179530338D01*
X77750976Y-179530338D02*
X77846214Y-179577957D01*
X77846214Y-179577957D02*
X78036690Y-179625576D01*
X78036690Y-179625576D02*
X78179547Y-179625576D01*
X78179547Y-179625576D02*
X78370023Y-179577957D01*
X78370023Y-179577957D02*
X78465261Y-179530338D01*
X78465261Y-179530338D02*
X78560500Y-179435100D01*
X78560500Y-179435100D02*
X78608119Y-179292243D01*
X78608119Y-179292243D02*
X78608119Y-179054148D01*
X78608119Y-180577957D02*
X78608119Y-180006529D01*
X78608119Y-180292243D02*
X77608119Y-180292243D01*
X77608119Y-180292243D02*
X77750976Y-180197005D01*
X77750976Y-180197005D02*
X77846214Y-180101767D01*
X77846214Y-180101767D02*
X77893833Y-180006529D01*
X114284993Y-102944418D02*
X114618326Y-102468227D01*
X114856421Y-102944418D02*
X114856421Y-101944418D01*
X114856421Y-101944418D02*
X114475469Y-101944418D01*
X114475469Y-101944418D02*
X114380231Y-101992037D01*
X114380231Y-101992037D02*
X114332612Y-102039656D01*
X114332612Y-102039656D02*
X114284993Y-102134894D01*
X114284993Y-102134894D02*
X114284993Y-102277751D01*
X114284993Y-102277751D02*
X114332612Y-102372989D01*
X114332612Y-102372989D02*
X114380231Y-102420608D01*
X114380231Y-102420608D02*
X114475469Y-102468227D01*
X114475469Y-102468227D02*
X114856421Y-102468227D01*
X113808802Y-102944418D02*
X113618326Y-102944418D01*
X113618326Y-102944418D02*
X113523088Y-102896799D01*
X113523088Y-102896799D02*
X113475469Y-102849179D01*
X113475469Y-102849179D02*
X113380231Y-102706322D01*
X113380231Y-102706322D02*
X113332612Y-102515846D01*
X113332612Y-102515846D02*
X113332612Y-102134894D01*
X113332612Y-102134894D02*
X113380231Y-102039656D01*
X113380231Y-102039656D02*
X113427850Y-101992037D01*
X113427850Y-101992037D02*
X113523088Y-101944418D01*
X113523088Y-101944418D02*
X113713564Y-101944418D01*
X113713564Y-101944418D02*
X113808802Y-101992037D01*
X113808802Y-101992037D02*
X113856421Y-102039656D01*
X113856421Y-102039656D02*
X113904040Y-102134894D01*
X113904040Y-102134894D02*
X113904040Y-102372989D01*
X113904040Y-102372989D02*
X113856421Y-102468227D01*
X113856421Y-102468227D02*
X113808802Y-102515846D01*
X113808802Y-102515846D02*
X113713564Y-102563465D01*
X113713564Y-102563465D02*
X113523088Y-102563465D01*
X113523088Y-102563465D02*
X113427850Y-102515846D01*
X113427850Y-102515846D02*
X113380231Y-102468227D01*
X113380231Y-102468227D02*
X113332612Y-102372989D01*
X78056743Y-84938727D02*
X78390076Y-84462536D01*
X78628171Y-84938727D02*
X78628171Y-83938727D01*
X78628171Y-83938727D02*
X78247219Y-83938727D01*
X78247219Y-83938727D02*
X78151981Y-83986346D01*
X78151981Y-83986346D02*
X78104362Y-84033965D01*
X78104362Y-84033965D02*
X78056743Y-84129203D01*
X78056743Y-84129203D02*
X78056743Y-84272060D01*
X78056743Y-84272060D02*
X78104362Y-84367298D01*
X78104362Y-84367298D02*
X78151981Y-84414917D01*
X78151981Y-84414917D02*
X78247219Y-84462536D01*
X78247219Y-84462536D02*
X78628171Y-84462536D01*
X77723409Y-83938727D02*
X77104362Y-83938727D01*
X77104362Y-83938727D02*
X77437695Y-84319679D01*
X77437695Y-84319679D02*
X77294838Y-84319679D01*
X77294838Y-84319679D02*
X77199600Y-84367298D01*
X77199600Y-84367298D02*
X77151981Y-84414917D01*
X77151981Y-84414917D02*
X77104362Y-84510155D01*
X77104362Y-84510155D02*
X77104362Y-84748250D01*
X77104362Y-84748250D02*
X77151981Y-84843488D01*
X77151981Y-84843488D02*
X77199600Y-84891108D01*
X77199600Y-84891108D02*
X77294838Y-84938727D01*
X77294838Y-84938727D02*
X77580552Y-84938727D01*
X77580552Y-84938727D02*
X77675790Y-84891108D01*
X77675790Y-84891108D02*
X77723409Y-84843488D01*
D13*
%TO.C,R17*%
X142522900Y-123356114D02*
X142522900Y-121901986D01*
X144342900Y-123356114D02*
X144342900Y-121901986D01*
%TO.C,C18*%
X47708121Y-129437939D02*
X49130625Y-129437939D01*
X47708121Y-131257939D02*
X49130625Y-131257939D01*
%TO.C,C15*%
X57372198Y-118822900D02*
X58794702Y-118822900D01*
X57372198Y-120642900D02*
X58794702Y-120642900D01*
%TO.C,R20*%
X57059486Y-134432900D02*
X58513614Y-134432900D01*
X57059486Y-136252900D02*
X58513614Y-136252900D01*
%TO.C,R5*%
X60927936Y-84285000D02*
X62382064Y-84285000D01*
X60927936Y-86105000D02*
X62382064Y-86105000D01*
%TO.C,C9*%
X112021726Y-99036252D02*
X112021726Y-97613748D01*
X113841726Y-99036252D02*
X113841726Y-97613748D01*
%TO.C,C12*%
X92736252Y-122565000D02*
X91313748Y-122565000D01*
X92736252Y-124385000D02*
X91313748Y-124385000D01*
%TO.C,C4*%
X101267976Y-108765000D02*
X102690480Y-108765000D01*
X101267976Y-110585000D02*
X102690480Y-110585000D01*
%TO.C,TP_CIPO1*%
X120875000Y-116825000D02*
X125075000Y-116825000D01*
X125075000Y-114425000D01*
X120875000Y-114425000D01*
X120875000Y-116825000D01*
%TO.C,R23*%
X78957100Y-172236386D02*
X78957100Y-173690514D01*
X80777100Y-172236386D02*
X80777100Y-173690514D01*
D14*
%TO.C,J3*%
X36079000Y-115745400D02*
X37740160Y-115745400D01*
X36079000Y-132103000D02*
X36079000Y-115745400D01*
X37740160Y-132103000D02*
X36079000Y-132103000D01*
X40615440Y-115745400D02*
X41921000Y-115745400D01*
X41794000Y-130309201D02*
X42144520Y-130133941D01*
X41921000Y-115745400D02*
X41921000Y-117714461D01*
X41921000Y-130133941D02*
X41921000Y-132103000D01*
X41921000Y-132103000D02*
X40615440Y-132103000D01*
D13*
%TO.C,C2*%
X42365000Y-91838748D02*
X42365000Y-93261252D01*
X44185000Y-91838748D02*
X44185000Y-93261252D01*
%TO.C,TP_COPI1*%
X102525000Y-116775000D02*
X106725000Y-116775000D01*
X106725000Y-114375000D01*
X102525000Y-114375000D01*
X102525000Y-116775000D01*
%TO.C,C14*%
X58627802Y-122507100D02*
X57205298Y-122507100D01*
X58627802Y-124327100D02*
X57205298Y-124327100D01*
%TO.C,TP_UP1*%
X40575000Y-101025000D02*
X42975000Y-101025000D01*
X42975000Y-105225000D01*
X40575000Y-105225000D01*
X40575000Y-101025000D01*
%TO.C,C8*%
X94433640Y-104623261D02*
X94433640Y-103200757D01*
X96253640Y-104623261D02*
X96253640Y-103200757D01*
%TO.C,C23*%
X47621848Y-110522900D02*
X49044352Y-110522900D01*
X47621848Y-112342900D02*
X49044352Y-112342900D01*
%TO.C,C19*%
X47708121Y-127087939D02*
X49130625Y-127087939D01*
X47708121Y-128907939D02*
X49130625Y-128907939D01*
%TO.C,TP_DOWN1*%
X39775000Y-148025000D02*
X42175000Y-148025000D01*
X42175000Y-152225000D01*
X39775000Y-152225000D01*
X39775000Y-148025000D01*
%TO.C,TP_EP_RESET1*%
X67175000Y-127325000D02*
X71375000Y-127325000D01*
X71375000Y-124925000D01*
X67175000Y-124925000D01*
X67175000Y-127325000D01*
D14*
%TO.C,J4*%
X41413000Y-81668400D02*
X47559800Y-81668400D01*
X41413000Y-89517000D02*
X41413000Y-81668400D01*
X47559800Y-81668400D02*
X47559800Y-89517000D01*
X47559800Y-89517000D02*
X41413000Y-89517000D01*
D15*
X40016000Y-88040000D02*
G75*
G02*
X39254000Y-88040000I-381000J0D01*
G01*
X39254000Y-88040000D02*
G75*
G02*
X40016000Y-88040000I381000J0D01*
G01*
%TO.C,TP_HOME1*%
D13*
X104225000Y-161725000D02*
X100025000Y-161725000D01*
X100025000Y-164125000D01*
X104225000Y-164125000D01*
X104225000Y-161725000D01*
%TO.C,TP_EP_CS1*%
X49275000Y-146325000D02*
X53475000Y-146325000D01*
X53475000Y-143925000D01*
X49275000Y-143925000D01*
X49275000Y-146325000D01*
%TO.C,C22*%
X47621848Y-112872900D02*
X49044352Y-112872900D01*
X47621848Y-114692900D02*
X49044352Y-114692900D01*
%TO.C,C25*%
X115815000Y-157686252D02*
X115815000Y-156263748D01*
X117635000Y-157686252D02*
X117635000Y-156263748D01*
%TO.C,TP_RIGHT1*%
X137125000Y-120525000D02*
X139525000Y-120525000D01*
X139525000Y-124725000D01*
X137125000Y-124725000D01*
X137125000Y-120525000D01*
%TO.C,C10*%
X100215478Y-94515000D02*
X98792974Y-94515000D01*
X100215478Y-96335000D02*
X98792974Y-96335000D01*
%TO.C,L1*%
X97094228Y-103570242D02*
X97094228Y-101899758D01*
X98914228Y-103570242D02*
X98914228Y-101899758D01*
%TO.C,C13*%
X97513748Y-122515000D02*
X98936252Y-122515000D01*
X97513748Y-124335000D02*
X98936252Y-124335000D01*
%TO.C,R21*%
X45545000Y-91822936D02*
X45545000Y-93277064D01*
X47365000Y-91822936D02*
X47365000Y-93277064D01*
%TO.C,C11*%
X100215478Y-97865000D02*
X98792974Y-97865000D01*
X100215478Y-99685000D02*
X98792974Y-99685000D01*
%TO.C,D3*%
X50739470Y-119907548D02*
X46729470Y-119907548D01*
X50739470Y-119907548D02*
X50739470Y-121907548D01*
X50739470Y-121907548D02*
X46729470Y-121907548D01*
%TO.C,TP_VBUS1*%
X86225000Y-161575000D02*
X82025000Y-161575000D01*
X82025000Y-163975000D01*
X86225000Y-163975000D01*
X86225000Y-161575000D01*
D14*
%TO.C,R_{SNS}2*%
X62733500Y-96130650D02*
X62733500Y-95069350D01*
X66416500Y-95069350D02*
X66416500Y-96130650D01*
%TO.C,TP_BAT_STAT1*%
D13*
X56475000Y-103675000D02*
X52275000Y-103675000D01*
X52275000Y-106075000D01*
X56475000Y-106075000D01*
X56475000Y-103675000D01*
D14*
%TO.C,F2*%
X85745597Y-108771300D02*
X87104403Y-108771300D01*
X87104403Y-110828700D02*
X85745597Y-110828700D01*
D13*
%TO.C,C21*%
X47652169Y-117638452D02*
X49074673Y-117638452D01*
X47652169Y-119458452D02*
X49074673Y-119458452D01*
%TO.C,TP_BAT+1*%
X70975000Y-85225000D02*
X66775000Y-85225000D01*
X66775000Y-87625000D01*
X70975000Y-87625000D01*
X70975000Y-85225000D01*
%TO.C,R6*%
X76722936Y-104040000D02*
X78177064Y-104040000D01*
X76722936Y-105860000D02*
X78177064Y-105860000D01*
%TO.C,R12*%
X114634226Y-97597936D02*
X114634226Y-99052064D01*
X116454226Y-97597936D02*
X116454226Y-99052064D01*
%TO.C,TP_VIN1*%
X88225000Y-101025000D02*
X84025000Y-101025000D01*
X84025000Y-103425000D01*
X88225000Y-103425000D01*
X88225000Y-101025000D01*
%TO.C,R4*%
X82117064Y-86125000D02*
X80662936Y-86125000D01*
X82117064Y-87945000D02*
X80662936Y-87945000D01*
%TO.C,R7*%
X91604226Y-108522064D02*
X91604226Y-107067936D01*
X93424226Y-108522064D02*
X93424226Y-107067936D01*
%TO.C,TP_SD_CS1*%
X112775000Y-157425000D02*
X108575000Y-157425000D01*
X108575000Y-159825000D01*
X112775000Y-159825000D01*
X112775000Y-157425000D01*
%TO.C,TP_GND1*%
X107650000Y-89625000D02*
X103450000Y-89625000D01*
X103450000Y-92025000D01*
X107650000Y-92025000D01*
X107650000Y-89625000D01*
%TO.C,TP_SCK1*%
X93125000Y-116825000D02*
X97325000Y-116825000D01*
X97325000Y-114425000D01*
X93125000Y-114425000D01*
X93125000Y-116825000D01*
%TO.C,R11*%
X109409226Y-99052064D02*
X109409226Y-97597936D01*
X111229226Y-99052064D02*
X111229226Y-97597936D01*
D14*
%TO.C,F1*%
X88394249Y-160279203D02*
X88394249Y-158920397D01*
X90451649Y-158920397D02*
X90451649Y-160279203D01*
%TO.C,CR1*%
X82548251Y-170170499D02*
X84910451Y-170170499D01*
X84910451Y-171923099D02*
X82548251Y-171923099D01*
%TO.C,U3*%
X103662045Y-102712200D02*
X107903845Y-102712200D01*
X107903845Y-107970000D02*
X103662045Y-107970000D01*
D13*
%TO.C,C24*%
X119165000Y-157686252D02*
X119165000Y-156263748D01*
X120985000Y-157686252D02*
X120985000Y-156263748D01*
%TO.C,C17*%
X47713748Y-132065000D02*
X49136252Y-132065000D01*
X47713748Y-133885000D02*
X49136252Y-133885000D01*
%TO.C,R1*%
X97895000Y-171847936D02*
X97895000Y-173302064D01*
X99715000Y-171847936D02*
X99715000Y-173302064D01*
%TO.C,R2*%
X97895000Y-176657936D02*
X97895000Y-178112064D01*
X99715000Y-176657936D02*
X99715000Y-178112064D01*
%TO.C,C20*%
X47708121Y-124737939D02*
X49130625Y-124737939D01*
X47708121Y-126557939D02*
X49130625Y-126557939D01*
%TO.C,C5*%
X118544344Y-106306738D02*
X119966848Y-106306738D01*
X118544344Y-108126738D02*
X119966848Y-108126738D01*
%TO.C,Q1*%
X51690000Y-84252500D02*
X51690000Y-85512500D01*
X51690000Y-91072500D02*
X51690000Y-89812500D01*
X55450000Y-84252500D02*
X51690000Y-84252500D01*
X55450000Y-91072500D02*
X51690000Y-91072500D01*
X56730000Y-84352500D02*
X56490000Y-84022500D01*
X56970000Y-84022500D01*
X56730000Y-84352500D01*
G36*
X56730000Y-84352500D02*
G01*
X56490000Y-84022500D01*
X56970000Y-84022500D01*
X56730000Y-84352500D01*
G37*
%TO.C,U2*%
X76490000Y-107390000D02*
X76490000Y-107485000D01*
X76490000Y-112415000D02*
X76490000Y-112510000D01*
X76490000Y-112510000D02*
X80610000Y-112510000D01*
X80610000Y-107390000D02*
X76490000Y-107390000D01*
X80610000Y-107485000D02*
X80610000Y-107390000D01*
X80610000Y-112510000D02*
X80610000Y-112415000D01*
X76190000Y-112750000D02*
X75710000Y-112750000D01*
X75950000Y-112420000D01*
X76190000Y-112750000D01*
G36*
X76190000Y-112750000D02*
G01*
X75710000Y-112750000D01*
X75950000Y-112420000D01*
X76190000Y-112750000D01*
G37*
%TO.C,R14*%
X35619050Y-102635836D02*
X35619050Y-104089964D01*
X37439050Y-102635836D02*
X37439050Y-104089964D01*
%TO.C,D2*%
X46022486Y-122274467D02*
X50032486Y-122274467D01*
X46022486Y-124274467D02*
X46022486Y-122274467D01*
X46022486Y-124274467D02*
X50032486Y-124274467D01*
D14*
%TO.C,J1*%
X85402600Y-176206887D02*
X85402600Y-174684312D01*
X85402600Y-180081400D02*
X85402600Y-178484311D01*
X94597400Y-174684312D02*
X94597400Y-176206887D01*
X94597400Y-178484311D02*
X94597400Y-180081400D01*
X94597400Y-180081400D02*
X85402600Y-180081400D01*
D13*
%TO.C,R19*%
X57059486Y-130742900D02*
X58513614Y-130742900D01*
X57059486Y-132562900D02*
X58513614Y-132562900D01*
%TO.C,R8*%
X91638756Y-102575733D02*
X91638756Y-101121605D01*
X93458756Y-102575733D02*
X93458756Y-101121605D01*
%TO.C,R16*%
X142347100Y-102743886D02*
X142347100Y-104198014D01*
X144167100Y-102743886D02*
X144167100Y-104198014D01*
%TO.C,TP_EP_D/C1*%
X60725000Y-146325000D02*
X64925000Y-146325000D01*
X64925000Y-143925000D01*
X60725000Y-143925000D01*
X60725000Y-146325000D01*
%TO.C,R22*%
X45545000Y-96987936D02*
X45545000Y-98442064D01*
X47365000Y-96987936D02*
X47365000Y-98442064D01*
D14*
%TO.C,U1*%
X51123100Y-97823653D02*
X51123100Y-95076347D01*
X56126900Y-95076347D02*
X56126900Y-97823653D01*
X56126900Y-96754800D02*
G75*
G02*
X56126900Y-96145200I0J304800D01*
G01*
%TO.C,TP_3V3*%
D13*
X98475000Y-89775000D02*
X94275000Y-89775000D01*
X94275000Y-92175000D01*
X98475000Y-92175000D01*
X98475000Y-89775000D01*
%TO.C,R13*%
X118519297Y-98538514D02*
X119973425Y-98538514D01*
X118519297Y-100358514D02*
X119973425Y-100358514D01*
D14*
%TO.C,R_{SNS}1*%
X62733500Y-104630650D02*
X62733500Y-103569350D01*
X66416500Y-103569350D02*
X66416500Y-104630650D01*
D13*
%TO.C,R15*%
X35537100Y-147743886D02*
X35537100Y-149198014D01*
X37357100Y-147743886D02*
X37357100Y-149198014D01*
%TO.C,L2*%
X59002802Y-126072900D02*
X56230298Y-126072900D01*
X59002802Y-129492900D02*
X56230298Y-129492900D01*
%TO.C,C16*%
X57205298Y-114707100D02*
X58627802Y-114707100D01*
X57205298Y-116527100D02*
X58627802Y-116527100D01*
%TO.C,C1*%
X56915000Y-95238748D02*
X56915000Y-96661252D01*
X58735000Y-95238748D02*
X58735000Y-96661252D01*
D10*
%TO.C,U4*%
X90240000Y-125640000D02*
X93990000Y-125640000D01*
X90240000Y-151000000D02*
X90240000Y-125640000D01*
X90240000Y-151000000D02*
X94240000Y-151000000D01*
X145240000Y-125640000D02*
X134240000Y-125640000D01*
X145240000Y-125640000D02*
X145240000Y-133320000D01*
X145240000Y-151000000D02*
X134240000Y-151000000D01*
X145240000Y-151000000D02*
X145240000Y-143320000D01*
X137240000Y-133320000D02*
X146240000Y-133320000D01*
X146240000Y-143320000D01*
X137240000Y-143320000D01*
X137240000Y-133320000D01*
X93510000Y-127420000D02*
G75*
G02*
X90510000Y-127420000I-1500000J0D01*
G01*
X90510000Y-127420000D02*
G75*
G02*
X93510000Y-127420000I1500000J0D01*
G01*
X93510000Y-149220000D02*
G75*
G02*
X90510000Y-149220000I-1500000J0D01*
G01*
X90510000Y-149220000D02*
G75*
G02*
X93510000Y-149220000I1500000J0D01*
G01*
X144970000Y-127420000D02*
G75*
G02*
X141970000Y-127420000I-1500000J0D01*
G01*
X141970000Y-127420000D02*
G75*
G02*
X144970000Y-127420000I1500000J0D01*
G01*
X144970000Y-149220000D02*
G75*
G02*
X141970000Y-149220000I-1500000J0D01*
G01*
X141970000Y-149220000D02*
G75*
G02*
X144970000Y-149220000I1500000J0D01*
G01*
D13*
%TO.C,C3*%
X99694228Y-105311252D02*
X99694228Y-103888748D01*
X101514228Y-105311252D02*
X101514228Y-103888748D01*
%TO.C,Q2*%
X47215000Y-135535000D02*
X47215000Y-135815000D01*
X47300748Y-136835000D02*
X48685000Y-136835000D01*
X48685000Y-134515000D02*
X47215000Y-134515000D01*
X48685000Y-135165000D02*
X48685000Y-134515000D01*
X48685000Y-136835000D02*
X48685000Y-136185000D01*
X47150000Y-137035000D02*
X46870000Y-137035000D01*
X47010000Y-136845000D01*
X47150000Y-137035000D01*
G36*
X47150000Y-137035000D02*
G01*
X46870000Y-137035000D01*
X47010000Y-136845000D01*
X47150000Y-137035000D01*
G37*
%TO.C,C7*%
X118537075Y-101129599D02*
X119959579Y-101129599D01*
X118537075Y-102949599D02*
X119959579Y-102949599D01*
%TO.C,C6*%
X118537075Y-103729599D02*
X119959579Y-103729599D01*
X118537075Y-105549599D02*
X119959579Y-105549599D01*
D14*
%TO.C,J2*%
X109709100Y-177349561D02*
X109709100Y-164311237D01*
X111815840Y-163353000D02*
X113596260Y-163353000D01*
X122604960Y-178847000D02*
X111062640Y-178847000D01*
X123958500Y-164860440D02*
X123958500Y-177349561D01*
D15*
X109455100Y-163730000D02*
G75*
G02*
X108693100Y-163730000I-381000J0D01*
G01*
X108693100Y-163730000D02*
G75*
G02*
X109455100Y-163730000I381000J0D01*
G01*
D13*
%TO.C,D1*%
X50713450Y-115175000D02*
X46703450Y-115175000D01*
X50713450Y-115175000D02*
X50713450Y-117175000D01*
X50713450Y-117175000D02*
X46703450Y-117175000D01*
%TO.C,TP_LEFT1*%
X137175000Y-101525000D02*
X139575000Y-101525000D01*
X139575000Y-105725000D01*
X137175000Y-105725000D01*
X137175000Y-101525000D01*
%TO.C,R18*%
X97705836Y-167148450D02*
X99159964Y-167148450D01*
X97705836Y-168968450D02*
X99159964Y-168968450D01*
D14*
%TO.C,LED1*%
X73136800Y-178935100D02*
X73898800Y-178300100D01*
X73136800Y-178935100D02*
X73898800Y-178427100D01*
X73136800Y-178935100D02*
X73898800Y-178554100D01*
X73136800Y-178935100D02*
X73898800Y-178681100D01*
X73136800Y-178935100D02*
X73898800Y-178808100D01*
X73136800Y-178935100D02*
X73898800Y-179062100D01*
X73136800Y-178935100D02*
X73898800Y-179189100D01*
X73136800Y-178935100D02*
X73898800Y-179316100D01*
X73136800Y-178935100D02*
X73898800Y-179443100D01*
X73136800Y-178935100D02*
X73898800Y-179570100D01*
X73136800Y-179570100D02*
X73136800Y-178300100D01*
X73898800Y-179570100D02*
X73898800Y-178300100D01*
X74152800Y-178935100D02*
X72882800Y-178935100D01*
X78153300Y-179430400D02*
X77838340Y-179430400D01*
X78153300Y-179430400D02*
X78468260Y-179430400D01*
D13*
%TO.C,R9*%
X113391263Y-103749599D02*
X114845391Y-103749599D01*
X113391263Y-105569599D02*
X114845391Y-105569599D01*
%TO.C,R3*%
X80672936Y-83565000D02*
X82127064Y-83565000D01*
X80672936Y-85385000D02*
X82127064Y-85385000D01*
%TD*%
M02*
