%TF.GenerationSoftware,KiCad,Pcbnew,9.0.7*%
%TF.CreationDate,2026-02-12T15:19:17-05:00*%
%TF.ProjectId,OSHE-Reader-PCB,4f534845-2d52-4656-9164-65722d504342,rev?*%
%TF.SameCoordinates,Original*%
%TF.FileFunction,Copper,L4,Bot*%
%TF.FilePolarity,Positive*%
%FSLAX46Y46*%
G04 Gerber Fmt 4.6, Leading zero omitted, Abs format (unit mm)*
G04 Created by KiCad (PCBNEW 9.0.7) date 2026-02-12 15:19:17*
%MOMM*%
%LPD*%
G01*
G04 APERTURE LIST*
G04 Aperture macros list*
%AMRoundRect*
0 Rectangle with rounded corners*
0 $1 Rounding radius*
0 $2 $3 $4 $5 $6 $7 $8 $9 X,Y pos of 4 corners*
0 Add a 4 corners polygon primitive as box body*
4,1,4,$2,$3,$4,$5,$6,$7,$8,$9,$2,$3,0*
0 Add four circle primitives for the rounded corners*
1,1,$1+$1,$2,$3*
1,1,$1+$1,$4,$5*
1,1,$1+$1,$6,$7*
1,1,$1+$1,$8,$9*
0 Add four rect primitives between the rounded corners*
20,1,$1+$1,$2,$3,$4,$5,0*
20,1,$1+$1,$4,$5,$6,$7,0*
20,1,$1+$1,$6,$7,$8,$9,0*
20,1,$1+$1,$8,$9,$2,$3,0*%
G04 Aperture macros list end*
%TA.AperFunction,EtchedComponent*%
%ADD10C,0.010000*%
%TD*%
%TA.AperFunction,WasherPad*%
%ADD11C,6.000000*%
%TD*%
%TA.AperFunction,ComponentPad*%
%ADD12C,1.400000*%
%TD*%
%TA.AperFunction,SMDPad,CuDef*%
%ADD13RoundRect,0.250000X0.625000X-0.312500X0.625000X0.312500X-0.625000X0.312500X-0.625000X-0.312500X0*%
%TD*%
%TA.AperFunction,SMDPad,CuDef*%
%ADD14RoundRect,0.250000X-0.325000X-0.650000X0.325000X-0.650000X0.325000X0.650000X-0.325000X0.650000X0*%
%TD*%
%TA.AperFunction,SMDPad,CuDef*%
%ADD15RoundRect,0.250000X-0.312500X-0.625000X0.312500X-0.625000X0.312500X0.625000X-0.312500X0.625000X0*%
%TD*%
%TA.AperFunction,SMDPad,CuDef*%
%ADD16RoundRect,0.250000X0.650000X-0.325000X0.650000X0.325000X-0.650000X0.325000X-0.650000X-0.325000X0*%
%TD*%
%TA.AperFunction,SMDPad,CuDef*%
%ADD17RoundRect,0.250000X0.325000X0.650000X-0.325000X0.650000X-0.325000X-0.650000X0.325000X-0.650000X0*%
%TD*%
%TA.AperFunction,SMDPad,CuDef*%
%ADD18RoundRect,0.250000X-1.650000X-0.750000X1.650000X-0.750000X1.650000X0.750000X-1.650000X0.750000X0*%
%TD*%
%TA.AperFunction,SMDPad,CuDef*%
%ADD19RoundRect,0.250000X-0.625000X0.312500X-0.625000X-0.312500X0.625000X-0.312500X0.625000X0.312500X0*%
%TD*%
%TA.AperFunction,SMDPad,CuDef*%
%ADD20R,1.295400X0.254000*%
%TD*%
%TA.AperFunction,SMDPad,CuDef*%
%ADD21R,2.209800X1.803400*%
%TD*%
%TA.AperFunction,SMDPad,CuDef*%
%ADD22RoundRect,0.250000X-0.650000X0.325000X-0.650000X-0.325000X0.650000X-0.325000X0.650000X0.325000X0*%
%TD*%
%TA.AperFunction,SMDPad,CuDef*%
%ADD23RoundRect,0.250000X-0.750000X1.650000X-0.750000X-1.650000X0.750000X-1.650000X0.750000X1.650000X0*%
%TD*%
%TA.AperFunction,ComponentPad*%
%ADD24C,1.320800*%
%TD*%
%TA.AperFunction,SMDPad,CuDef*%
%ADD25RoundRect,0.250000X1.650000X0.750000X-1.650000X0.750000X-1.650000X-0.750000X1.650000X-0.750000X0*%
%TD*%
%TA.AperFunction,SMDPad,CuDef*%
%ADD26RoundRect,0.250000X0.700000X-0.275000X0.700000X0.275000X-0.700000X0.275000X-0.700000X-0.275000X0*%
%TD*%
%TA.AperFunction,SMDPad,CuDef*%
%ADD27RoundRect,0.225000X0.225000X0.375000X-0.225000X0.375000X-0.225000X-0.375000X0.225000X-0.375000X0*%
%TD*%
%TA.AperFunction,SMDPad,CuDef*%
%ADD28R,3.429000X2.819400*%
%TD*%
%TA.AperFunction,SMDPad,CuDef*%
%ADD29R,0.990600X1.905000*%
%TD*%
%TA.AperFunction,SMDPad,CuDef*%
%ADD30RoundRect,0.250000X0.312500X0.625000X-0.312500X0.625000X-0.312500X-0.625000X0.312500X-0.625000X0*%
%TD*%
%TA.AperFunction,SMDPad,CuDef*%
%ADD31R,1.905000X0.990600*%
%TD*%
%TA.AperFunction,SMDPad,CuDef*%
%ADD32R,1.803400X0.838200*%
%TD*%
%TA.AperFunction,SMDPad,CuDef*%
%ADD33R,0.711200X0.838200*%
%TD*%
%TA.AperFunction,SMDPad,CuDef*%
%ADD34R,1.816100X0.558800*%
%TD*%
%TA.AperFunction,SMDPad,CuDef*%
%ADD35R,2.387600X3.098800*%
%TD*%
%TA.AperFunction,SMDPad,CuDef*%
%ADD36RoundRect,0.375000X0.625000X0.375000X-0.625000X0.375000X-0.625000X-0.375000X0.625000X-0.375000X0*%
%TD*%
%TA.AperFunction,SMDPad,CuDef*%
%ADD37RoundRect,0.500000X0.500000X1.400000X-0.500000X1.400000X-0.500000X-1.400000X0.500000X-1.400000X0*%
%TD*%
%TA.AperFunction,SMDPad,CuDef*%
%ADD38RoundRect,0.150000X-0.725000X-0.150000X0.725000X-0.150000X0.725000X0.150000X-0.725000X0.150000X0*%
%TD*%
%TA.AperFunction,SMDPad,CuDef*%
%ADD39RoundRect,0.225000X-0.225000X-0.375000X0.225000X-0.375000X0.225000X0.375000X-0.225000X0.375000X0*%
%TD*%
%TA.AperFunction,WasherPad*%
%ADD40O,1.092200X1.701800*%
%TD*%
%TA.AperFunction,SMDPad,CuDef*%
%ADD41R,0.711200X1.193800*%
%TD*%
%TA.AperFunction,SMDPad,CuDef*%
%ADD42R,0.762000X1.193800*%
%TD*%
%TA.AperFunction,SMDPad,CuDef*%
%ADD43R,0.812800X1.193800*%
%TD*%
%TA.AperFunction,SMDPad,CuDef*%
%ADD44R,0.558800X1.981200*%
%TD*%
%TA.AperFunction,SMDPad,CuDef*%
%ADD45RoundRect,0.250000X0.312500X1.450000X-0.312500X1.450000X-0.312500X-1.450000X0.312500X-1.450000X0*%
%TD*%
%TA.AperFunction,SMDPad,CuDef*%
%ADD46RoundRect,0.190500X-0.444500X0.762000X-0.444500X-0.762000X0.444500X-0.762000X0.444500X0.762000X0*%
%TD*%
%TA.AperFunction,SMDPad,CuDef*%
%ADD47RoundRect,0.125000X-0.487500X-0.125000X0.487500X-0.125000X0.487500X0.125000X-0.487500X0.125000X0*%
%TD*%
%TA.AperFunction,SMDPad,CuDef*%
%ADD48R,0.609600X0.990600*%
%TD*%
%TA.AperFunction,SMDPad,CuDef*%
%ADD49R,0.889000X1.295400*%
%TD*%
%TA.AperFunction,SMDPad,CuDef*%
%ADD50R,0.812800X1.092200*%
%TD*%
%TA.AperFunction,SMDPad,CuDef*%
%ADD51R,1.498600X0.889000*%
%TD*%
%TA.AperFunction,SMDPad,CuDef*%
%ADD52R,1.092200X1.295400*%
%TD*%
%TA.AperFunction,SMDPad,CuDef*%
%ADD53R,1.498600X0.990600*%
%TD*%
%TA.AperFunction,SMDPad,CuDef*%
%ADD54R,0.889000X0.889000*%
%TD*%
%TA.AperFunction,ViaPad*%
%ADD55C,0.600000*%
%TD*%
%TA.AperFunction,ViaPad*%
%ADD56C,0.800000*%
%TD*%
%TA.AperFunction,ViaPad*%
%ADD57C,1.000000*%
%TD*%
%TA.AperFunction,Conductor*%
%ADD58C,0.200000*%
%TD*%
%TA.AperFunction,Conductor*%
%ADD59C,0.500000*%
%TD*%
G04 APERTURE END LIST*
D10*
%TO.C,REF\u002A\u002A*%
X39277977Y-170900427D02*
X39390559Y-171497618D01*
X39805973Y-171668865D01*
X40221386Y-171840112D01*
X40719744Y-171501233D01*
X40818380Y-171434425D01*
X40949140Y-171346734D01*
X41062351Y-171271835D01*
X41152132Y-171213575D01*
X41212604Y-171175800D01*
X41237887Y-171162353D01*
X41253415Y-171171916D01*
X41299830Y-171211985D01*
X41370073Y-171277742D01*
X41458191Y-171363150D01*
X41558232Y-171462170D01*
X41664245Y-171568764D01*
X41770278Y-171676895D01*
X41870378Y-171780523D01*
X41958595Y-171873613D01*
X42028975Y-171950124D01*
X42075568Y-172004020D01*
X42092422Y-172029262D01*
X42088501Y-172040107D01*
X42061355Y-172088483D01*
X42011782Y-172168097D01*
X41943802Y-172272709D01*
X41861434Y-172396077D01*
X41768696Y-172531961D01*
X41717803Y-172606070D01*
X41630255Y-172735090D01*
X41555196Y-172847689D01*
X41496628Y-172937760D01*
X41458552Y-172999197D01*
X41444971Y-173025895D01*
X41445194Y-173027374D01*
X41457174Y-173061217D01*
X41484659Y-173130326D01*
X41523817Y-173225671D01*
X41570817Y-173338227D01*
X41621828Y-173458965D01*
X41673019Y-173578857D01*
X41720558Y-173688877D01*
X41760614Y-173779995D01*
X41789356Y-173843186D01*
X41802953Y-173869420D01*
X41810998Y-173871747D01*
X41859878Y-173882243D01*
X41946995Y-173899631D01*
X42065376Y-173922550D01*
X42208047Y-173949644D01*
X42368036Y-173979551D01*
X42452358Y-173995408D01*
X42607126Y-174025662D01*
X42742447Y-174053602D01*
X42850925Y-174077624D01*
X42925163Y-174096123D01*
X42957765Y-174107493D01*
X42963621Y-174118766D01*
X42973335Y-174173841D01*
X42980967Y-174265572D01*
X42986523Y-174385328D01*
X42990009Y-174524476D01*
X42991430Y-174674386D01*
X42990793Y-174826427D01*
X42988103Y-174971967D01*
X42983367Y-175102376D01*
X42976590Y-175209021D01*
X42967779Y-175283273D01*
X42956938Y-175316500D01*
X42950360Y-175320248D01*
X42901298Y-175336324D01*
X42816190Y-175357593D01*
X42704873Y-175381727D01*
X42577183Y-175406398D01*
X42534100Y-175414255D01*
X42335116Y-175450797D01*
X42178731Y-175480165D01*
X42059526Y-175503576D01*
X41972080Y-175522249D01*
X41910971Y-175537401D01*
X41870778Y-175550250D01*
X41846081Y-175562013D01*
X41831459Y-175573908D01*
X41829759Y-175575904D01*
X41805847Y-175617526D01*
X41770462Y-175693685D01*
X41727035Y-175795448D01*
X41678994Y-175913879D01*
X41629768Y-176040044D01*
X41582788Y-176165009D01*
X41541483Y-176279839D01*
X41509282Y-176375599D01*
X41489614Y-176443355D01*
X41485908Y-176474172D01*
X41488386Y-176478170D01*
X41514032Y-176516839D01*
X41562263Y-176588162D01*
X41628605Y-176685569D01*
X41708589Y-176802489D01*
X41797741Y-176932353D01*
X41822208Y-176968083D01*
X41908246Y-177096245D01*
X41982602Y-177210863D01*
X42041031Y-177305142D01*
X42079290Y-177372284D01*
X42093135Y-177405490D01*
X42090152Y-177414220D01*
X42059054Y-177457237D01*
X41997698Y-177527485D01*
X41910480Y-177620234D01*
X41801792Y-177730757D01*
X41676028Y-177854326D01*
X41604143Y-177923490D01*
X41490483Y-178031212D01*
X41391000Y-178123480D01*
X41311038Y-178195436D01*
X41255938Y-178242223D01*
X41231041Y-178258982D01*
X41213936Y-178252770D01*
X41161272Y-178223381D01*
X41084792Y-178175318D01*
X40994472Y-178114667D01*
X40930255Y-178070408D01*
X40802048Y-177982516D01*
X40665237Y-177889170D01*
X40540275Y-177804346D01*
X40295480Y-177638770D01*
X40089993Y-177749875D01*
X40041607Y-177775520D01*
X39953613Y-177819385D01*
X39885566Y-177849669D01*
X39849199Y-177860961D01*
X39837297Y-177846460D01*
X39807743Y-177791247D01*
X39764091Y-177700217D01*
X39708769Y-177579147D01*
X39644206Y-177433814D01*
X39572832Y-177269996D01*
X39497075Y-177093468D01*
X39419365Y-176910008D01*
X39342130Y-176725393D01*
X39267799Y-176545401D01*
X39198801Y-176375807D01*
X39137566Y-176222390D01*
X39086522Y-176090925D01*
X39048098Y-175987191D01*
X39024723Y-175916964D01*
X39018826Y-175886021D01*
X39019226Y-175885117D01*
X39046692Y-175856512D01*
X39104142Y-175811712D01*
X39179716Y-175760006D01*
X39203570Y-175744217D01*
X39385078Y-175594429D01*
X39535296Y-175416022D01*
X39650670Y-175216420D01*
X39727643Y-175003052D01*
X39762657Y-174783342D01*
X39752156Y-174564717D01*
X39709620Y-174370266D01*
X39633246Y-174173912D01*
X39521908Y-173998739D01*
X39369117Y-173832337D01*
X39309082Y-173779179D01*
X39115001Y-173648206D01*
X38905342Y-173559999D01*
X38686180Y-173513767D01*
X38463590Y-173508722D01*
X38243650Y-173544075D01*
X38032433Y-173619034D01*
X37836016Y-173732812D01*
X37660475Y-173884618D01*
X37511885Y-174073664D01*
X37483317Y-174120479D01*
X37386216Y-174334459D01*
X37334646Y-174557281D01*
X37327257Y-174783177D01*
X37362698Y-175006374D01*
X37439619Y-175221102D01*
X37556669Y-175421591D01*
X37712498Y-175602069D01*
X37905756Y-175756765D01*
X37912032Y-175760934D01*
X37986805Y-175813625D01*
X38042847Y-175858424D01*
X38068443Y-175886021D01*
X38065213Y-175907657D01*
X38045133Y-175970654D01*
X38009527Y-176068293D01*
X37960823Y-176194797D01*
X37901451Y-176344387D01*
X37833837Y-176511285D01*
X37760409Y-176689712D01*
X37683597Y-176873891D01*
X37605827Y-177058042D01*
X37529528Y-177236388D01*
X37457127Y-177403150D01*
X37391053Y-177552549D01*
X37333735Y-177678809D01*
X37287598Y-177776149D01*
X37255073Y-177838793D01*
X37238586Y-177860961D01*
X37224876Y-177857958D01*
X37171013Y-177836381D01*
X37091407Y-177798548D01*
X36997793Y-177749875D01*
X36792305Y-177638770D01*
X36547510Y-177804346D01*
X36475188Y-177853375D01*
X36340669Y-177944984D01*
X36206558Y-178036740D01*
X36093313Y-178114667D01*
X36030814Y-178157136D01*
X35949582Y-178209899D01*
X35889352Y-178246020D01*
X35859934Y-178259412D01*
X35847296Y-178253726D01*
X35801610Y-178218900D01*
X35731181Y-178157584D01*
X35642139Y-178075809D01*
X35540615Y-177979606D01*
X35432738Y-177875006D01*
X35324638Y-177768041D01*
X35222446Y-177664740D01*
X35132293Y-177571137D01*
X35060308Y-177493261D01*
X35012621Y-177437144D01*
X34995363Y-177408817D01*
X34996358Y-177403427D01*
X35016898Y-177359559D01*
X35060777Y-177283662D01*
X35123755Y-177182591D01*
X35201591Y-177063203D01*
X35290045Y-176932353D01*
X35314852Y-176896260D01*
X35401961Y-176769255D01*
X35478690Y-176656973D01*
X35540567Y-176565985D01*
X35583120Y-176502861D01*
X35601877Y-176474172D01*
X35602338Y-176472942D01*
X35596802Y-176437843D01*
X35575663Y-176366739D01*
X35542348Y-176268565D01*
X35500288Y-176152257D01*
X35452913Y-176026748D01*
X35403651Y-175900973D01*
X35355932Y-175783867D01*
X35313185Y-175684365D01*
X35278840Y-175611400D01*
X35256326Y-175573908D01*
X35254071Y-175571580D01*
X35237951Y-175559804D01*
X35210726Y-175547928D01*
X35166976Y-175534736D01*
X35101278Y-175519009D01*
X35008213Y-175499529D01*
X34882359Y-175475079D01*
X34718296Y-175444441D01*
X34510602Y-175406398D01*
X34467524Y-175398391D01*
X34344120Y-175373639D01*
X34240315Y-175350188D01*
X34165944Y-175330365D01*
X34130847Y-175316500D01*
X34124975Y-175304932D01*
X34115186Y-175249365D01*
X34107428Y-175157245D01*
X34101708Y-175037206D01*
X34098032Y-174897877D01*
X34096405Y-174747890D01*
X34096834Y-174595876D01*
X34099325Y-174450467D01*
X34103883Y-174320292D01*
X34110514Y-174213985D01*
X34119225Y-174140174D01*
X34130020Y-174107493D01*
X34141042Y-174102665D01*
X34195874Y-174087446D01*
X34288556Y-174065921D01*
X34411694Y-174039694D01*
X34557891Y-174010369D01*
X34719750Y-173979551D01*
X34808127Y-173963086D01*
X34959602Y-173934534D01*
X35089983Y-173909532D01*
X35192298Y-173889440D01*
X35259571Y-173875617D01*
X35284832Y-173869420D01*
X35285782Y-173868143D01*
X35301869Y-173835692D01*
X35332537Y-173767707D01*
X35373954Y-173673209D01*
X35422284Y-173561219D01*
X35473697Y-173440755D01*
X35524357Y-173320839D01*
X35570432Y-173210490D01*
X35608089Y-173118728D01*
X35633494Y-173054574D01*
X35642814Y-173027047D01*
X35638703Y-173017361D01*
X35611343Y-172971273D01*
X35561713Y-172893695D01*
X35493803Y-172790716D01*
X35411598Y-172668422D01*
X35319089Y-172532901D01*
X35268335Y-172458684D01*
X35180746Y-172328564D01*
X35105650Y-172214367D01*
X35047050Y-172122321D01*
X35008952Y-172058653D01*
X34995363Y-172029592D01*
X35004806Y-172013828D01*
X35044303Y-171966726D01*
X35109101Y-171895441D01*
X35193252Y-171806015D01*
X35290807Y-171704487D01*
X35395817Y-171596898D01*
X35502336Y-171489289D01*
X35604414Y-171387700D01*
X35696103Y-171298172D01*
X35771455Y-171226744D01*
X35824523Y-171179458D01*
X35849357Y-171162353D01*
X35863142Y-171169004D01*
X35913761Y-171199847D01*
X35995448Y-171252338D01*
X36102315Y-171322630D01*
X36228475Y-171406877D01*
X36368042Y-171501233D01*
X36866399Y-171840112D01*
X37281813Y-171668865D01*
X37697226Y-171497618D01*
X37809808Y-170900427D01*
X37922391Y-170303235D01*
X39165394Y-170303235D01*
X39277977Y-170900427D01*
%TA.AperFunction,EtchedComponent*%
G36*
X39277977Y-170900427D02*
G01*
X39390559Y-171497618D01*
X39805973Y-171668865D01*
X40221386Y-171840112D01*
X40719744Y-171501233D01*
X40818380Y-171434425D01*
X40949140Y-171346734D01*
X41062351Y-171271835D01*
X41152132Y-171213575D01*
X41212604Y-171175800D01*
X41237887Y-171162353D01*
X41253415Y-171171916D01*
X41299830Y-171211985D01*
X41370073Y-171277742D01*
X41458191Y-171363150D01*
X41558232Y-171462170D01*
X41664245Y-171568764D01*
X41770278Y-171676895D01*
X41870378Y-171780523D01*
X41958595Y-171873613D01*
X42028975Y-171950124D01*
X42075568Y-172004020D01*
X42092422Y-172029262D01*
X42088501Y-172040107D01*
X42061355Y-172088483D01*
X42011782Y-172168097D01*
X41943802Y-172272709D01*
X41861434Y-172396077D01*
X41768696Y-172531961D01*
X41717803Y-172606070D01*
X41630255Y-172735090D01*
X41555196Y-172847689D01*
X41496628Y-172937760D01*
X41458552Y-172999197D01*
X41444971Y-173025895D01*
X41445194Y-173027374D01*
X41457174Y-173061217D01*
X41484659Y-173130326D01*
X41523817Y-173225671D01*
X41570817Y-173338227D01*
X41621828Y-173458965D01*
X41673019Y-173578857D01*
X41720558Y-173688877D01*
X41760614Y-173779995D01*
X41789356Y-173843186D01*
X41802953Y-173869420D01*
X41810998Y-173871747D01*
X41859878Y-173882243D01*
X41946995Y-173899631D01*
X42065376Y-173922550D01*
X42208047Y-173949644D01*
X42368036Y-173979551D01*
X42452358Y-173995408D01*
X42607126Y-174025662D01*
X42742447Y-174053602D01*
X42850925Y-174077624D01*
X42925163Y-174096123D01*
X42957765Y-174107493D01*
X42963621Y-174118766D01*
X42973335Y-174173841D01*
X42980967Y-174265572D01*
X42986523Y-174385328D01*
X42990009Y-174524476D01*
X42991430Y-174674386D01*
X42990793Y-174826427D01*
X42988103Y-174971967D01*
X42983367Y-175102376D01*
X42976590Y-175209021D01*
X42967779Y-175283273D01*
X42956938Y-175316500D01*
X42950360Y-175320248D01*
X42901298Y-175336324D01*
X42816190Y-175357593D01*
X42704873Y-175381727D01*
X42577183Y-175406398D01*
X42534100Y-175414255D01*
X42335116Y-175450797D01*
X42178731Y-175480165D01*
X42059526Y-175503576D01*
X41972080Y-175522249D01*
X41910971Y-175537401D01*
X41870778Y-175550250D01*
X41846081Y-175562013D01*
X41831459Y-175573908D01*
X41829759Y-175575904D01*
X41805847Y-175617526D01*
X41770462Y-175693685D01*
X41727035Y-175795448D01*
X41678994Y-175913879D01*
X41629768Y-176040044D01*
X41582788Y-176165009D01*
X41541483Y-176279839D01*
X41509282Y-176375599D01*
X41489614Y-176443355D01*
X41485908Y-176474172D01*
X41488386Y-176478170D01*
X41514032Y-176516839D01*
X41562263Y-176588162D01*
X41628605Y-176685569D01*
X41708589Y-176802489D01*
X41797741Y-176932353D01*
X41822208Y-176968083D01*
X41908246Y-177096245D01*
X41982602Y-177210863D01*
X42041031Y-177305142D01*
X42079290Y-177372284D01*
X42093135Y-177405490D01*
X42090152Y-177414220D01*
X42059054Y-177457237D01*
X41997698Y-177527485D01*
X41910480Y-177620234D01*
X41801792Y-177730757D01*
X41676028Y-177854326D01*
X41604143Y-177923490D01*
X41490483Y-178031212D01*
X41391000Y-178123480D01*
X41311038Y-178195436D01*
X41255938Y-178242223D01*
X41231041Y-178258982D01*
X41213936Y-178252770D01*
X41161272Y-178223381D01*
X41084792Y-178175318D01*
X40994472Y-178114667D01*
X40930255Y-178070408D01*
X40802048Y-177982516D01*
X40665237Y-177889170D01*
X40540275Y-177804346D01*
X40295480Y-177638770D01*
X40089993Y-177749875D01*
X40041607Y-177775520D01*
X39953613Y-177819385D01*
X39885566Y-177849669D01*
X39849199Y-177860961D01*
X39837297Y-177846460D01*
X39807743Y-177791247D01*
X39764091Y-177700217D01*
X39708769Y-177579147D01*
X39644206Y-177433814D01*
X39572832Y-177269996D01*
X39497075Y-177093468D01*
X39419365Y-176910008D01*
X39342130Y-176725393D01*
X39267799Y-176545401D01*
X39198801Y-176375807D01*
X39137566Y-176222390D01*
X39086522Y-176090925D01*
X39048098Y-175987191D01*
X39024723Y-175916964D01*
X39018826Y-175886021D01*
X39019226Y-175885117D01*
X39046692Y-175856512D01*
X39104142Y-175811712D01*
X39179716Y-175760006D01*
X39203570Y-175744217D01*
X39385078Y-175594429D01*
X39535296Y-175416022D01*
X39650670Y-175216420D01*
X39727643Y-175003052D01*
X39762657Y-174783342D01*
X39752156Y-174564717D01*
X39709620Y-174370266D01*
X39633246Y-174173912D01*
X39521908Y-173998739D01*
X39369117Y-173832337D01*
X39309082Y-173779179D01*
X39115001Y-173648206D01*
X38905342Y-173559999D01*
X38686180Y-173513767D01*
X38463590Y-173508722D01*
X38243650Y-173544075D01*
X38032433Y-173619034D01*
X37836016Y-173732812D01*
X37660475Y-173884618D01*
X37511885Y-174073664D01*
X37483317Y-174120479D01*
X37386216Y-174334459D01*
X37334646Y-174557281D01*
X37327257Y-174783177D01*
X37362698Y-175006374D01*
X37439619Y-175221102D01*
X37556669Y-175421591D01*
X37712498Y-175602069D01*
X37905756Y-175756765D01*
X37912032Y-175760934D01*
X37986805Y-175813625D01*
X38042847Y-175858424D01*
X38068443Y-175886021D01*
X38065213Y-175907657D01*
X38045133Y-175970654D01*
X38009527Y-176068293D01*
X37960823Y-176194797D01*
X37901451Y-176344387D01*
X37833837Y-176511285D01*
X37760409Y-176689712D01*
X37683597Y-176873891D01*
X37605827Y-177058042D01*
X37529528Y-177236388D01*
X37457127Y-177403150D01*
X37391053Y-177552549D01*
X37333735Y-177678809D01*
X37287598Y-177776149D01*
X37255073Y-177838793D01*
X37238586Y-177860961D01*
X37224876Y-177857958D01*
X37171013Y-177836381D01*
X37091407Y-177798548D01*
X36997793Y-177749875D01*
X36792305Y-177638770D01*
X36547510Y-177804346D01*
X36475188Y-177853375D01*
X36340669Y-177944984D01*
X36206558Y-178036740D01*
X36093313Y-178114667D01*
X36030814Y-178157136D01*
X35949582Y-178209899D01*
X35889352Y-178246020D01*
X35859934Y-178259412D01*
X35847296Y-178253726D01*
X35801610Y-178218900D01*
X35731181Y-178157584D01*
X35642139Y-178075809D01*
X35540615Y-177979606D01*
X35432738Y-177875006D01*
X35324638Y-177768041D01*
X35222446Y-177664740D01*
X35132293Y-177571137D01*
X35060308Y-177493261D01*
X35012621Y-177437144D01*
X34995363Y-177408817D01*
X34996358Y-177403427D01*
X35016898Y-177359559D01*
X35060777Y-177283662D01*
X35123755Y-177182591D01*
X35201591Y-177063203D01*
X35290045Y-176932353D01*
X35314852Y-176896260D01*
X35401961Y-176769255D01*
X35478690Y-176656973D01*
X35540567Y-176565985D01*
X35583120Y-176502861D01*
X35601877Y-176474172D01*
X35602338Y-176472942D01*
X35596802Y-176437843D01*
X35575663Y-176366739D01*
X35542348Y-176268565D01*
X35500288Y-176152257D01*
X35452913Y-176026748D01*
X35403651Y-175900973D01*
X35355932Y-175783867D01*
X35313185Y-175684365D01*
X35278840Y-175611400D01*
X35256326Y-175573908D01*
X35254071Y-175571580D01*
X35237951Y-175559804D01*
X35210726Y-175547928D01*
X35166976Y-175534736D01*
X35101278Y-175519009D01*
X35008213Y-175499529D01*
X34882359Y-175475079D01*
X34718296Y-175444441D01*
X34510602Y-175406398D01*
X34467524Y-175398391D01*
X34344120Y-175373639D01*
X34240315Y-175350188D01*
X34165944Y-175330365D01*
X34130847Y-175316500D01*
X34124975Y-175304932D01*
X34115186Y-175249365D01*
X34107428Y-175157245D01*
X34101708Y-175037206D01*
X34098032Y-174897877D01*
X34096405Y-174747890D01*
X34096834Y-174595876D01*
X34099325Y-174450467D01*
X34103883Y-174320292D01*
X34110514Y-174213985D01*
X34119225Y-174140174D01*
X34130020Y-174107493D01*
X34141042Y-174102665D01*
X34195874Y-174087446D01*
X34288556Y-174065921D01*
X34411694Y-174039694D01*
X34557891Y-174010369D01*
X34719750Y-173979551D01*
X34808127Y-173963086D01*
X34959602Y-173934534D01*
X35089983Y-173909532D01*
X35192298Y-173889440D01*
X35259571Y-173875617D01*
X35284832Y-173869420D01*
X35285782Y-173868143D01*
X35301869Y-173835692D01*
X35332537Y-173767707D01*
X35373954Y-173673209D01*
X35422284Y-173561219D01*
X35473697Y-173440755D01*
X35524357Y-173320839D01*
X35570432Y-173210490D01*
X35608089Y-173118728D01*
X35633494Y-173054574D01*
X35642814Y-173027047D01*
X35638703Y-173017361D01*
X35611343Y-172971273D01*
X35561713Y-172893695D01*
X35493803Y-172790716D01*
X35411598Y-172668422D01*
X35319089Y-172532901D01*
X35268335Y-172458684D01*
X35180746Y-172328564D01*
X35105650Y-172214367D01*
X35047050Y-172122321D01*
X35008952Y-172058653D01*
X34995363Y-172029592D01*
X35004806Y-172013828D01*
X35044303Y-171966726D01*
X35109101Y-171895441D01*
X35193252Y-171806015D01*
X35290807Y-171704487D01*
X35395817Y-171596898D01*
X35502336Y-171489289D01*
X35604414Y-171387700D01*
X35696103Y-171298172D01*
X35771455Y-171226744D01*
X35824523Y-171179458D01*
X35849357Y-171162353D01*
X35863142Y-171169004D01*
X35913761Y-171199847D01*
X35995448Y-171252338D01*
X36102315Y-171322630D01*
X36228475Y-171406877D01*
X36368042Y-171501233D01*
X36866399Y-171840112D01*
X37281813Y-171668865D01*
X37697226Y-171497618D01*
X37809808Y-170900427D01*
X37922391Y-170303235D01*
X39165394Y-170303235D01*
X39277977Y-170900427D01*
G37*
%TD.AperFunction*%
%TD*%
D11*
%TO.P,H2,*%
%TO.N,*%
X131250000Y-160000000D03*
%TD*%
D12*
%TO.P,TH2,1*%
%TO.N,/Battery Charging/TS*%
X87490000Y-85775800D03*
%TO.P,TH2,2*%
%TO.N,GND*%
X92570000Y-85775800D03*
%TD*%
D11*
%TO.P,H1,*%
%TO.N,*%
X48750000Y-160000000D03*
%TD*%
D13*
%TO.P,R17,1*%
%TO.N,/Buttons/RightButton*%
X143432900Y-124091550D03*
%TO.P,R17,2*%
%TO.N,GND*%
X143432900Y-121166550D03*
%TD*%
D14*
%TO.P,C18,1*%
%TO.N,+3V3*%
X46944373Y-130347939D03*
%TO.P,C18,2*%
%TO.N,GND*%
X49894373Y-130347939D03*
%TD*%
%TO.P,C15,1*%
%TO.N,/Display Connector/PREVGH*%
X56608450Y-119732900D03*
%TO.P,C15,2*%
%TO.N,GND*%
X59558450Y-119732900D03*
%TD*%
D15*
%TO.P,R20,1*%
%TO.N,/Display Connector/GDR*%
X56324050Y-135342900D03*
%TO.P,R20,2*%
%TO.N,GND*%
X59249050Y-135342900D03*
%TD*%
%TO.P,R5,1*%
%TO.N,Net-(Q1-B)*%
X60192500Y-85195000D03*
%TO.P,R5,2*%
%TO.N,Net-(U1-CC)*%
X63117500Y-85195000D03*
%TD*%
D16*
%TO.P,C9,1*%
%TO.N,Net-(U3-VSENSE)*%
X112931726Y-99800000D03*
%TO.P,C9,2*%
%TO.N,Net-(C9-Pad2)*%
X112931726Y-96850000D03*
%TD*%
D17*
%TO.P,C12,1*%
%TO.N,+3V3*%
X93500000Y-123475000D03*
%TO.P,C12,2*%
%TO.N,GND*%
X90550000Y-123475000D03*
%TD*%
D14*
%TO.P,C4,1*%
%TO.N,/Buck Converter/VIN*%
X100504228Y-109675000D03*
%TO.P,C4,2*%
%TO.N,GND*%
X103454228Y-109675000D03*
%TD*%
D18*
%TO.P,TP_CIPO1,1,1*%
%TO.N,/CIPO*%
X122975000Y-115625000D03*
%TD*%
D19*
%TO.P,R23,1*%
%TO.N,/BAT_STAT*%
X79867100Y-171500950D03*
%TO.P,R23,2*%
%TO.N,Net-(LED1-Pad3)*%
X79867100Y-174425950D03*
%TD*%
D20*
%TO.P,J3,1,NC*%
%TO.N,unconnected-(J3-NC-Pad1)*%
X42429000Y-129674201D03*
%TO.P,J3,2,GDR*%
%TO.N,/Display Connector/GDR*%
X42429000Y-129174202D03*
%TO.P,J3,3,RESE*%
%TO.N,/Display Connector/RESE*%
X42429000Y-128674201D03*
%TO.P,J3,4,NC*%
%TO.N,unconnected-(J3-NC-Pad4)*%
X42429000Y-128174202D03*
%TO.P,J3,5,VSHR*%
%TO.N,Net-(J3-VSHR)*%
X42429000Y-127674200D03*
%TO.P,J3,6,TSCL*%
%TO.N,unconnected-(J3-TSCL-Pad6)*%
X42429000Y-127174201D03*
%TO.P,J3,7,TSDA*%
%TO.N,unconnected-(J3-TSDA-Pad7)*%
X42429000Y-126674202D03*
%TO.P,J3,8,BS*%
%TO.N,GND*%
X42429000Y-126174201D03*
%TO.P,J3,9,BUSY_N*%
%TO.N,/EP_BUSY*%
X42429000Y-125674202D03*
%TO.P,J3,10,RST_N*%
%TO.N,/EP_RESET*%
X42429000Y-125174203D03*
%TO.P,J3,11,DC*%
%TO.N,/EP_D{slash}C*%
X42429000Y-124674201D03*
%TO.P,J3,12,CSB*%
%TO.N,/EP_CS*%
X42429000Y-124174202D03*
%TO.P,J3,13,SCLK*%
%TO.N,/SCK*%
X42429000Y-123674200D03*
%TO.P,J3,14,SDI*%
%TO.N,/COPI*%
X42429000Y-123174202D03*
%TO.P,J3,15,VDDIO*%
%TO.N,+3V3*%
X42429000Y-122674203D03*
%TO.P,J3,16,VDD*%
X42429000Y-122174201D03*
%TO.P,J3,17,VSS*%
%TO.N,GND*%
X42429000Y-121674202D03*
%TO.P,J3,18,VDD_1V8*%
%TO.N,Net-(J3-VDD_1V8)*%
X42429000Y-121174200D03*
%TO.P,J3,19,VOTP*%
%TO.N,unconnected-(J3-VOTP-Pad19)*%
X42429000Y-120674201D03*
%TO.P,J3,20,VSH*%
%TO.N,Net-(J3-VSH)*%
X42429000Y-120174202D03*
%TO.P,J3,21,VGH*%
%TO.N,/Display Connector/PREVGH*%
X42429000Y-119674201D03*
%TO.P,J3,22,VSL*%
%TO.N,Net-(J3-VSL)*%
X42429000Y-119174202D03*
%TO.P,J3,23,VGL*%
%TO.N,/Display Connector/PREVGL*%
X42429000Y-118674200D03*
%TO.P,J3,24,VCOM*%
%TO.N,Net-(J3-VCOM)*%
X42429000Y-118174201D03*
D21*
%TO.P,J3,25*%
%TO.N,GND*%
X39177800Y-116278800D03*
%TO.P,J3,26*%
X39177800Y-131569600D03*
%TD*%
D22*
%TO.P,C2,1*%
%TO.N,/BAT+*%
X43275000Y-91075000D03*
%TO.P,C2,2*%
%TO.N,GND*%
X43275000Y-94025000D03*
%TD*%
D18*
%TO.P,TP_COPI1,1,1*%
%TO.N,/COPI*%
X104625000Y-115575000D03*
%TD*%
D17*
%TO.P,C14,1*%
%TO.N,+3V3*%
X59391550Y-123417100D03*
%TO.P,C14,2*%
%TO.N,GND*%
X56441550Y-123417100D03*
%TD*%
D23*
%TO.P,TP_UP1,1,1*%
%TO.N,/Buttons/UpButton*%
X41775000Y-103125000D03*
%TD*%
D16*
%TO.P,C8,1*%
%TO.N,Net-(U3-BOOT)*%
X95343640Y-105387009D03*
%TO.P,C8,2*%
%TO.N,Net-(U3-PH)*%
X95343640Y-102437009D03*
%TD*%
D14*
%TO.P,C23,1*%
%TO.N,Net-(J3-VCOM)*%
X46858100Y-111432900D03*
%TO.P,C23,2*%
%TO.N,GND*%
X49808100Y-111432900D03*
%TD*%
%TO.P,C19,1*%
%TO.N,Net-(J3-VDD_1V8)*%
X46944373Y-127997939D03*
%TO.P,C19,2*%
%TO.N,GND*%
X49894373Y-127997939D03*
%TD*%
D23*
%TO.P,TP_DOWN1,1,1*%
%TO.N,/Buttons/DownButton*%
X40975000Y-150125000D03*
%TD*%
D18*
%TO.P,TP_EP_RESET1,1,1*%
%TO.N,/EP_RESET*%
X69275000Y-126125000D03*
%TD*%
D24*
%TO.P,J4,1,1*%
%TO.N,/BAT+*%
X43486400Y-88040000D03*
%TO.P,J4,2,2*%
%TO.N,GND*%
X45486401Y-88040000D03*
%TD*%
D25*
%TO.P,TP_HOME1,1,1*%
%TO.N,/Buttons/HomeButton*%
X102125000Y-162925000D03*
%TD*%
D18*
%TO.P,TP_EP_CS1,1,1*%
%TO.N,/EP_CS*%
X51375000Y-145125000D03*
%TD*%
D14*
%TO.P,C22,1*%
%TO.N,/Display Connector/PREVGL*%
X46858100Y-113782900D03*
%TO.P,C22,2*%
%TO.N,GND*%
X49808100Y-113782900D03*
%TD*%
D16*
%TO.P,C25,1*%
%TO.N,+3V3*%
X116725000Y-158450000D03*
%TO.P,C25,2*%
%TO.N,GND*%
X116725000Y-155500000D03*
%TD*%
D23*
%TO.P,TP_RIGHT1,1,1*%
%TO.N,/Buttons/RightButton*%
X138325000Y-122625000D03*
%TD*%
D17*
%TO.P,C10,1*%
%TO.N,GND*%
X100979226Y-95425000D03*
%TO.P,C10,2*%
%TO.N,+3V3*%
X98029226Y-95425000D03*
%TD*%
D26*
%TO.P,L1,1,1*%
%TO.N,Net-(U3-PH)*%
X98004228Y-104310000D03*
%TO.P,L1,2,2*%
%TO.N,+3V3*%
X98004228Y-101160000D03*
%TD*%
D14*
%TO.P,C13,1*%
%TO.N,+3V3*%
X96750000Y-123425000D03*
%TO.P,C13,2*%
%TO.N,GND*%
X99700000Y-123425000D03*
%TD*%
D19*
%TO.P,R21,1*%
%TO.N,/BAT+*%
X46455000Y-91087500D03*
%TO.P,R21,2*%
%TO.N,Net-(U4-GPIO0)*%
X46455000Y-94012500D03*
%TD*%
D17*
%TO.P,C11,1*%
%TO.N,GND*%
X100979226Y-98775000D03*
%TO.P,C11,2*%
%TO.N,+3V3*%
X98029226Y-98775000D03*
%TD*%
D27*
%TO.P,D3,1,K*%
%TO.N,GND*%
X50029470Y-120907548D03*
%TO.P,D3,2,A*%
%TO.N,Net-(D1-K)*%
X46729470Y-120907548D03*
%TD*%
D25*
%TO.P,TP_VBUS1,1,1*%
%TO.N,/Battery Charging/VBUS*%
X84125000Y-162775000D03*
%TD*%
D28*
%TO.P,R_{SNS}2,1*%
%TO.N,Net-(R_{SNS}1-Pad2)*%
X64575000Y-97847900D03*
%TO.P,R_{SNS}2,2*%
%TO.N,Net-(Q1-E)*%
X64575000Y-93352100D03*
%TD*%
D25*
%TO.P,TP_BAT_STAT1,1,1*%
%TO.N,/BAT_STAT*%
X54375000Y-104875000D03*
%TD*%
D29*
%TO.P,F2,1,1*%
%TO.N,/Battery Charging/VOUT*%
X84926400Y-109800000D03*
%TO.P,F2,2,2*%
%TO.N,/Buck Converter/VIN*%
X87923600Y-109800000D03*
%TD*%
D14*
%TO.P,C21,1*%
%TO.N,Net-(J3-VSL)*%
X46888421Y-118548452D03*
%TO.P,C21,2*%
%TO.N,GND*%
X49838421Y-118548452D03*
%TD*%
D25*
%TO.P,TP_BAT+1,1,1*%
%TO.N,/BAT+*%
X68875000Y-86425000D03*
%TD*%
D15*
%TO.P,R6,1*%
%TO.N,/Battery Charging/VBUS*%
X75987500Y-104950000D03*
%TO.P,R6,2*%
%TO.N,GND*%
X78912500Y-104950000D03*
%TD*%
D19*
%TO.P,R12,1*%
%TO.N,Net-(C9-Pad2)*%
X115544226Y-96862500D03*
%TO.P,R12,2*%
%TO.N,Net-(U3-VSENSE)*%
X115544226Y-99787500D03*
%TD*%
D25*
%TO.P,TP_VIN1,1,1*%
%TO.N,/Buck Converter/VIN*%
X86125000Y-102225000D03*
%TD*%
D30*
%TO.P,R4,1*%
%TO.N,/Battery Charging/TS*%
X82852500Y-87035000D03*
%TO.P,R4,2*%
%TO.N,GND*%
X79927500Y-87035000D03*
%TD*%
D13*
%TO.P,R7,1*%
%TO.N,/Buck Converter/VIN*%
X92514226Y-109257500D03*
%TO.P,R7,2*%
%TO.N,Net-(U3-EN)*%
X92514226Y-106332500D03*
%TD*%
D25*
%TO.P,TP_SD_CS1,1,1*%
%TO.N,/SD_CS*%
X110675000Y-158625000D03*
%TD*%
%TO.P,TP_GND1,1,1*%
%TO.N,GND*%
X105550000Y-90825000D03*
%TD*%
D18*
%TO.P,TP_SCK1,1,1*%
%TO.N,/SCK*%
X95225000Y-115625000D03*
%TD*%
D13*
%TO.P,R11,1*%
%TO.N,+3V3*%
X110319226Y-99787500D03*
%TO.P,R11,2*%
%TO.N,Net-(C9-Pad2)*%
X110319226Y-96862500D03*
%TD*%
D31*
%TO.P,F1,1,1*%
%TO.N,/USB-C-Connector/VBUS*%
X89422949Y-161098400D03*
%TO.P,F1,2,2*%
%TO.N,/Battery Charging/VBUS*%
X89422949Y-158101200D03*
%TD*%
D32*
%TO.P,CR1,1*%
%TO.N,/USB-C-Connector/VBUS*%
X84377051Y-171046799D03*
D33*
%TO.P,CR1,2*%
%TO.N,GND*%
X82535551Y-171046799D03*
%TD*%
D34*
%TO.P,U3,1,BOOT*%
%TO.N,Net-(U3-BOOT)*%
X103236595Y-107246100D03*
%TO.P,U3,2,VIN*%
%TO.N,/Buck Converter/VIN*%
X103236595Y-105976100D03*
%TO.P,U3,3,PH*%
%TO.N,Net-(U3-PH)*%
X103236595Y-104706100D03*
%TO.P,U3,4,GND*%
%TO.N,GND*%
X103236595Y-103436100D03*
%TO.P,U3,5,VSENSE*%
%TO.N,Net-(U3-VSENSE)*%
X108329295Y-103436100D03*
%TO.P,U3,6,COMP*%
%TO.N,Net-(U3-COMP)*%
X108329295Y-104706100D03*
%TO.P,U3,7,EN*%
%TO.N,Net-(U3-EN)*%
X108329295Y-105976100D03*
%TO.P,U3,8,SS*%
%TO.N,Net-(U3-SS)*%
X108329295Y-107246100D03*
D35*
%TO.P,U3,9,PAD*%
%TO.N,GND*%
X105782945Y-105341100D03*
%TD*%
D16*
%TO.P,C24,1*%
%TO.N,+3V3*%
X120075000Y-158450000D03*
%TO.P,C24,2*%
%TO.N,GND*%
X120075000Y-155500000D03*
%TD*%
D14*
%TO.P,C17,1*%
%TO.N,Net-(J3-VSHR)*%
X46950000Y-132975000D03*
%TO.P,C17,2*%
%TO.N,GND*%
X49900000Y-132975000D03*
%TD*%
D19*
%TO.P,R1,1*%
%TO.N,GND*%
X98805000Y-171112500D03*
%TO.P,R1,2*%
%TO.N,Net-(J1-CC1)*%
X98805000Y-174037500D03*
%TD*%
%TO.P,R2,1*%
%TO.N,Net-(J1-CC2)*%
X98805000Y-175922500D03*
%TO.P,R2,2*%
%TO.N,GND*%
X98805000Y-178847500D03*
%TD*%
D14*
%TO.P,C20,1*%
%TO.N,Net-(J3-VSH)*%
X46944373Y-125647939D03*
%TO.P,C20,2*%
%TO.N,GND*%
X49894373Y-125647939D03*
%TD*%
%TO.P,C5,1*%
%TO.N,Net-(U3-SS)*%
X117780596Y-107216738D03*
%TO.P,C5,2*%
%TO.N,GND*%
X120730596Y-107216738D03*
%TD*%
D36*
%TO.P,Q1,1,B*%
%TO.N,Net-(Q1-B)*%
X56750000Y-85362500D03*
%TO.P,Q1,2,C*%
%TO.N,/BAT+*%
X56750000Y-87662500D03*
%TO.P,Q1,3,E*%
%TO.N,Net-(Q1-E)*%
X56750000Y-89962500D03*
D37*
%TO.P,Q1,4,C*%
%TO.N,/BAT+*%
X50450000Y-87662500D03*
%TD*%
D38*
%TO.P,U2,1,A*%
%TO.N,/Battery Charging/VBUS*%
X75975000Y-111855000D03*
%TO.P,U2,2,A*%
X75975000Y-110585000D03*
%TO.P,U2,3,S*%
%TO.N,/BAT+*%
X75975000Y-109315000D03*
%TO.P,U2,4,G*%
%TO.N,/Battery Charging/VBUS*%
X75975000Y-108045000D03*
%TO.P,U2,5,D*%
%TO.N,/Battery Charging/VOUT*%
X81125000Y-108045000D03*
%TO.P,U2,6,D*%
X81125000Y-109315000D03*
%TO.P,U2,7,K*%
X81125000Y-110585000D03*
%TO.P,U2,8,K*%
X81125000Y-111855000D03*
%TD*%
D19*
%TO.P,R14,1*%
%TO.N,/Buttons/UpButton*%
X36529050Y-101900400D03*
%TO.P,R14,2*%
%TO.N,GND*%
X36529050Y-104825400D03*
%TD*%
D39*
%TO.P,D2,1,K*%
%TO.N,/Display Connector/PREVGH*%
X46732486Y-123274467D03*
%TO.P,D2,2,A*%
%TO.N,Net-(D2-A)*%
X50032486Y-123274467D03*
%TD*%
D40*
%TO.P,J1,*%
%TO.N,*%
X94320000Y-177345599D03*
X94320000Y-173545600D03*
X85680000Y-177345599D03*
X85680000Y-173545600D03*
D41*
%TO.P,J1,A5,CC1*%
%TO.N,Net-(J1-CC1)*%
X90499999Y-173465599D03*
D42*
%TO.P,J1,A9,VBUS*%
%TO.N,/USB-C-Connector/VBUS*%
X88480000Y-173465599D03*
D43*
%TO.P,J1,A12,GND*%
%TO.N,GND*%
X87250000Y-173465599D03*
D41*
%TO.P,J1,B5,CC2*%
%TO.N,Net-(J1-CC2)*%
X89500001Y-173465599D03*
D42*
%TO.P,J1,B9,VBUS*%
%TO.N,/USB-C-Connector/VBUS*%
X91519936Y-173465716D03*
D43*
%TO.P,J1,B12,GND*%
%TO.N,GND*%
X92749936Y-173465716D03*
%TD*%
D15*
%TO.P,R19,1*%
%TO.N,/Display Connector/RESE*%
X56324050Y-131652900D03*
%TO.P,R19,2*%
%TO.N,GND*%
X59249050Y-131652900D03*
%TD*%
D13*
%TO.P,R8,1*%
%TO.N,Net-(U3-EN)*%
X92548756Y-103311169D03*
%TO.P,R8,2*%
%TO.N,GND*%
X92548756Y-100386169D03*
%TD*%
D19*
%TO.P,R16,1*%
%TO.N,/Buttons/LeftButton*%
X143257100Y-102008450D03*
%TO.P,R16,2*%
%TO.N,GND*%
X143257100Y-104933450D03*
%TD*%
D18*
%TO.P,TP_EP_D/C1,1,1*%
%TO.N,/EP_D{slash}C*%
X62825000Y-145125000D03*
%TD*%
D19*
%TO.P,R22,1*%
%TO.N,Net-(U4-GPIO0)*%
X46455000Y-96252500D03*
%TO.P,R22,2*%
%TO.N,GND*%
X46455000Y-99177500D03*
%TD*%
D44*
%TO.P,U1,1,SNS*%
%TO.N,Net-(Q1-E)*%
X55530000Y-98913800D03*
%TO.P,U1,2,BAT*%
%TO.N,/BAT+*%
X54260000Y-98913800D03*
%TO.P,U1,3,VCC*%
%TO.N,/Battery Charging/VBUS*%
X52990000Y-98913800D03*
%TO.P,U1,4,TS*%
%TO.N,/Battery Charging/TS*%
X51720000Y-98913800D03*
%TO.P,U1,5,STAT*%
%TO.N,/BAT_STAT*%
X51720000Y-93986200D03*
%TO.P,U1,6,VSS*%
%TO.N,GND*%
X52990000Y-93986200D03*
%TO.P,U1,7,CC*%
%TO.N,Net-(U1-CC)*%
X54260000Y-93986200D03*
%TO.P,U1,8,COMP*%
%TO.N,/Battery Charging/VBUS*%
X55530000Y-93986200D03*
%TD*%
D25*
%TO.P,TP_3V3,1,1*%
%TO.N,+3V3*%
X96375000Y-90975000D03*
%TD*%
D15*
%TO.P,R13,1*%
%TO.N,Net-(U3-VSENSE)*%
X117783861Y-99448514D03*
%TO.P,R13,2*%
%TO.N,GND*%
X120708861Y-99448514D03*
%TD*%
D28*
%TO.P,R_{SNS}1,1*%
%TO.N,/Battery Charging/VBUS*%
X64575000Y-106347900D03*
%TO.P,R_{SNS}1,2*%
%TO.N,Net-(R_{SNS}1-Pad2)*%
X64575000Y-101852100D03*
%TD*%
D19*
%TO.P,R15,1*%
%TO.N,/Buttons/DownButton*%
X36447100Y-147008450D03*
%TO.P,R15,2*%
%TO.N,GND*%
X36447100Y-149933450D03*
%TD*%
D45*
%TO.P,L2,1,1*%
%TO.N,+3V3*%
X59754050Y-127782900D03*
%TO.P,L2,2,2*%
%TO.N,Net-(D2-A)*%
X55479050Y-127782900D03*
%TD*%
D14*
%TO.P,C16,1*%
%TO.N,Net-(D1-K)*%
X56441550Y-115617100D03*
%TO.P,C16,2*%
%TO.N,Net-(D2-A)*%
X59391550Y-115617100D03*
%TD*%
D22*
%TO.P,C1,1*%
%TO.N,/Battery Charging/VBUS*%
X57825000Y-94475000D03*
%TO.P,C1,2*%
%TO.N,GND*%
X57825000Y-97425000D03*
%TD*%
D46*
%TO.P,U4,1,3V3*%
%TO.N,+3V3*%
X95140000Y-125640000D03*
%TO.P,U4,2,CHIP_PU*%
%TO.N,unconnected-(U4-CHIP_PU-Pad2)*%
X97680000Y-125640000D03*
%TO.P,U4,3,GPIO4*%
%TO.N,unconnected-(U4-GPIO4-Pad3)*%
X100220000Y-125640000D03*
%TO.P,U4,4,GPIO5*%
%TO.N,unconnected-(U4-GPIO5-Pad4)*%
X102760000Y-125640000D03*
%TO.P,U4,5,GPIO6*%
%TO.N,/SCK*%
X105300000Y-125640000D03*
%TO.P,U4,6,GPIO7*%
%TO.N,/COPI*%
X107840000Y-125640000D03*
%TO.P,U4,7,GPIO0*%
%TO.N,Net-(U4-GPIO0)*%
X110380000Y-125640000D03*
%TO.P,U4,8,GPIO1*%
%TO.N,/BAT_STAT*%
X112920000Y-125640000D03*
%TO.P,U4,9,GPIO8*%
%TO.N,/EP_BUSY*%
X115460000Y-125640000D03*
%TO.P,U4,10,GPIO10*%
%TO.N,/Buttons/UpButton*%
X118000000Y-125640000D03*
%TO.P,U4,11,GPIO11*%
%TO.N,/Buttons/RightButton*%
X120540000Y-125640000D03*
%TO.P,U4,12,GPIO2*%
%TO.N,/CIPO*%
X123080000Y-125640000D03*
%TO.P,U4,13,GPIO3*%
%TO.N,/EP_RESET*%
X125620000Y-125640000D03*
%TO.P,U4,14,5V*%
%TO.N,unconnected-(U4-5V-Pad14)*%
X128160000Y-125640000D03*
%TO.P,U4,15,GND*%
%TO.N,GND*%
X130700000Y-125640000D03*
%TO.P,U4,16,NC*%
%TO.N,unconnected-(U4-NC-Pad16)*%
X133240000Y-125640000D03*
%TO.P,U4,17,GND*%
%TO.N,GND*%
X95140000Y-151000000D03*
%TO.P,U4,18,UART_TXD*%
%TO.N,unconnected-(U4-UART_TXD-Pad18)*%
X97680000Y-151000000D03*
%TO.P,U4,19,UART_RXD*%
%TO.N,unconnected-(U4-UART_RXD-Pad19)*%
X100220000Y-151000000D03*
%TO.P,U4,20,GPIO15*%
%TO.N,unconnected-(U4-GPIO15-Pad20)*%
X102760000Y-151000000D03*
%TO.P,U4,21,GPIO23*%
%TO.N,/Buttons/LeftButton*%
X105300000Y-151000000D03*
%TO.P,U4,22,GPIO22*%
%TO.N,/Buttons/DownButton*%
X107840000Y-151000000D03*
%TO.P,U4,23,GPIO21*%
%TO.N,/Buttons/HomeButton*%
X110380000Y-151000000D03*
%TO.P,U4,24,GPIO20*%
%TO.N,/EP_D{slash}C*%
X112920000Y-151000000D03*
%TO.P,U4,25,GPIO19*%
%TO.N,/EP_CS*%
X115460000Y-151000000D03*
%TO.P,U4,26,GPIO18*%
%TO.N,/SD_CS*%
X118000000Y-151000000D03*
%TO.P,U4,27,GPIO9*%
%TO.N,unconnected-(U4-GPIO9-Pad27)*%
X123080000Y-151000000D03*
%TO.P,U4,28,GND*%
%TO.N,GND*%
X120540000Y-151000000D03*
%TO.P,U4,29,USB_P*%
%TO.N,unconnected-(U4-USB_P-Pad29)*%
X125620000Y-151000000D03*
%TO.P,U4,30,USB_N*%
%TO.N,unconnected-(U4-USB_N-Pad30)*%
X128160000Y-151000000D03*
%TO.P,U4,31,GND*%
%TO.N,GND*%
X130700000Y-151000000D03*
%TO.P,U4,32,NC*%
%TO.N,unconnected-(U4-NC-Pad32)*%
X133240000Y-151000000D03*
%TD*%
D16*
%TO.P,C3,1*%
%TO.N,/Buck Converter/VIN*%
X100604228Y-106075000D03*
%TO.P,C3,2*%
%TO.N,GND*%
X100604228Y-103125000D03*
%TD*%
D47*
%TO.P,Q2,1,G*%
%TO.N,/Display Connector/GDR*%
X47012500Y-136325000D03*
%TO.P,Q2,2,S*%
%TO.N,/Display Connector/RESE*%
X47012500Y-135025000D03*
%TO.P,Q2,3,D*%
%TO.N,Net-(D2-A)*%
X48887500Y-135675000D03*
%TD*%
D14*
%TO.P,C7,1*%
%TO.N,Net-(U3-COMP)*%
X117773327Y-102039599D03*
%TO.P,C7,2*%
%TO.N,GND*%
X120723327Y-102039599D03*
%TD*%
%TO.P,C6,1*%
%TO.N,Net-(C6-Pad1)*%
X117773327Y-104639599D03*
%TO.P,C6,2*%
%TO.N,GND*%
X120723327Y-104639599D03*
%TD*%
D48*
%TO.P,J2,1,DAT2*%
%TO.N,unconnected-(J2-DAT2-Pad1)*%
X114233800Y-163730000D03*
%TO.P,J2,2,CD/DAT3*%
%TO.N,/SD_CS*%
X115133801Y-163730000D03*
%TO.P,J2,3,CMD*%
%TO.N,/COPI*%
X116033799Y-163730000D03*
%TO.P,J2,4,VDD*%
%TO.N,+3V3*%
X116933800Y-163730000D03*
%TO.P,J2,5,CLK*%
%TO.N,/SCK*%
X118933800Y-163730000D03*
%TO.P,J2,6,VSS*%
%TO.N,GND*%
X120733800Y-163730000D03*
%TO.P,J2,7,DAT0*%
%TO.N,/CIPO*%
X121633800Y-163730000D03*
%TO.P,J2,8,DAT1*%
%TO.N,unconnected-(J2-DAT1-Pad8)*%
X122533800Y-163730000D03*
%TO.P,J2,9,VDD2*%
%TO.N,unconnected-(J2-VDD2-Pad9)*%
X114833800Y-177930001D03*
%TO.P,J2,10,VSS*%
%TO.N,unconnected-(J2-VSS-Pad10)*%
X116893800Y-177930001D03*
%TO.P,J2,11,D0+*%
%TO.N,unconnected-(J2-D0+-Pad11)*%
X117803800Y-177930001D03*
%TO.P,J2,12,D0-*%
%TO.N,unconnected-(J2-D0--Pad12)*%
X118713800Y-177930001D03*
%TO.P,J2,13,VSS*%
%TO.N,unconnected-(J2-VSS-Pad13)*%
X119623800Y-177930001D03*
%TO.P,J2,14,D1-*%
%TO.N,unconnected-(J2-D1--Pad14)*%
X120533800Y-177930001D03*
%TO.P,J2,15,D1+*%
%TO.N,unconnected-(J2-D1+-Pad15)*%
X121443800Y-177930001D03*
%TO.P,J2,16,VSS*%
%TO.N,unconnected-(J2-VSS-Pad16)*%
X122353800Y-177930001D03*
%TO.P,J2,17,SWIO*%
%TO.N,unconnected-(J2-SWIO-Pad17)*%
X115983800Y-177930001D03*
%TO.P,J2,18,CD*%
%TO.N,unconnected-(J2-CD-Pad18)*%
X119833800Y-163730000D03*
D49*
%TO.P,J2,19,GND*%
%TO.N,GND*%
X123583800Y-163880000D03*
D50*
%TO.P,J2,20,GND*%
X117983800Y-163780000D03*
D51*
%TO.P,J2,21,GND*%
X110733800Y-163680000D03*
D52*
%TO.P,J2,22,GND*%
X123483800Y-178330001D03*
%TO.P,J2,23,GND*%
X110183800Y-178330001D03*
%TD*%
D27*
%TO.P,D1,1,K*%
%TO.N,Net-(D1-K)*%
X50003450Y-116175000D03*
%TO.P,D1,2,A*%
%TO.N,/Display Connector/PREVGL*%
X46703450Y-116175000D03*
%TD*%
D23*
%TO.P,TP_LEFT1,1,1*%
%TO.N,/Buttons/LeftButton*%
X138375000Y-103625000D03*
%TD*%
D15*
%TO.P,R18,1*%
%TO.N,/Buttons/HomeButton*%
X96970400Y-168058450D03*
%TO.P,R18,2*%
%TO.N,GND*%
X99895400Y-168058450D03*
%TD*%
D53*
%TO.P,LED1,1*%
%TO.N,GND*%
X76756300Y-178935100D03*
D54*
%TO.P,LED1,2*%
X78153300Y-178274700D03*
D53*
%TO.P,LED1,3*%
%TO.N,Net-(LED1-Pad3)*%
X79550300Y-178935100D03*
%TD*%
D15*
%TO.P,R9,1*%
%TO.N,Net-(U3-COMP)*%
X112655827Y-104659599D03*
%TO.P,R9,2*%
%TO.N,Net-(C6-Pad1)*%
X115580827Y-104659599D03*
%TD*%
%TO.P,R3,1*%
%TO.N,/Battery Charging/VBUS*%
X79937500Y-84475000D03*
%TO.P,R3,2*%
%TO.N,/Battery Charging/TS*%
X82862500Y-84475000D03*
%TD*%
D55*
%TO.N,/Battery Charging/VBUS*%
X61250000Y-97500000D03*
X60500000Y-95750000D03*
%TO.N,GND*%
X75000000Y-179000000D03*
X43250000Y-95500000D03*
X55000000Y-123500000D03*
X36500000Y-106000000D03*
X39500000Y-114000000D03*
X118000000Y-162000000D03*
X44000000Y-126274202D03*
D56*
X82600000Y-173000000D03*
D57*
X102750000Y-99500000D03*
X102750000Y-94750000D03*
D55*
X61091350Y-118200000D03*
X105750000Y-107400000D03*
X101200000Y-123400000D03*
X51000000Y-114000000D03*
X36500000Y-151500000D03*
X46500000Y-100250000D03*
X110500000Y-162000000D03*
X51500000Y-118108375D03*
D57*
X102750000Y-96000000D03*
D55*
X104750000Y-107400000D03*
X131000000Y-153000000D03*
X124000000Y-162000000D03*
X60500000Y-132000000D03*
X116800000Y-154000000D03*
X51200000Y-133000000D03*
X92500000Y-99000000D03*
D57*
X102750000Y-98250000D03*
D55*
X51086273Y-125665039D03*
X121000000Y-153000000D03*
X105750000Y-103300000D03*
X95140000Y-152640000D03*
X106750000Y-107425000D03*
X106750000Y-103325000D03*
X100500000Y-179000000D03*
X51086273Y-128165039D03*
X80500000Y-104750000D03*
X104725000Y-103325000D03*
X108500000Y-178500000D03*
X51000000Y-111500000D03*
X125000000Y-178500000D03*
X78500000Y-88500000D03*
X60500000Y-135000000D03*
X121000000Y-162000000D03*
X120000000Y-154200000D03*
X78000000Y-176500000D03*
X52750000Y-92000000D03*
X41000000Y-121674201D03*
X102750000Y-91250000D03*
X89000000Y-123600000D03*
X59500000Y-96000000D03*
X94500000Y-86000000D03*
D56*
X87000000Y-172000000D03*
D55*
X51086273Y-130165039D03*
X100500000Y-171000000D03*
X143400000Y-119800000D03*
X131000000Y-123500000D03*
X101500000Y-168000000D03*
D56*
X92749936Y-171749936D03*
D55*
X38000000Y-133500000D03*
X143500000Y-106500000D03*
%TO.N,+3V3*%
X84500000Y-168000000D03*
X36500000Y-89500000D03*
D57*
X96250000Y-96000000D03*
D55*
X36500000Y-134500000D03*
X41000000Y-122500000D03*
X143500000Y-89500000D03*
D57*
X96250000Y-94750000D03*
D55*
X143500000Y-145000000D03*
X95200000Y-123400000D03*
X120000000Y-160000000D03*
X61500000Y-128000000D03*
D57*
X96250000Y-98250000D03*
D55*
X45600000Y-130200000D03*
X60500000Y-123500000D03*
D57*
X96250000Y-99500000D03*
D55*
%TO.N,/SCK*%
X104500000Y-120000000D03*
X44176702Y-122893731D03*
X108500000Y-161000000D03*
X95500000Y-120000000D03*
X118933800Y-162000000D03*
%TO.N,/COPI*%
X106000000Y-119000000D03*
X108776000Y-156776000D03*
X116033799Y-160400000D03*
X43576700Y-122293731D03*
%TO.N,/EP_RESET*%
X44500000Y-124000000D03*
X68500000Y-121000000D03*
X124500000Y-121000000D03*
%TO.N,/EP_CS*%
X41000000Y-146000000D03*
X40000000Y-129500000D03*
X47000000Y-146000000D03*
X40000000Y-134000000D03*
X114500000Y-146000000D03*
%TO.N,/EP_BUSY*%
X44500000Y-125000000D03*
X115000000Y-122000000D03*
%TO.N,/EP_D{slash}C*%
X58000000Y-147000000D03*
X43500000Y-147000000D03*
X112500000Y-147000000D03*
%TO.N,/Buttons/RightButton*%
X120540000Y-134960000D03*
X143400131Y-133865669D03*
%TO.N,Net-(U4-GPIO0)*%
X51000000Y-108500000D03*
X109000000Y-116250000D03*
%TO.N,/Buttons/DownButton*%
X107250000Y-144750000D03*
X36500000Y-145500000D03*
%TO.N,/BAT_STAT*%
X101400000Y-148400000D03*
X58000000Y-113500000D03*
X52000000Y-95500000D03*
X57500000Y-100000000D03*
X112920000Y-140400000D03*
X102800000Y-142800000D03*
X112920000Y-116170000D03*
X79800000Y-150400000D03*
%TO.N,/BAT+*%
X54250000Y-97250000D03*
%TO.N,Net-(U1-CC)*%
X63000000Y-87500000D03*
X55500000Y-92000000D03*
%TO.N,/Battery Charging/TS*%
X53000000Y-95750000D03*
X82000000Y-93750000D03*
%TO.N,Net-(U3-EN)*%
X110079226Y-105500000D03*
X93329226Y-104750000D03*
%TO.N,/Buttons/LeftButton*%
X105300000Y-148700000D03*
X143500000Y-100500000D03*
X145500000Y-147000000D03*
%TO.N,/Buttons/UpButton*%
X36500000Y-100500000D03*
X37705050Y-114602525D03*
X115500000Y-117508375D03*
%TO.N,/Buttons/HomeButton*%
X95500000Y-168000000D03*
X109500000Y-153000000D03*
X98000000Y-153000000D03*
%TO.N,Net-(U3-BOOT)*%
X95750000Y-106750000D03*
X102000000Y-108000000D03*
%TD*%
D58*
%TO.N,/BAT+*%
X68875000Y-87625000D02*
X67000000Y-89500000D01*
X68875000Y-86425000D02*
X68875000Y-87625000D01*
D59*
%TO.N,Net-(Q1-E)*%
X57037500Y-89962500D02*
X56750000Y-89962500D01*
X64575000Y-93352100D02*
X60427100Y-93352100D01*
X60427100Y-93352100D02*
X57037500Y-89962500D01*
%TO.N,/Battery Charging/VBUS*%
X69897900Y-106347900D02*
X64575000Y-106347900D01*
X75405000Y-111855000D02*
X69897900Y-106347900D01*
X75975000Y-111855000D02*
X75405000Y-111855000D01*
X76000000Y-112750000D02*
X76000000Y-112450000D01*
%TO.N,/BAT+*%
X74615000Y-109315000D02*
X75975000Y-109315000D01*
X71500000Y-94000000D02*
X71500000Y-106200000D01*
X67000000Y-89500000D02*
X71500000Y-94000000D01*
X71500000Y-106200000D02*
X74615000Y-109315000D01*
D58*
%TO.N,/Battery Charging/VBUS*%
X57825000Y-94475000D02*
X59225000Y-94475000D01*
X75987500Y-88425000D02*
X75987500Y-104950000D01*
X84125000Y-162775000D02*
X88798800Y-158101200D01*
X75987500Y-108032500D02*
X75975000Y-108045000D01*
X88798800Y-158101200D02*
X89422949Y-158101200D01*
X56018800Y-94475000D02*
X55530000Y-93986200D01*
D59*
X89422949Y-158101200D02*
X88976200Y-158101200D01*
D58*
X59225000Y-94475000D02*
X60500000Y-95750000D01*
X61250000Y-104000000D02*
X63597900Y-106347900D01*
X61250000Y-97500000D02*
X61250000Y-104000000D01*
D59*
X76000000Y-145125000D02*
X76000000Y-112750000D01*
D58*
X75987500Y-104950000D02*
X75987500Y-108032500D01*
X52990000Y-98913800D02*
X52990000Y-97510000D01*
X79937500Y-84475000D02*
X75987500Y-88425000D01*
X52990000Y-97510000D02*
X55530000Y-94970000D01*
X55530000Y-94970000D02*
X55530000Y-93986200D01*
D59*
X76000000Y-111880000D02*
X75975000Y-111855000D01*
X76000000Y-112750000D02*
X76000000Y-111880000D01*
D58*
X63597900Y-106347900D02*
X64575000Y-106347900D01*
D59*
X88976200Y-158101200D02*
X76000000Y-145125000D01*
D58*
X57825000Y-94475000D02*
X56018800Y-94475000D01*
%TO.N,GND*%
X39177800Y-132322200D02*
X38000000Y-133500000D01*
X59249050Y-131652900D02*
X60152900Y-131652900D01*
X43275000Y-94025000D02*
X43275000Y-95475000D01*
X123483800Y-178330001D02*
X124830001Y-178330001D01*
X116725000Y-155500000D02*
X116725000Y-154075000D01*
X120733800Y-162266200D02*
X121000000Y-162000000D01*
X39177800Y-116278800D02*
X39177800Y-114322200D01*
X92490400Y-86262500D02*
X92490000Y-86262900D01*
X143432900Y-119832900D02*
X143400000Y-119800000D01*
X78153300Y-176653300D02*
X78000000Y-176500000D01*
X49900000Y-132975000D02*
X51175000Y-132975000D01*
X120075000Y-154275000D02*
X120000000Y-154200000D01*
X58150000Y-97425000D02*
X59500000Y-96075000D01*
X42429000Y-126174201D02*
X43899999Y-126174201D01*
X143257100Y-106257100D02*
X143500000Y-106500000D01*
X60152900Y-131652900D02*
X60500000Y-132000000D01*
X89125000Y-123475000D02*
X89000000Y-123600000D01*
X49838421Y-118548452D02*
X49838421Y-120716499D01*
X130700000Y-151000000D02*
X130700000Y-152700000D01*
X39177800Y-114322200D02*
X39500000Y-114000000D01*
X78500000Y-88462500D02*
X78500000Y-88500000D01*
X102750000Y-91250000D02*
X103175000Y-90825000D01*
D59*
X87250000Y-173465599D02*
X87250000Y-172250000D01*
D58*
X59558450Y-119416550D02*
X59558450Y-119732900D01*
X130700000Y-123800000D02*
X131000000Y-123500000D01*
X120075000Y-155500000D02*
X120075000Y-154275000D01*
X46455000Y-100205000D02*
X46500000Y-100250000D01*
X120540000Y-151000000D02*
X120540000Y-152540000D01*
X41674202Y-121674202D02*
X42429000Y-121674202D01*
X36447100Y-151447100D02*
X36500000Y-151500000D01*
X61091350Y-118200000D02*
X60775000Y-118200000D01*
X75064900Y-178935100D02*
X75000000Y-179000000D01*
X51500000Y-118108375D02*
X51391625Y-118108375D01*
X103175000Y-90825000D02*
X105550000Y-90825000D01*
X94275800Y-85775800D02*
X94500000Y-86000000D01*
X92548756Y-100386169D02*
X92548756Y-99048756D01*
X36529050Y-105970950D02*
X36500000Y-106000000D01*
X49894373Y-127997939D02*
X50919173Y-127997939D01*
X51069173Y-125647939D02*
X51086273Y-125665039D01*
X60157100Y-135342900D02*
X60500000Y-135000000D01*
X110183800Y-178330001D02*
X108669999Y-178330001D01*
X130700000Y-152700000D02*
X131000000Y-153000000D01*
X116725000Y-154075000D02*
X116800000Y-154000000D01*
X98805000Y-171112500D02*
X100387500Y-171112500D01*
X90550000Y-123475000D02*
X89125000Y-123475000D01*
X49875200Y-111500000D02*
X49808100Y-111432900D01*
X52990000Y-92240000D02*
X52750000Y-92000000D01*
D59*
X82535551Y-171046799D02*
X82535551Y-172935551D01*
D58*
X51391625Y-118108375D02*
X50951548Y-118548452D01*
X50903373Y-130347939D02*
X51086273Y-130165039D01*
X92570000Y-85775800D02*
X94275800Y-85775800D01*
X39177800Y-131569600D02*
X39177800Y-132322200D01*
X41674201Y-121674201D02*
X41674202Y-121674202D01*
X143257100Y-104933450D02*
X143257100Y-106257100D01*
X59500000Y-96075000D02*
X59500000Y-96000000D01*
X100387500Y-171112500D02*
X100500000Y-171000000D01*
X117983800Y-163780000D02*
X117983800Y-162016200D01*
X76756300Y-178935100D02*
X75064900Y-178935100D01*
X99700000Y-123425000D02*
X101175000Y-123425000D01*
X46455000Y-99177500D02*
X46455000Y-100205000D01*
X79927500Y-87035000D02*
X78500000Y-88462500D01*
X50951548Y-118548452D02*
X49838421Y-118548452D01*
X57825000Y-97425000D02*
X58150000Y-97425000D01*
X95140000Y-152640000D02*
X95140000Y-151000000D01*
X78912500Y-104950000D02*
X80300000Y-104950000D01*
X55082900Y-123417100D02*
X55000000Y-123500000D01*
X82535551Y-172935551D02*
X82600000Y-173000000D01*
X49838421Y-120716499D02*
X50029470Y-120907548D01*
X51000000Y-111500000D02*
X49875200Y-111500000D01*
X120540000Y-152540000D02*
X121000000Y-153000000D01*
X56441550Y-123417100D02*
X55082900Y-123417100D01*
X78153300Y-178274700D02*
X78153300Y-176653300D01*
X98805000Y-178847500D02*
X100347500Y-178847500D01*
X59249050Y-135342900D02*
X60157100Y-135342900D01*
X80300000Y-104950000D02*
X80500000Y-104750000D01*
X50919173Y-127997939D02*
X51086273Y-128165039D01*
X36529050Y-104825400D02*
X36529050Y-105970950D01*
X130700000Y-125640000D02*
X130700000Y-123800000D01*
X110733800Y-162233800D02*
X110500000Y-162000000D01*
X49894373Y-125647939D02*
X51069173Y-125647939D01*
X123583800Y-162416200D02*
X124000000Y-162000000D01*
D59*
X87250000Y-172250000D02*
X87000000Y-172000000D01*
X92749936Y-171749936D02*
X92749936Y-173465716D01*
D58*
X101441550Y-168058450D02*
X101500000Y-168000000D01*
X108669999Y-178330001D02*
X108500000Y-178500000D01*
X43899999Y-126174201D02*
X44000000Y-126274202D01*
X120733800Y-163730000D02*
X120733800Y-162266200D01*
X92548756Y-99048756D02*
X92500000Y-99000000D01*
X49894373Y-130347939D02*
X50903373Y-130347939D01*
X100347500Y-178847500D02*
X100500000Y-179000000D01*
X110733800Y-163680000D02*
X110733800Y-162233800D01*
X51175000Y-132975000D02*
X51200000Y-133000000D01*
X99895400Y-168058450D02*
X101441550Y-168058450D01*
X41000000Y-121674201D02*
X41674201Y-121674201D01*
X60775000Y-118200000D02*
X59558450Y-119416550D01*
X101175000Y-123425000D02*
X101200000Y-123400000D01*
X50782900Y-113782900D02*
X51000000Y-114000000D01*
X52990000Y-93986200D02*
X52990000Y-92240000D01*
X36447100Y-149933450D02*
X36447100Y-151447100D01*
X117983800Y-162016200D02*
X118000000Y-162000000D01*
X123583800Y-163880000D02*
X123583800Y-162416200D01*
X124830001Y-178330001D02*
X125000000Y-178500000D01*
X49808100Y-113782900D02*
X50782900Y-113782900D01*
X143432900Y-121166550D02*
X143432900Y-119832900D01*
X43275000Y-95475000D02*
X43250000Y-95500000D01*
%TO.N,Net-(J1-CC2)*%
X89500001Y-174262499D02*
X89500001Y-173465599D01*
X91160002Y-175922500D02*
X89500001Y-174262499D01*
X98805000Y-175922500D02*
X91160002Y-175922500D01*
%TO.N,Net-(J1-CC1)*%
X97525000Y-175000000D02*
X91025000Y-175000000D01*
X98805000Y-174037500D02*
X98487500Y-174037500D01*
X91025000Y-175000000D02*
X90499999Y-174474999D01*
X98487500Y-174037500D02*
X97525000Y-175000000D01*
X90499999Y-174474999D02*
X90499999Y-173465599D01*
D59*
%TO.N,/USB-C-Connector/VBUS*%
X88030649Y-171046799D02*
X84377051Y-171046799D01*
X89422949Y-170553201D02*
X89422949Y-161098400D01*
X89422949Y-170553201D02*
X91519936Y-172650188D01*
X88480000Y-171496150D02*
X88030649Y-171046799D01*
X88480000Y-171496150D02*
X88480000Y-173465599D01*
X91519936Y-172650188D02*
X91519936Y-173465716D01*
X89422949Y-170553201D02*
X88480000Y-171496150D01*
D58*
%TO.N,Net-(D1-K)*%
X46729470Y-120770530D02*
X48500000Y-119000000D01*
X48500000Y-119000000D02*
X48500000Y-117825000D01*
X46729470Y-120907548D02*
X46729470Y-120770530D01*
X48500000Y-117825000D02*
X50003450Y-116321550D01*
X56441550Y-115617100D02*
X56424450Y-115600000D01*
X50003450Y-116046550D02*
X50003450Y-116175000D01*
X50003450Y-116321550D02*
X50003450Y-116175000D01*
X56424450Y-115600000D02*
X50450000Y-115600000D01*
X50450000Y-115600000D02*
X50003450Y-116046550D01*
%TO.N,/Display Connector/PREVGL*%
X46703450Y-115296550D02*
X46703450Y-116175000D01*
X46858100Y-115141900D02*
X46703450Y-115296550D01*
X46703450Y-116175000D02*
X46703450Y-116323275D01*
X46858100Y-113782900D02*
X46858100Y-115141900D01*
X44352525Y-118674200D02*
X42429000Y-118674200D01*
X46703450Y-116323275D02*
X44352525Y-118674200D01*
%TO.N,/Display Connector/PREVGH*%
X56608450Y-119732900D02*
X56608450Y-120016550D01*
X46732486Y-123057486D02*
X43349201Y-119674201D01*
X46732486Y-123274467D02*
X46732486Y-123057486D01*
X47875000Y-122000000D02*
X46732486Y-123142514D01*
X43349201Y-119674201D02*
X42429000Y-119674201D01*
X46732486Y-123142514D02*
X46732486Y-123274467D01*
X54625000Y-122000000D02*
X47875000Y-122000000D01*
X56608450Y-120016550D02*
X54625000Y-122000000D01*
%TO.N,Net-(D2-A)*%
X54025610Y-135675000D02*
X57600000Y-132100610D01*
X57600000Y-131075000D02*
X55479050Y-128954050D01*
X55479050Y-127782900D02*
X54394437Y-127782900D01*
X58000000Y-124125000D02*
X55479050Y-126645950D01*
X59391550Y-115617100D02*
X59391550Y-115933450D01*
X58000000Y-117325000D02*
X58000000Y-124125000D01*
X48887500Y-135675000D02*
X54025610Y-135675000D01*
X54394437Y-127782900D02*
X50032486Y-123420949D01*
X50032486Y-123420949D02*
X50032486Y-123274467D01*
X59391550Y-115933450D02*
X58000000Y-117325000D01*
X55479050Y-128954050D02*
X55479050Y-127782900D01*
X57600000Y-132100610D02*
X57600000Y-131075000D01*
X55479050Y-126645950D02*
X55479050Y-127782900D01*
%TO.N,/Buck Converter/VIN*%
X86125000Y-102225000D02*
X87923600Y-104023600D01*
X87923600Y-104023600D02*
X87923600Y-109800000D01*
%TO.N,+3V3*%
X98029226Y-95425000D02*
X98029226Y-95095774D01*
X100125000Y-93000000D02*
X107250000Y-93000000D01*
X108250000Y-94000000D02*
X108250000Y-98050000D01*
X96750000Y-123425000D02*
X95225000Y-123425000D01*
X120075000Y-158450000D02*
X116725000Y-158450000D01*
X41500000Y-122500000D02*
X41825799Y-122174201D01*
X42949700Y-122174201D02*
X42429000Y-122174201D01*
X108250000Y-98050000D02*
X109987500Y-99787500D01*
X107250000Y-93000000D02*
X108250000Y-94000000D01*
X93575000Y-123400000D02*
X93500000Y-123475000D01*
X41000000Y-122500000D02*
X41500000Y-122500000D01*
X120075000Y-158450000D02*
X120075000Y-159925000D01*
X96750000Y-123425000D02*
X96750000Y-123725000D01*
X93500000Y-123675000D02*
X95140000Y-125315000D01*
X59391550Y-123417100D02*
X59391550Y-127420400D01*
X93500000Y-123475000D02*
X93500000Y-123675000D01*
X95225000Y-123425000D02*
X95200000Y-123400000D01*
X59391550Y-123417100D02*
X60417100Y-123417100D01*
X59754050Y-127782900D02*
X61282900Y-127782900D01*
X95200000Y-123400000D02*
X93575000Y-123400000D01*
X41825799Y-122174201D02*
X42429000Y-122174201D01*
X95140000Y-125315000D02*
X95140000Y-125640000D01*
X116725000Y-158450000D02*
X116725000Y-163521200D01*
X96750000Y-123725000D02*
X95140000Y-125335000D01*
X98029226Y-95095774D02*
X100125000Y-93000000D01*
X60417100Y-123417100D02*
X60500000Y-123500000D01*
X120075000Y-159925000D02*
X120000000Y-160000000D01*
X45747939Y-130347939D02*
X45600000Y-130200000D01*
X59391550Y-127420400D02*
X59754050Y-127782900D01*
X41674203Y-122674203D02*
X42429000Y-122674203D01*
X61282900Y-127782900D02*
X61500000Y-128000000D01*
X116725000Y-163521200D02*
X116933800Y-163730000D01*
X109987500Y-99787500D02*
X110319226Y-99787500D01*
X46944373Y-130347939D02*
X45747939Y-130347939D01*
X95140000Y-125335000D02*
X95140000Y-125640000D01*
X96375000Y-90975000D02*
X98029226Y-92629226D01*
X41500000Y-122500000D02*
X41674203Y-122674203D01*
X98029226Y-92629226D02*
X98029226Y-95425000D01*
%TO.N,/SCK*%
X104500000Y-120000000D02*
X105300000Y-120800000D01*
X43555063Y-123555063D02*
X43435925Y-123674200D01*
X95225000Y-119725000D02*
X95500000Y-120000000D01*
X44176702Y-122893731D02*
X44176702Y-122933423D01*
X106236000Y-126576000D02*
X105300000Y-125640000D01*
X43555063Y-123555063D02*
X43435926Y-123674200D01*
X43435926Y-123674200D02*
X42429000Y-123674200D01*
X118933800Y-162000000D02*
X118933800Y-163730000D01*
X106236000Y-158736000D02*
X106236000Y-126576000D01*
X95225000Y-115625000D02*
X95225000Y-119725000D01*
X108500000Y-161000000D02*
X106236000Y-158736000D01*
X105300000Y-120800000D02*
X105300000Y-125640000D01*
X44176702Y-122933423D02*
X43555063Y-123555063D01*
%TO.N,/COPI*%
X43576700Y-122293731D02*
X43576702Y-122293733D01*
X116033799Y-160400000D02*
X116033799Y-163730000D01*
X105925000Y-118925000D02*
X106000000Y-119000000D01*
X106000000Y-119000000D02*
X106101000Y-119000000D01*
X43368823Y-123174202D02*
X42429000Y-123174202D01*
X108776000Y-126576000D02*
X107840000Y-125640000D01*
X43576702Y-122966323D02*
X43368823Y-123174202D01*
X104625000Y-115575000D02*
X106000000Y-116950000D01*
X106000000Y-116950000D02*
X106000000Y-119000000D01*
X107840000Y-120739000D02*
X107840000Y-125640000D01*
X108776000Y-156776000D02*
X108776000Y-126576000D01*
X43576702Y-122293733D02*
X43576702Y-122966323D01*
X106101000Y-119000000D02*
X107840000Y-120739000D01*
%TO.N,/SD_CS*%
X115133801Y-154191199D02*
X115162500Y-154162500D01*
X115137500Y-154162500D02*
X110675000Y-158625000D01*
X115162500Y-154162500D02*
X118000000Y-151325000D01*
X115133801Y-163730000D02*
X115133801Y-154191199D01*
X118000000Y-151325000D02*
X118000000Y-151000000D01*
X115162500Y-154162500D02*
X115137500Y-154162500D01*
%TO.N,/CIPO*%
X122975000Y-115625000D02*
X122975000Y-125535000D01*
X123080000Y-125945000D02*
X123080000Y-125640000D01*
X121633800Y-127391200D02*
X123080000Y-125945000D01*
X122975000Y-125535000D02*
X123080000Y-125640000D01*
X121633800Y-163730000D02*
X121633800Y-127391200D01*
%TO.N,Net-(J3-VSHR)*%
X43874200Y-127674200D02*
X44800000Y-128600000D01*
X44800000Y-130825000D02*
X46950000Y-132975000D01*
X42429000Y-127674200D02*
X43874200Y-127674200D01*
X44800000Y-128600000D02*
X44800000Y-130825000D01*
%TO.N,Net-(J3-VSL)*%
X46262671Y-119174202D02*
X42429000Y-119174202D01*
X46888421Y-118548452D02*
X46262671Y-119174202D01*
%TO.N,/EP_RESET*%
X125500000Y-122000000D02*
X125500000Y-125520000D01*
X43325797Y-125174203D02*
X44500000Y-124000000D01*
X69250000Y-121750000D02*
X69250000Y-122250000D01*
X69250000Y-122250000D02*
X69275000Y-122275000D01*
X69275000Y-122275000D02*
X69275000Y-126125000D01*
X69275000Y-121775000D02*
X69250000Y-121750000D01*
X42429000Y-125174203D02*
X43325797Y-125174203D01*
X124500000Y-121000000D02*
X125500000Y-122000000D01*
X69250000Y-121750000D02*
X68500000Y-121000000D01*
X125500000Y-125520000D02*
X125620000Y-125640000D01*
%TO.N,Net-(J3-VDD_1V8)*%
X46944373Y-127997939D02*
X46944373Y-127644373D01*
X43305698Y-121174200D02*
X42429000Y-121174200D01*
X45500000Y-123368502D02*
X43305698Y-121174200D01*
X45500000Y-126200000D02*
X45500000Y-123368502D01*
X46944373Y-127644373D02*
X45500000Y-126200000D01*
%TO.N,Net-(J3-VCOM)*%
X46858100Y-111432900D02*
X46858100Y-111741900D01*
X46858100Y-111741900D02*
X42429000Y-116171000D01*
X42429000Y-116171000D02*
X42429000Y-118174201D01*
%TO.N,/Display Connector/GDR*%
X42429000Y-129174202D02*
X43305701Y-129174202D01*
X45925000Y-136325000D02*
X47012500Y-136325000D01*
X47012500Y-136325000D02*
X55341950Y-136325000D01*
X43600000Y-134000000D02*
X45925000Y-136325000D01*
X43600000Y-129468501D02*
X43600000Y-134000000D01*
X43305701Y-129174202D02*
X43600000Y-129468501D01*
X55341950Y-136325000D02*
X56324050Y-135342900D01*
%TO.N,/Display Connector/RESE*%
X52951950Y-135025000D02*
X56324050Y-131652900D01*
X47012500Y-135025000D02*
X46625000Y-135025000D01*
X44200000Y-132600000D02*
X44200000Y-129200000D01*
X47012500Y-135025000D02*
X52951950Y-135025000D01*
X46625000Y-135025000D02*
X44200000Y-132600000D01*
X43674201Y-128674201D02*
X42429000Y-128674201D01*
X44200000Y-129200000D02*
X43674201Y-128674201D01*
%TO.N,/EP_CS*%
X51375000Y-145125000D02*
X47875000Y-145125000D01*
X115460000Y-146960000D02*
X114500000Y-146000000D01*
X40000000Y-145000000D02*
X41000000Y-146000000D01*
X115460000Y-151000000D02*
X115460000Y-146960000D01*
X40000000Y-125000000D02*
X40825798Y-124174202D01*
X40000000Y-134000000D02*
X40000000Y-145000000D01*
X40000000Y-129500000D02*
X40000000Y-125000000D01*
X47875000Y-145125000D02*
X47000000Y-146000000D01*
X40825798Y-124174202D02*
X42429000Y-124174202D01*
%TO.N,/EP_BUSY*%
X115000000Y-122000000D02*
X115000000Y-122080000D01*
X115460000Y-122540000D02*
X115460000Y-125640000D01*
X115000000Y-122080000D02*
X115460000Y-122540000D01*
X43825798Y-125674202D02*
X44500000Y-125000000D01*
X42429000Y-125674202D02*
X43825798Y-125674202D01*
%TO.N,/EP_D{slash}C*%
X112920000Y-147420000D02*
X112500000Y-147000000D01*
X41325799Y-124674201D02*
X42429000Y-124674201D01*
X41000000Y-144500000D02*
X41000000Y-125000000D01*
X62825000Y-145125000D02*
X59875000Y-145125000D01*
X59875000Y-145125000D02*
X58000000Y-147000000D01*
X43500000Y-147000000D02*
X41000000Y-144500000D01*
X112920000Y-151000000D02*
X112920000Y-147420000D01*
X41000000Y-125000000D02*
X41325799Y-124674201D01*
%TO.N,Net-(J3-VSH)*%
X45981486Y-124356486D02*
X46944373Y-125319373D01*
X46944373Y-125319373D02*
X46944373Y-125647939D01*
X42429000Y-120174202D02*
X43276700Y-120174202D01*
X45981486Y-122878988D02*
X45981486Y-124356486D01*
X43276700Y-120174202D02*
X45981486Y-122878988D01*
%TO.N,/Buttons/RightButton*%
X120540000Y-134960000D02*
X120540000Y-125640000D01*
X143400131Y-133865669D02*
X143432900Y-133832900D01*
X143432900Y-133832900D02*
X143432900Y-124091550D01*
X138325000Y-122625000D02*
X139791550Y-124091550D01*
X139791550Y-124091550D02*
X143432900Y-124091550D01*
%TO.N,Net-(U4-GPIO0)*%
X110380000Y-117630000D02*
X110380000Y-125640000D01*
X46752500Y-96252500D02*
X51000000Y-100500000D01*
X46455000Y-96252500D02*
X46752500Y-96252500D01*
X109000000Y-116250000D02*
X110380000Y-117630000D01*
X46455000Y-94012500D02*
X46455000Y-96252500D01*
X51000000Y-100500000D02*
X51000000Y-108500000D01*
%TO.N,/Buttons/DownButton*%
X107250000Y-144750000D02*
X107840000Y-145340000D01*
X107840000Y-145340000D02*
X107840000Y-151000000D01*
X36447100Y-147008450D02*
X36447100Y-145552900D01*
X37858450Y-147008450D02*
X40975000Y-150125000D01*
X36447100Y-145552900D02*
X36500000Y-145500000D01*
X36447100Y-147008450D02*
X37858450Y-147008450D01*
D59*
%TO.N,Net-(R_{SNS}1-Pad2)*%
X64575000Y-97847900D02*
X64575000Y-101852100D01*
D58*
%TO.N,Net-(Q1-E)*%
X64575000Y-93352100D02*
X64228964Y-93352100D01*
X64228964Y-93352100D02*
X58667264Y-98913800D01*
X58667264Y-98913800D02*
X55530000Y-98913800D01*
%TO.N,/BAT_STAT*%
X102800000Y-147000000D02*
X102800000Y-142800000D01*
X79867100Y-171500950D02*
X79867100Y-150467100D01*
X101400000Y-148400000D02*
X102800000Y-147000000D01*
X51720000Y-95220000D02*
X52000000Y-95500000D01*
X57375000Y-104875000D02*
X57500000Y-105000000D01*
X112920000Y-140400000D02*
X112920000Y-125640000D01*
X51720000Y-93986200D02*
X51720000Y-95220000D01*
X112920000Y-116170000D02*
X112920000Y-125640000D01*
X57500000Y-100000000D02*
X57500000Y-105000000D01*
X57500000Y-113000000D02*
X58000000Y-113500000D01*
X57500000Y-105000000D02*
X57500000Y-113000000D01*
X54375000Y-104875000D02*
X57375000Y-104875000D01*
X79867100Y-150467100D02*
X79800000Y-150400000D01*
%TO.N,/BAT+*%
X54260000Y-98202600D02*
X54260000Y-98913800D01*
X43486400Y-88118900D02*
X43486400Y-88040000D01*
X43275000Y-91075000D02*
X43275000Y-88251400D01*
X43275000Y-88251400D02*
X43486400Y-88040000D01*
D59*
X56750000Y-87662500D02*
X60662500Y-87662500D01*
D58*
X46455000Y-91087500D02*
X43486400Y-88118900D01*
D59*
X62500000Y-89500000D02*
X67000000Y-89500000D01*
X60662500Y-87662500D02*
X62500000Y-89500000D01*
D58*
X54250000Y-98192600D02*
X54260000Y-98202600D01*
X54250000Y-97250000D02*
X54250000Y-98192600D01*
%TO.N,Net-(U1-CC)*%
X63000000Y-87500000D02*
X63117500Y-87382500D01*
X54260000Y-93986200D02*
X54260000Y-93240000D01*
X63117500Y-87382500D02*
X63117500Y-85195000D01*
X54260000Y-93240000D02*
X55500000Y-92000000D01*
%TO.N,/Battery Charging/TS*%
X51720000Y-98913800D02*
X51720000Y-97030000D01*
X82852500Y-92897500D02*
X82000000Y-93750000D01*
X82852500Y-87035000D02*
X82852500Y-92897500D01*
X82862500Y-84762500D02*
X83849200Y-85749200D01*
X82852500Y-87035000D02*
X82852500Y-86772500D01*
X82862500Y-84475000D02*
X82862500Y-84762500D01*
X51720000Y-97030000D02*
X53000000Y-95750000D01*
X82852500Y-86772500D02*
X83849200Y-85775800D01*
X83849200Y-85749200D02*
X83849200Y-85775800D01*
X83849200Y-85775800D02*
X87490000Y-85775800D01*
%TO.N,Net-(U3-EN)*%
X92514226Y-106332500D02*
X92514226Y-104750000D01*
X109603126Y-105976100D02*
X108329295Y-105976100D01*
X92514226Y-104750000D02*
X92514226Y-103345699D01*
X92514226Y-103345699D02*
X92548756Y-103311169D01*
X92514226Y-104750000D02*
X93329226Y-104750000D01*
X110079226Y-105500000D02*
X109603126Y-105976100D01*
%TO.N,Net-(U3-SS)*%
X117780596Y-107216738D02*
X108358657Y-107216738D01*
X108358657Y-107216738D02*
X108329295Y-107246100D01*
%TO.N,/Buttons/LeftButton*%
X143583450Y-102008450D02*
X143257100Y-102008450D01*
X105300000Y-148700000D02*
X105300000Y-151000000D01*
X145500000Y-147000000D02*
X145500000Y-103925000D01*
X145500000Y-103925000D02*
X143583450Y-102008450D01*
X143500000Y-101765550D02*
X143257100Y-102008450D01*
X138375000Y-103625000D02*
X139991550Y-102008450D01*
X139991550Y-102008450D02*
X143257100Y-102008450D01*
X143500000Y-100500000D02*
X143500000Y-101765550D01*
%TO.N,/Buttons/UpButton*%
X36529050Y-101900400D02*
X36529050Y-100529050D01*
X115500000Y-117508375D02*
X115508375Y-117508375D01*
X41775000Y-103125000D02*
X40550400Y-101900400D01*
X115508375Y-117508375D02*
X118000000Y-120000000D01*
X36850400Y-101900400D02*
X36529050Y-101900400D01*
X36529050Y-100529050D02*
X36500000Y-100500000D01*
X40550400Y-101900400D02*
X36529050Y-101900400D01*
X37705050Y-102755050D02*
X36850400Y-101900400D01*
X118000000Y-120000000D02*
X118000000Y-125640000D01*
X37705050Y-114602525D02*
X37705050Y-102755050D01*
%TO.N,/Buttons/HomeButton*%
X109500000Y-153000000D02*
X110380000Y-152120000D01*
X110380000Y-152120000D02*
X110380000Y-151000000D01*
X102125000Y-162925000D02*
X96991550Y-168058450D01*
X97411950Y-168000000D02*
X97470400Y-168058450D01*
X96991550Y-168058450D02*
X96970400Y-168058450D01*
X96970400Y-154029600D02*
X98000000Y-153000000D01*
X96970400Y-168058450D02*
X96970400Y-154029600D01*
X95500000Y-168000000D02*
X97411950Y-168000000D01*
%TO.N,Net-(C6-Pad1)*%
X117773327Y-104639599D02*
X115600827Y-104639599D01*
X115600827Y-104639599D02*
X115580827Y-104659599D01*
%TO.N,Net-(C9-Pad2)*%
X112944226Y-96862500D02*
X112931726Y-96850000D01*
X115544226Y-96862500D02*
X112944226Y-96862500D01*
X112931726Y-96850000D02*
X110331726Y-96850000D01*
X110331726Y-96850000D02*
X110319226Y-96862500D01*
%TO.N,Net-(Q1-B)*%
X56917500Y-85195000D02*
X56750000Y-85362500D01*
X60192500Y-85195000D02*
X56917500Y-85195000D01*
%TO.N,Net-(LED1-Pad3)*%
X79867100Y-178618300D02*
X79550300Y-178935100D01*
X79867100Y-174425950D02*
X79867100Y-178618300D01*
%TO.N,Net-(U3-COMP)*%
X112655827Y-104659599D02*
X108375796Y-104659599D01*
X117773327Y-102039599D02*
X117773327Y-101698327D01*
X117175000Y-101100000D02*
X112675000Y-101100000D01*
X117773327Y-101698327D02*
X117175000Y-101100000D01*
X112655827Y-101119173D02*
X112655827Y-104659599D01*
X112675000Y-101100000D02*
X112655827Y-101119173D01*
X108375796Y-104659599D02*
X108329295Y-104706100D01*
%TO.N,Net-(U3-VSENSE)*%
X108963900Y-103436100D02*
X108329295Y-103436100D01*
X112931726Y-99800000D02*
X112600000Y-99800000D01*
X112600000Y-99800000D02*
X108963900Y-103436100D01*
X112944226Y-99787500D02*
X112931726Y-99800000D01*
X117444875Y-99787500D02*
X117783861Y-99448514D01*
X115544226Y-99787500D02*
X112944226Y-99787500D01*
X115544226Y-99787500D02*
X117444875Y-99787500D01*
%TO.N,Net-(U3-BOOT)*%
X95500000Y-106500000D02*
X95500000Y-105543369D01*
X102603900Y-107246100D02*
X102000000Y-107850000D01*
X95500000Y-105543369D02*
X95343640Y-105387009D01*
X103236595Y-107246100D02*
X102603900Y-107246100D01*
X95750000Y-106750000D02*
X95500000Y-106500000D01*
X102000000Y-107850000D02*
X102000000Y-108000000D01*
%TD*%
%TA.AperFunction,Conductor*%
%TO.N,Net-(U3-PH)*%
G36*
X96007213Y-101525185D02*
G01*
X96051083Y-101574046D01*
X96342820Y-102157521D01*
X96342821Y-102157522D01*
X96418815Y-102269167D01*
X96418817Y-102269169D01*
X96462687Y-102318030D01*
X96565526Y-102405567D01*
X96696403Y-102465338D01*
X96763442Y-102485023D01*
X96763446Y-102485024D01*
X96905862Y-102505500D01*
X96905865Y-102505500D01*
X97490932Y-102505500D01*
X97557971Y-102525185D01*
X97570315Y-102534241D01*
X98786145Y-103547432D01*
X98825043Y-103605470D01*
X98829579Y-103625611D01*
X98842905Y-103721442D01*
X98861365Y-103786533D01*
X98861370Y-103786547D01*
X98917441Y-103913982D01*
X98917442Y-103913986D01*
X98920179Y-103918423D01*
X98932340Y-103944506D01*
X98953705Y-104008981D01*
X98956882Y-104020359D01*
X98957034Y-104021027D01*
X98967609Y-104059975D01*
X98995624Y-104137501D01*
X98995628Y-104137508D01*
X99073409Y-104258537D01*
X99073418Y-104258548D01*
X99119162Y-104311340D01*
X99119165Y-104311343D01*
X99119169Y-104311347D01*
X99227903Y-104405567D01*
X99227906Y-104405568D01*
X99227907Y-104405569D01*
X99339495Y-104456531D01*
X99358780Y-104465338D01*
X99425819Y-104485023D01*
X99425823Y-104485024D01*
X99568239Y-104505500D01*
X99568242Y-104505500D01*
X102023255Y-104505500D01*
X102023256Y-104505500D01*
X102148278Y-104489796D01*
X102207709Y-104474626D01*
X102209621Y-104473873D01*
X102214394Y-104472107D01*
X102262461Y-104455440D01*
X102262868Y-104456531D01*
X102309828Y-104439015D01*
X102311192Y-104438543D01*
X102314868Y-104438365D01*
X102351815Y-104431700D01*
X103964645Y-104431700D01*
X104031684Y-104451385D01*
X104077439Y-104504189D01*
X104088645Y-104555700D01*
X104088645Y-105063683D01*
X104080825Y-105107020D01*
X104077648Y-105115537D01*
X104035775Y-105171470D01*
X103970310Y-105195884D01*
X103961468Y-105196200D01*
X102280674Y-105196200D01*
X102280668Y-105196201D01*
X102221061Y-105202608D01*
X102114961Y-105242182D01*
X102109331Y-105243197D01*
X102106563Y-105244977D01*
X102071628Y-105250000D01*
X101866958Y-105250000D01*
X101799919Y-105230315D01*
X101779277Y-105213681D01*
X101722885Y-105157289D01*
X101722884Y-105157288D01*
X101573562Y-105065186D01*
X101407025Y-105010001D01*
X101407023Y-105010000D01*
X101304238Y-104999500D01*
X99904226Y-104999500D01*
X99904209Y-104999501D01*
X99801431Y-105010000D01*
X99801428Y-105010001D01*
X99634896Y-105065185D01*
X99634891Y-105065187D01*
X99485570Y-105157289D01*
X99429179Y-105213681D01*
X99367856Y-105247166D01*
X99341498Y-105250000D01*
X96868139Y-105250000D01*
X96801100Y-105230315D01*
X96755345Y-105177511D01*
X96744139Y-105126000D01*
X96744139Y-105012007D01*
X96744138Y-105011990D01*
X96733639Y-104909212D01*
X96733638Y-104909209D01*
X96707007Y-104828842D01*
X96678454Y-104742675D01*
X96586352Y-104593353D01*
X96462296Y-104469297D01*
X96312974Y-104377195D01*
X96146437Y-104322010D01*
X96146435Y-104322009D01*
X96043656Y-104311509D01*
X95390564Y-104311509D01*
X95323991Y-104292123D01*
X94136653Y-103536544D01*
X94090663Y-103483945D01*
X94079226Y-103431930D01*
X94079226Y-101629500D01*
X94098911Y-101562461D01*
X94151715Y-101516706D01*
X94203226Y-101505500D01*
X95940174Y-101505500D01*
X96007213Y-101525185D01*
G37*
%TD.AperFunction*%
%TD*%
%TA.AperFunction,Conductor*%
%TO.N,+3V3*%
G36*
X99522265Y-93519685D02*
G01*
X99568020Y-93572489D01*
X99579226Y-93624000D01*
X99579226Y-93628763D01*
X99559541Y-93695802D01*
X99542907Y-93716444D01*
X99258118Y-94001232D01*
X99258081Y-94001271D01*
X99221954Y-94041489D01*
X99221944Y-94041501D01*
X99205302Y-94062152D01*
X99173659Y-94106034D01*
X99113889Y-94236908D01*
X99094202Y-94303953D01*
X99073726Y-94446372D01*
X99073726Y-101601393D01*
X99060635Y-101656848D01*
X98923331Y-101931455D01*
X98875743Y-101982613D01*
X98812422Y-102000000D01*
X96905862Y-102000000D01*
X96838823Y-101980315D01*
X96794953Y-101931454D01*
X96329227Y-101000001D01*
X96329226Y-101000000D01*
X96329225Y-101000000D01*
X94203226Y-101000000D01*
X94136187Y-100980315D01*
X94090432Y-100927511D01*
X94079226Y-100876000D01*
X94079226Y-93624000D01*
X94098911Y-93556961D01*
X94151715Y-93511206D01*
X94203226Y-93500000D01*
X99455226Y-93500000D01*
X99522265Y-93519685D01*
G37*
%TD.AperFunction*%
%TD*%
%TA.AperFunction,Conductor*%
%TO.N,GND*%
G36*
X107016942Y-93620185D02*
G01*
X107037584Y-93636819D01*
X107292907Y-93892142D01*
X107326392Y-93953465D01*
X107329226Y-93979823D01*
X107329226Y-102570746D01*
X107309541Y-102637785D01*
X107256737Y-102683540D01*
X107248559Y-102686928D01*
X107178916Y-102712902D01*
X107178909Y-102712906D01*
X107063700Y-102799152D01*
X107063697Y-102799155D01*
X106977451Y-102914364D01*
X106977447Y-102914371D01*
X106927155Y-103049213D01*
X106927154Y-103049217D01*
X106920745Y-103108827D01*
X106920745Y-103108834D01*
X106920745Y-103108835D01*
X106920745Y-103763370D01*
X106920746Y-103763376D01*
X106927153Y-103822983D01*
X106977447Y-103957828D01*
X106977448Y-103957830D01*
X107006613Y-103996790D01*
X107031029Y-104062255D01*
X107016177Y-104130528D01*
X107006613Y-104145410D01*
X106977448Y-104184369D01*
X106977447Y-104184371D01*
X106927155Y-104319213D01*
X106927154Y-104319217D01*
X106920745Y-104378827D01*
X106920745Y-104378834D01*
X106920745Y-104378835D01*
X106920745Y-105033370D01*
X106920746Y-105033376D01*
X106927153Y-105092983D01*
X106977447Y-105227828D01*
X106977448Y-105227830D01*
X107006613Y-105266790D01*
X107031029Y-105332255D01*
X107016177Y-105400528D01*
X107006613Y-105415410D01*
X106977448Y-105454369D01*
X106977447Y-105454371D01*
X106927155Y-105589213D01*
X106927154Y-105589217D01*
X106920745Y-105648827D01*
X106920745Y-105648834D01*
X106920745Y-105648835D01*
X106920745Y-106303370D01*
X106920746Y-106303376D01*
X106927153Y-106362983D01*
X106977447Y-106497828D01*
X106977448Y-106497830D01*
X107006613Y-106536790D01*
X107031029Y-106602255D01*
X107016177Y-106670528D01*
X107006613Y-106685410D01*
X106977448Y-106724369D01*
X106977447Y-106724371D01*
X106927155Y-106859213D01*
X106927154Y-106859217D01*
X106920745Y-106918827D01*
X106920745Y-106918834D01*
X106920745Y-106918835D01*
X106920745Y-107573370D01*
X106920746Y-107573376D01*
X106927153Y-107632983D01*
X106977447Y-107767828D01*
X106977451Y-107767835D01*
X107063697Y-107883044D01*
X107063700Y-107883047D01*
X107178909Y-107969293D01*
X107178916Y-107969297D01*
X107248559Y-107995272D01*
X107304493Y-108037143D01*
X107328910Y-108102607D01*
X107329226Y-108111454D01*
X107329226Y-108500000D01*
X117017516Y-108500000D01*
X117082612Y-108518461D01*
X117136255Y-108551548D01*
X117136256Y-108551548D01*
X117136262Y-108551552D01*
X117302799Y-108606737D01*
X117405587Y-108617238D01*
X118155604Y-108617237D01*
X118155612Y-108617236D01*
X118155615Y-108617236D01*
X118211898Y-108611486D01*
X118258393Y-108606737D01*
X118424930Y-108551552D01*
X118448277Y-108537151D01*
X118478580Y-108518461D01*
X118543676Y-108500000D01*
X119579226Y-108500000D01*
X119579226Y-97874000D01*
X119598911Y-97806961D01*
X119651715Y-97761206D01*
X119703226Y-97750000D01*
X121955226Y-97750000D01*
X122022265Y-97769685D01*
X122068020Y-97822489D01*
X122079226Y-97874000D01*
X122079226Y-109876000D01*
X122059541Y-109943039D01*
X122006737Y-109988794D01*
X121955226Y-110000000D01*
X107329226Y-110000000D01*
X107329226Y-110876000D01*
X107309541Y-110943039D01*
X107256737Y-110988794D01*
X107205226Y-111000000D01*
X102703226Y-111000000D01*
X102636187Y-110980315D01*
X102590432Y-110927511D01*
X102579226Y-110876000D01*
X102579226Y-108624000D01*
X102598911Y-108556961D01*
X102651715Y-108511206D01*
X102703226Y-108500000D01*
X104329226Y-108500000D01*
X104329226Y-108074402D01*
X104348911Y-108007363D01*
X104381613Y-107976933D01*
X104379876Y-107974612D01*
X104459781Y-107914793D01*
X104502191Y-107883046D01*
X104588441Y-107767831D01*
X104638736Y-107632983D01*
X104645145Y-107573373D01*
X104645144Y-106918828D01*
X104638736Y-106859217D01*
X104588441Y-106724369D01*
X104559274Y-106685407D01*
X104534858Y-106619948D01*
X104549709Y-106551675D01*
X104559266Y-106536802D01*
X104588441Y-106497831D01*
X104638736Y-106362983D01*
X104645145Y-106303373D01*
X104645144Y-105648828D01*
X104639944Y-105600457D01*
X104638736Y-105589216D01*
X104588442Y-105454372D01*
X104588441Y-105454369D01*
X104559274Y-105415407D01*
X104534858Y-105349948D01*
X104549709Y-105281675D01*
X104559266Y-105266802D01*
X104588441Y-105227831D01*
X104638736Y-105092983D01*
X104645145Y-105033373D01*
X104645144Y-104378828D01*
X104638736Y-104319217D01*
X104588441Y-104184369D01*
X104588440Y-104184368D01*
X104588438Y-104184364D01*
X104502192Y-104069155D01*
X104502189Y-104069152D01*
X104386980Y-103982906D01*
X104386973Y-103982902D01*
X104252127Y-103932608D01*
X104252128Y-103932608D01*
X104192528Y-103926201D01*
X104192526Y-103926200D01*
X104192518Y-103926200D01*
X104192509Y-103926200D01*
X102280674Y-103926200D01*
X102280668Y-103926201D01*
X102221061Y-103932608D01*
X102086216Y-103982902D01*
X102082687Y-103984830D01*
X102023256Y-104000000D01*
X99568239Y-104000000D01*
X99501200Y-103980315D01*
X99455445Y-103927511D01*
X99444881Y-103888605D01*
X99444857Y-103888377D01*
X99444227Y-103882203D01*
X99389042Y-103715666D01*
X99347687Y-103648618D01*
X99329226Y-103583522D01*
X99329226Y-102279272D01*
X99342316Y-102223818D01*
X99579226Y-101750000D01*
X99579226Y-94446371D01*
X99598911Y-94379332D01*
X99615545Y-94358690D01*
X100337416Y-93636819D01*
X100398739Y-93603334D01*
X100425097Y-93600500D01*
X106949903Y-93600500D01*
X107016942Y-93620185D01*
G37*
%TD.AperFunction*%
%TD*%
%TA.AperFunction,Conductor*%
%TO.N,/BAT+*%
G36*
X58193039Y-82519685D02*
G01*
X58238794Y-82572489D01*
X58250000Y-82624000D01*
X58250000Y-84326441D01*
X58230315Y-84393480D01*
X58177511Y-84439235D01*
X58108353Y-84449179D01*
X58044797Y-84420154D01*
X58029353Y-84404129D01*
X58020793Y-84393480D01*
X57997722Y-84364778D01*
X57849296Y-84245470D01*
X57849295Y-84245469D01*
X57849292Y-84245467D01*
X57678697Y-84160860D01*
X57493892Y-84114900D01*
X57472506Y-84113450D01*
X57451123Y-84112000D01*
X57451120Y-84112000D01*
X56048877Y-84112000D01*
X56048874Y-84112001D01*
X56006113Y-84114899D01*
X56006112Y-84114899D01*
X55821303Y-84160860D01*
X55650707Y-84245467D01*
X55650704Y-84245469D01*
X55502278Y-84364777D01*
X55502277Y-84364778D01*
X55382969Y-84513204D01*
X55382967Y-84513207D01*
X55298360Y-84683802D01*
X55252400Y-84868607D01*
X55249500Y-84911379D01*
X55249500Y-85813622D01*
X55249501Y-85813625D01*
X55252399Y-85856386D01*
X55252399Y-85856387D01*
X55298360Y-86041196D01*
X55382967Y-86211792D01*
X55382969Y-86211795D01*
X55502277Y-86360221D01*
X55502278Y-86360222D01*
X55650704Y-86479530D01*
X55650707Y-86479532D01*
X55821302Y-86564139D01*
X55821303Y-86564139D01*
X55821307Y-86564141D01*
X56006111Y-86610100D01*
X56048877Y-86613000D01*
X57451122Y-86612999D01*
X57493889Y-86610100D01*
X57678693Y-86564141D01*
X57849296Y-86479530D01*
X57997722Y-86360222D01*
X58029354Y-86320869D01*
X58086696Y-86280952D01*
X58156518Y-86278372D01*
X58216651Y-86313950D01*
X58248003Y-86376391D01*
X58250000Y-86398558D01*
X58250000Y-88926441D01*
X58230315Y-88993480D01*
X58177511Y-89039235D01*
X58108353Y-89049179D01*
X58044797Y-89020154D01*
X58029353Y-89004129D01*
X58020793Y-88993480D01*
X57997722Y-88964778D01*
X57849296Y-88845470D01*
X57849295Y-88845469D01*
X57849292Y-88845467D01*
X57678697Y-88760860D01*
X57493892Y-88714900D01*
X57472506Y-88713450D01*
X57451123Y-88712000D01*
X57451120Y-88712000D01*
X56048877Y-88712000D01*
X56048874Y-88712001D01*
X56006113Y-88714899D01*
X56006112Y-88714899D01*
X55821303Y-88760860D01*
X55650707Y-88845467D01*
X55650704Y-88845469D01*
X55502278Y-88964777D01*
X55502277Y-88964778D01*
X55382969Y-89113204D01*
X55382967Y-89113207D01*
X55298360Y-89283802D01*
X55252400Y-89468607D01*
X55252400Y-89468611D01*
X55249500Y-89511377D01*
X55249500Y-89876002D01*
X55229817Y-89943039D01*
X55177013Y-89988794D01*
X55125501Y-90000000D01*
X41624000Y-90000000D01*
X41556961Y-89980315D01*
X41511206Y-89927511D01*
X41500000Y-89876000D01*
X41500000Y-87948629D01*
X44325501Y-87948629D01*
X44325501Y-88131370D01*
X44354085Y-88311841D01*
X44354086Y-88311845D01*
X44410553Y-88485631D01*
X44493510Y-88648444D01*
X44600916Y-88796276D01*
X44730125Y-88925485D01*
X44877957Y-89032891D01*
X45040770Y-89115848D01*
X45214556Y-89172315D01*
X45282236Y-89183034D01*
X45395031Y-89200900D01*
X45395036Y-89200900D01*
X45577771Y-89200900D01*
X45678032Y-89185019D01*
X45758246Y-89172315D01*
X45932032Y-89115848D01*
X46094845Y-89032891D01*
X46242677Y-88925485D01*
X46371886Y-88796276D01*
X46479292Y-88648444D01*
X46562249Y-88485631D01*
X46618716Y-88311845D01*
X46631420Y-88231631D01*
X46647301Y-88131370D01*
X46647301Y-87948629D01*
X46618716Y-87768158D01*
X46618716Y-87768155D01*
X46562249Y-87594369D01*
X46479292Y-87431556D01*
X46371886Y-87283724D01*
X46242677Y-87154515D01*
X46094845Y-87047109D01*
X45932032Y-86964152D01*
X45758246Y-86907685D01*
X45758244Y-86907684D01*
X45758242Y-86907684D01*
X45577771Y-86879100D01*
X45577766Y-86879100D01*
X45395036Y-86879100D01*
X45395031Y-86879100D01*
X45214559Y-86907684D01*
X45040767Y-86964153D01*
X44877956Y-87047109D01*
X44730122Y-87154517D01*
X44600918Y-87283721D01*
X44493510Y-87431555D01*
X44410554Y-87594366D01*
X44354085Y-87768158D01*
X44325501Y-87948629D01*
X41500000Y-87948629D01*
X41500000Y-82624000D01*
X41519685Y-82556961D01*
X41572489Y-82511206D01*
X41624000Y-82500000D01*
X58126000Y-82500000D01*
X58193039Y-82519685D01*
G37*
%TD.AperFunction*%
%TD*%
%TA.AperFunction,Conductor*%
%TO.N,/Battery Charging/VOUT*%
G36*
X82522891Y-106759538D02*
G01*
X85423692Y-107968205D01*
X85478004Y-108012160D01*
X85499930Y-108078500D01*
X85500000Y-108082667D01*
X85500000Y-108819438D01*
X85480315Y-108886477D01*
X85472500Y-108896175D01*
X85472500Y-110709031D01*
X85497166Y-110754204D01*
X85500000Y-110780562D01*
X85500000Y-111423364D01*
X85480315Y-111490403D01*
X85431454Y-111534273D01*
X82526182Y-112986909D01*
X82470728Y-113000000D01*
X80124000Y-113000000D01*
X80056961Y-112980315D01*
X80011206Y-112927511D01*
X80000000Y-112876000D01*
X80000000Y-106874000D01*
X80019685Y-106806961D01*
X80072489Y-106761206D01*
X80124000Y-106750000D01*
X82475199Y-106750000D01*
X82522891Y-106759538D01*
G37*
%TD.AperFunction*%
%TD*%
%TA.AperFunction,Conductor*%
%TO.N,/Battery Charging/VBUS*%
G36*
X77943039Y-107269685D02*
G01*
X77988794Y-107322489D01*
X78000000Y-107374000D01*
X78000000Y-112376000D01*
X77980315Y-112443039D01*
X77927511Y-112488794D01*
X77876000Y-112500000D01*
X74874000Y-112500000D01*
X74806961Y-112480315D01*
X74761206Y-112427511D01*
X74750000Y-112376000D01*
X74750000Y-110189500D01*
X74752550Y-110180814D01*
X74751262Y-110171853D01*
X74762240Y-110147812D01*
X74769685Y-110122461D01*
X74776525Y-110116533D01*
X74780287Y-110108297D01*
X74802521Y-110094007D01*
X74822489Y-110076706D01*
X74833003Y-110074418D01*
X74839065Y-110070523D01*
X74874000Y-110065500D01*
X74967672Y-110065500D01*
X75002267Y-110070424D01*
X75147426Y-110112597D01*
X75147429Y-110112597D01*
X75147431Y-110112598D01*
X75184306Y-110115500D01*
X75184314Y-110115500D01*
X76765686Y-110115500D01*
X76765694Y-110115500D01*
X76802569Y-110112598D01*
X76802571Y-110112597D01*
X76802573Y-110112597D01*
X76866559Y-110094007D01*
X76960398Y-110066744D01*
X77101865Y-109983081D01*
X77218081Y-109866865D01*
X77301744Y-109725398D01*
X77347598Y-109567569D01*
X77350500Y-109530694D01*
X77350500Y-109099306D01*
X77347598Y-109062431D01*
X77301744Y-108904602D01*
X77218081Y-108763135D01*
X77218079Y-108763133D01*
X77218076Y-108763129D01*
X77101870Y-108646923D01*
X77101862Y-108646917D01*
X76960396Y-108563255D01*
X76960393Y-108563254D01*
X76802573Y-108517402D01*
X76802567Y-108517401D01*
X76765701Y-108514500D01*
X76765694Y-108514500D01*
X75184306Y-108514500D01*
X75184298Y-108514500D01*
X75147432Y-108517401D01*
X75147426Y-108517402D01*
X75009672Y-108557424D01*
X74996378Y-108557386D01*
X74983922Y-108562032D01*
X74962117Y-108557288D01*
X74939802Y-108557225D01*
X74927118Y-108549674D01*
X74915650Y-108547180D01*
X74887399Y-108526032D01*
X74786317Y-108424950D01*
X74752834Y-108363627D01*
X74750000Y-108337270D01*
X74750000Y-107374000D01*
X74769685Y-107306961D01*
X74822489Y-107261206D01*
X74874000Y-107250000D01*
X77876000Y-107250000D01*
X77943039Y-107269685D01*
G37*
%TD.AperFunction*%
%TD*%
%TA.AperFunction,Conductor*%
%TO.N,/Buck Converter/VIN*%
G36*
X101284713Y-105505636D02*
G01*
X101287031Y-105505872D01*
X101313466Y-105511528D01*
X101344717Y-105521884D01*
X101370803Y-105534047D01*
X101394892Y-105548905D01*
X101417472Y-105566760D01*
X101421835Y-105571123D01*
X101421851Y-105571137D01*
X101421858Y-105571144D01*
X101462076Y-105607271D01*
X101462088Y-105607281D01*
X101462096Y-105607288D01*
X101482738Y-105623922D01*
X101526622Y-105655567D01*
X101657499Y-105715338D01*
X101724538Y-105735023D01*
X101724542Y-105735024D01*
X101866958Y-105755500D01*
X101866961Y-105755500D01*
X102071628Y-105755500D01*
X102143570Y-105750355D01*
X102178505Y-105745332D01*
X102204075Y-105739765D01*
X102204649Y-105739662D01*
X102205028Y-105739557D01*
X102249117Y-105729960D01*
X102253667Y-105727880D01*
X102267317Y-105722591D01*
X102269835Y-105721782D01*
X102291618Y-105715809D01*
X102311172Y-105708515D01*
X102313925Y-105707632D01*
X102319744Y-105707486D01*
X102351819Y-105701700D01*
X103961442Y-105701700D01*
X103961468Y-105701700D01*
X103962370Y-105701683D01*
X103962429Y-105701700D01*
X103962577Y-105701700D01*
X103962577Y-105701740D01*
X104029757Y-105720133D01*
X104076474Y-105772087D01*
X104088645Y-105825662D01*
X104088645Y-106333683D01*
X104087628Y-106339314D01*
X104088329Y-106342533D01*
X104080825Y-106377020D01*
X104077648Y-106385537D01*
X104035775Y-106441470D01*
X103970310Y-106465884D01*
X103961468Y-106466200D01*
X102280674Y-106466200D01*
X102280668Y-106466201D01*
X102221061Y-106472608D01*
X102086216Y-106522902D01*
X102086209Y-106522906D01*
X101971000Y-106609152D01*
X101970997Y-106609155D01*
X101884751Y-106724364D01*
X101884747Y-106724371D01*
X101834452Y-106859220D01*
X101833073Y-106865058D01*
X101798499Y-106925774D01*
X101736587Y-106958159D01*
X101733977Y-106958649D01*
X101500000Y-106999999D01*
X101500000Y-107316559D01*
X101480315Y-107383598D01*
X101463681Y-107404240D01*
X101378213Y-107489707D01*
X101378210Y-107489711D01*
X101290609Y-107620814D01*
X101290602Y-107620827D01*
X101230264Y-107766498D01*
X101230261Y-107766510D01*
X101199500Y-107921153D01*
X101199500Y-108078846D01*
X101230261Y-108233489D01*
X101230264Y-108233501D01*
X101290602Y-108379172D01*
X101290609Y-108379185D01*
X101378209Y-108510287D01*
X101378210Y-108510288D01*
X101378211Y-108510289D01*
X101463682Y-108595760D01*
X101497166Y-108657081D01*
X101500000Y-108683440D01*
X101500000Y-111126000D01*
X101480315Y-111193039D01*
X101427511Y-111238794D01*
X101376000Y-111250000D01*
X89000000Y-111250000D01*
X87124000Y-111250000D01*
X87056961Y-111230315D01*
X87011206Y-111177511D01*
X87000000Y-111126000D01*
X87000000Y-110825700D01*
X87019685Y-110758661D01*
X87072489Y-110712906D01*
X87124000Y-110701700D01*
X87377500Y-110701700D01*
X87377500Y-108898300D01*
X87124000Y-108898300D01*
X87056961Y-108878615D01*
X87011206Y-108825811D01*
X87000000Y-108774300D01*
X87000000Y-108374000D01*
X87019685Y-108306961D01*
X87072489Y-108261206D01*
X87124000Y-108250000D01*
X99329226Y-108250000D01*
X99329226Y-105870309D01*
X99348911Y-105803270D01*
X99401715Y-105757515D01*
X99433385Y-105747907D01*
X99475308Y-105741114D01*
X99610117Y-105690832D01*
X99671440Y-105657347D01*
X99671443Y-105657346D01*
X99786625Y-105571120D01*
X99797093Y-105560650D01*
X99803979Y-105555455D01*
X99806466Y-105554516D01*
X99813562Y-105548904D01*
X99837649Y-105534047D01*
X99863727Y-105521887D01*
X99894994Y-105511526D01*
X99921424Y-105505873D01*
X99923744Y-105505636D01*
X99936291Y-105505000D01*
X101272172Y-105505000D01*
X101284713Y-105505636D01*
G37*
%TD.AperFunction*%
%TD*%
M02*
