%TF.GenerationSoftware,KiCad,Pcbnew,9.0.7*%
%TF.CreationDate,2026-02-12T15:19:17-05:00*%
%TF.ProjectId,OSHE-Reader-PCB,4f534845-2d52-4656-9164-65722d504342,rev?*%
%TF.SameCoordinates,Original*%
%TF.FileFunction,Copper,L2,Inr*%
%TF.FilePolarity,Positive*%
%FSLAX46Y46*%
G04 Gerber Fmt 4.6, Leading zero omitted, Abs format (unit mm)*
G04 Created by KiCad (PCBNEW 9.0.7) date 2026-02-12 15:19:17*
%MOMM*%
%LPD*%
G01*
G04 APERTURE LIST*
%TA.AperFunction,WasherPad*%
%ADD10C,6.000000*%
%TD*%
%TA.AperFunction,ComponentPad*%
%ADD11C,1.400000*%
%TD*%
%TA.AperFunction,ComponentPad*%
%ADD12C,1.320800*%
%TD*%
%TA.AperFunction,WasherPad*%
%ADD13O,1.092200X1.701800*%
%TD*%
%TA.AperFunction,ViaPad*%
%ADD14C,0.600000*%
%TD*%
%TA.AperFunction,ViaPad*%
%ADD15C,0.800000*%
%TD*%
%TA.AperFunction,ViaPad*%
%ADD16C,1.000000*%
%TD*%
G04 APERTURE END LIST*
D10*
%TO.N,*%
%TO.C,H2*%
X131250000Y-160000000D03*
%TD*%
D11*
%TO.N,/Battery Charging/TS*%
%TO.C,TH2*%
X87490000Y-85775800D03*
%TO.N,GND*%
X92570000Y-85775800D03*
%TD*%
D10*
%TO.N,*%
%TO.C,H1*%
X48750000Y-160000000D03*
%TD*%
D12*
%TO.N,/BAT+*%
%TO.C,J4*%
X43486400Y-88040000D03*
%TO.N,GND*%
X45486401Y-88040000D03*
%TD*%
D13*
%TO.N,*%
%TO.C,J1*%
X94320000Y-177345599D03*
X94320000Y-173545600D03*
X85680000Y-177345599D03*
X85680000Y-173545600D03*
%TD*%
D14*
%TO.N,/Battery Charging/VBUS*%
X61250000Y-97500000D03*
X60500000Y-95750000D03*
%TO.N,GND*%
X75000000Y-179000000D03*
X43250000Y-95500000D03*
X55000000Y-123500000D03*
X36500000Y-106000000D03*
X39500000Y-114000000D03*
X118000000Y-162000000D03*
X44000000Y-126274202D03*
D15*
X82600000Y-173000000D03*
D16*
X102750000Y-99500000D03*
X102750000Y-94750000D03*
D14*
X61091350Y-118200000D03*
X105750000Y-107400000D03*
X101200000Y-123400000D03*
X51000000Y-114000000D03*
X36500000Y-151500000D03*
X46500000Y-100250000D03*
X110500000Y-162000000D03*
X51500000Y-118108375D03*
D16*
X102750000Y-96000000D03*
D14*
X104750000Y-107400000D03*
X131000000Y-153000000D03*
X124000000Y-162000000D03*
X60500000Y-132000000D03*
X116800000Y-154000000D03*
X51200000Y-133000000D03*
X92500000Y-99000000D03*
D16*
X102750000Y-98250000D03*
D14*
X51086273Y-125665039D03*
X121000000Y-153000000D03*
X105750000Y-103300000D03*
X95140000Y-152640000D03*
X106750000Y-107425000D03*
X106750000Y-103325000D03*
X100500000Y-179000000D03*
X51086273Y-128165039D03*
X80500000Y-104750000D03*
X104725000Y-103325000D03*
X108500000Y-178500000D03*
X51000000Y-111500000D03*
X125000000Y-178500000D03*
X78500000Y-88500000D03*
X60500000Y-135000000D03*
X121000000Y-162000000D03*
X120000000Y-154200000D03*
X78000000Y-176500000D03*
X52750000Y-92000000D03*
X41000000Y-121674201D03*
X102750000Y-91250000D03*
X89000000Y-123600000D03*
X59500000Y-96000000D03*
X94500000Y-86000000D03*
D15*
X87000000Y-172000000D03*
D14*
X51086273Y-130165039D03*
X100500000Y-171000000D03*
X143400000Y-119800000D03*
X131000000Y-123500000D03*
X101500000Y-168000000D03*
D15*
X92749936Y-171749936D03*
D14*
X38000000Y-133500000D03*
X143500000Y-106500000D03*
%TO.N,+3V3*%
X84500000Y-168000000D03*
X36500000Y-89500000D03*
D16*
X96250000Y-96000000D03*
D14*
X36500000Y-134500000D03*
X41000000Y-122500000D03*
X143500000Y-89500000D03*
D16*
X96250000Y-94750000D03*
D14*
X143500000Y-145000000D03*
X95200000Y-123400000D03*
X120000000Y-160000000D03*
X61500000Y-128000000D03*
D16*
X96250000Y-98250000D03*
D14*
X45600000Y-130200000D03*
X60500000Y-123500000D03*
D16*
X96250000Y-99500000D03*
D14*
%TO.N,/SCK*%
X104500000Y-120000000D03*
X44176702Y-122893731D03*
X108500000Y-161000000D03*
X95500000Y-120000000D03*
X118933800Y-162000000D03*
%TO.N,/COPI*%
X106000000Y-119000000D03*
X108776000Y-156776000D03*
X116033799Y-160400000D03*
X43576700Y-122293731D03*
%TO.N,/EP_RESET*%
X44500000Y-124000000D03*
X68500000Y-121000000D03*
X124500000Y-121000000D03*
%TO.N,/EP_CS*%
X41000000Y-146000000D03*
X40000000Y-129500000D03*
X47000000Y-146000000D03*
X40000000Y-134000000D03*
X114500000Y-146000000D03*
%TO.N,/EP_BUSY*%
X44500000Y-125000000D03*
X115000000Y-122000000D03*
%TO.N,/EP_D{slash}C*%
X58000000Y-147000000D03*
X43500000Y-147000000D03*
X112500000Y-147000000D03*
%TO.N,/Buttons/RightButton*%
X120540000Y-134960000D03*
X143400131Y-133865669D03*
%TO.N,Net-(U4-GPIO0)*%
X51000000Y-108500000D03*
X109000000Y-116250000D03*
%TO.N,/Buttons/DownButton*%
X107250000Y-144750000D03*
X36500000Y-145500000D03*
%TO.N,/BAT_STAT*%
X101400000Y-148400000D03*
X58000000Y-113500000D03*
X52000000Y-95500000D03*
X57500000Y-100000000D03*
X112920000Y-140400000D03*
X102800000Y-142800000D03*
X112920000Y-116170000D03*
X79800000Y-150400000D03*
%TO.N,/BAT+*%
X54250000Y-97250000D03*
%TO.N,Net-(U1-CC)*%
X63000000Y-87500000D03*
X55500000Y-92000000D03*
%TO.N,/Battery Charging/TS*%
X53000000Y-95750000D03*
X82000000Y-93750000D03*
%TO.N,Net-(U3-EN)*%
X110079226Y-105500000D03*
X93329226Y-104750000D03*
%TO.N,/Buttons/LeftButton*%
X105300000Y-148700000D03*
X143500000Y-100500000D03*
X145500000Y-147000000D03*
%TO.N,/Buttons/UpButton*%
X36500000Y-100500000D03*
X37705050Y-114602525D03*
X115500000Y-117508375D03*
%TO.N,/Buttons/HomeButton*%
X95500000Y-168000000D03*
X109500000Y-153000000D03*
X98000000Y-153000000D03*
%TO.N,Net-(U3-BOOT)*%
X95750000Y-106750000D03*
X102000000Y-108000000D03*
%TD*%
%TA.AperFunction,Conductor*%
%TO.N,GND*%
G36*
X142502702Y-80881617D02*
G01*
X142897143Y-80898839D01*
X142907879Y-80899779D01*
X143296627Y-80950958D01*
X143307265Y-80952833D01*
X143690083Y-81037703D01*
X143700515Y-81040498D01*
X144074466Y-81158405D01*
X144084609Y-81162096D01*
X144446869Y-81312149D01*
X144456660Y-81316715D01*
X144804442Y-81497759D01*
X144813810Y-81503167D01*
X145144500Y-81713839D01*
X145153350Y-81720036D01*
X145464431Y-81958737D01*
X145472709Y-81965684D01*
X145761781Y-82230569D01*
X145769430Y-82238218D01*
X146034315Y-82527290D01*
X146041264Y-82535570D01*
X146279960Y-82846644D01*
X146286160Y-82855499D01*
X146496832Y-83186189D01*
X146502240Y-83195557D01*
X146683281Y-83543332D01*
X146687853Y-83553136D01*
X146837897Y-83915375D01*
X146841597Y-83925541D01*
X146959499Y-84299479D01*
X146962299Y-84309927D01*
X147047164Y-84692726D01*
X147049042Y-84703380D01*
X147100218Y-85092101D01*
X147101161Y-85102877D01*
X147118382Y-85497297D01*
X147118500Y-85502706D01*
X147118500Y-175497293D01*
X147118382Y-175502702D01*
X147101161Y-175897122D01*
X147100218Y-175907898D01*
X147049042Y-176296619D01*
X147047164Y-176307273D01*
X146962299Y-176690072D01*
X146959499Y-176700520D01*
X146841597Y-177074458D01*
X146837897Y-177084624D01*
X146687853Y-177446863D01*
X146683281Y-177456667D01*
X146502240Y-177804442D01*
X146496832Y-177813810D01*
X146286160Y-178144500D01*
X146279955Y-178153362D01*
X146041269Y-178464423D01*
X146034315Y-178472709D01*
X145769430Y-178761781D01*
X145761781Y-178769430D01*
X145472709Y-179034315D01*
X145464423Y-179041269D01*
X145153362Y-179279955D01*
X145144500Y-179286160D01*
X144813810Y-179496832D01*
X144804442Y-179502240D01*
X144456667Y-179683281D01*
X144446863Y-179687853D01*
X144084624Y-179837897D01*
X144074458Y-179841597D01*
X143700520Y-179959499D01*
X143690072Y-179962299D01*
X143307273Y-180047164D01*
X143296619Y-180049042D01*
X142907898Y-180100218D01*
X142897122Y-180101161D01*
X142502703Y-180118382D01*
X142497294Y-180118500D01*
X37502706Y-180118500D01*
X37497297Y-180118382D01*
X37102877Y-180101161D01*
X37092101Y-180100218D01*
X36703380Y-180049042D01*
X36692726Y-180047164D01*
X36309927Y-179962299D01*
X36299479Y-179959499D01*
X35925541Y-179841597D01*
X35915375Y-179837897D01*
X35553136Y-179687853D01*
X35543332Y-179683281D01*
X35195557Y-179502240D01*
X35186189Y-179496832D01*
X34855499Y-179286160D01*
X34846644Y-179279960D01*
X34535570Y-179041264D01*
X34527290Y-179034315D01*
X34238218Y-178769430D01*
X34230569Y-178761781D01*
X33965684Y-178472709D01*
X33958737Y-178464431D01*
X33720036Y-178153350D01*
X33713839Y-178144500D01*
X33593548Y-177955681D01*
X33503166Y-177813809D01*
X33497759Y-177804442D01*
X33471230Y-177753480D01*
X33316715Y-177456660D01*
X33312146Y-177446863D01*
X33162096Y-177084609D01*
X33158402Y-177074458D01*
X33146544Y-177036850D01*
X33115286Y-176937713D01*
X84633400Y-176937713D01*
X84633400Y-177753484D01*
X84673618Y-177955673D01*
X84673620Y-177955681D01*
X84752513Y-178146147D01*
X84752518Y-178146156D01*
X84867052Y-178317567D01*
X84867055Y-178317571D01*
X85012827Y-178463343D01*
X85012831Y-178463346D01*
X85184242Y-178577880D01*
X85184248Y-178577883D01*
X85184249Y-178577884D01*
X85374718Y-178656779D01*
X85576914Y-178696998D01*
X85576918Y-178696999D01*
X85576919Y-178696999D01*
X85783082Y-178696999D01*
X85783083Y-178696998D01*
X85985282Y-178656779D01*
X86175751Y-178577884D01*
X86347169Y-178463346D01*
X86492947Y-178317568D01*
X86607485Y-178146150D01*
X86686380Y-177955681D01*
X86726600Y-177753480D01*
X86726600Y-176937718D01*
X86726599Y-176937713D01*
X93273400Y-176937713D01*
X93273400Y-177753484D01*
X93313618Y-177955673D01*
X93313620Y-177955681D01*
X93392513Y-178146147D01*
X93392518Y-178146156D01*
X93507052Y-178317567D01*
X93507055Y-178317571D01*
X93652827Y-178463343D01*
X93652831Y-178463346D01*
X93824242Y-178577880D01*
X93824248Y-178577883D01*
X93824249Y-178577884D01*
X94014718Y-178656779D01*
X94216914Y-178696998D01*
X94216918Y-178696999D01*
X94216919Y-178696999D01*
X94423082Y-178696999D01*
X94423083Y-178696998D01*
X94625282Y-178656779D01*
X94815751Y-178577884D01*
X94987169Y-178463346D01*
X95132947Y-178317568D01*
X95247485Y-178146150D01*
X95326380Y-177955681D01*
X95366600Y-177753480D01*
X95366600Y-176937718D01*
X95326380Y-176735517D01*
X95247485Y-176545048D01*
X95247484Y-176545047D01*
X95247481Y-176545041D01*
X95132947Y-176373630D01*
X95132944Y-176373626D01*
X94987172Y-176227854D01*
X94987168Y-176227851D01*
X94815757Y-176113317D01*
X94815748Y-176113312D01*
X94625282Y-176034419D01*
X94625274Y-176034417D01*
X94423085Y-175994199D01*
X94423081Y-175994199D01*
X94216919Y-175994199D01*
X94216914Y-175994199D01*
X94014725Y-176034417D01*
X94014717Y-176034419D01*
X93824251Y-176113312D01*
X93824242Y-176113317D01*
X93652831Y-176227851D01*
X93652827Y-176227854D01*
X93507055Y-176373626D01*
X93507052Y-176373630D01*
X93392518Y-176545041D01*
X93392513Y-176545050D01*
X93313620Y-176735516D01*
X93313618Y-176735524D01*
X93273400Y-176937713D01*
X86726599Y-176937713D01*
X86686380Y-176735517D01*
X86607485Y-176545048D01*
X86607484Y-176545047D01*
X86607481Y-176545041D01*
X86492947Y-176373630D01*
X86492944Y-176373626D01*
X86347172Y-176227854D01*
X86347168Y-176227851D01*
X86175757Y-176113317D01*
X86175748Y-176113312D01*
X85985282Y-176034419D01*
X85985274Y-176034417D01*
X85783085Y-175994199D01*
X85783081Y-175994199D01*
X85576919Y-175994199D01*
X85576914Y-175994199D01*
X85374725Y-176034417D01*
X85374717Y-176034419D01*
X85184251Y-176113312D01*
X85184242Y-176113317D01*
X85012831Y-176227851D01*
X85012827Y-176227854D01*
X84867055Y-176373626D01*
X84867052Y-176373630D01*
X84752518Y-176545041D01*
X84752513Y-176545050D01*
X84673620Y-176735516D01*
X84673618Y-176735524D01*
X84633400Y-176937713D01*
X33115286Y-176937713D01*
X33040497Y-176700510D01*
X33037703Y-176690084D01*
X32952833Y-176307265D01*
X32950957Y-176296619D01*
X32926825Y-176113317D01*
X32899779Y-175907879D01*
X32898839Y-175897143D01*
X32881618Y-175502702D01*
X32881500Y-175497293D01*
X32881500Y-173137714D01*
X84633400Y-173137714D01*
X84633400Y-173953485D01*
X84673618Y-174155674D01*
X84673620Y-174155682D01*
X84752513Y-174346148D01*
X84752518Y-174346157D01*
X84867052Y-174517568D01*
X84867055Y-174517572D01*
X85012827Y-174663344D01*
X85012831Y-174663347D01*
X85184242Y-174777881D01*
X85184248Y-174777884D01*
X85184249Y-174777885D01*
X85374718Y-174856780D01*
X85576914Y-174896999D01*
X85576918Y-174897000D01*
X85576919Y-174897000D01*
X85783082Y-174897000D01*
X85783083Y-174896999D01*
X85985282Y-174856780D01*
X86175751Y-174777885D01*
X86347169Y-174663347D01*
X86492947Y-174517569D01*
X86607485Y-174346151D01*
X86686380Y-174155682D01*
X86726600Y-173953481D01*
X86726600Y-173137719D01*
X86726599Y-173137714D01*
X93273400Y-173137714D01*
X93273400Y-173953485D01*
X93313618Y-174155674D01*
X93313620Y-174155682D01*
X93392513Y-174346148D01*
X93392518Y-174346157D01*
X93507052Y-174517568D01*
X93507055Y-174517572D01*
X93652827Y-174663344D01*
X93652831Y-174663347D01*
X93824242Y-174777881D01*
X93824248Y-174777884D01*
X93824249Y-174777885D01*
X94014718Y-174856780D01*
X94216914Y-174896999D01*
X94216918Y-174897000D01*
X94216919Y-174897000D01*
X94423082Y-174897000D01*
X94423083Y-174896999D01*
X94625282Y-174856780D01*
X94815751Y-174777885D01*
X94987169Y-174663347D01*
X95132947Y-174517569D01*
X95247485Y-174346151D01*
X95326380Y-174155682D01*
X95366600Y-173953481D01*
X95366600Y-173137719D01*
X95326380Y-172935518D01*
X95247485Y-172745049D01*
X95247484Y-172745048D01*
X95247481Y-172745042D01*
X95132947Y-172573631D01*
X95132944Y-172573627D01*
X94987172Y-172427855D01*
X94987168Y-172427852D01*
X94815757Y-172313318D01*
X94815748Y-172313313D01*
X94625282Y-172234420D01*
X94625274Y-172234418D01*
X94423085Y-172194200D01*
X94423081Y-172194200D01*
X94216919Y-172194200D01*
X94216914Y-172194200D01*
X94014725Y-172234418D01*
X94014717Y-172234420D01*
X93824251Y-172313313D01*
X93824242Y-172313318D01*
X93652831Y-172427852D01*
X93652827Y-172427855D01*
X93507055Y-172573627D01*
X93507052Y-172573631D01*
X93392518Y-172745042D01*
X93392513Y-172745051D01*
X93313620Y-172935517D01*
X93313618Y-172935525D01*
X93273400Y-173137714D01*
X86726599Y-173137714D01*
X86686380Y-172935518D01*
X86607485Y-172745049D01*
X86607484Y-172745048D01*
X86607481Y-172745042D01*
X86492947Y-172573631D01*
X86492944Y-172573627D01*
X86347172Y-172427855D01*
X86347168Y-172427852D01*
X86175757Y-172313318D01*
X86175748Y-172313313D01*
X85985282Y-172234420D01*
X85985274Y-172234418D01*
X85783085Y-172194200D01*
X85783081Y-172194200D01*
X85576919Y-172194200D01*
X85576914Y-172194200D01*
X85374725Y-172234418D01*
X85374717Y-172234420D01*
X85184251Y-172313313D01*
X85184242Y-172313318D01*
X85012831Y-172427852D01*
X85012827Y-172427855D01*
X84867055Y-172573627D01*
X84867052Y-172573631D01*
X84752518Y-172745042D01*
X84752513Y-172745051D01*
X84673620Y-172935517D01*
X84673618Y-172935525D01*
X84633400Y-173137714D01*
X32881500Y-173137714D01*
X32881500Y-167921153D01*
X83699500Y-167921153D01*
X83699500Y-168078846D01*
X83730261Y-168233489D01*
X83730264Y-168233501D01*
X83790602Y-168379172D01*
X83790609Y-168379185D01*
X83878210Y-168510288D01*
X83878213Y-168510292D01*
X83989707Y-168621786D01*
X83989711Y-168621789D01*
X84120814Y-168709390D01*
X84120827Y-168709397D01*
X84266498Y-168769735D01*
X84266503Y-168769737D01*
X84421153Y-168800499D01*
X84421156Y-168800500D01*
X84421158Y-168800500D01*
X84578844Y-168800500D01*
X84578845Y-168800499D01*
X84733497Y-168769737D01*
X84879179Y-168709394D01*
X85010289Y-168621789D01*
X85121789Y-168510289D01*
X85209394Y-168379179D01*
X85269737Y-168233497D01*
X85300500Y-168078842D01*
X85300500Y-167921158D01*
X85300500Y-167921155D01*
X85300499Y-167921153D01*
X94699500Y-167921153D01*
X94699500Y-168078846D01*
X94730261Y-168233489D01*
X94730264Y-168233501D01*
X94790602Y-168379172D01*
X94790609Y-168379185D01*
X94878210Y-168510288D01*
X94878213Y-168510292D01*
X94989707Y-168621786D01*
X94989711Y-168621789D01*
X95120814Y-168709390D01*
X95120827Y-168709397D01*
X95266498Y-168769735D01*
X95266503Y-168769737D01*
X95421153Y-168800499D01*
X95421156Y-168800500D01*
X95421158Y-168800500D01*
X95578844Y-168800500D01*
X95578845Y-168800499D01*
X95733497Y-168769737D01*
X95879179Y-168709394D01*
X96010289Y-168621789D01*
X96121789Y-168510289D01*
X96209394Y-168379179D01*
X96269737Y-168233497D01*
X96300500Y-168078842D01*
X96300500Y-167921158D01*
X96300500Y-167921155D01*
X96300499Y-167921153D01*
X96269738Y-167766510D01*
X96269737Y-167766503D01*
X96269735Y-167766498D01*
X96209397Y-167620827D01*
X96209390Y-167620814D01*
X96121789Y-167489711D01*
X96121786Y-167489707D01*
X96010292Y-167378213D01*
X96010288Y-167378210D01*
X95879185Y-167290609D01*
X95879172Y-167290602D01*
X95733501Y-167230264D01*
X95733489Y-167230261D01*
X95578845Y-167199500D01*
X95578842Y-167199500D01*
X95421158Y-167199500D01*
X95421155Y-167199500D01*
X95266510Y-167230261D01*
X95266498Y-167230264D01*
X95120827Y-167290602D01*
X95120814Y-167290609D01*
X94989711Y-167378210D01*
X94989707Y-167378213D01*
X94878213Y-167489707D01*
X94878210Y-167489711D01*
X94790609Y-167620814D01*
X94790602Y-167620827D01*
X94730264Y-167766498D01*
X94730261Y-167766510D01*
X94699500Y-167921153D01*
X85300499Y-167921153D01*
X85269738Y-167766510D01*
X85269737Y-167766503D01*
X85269735Y-167766498D01*
X85209397Y-167620827D01*
X85209390Y-167620814D01*
X85121789Y-167489711D01*
X85121786Y-167489707D01*
X85010292Y-167378213D01*
X85010288Y-167378210D01*
X84879185Y-167290609D01*
X84879172Y-167290602D01*
X84733501Y-167230264D01*
X84733489Y-167230261D01*
X84578845Y-167199500D01*
X84578842Y-167199500D01*
X84421158Y-167199500D01*
X84421155Y-167199500D01*
X84266510Y-167230261D01*
X84266498Y-167230264D01*
X84120827Y-167290602D01*
X84120814Y-167290609D01*
X83989711Y-167378210D01*
X83989707Y-167378213D01*
X83878213Y-167489707D01*
X83878210Y-167489711D01*
X83790609Y-167620814D01*
X83790602Y-167620827D01*
X83730264Y-167766498D01*
X83730261Y-167766510D01*
X83699500Y-167921153D01*
X32881500Y-167921153D01*
X32881500Y-159828031D01*
X45249500Y-159828031D01*
X45249500Y-160171969D01*
X45255559Y-160233489D01*
X45283210Y-160514249D01*
X45350308Y-160851572D01*
X45450150Y-161180706D01*
X45581770Y-161498464D01*
X45581772Y-161498469D01*
X45743893Y-161801775D01*
X45743904Y-161801793D01*
X45934975Y-162087751D01*
X45934985Y-162087765D01*
X46153176Y-162353632D01*
X46396367Y-162596823D01*
X46396372Y-162596827D01*
X46396373Y-162596828D01*
X46662240Y-162815019D01*
X46948213Y-163006100D01*
X46948222Y-163006105D01*
X46948224Y-163006106D01*
X47251530Y-163168227D01*
X47251532Y-163168227D01*
X47251538Y-163168231D01*
X47569295Y-163299850D01*
X47898422Y-163399690D01*
X48235750Y-163466789D01*
X48578031Y-163500500D01*
X48578034Y-163500500D01*
X48921966Y-163500500D01*
X48921969Y-163500500D01*
X49264250Y-163466789D01*
X49601578Y-163399690D01*
X49930705Y-163299850D01*
X50248462Y-163168231D01*
X50551787Y-163006100D01*
X50837760Y-162815019D01*
X51103627Y-162596828D01*
X51346828Y-162353627D01*
X51565019Y-162087760D01*
X51676342Y-161921153D01*
X118133300Y-161921153D01*
X118133300Y-162078846D01*
X118164061Y-162233489D01*
X118164064Y-162233501D01*
X118224402Y-162379172D01*
X118224409Y-162379185D01*
X118312010Y-162510288D01*
X118312013Y-162510292D01*
X118423507Y-162621786D01*
X118423511Y-162621789D01*
X118554614Y-162709390D01*
X118554627Y-162709397D01*
X118700298Y-162769735D01*
X118700303Y-162769737D01*
X118854953Y-162800499D01*
X118854956Y-162800500D01*
X118854958Y-162800500D01*
X119012644Y-162800500D01*
X119012645Y-162800499D01*
X119167297Y-162769737D01*
X119312979Y-162709394D01*
X119444089Y-162621789D01*
X119555589Y-162510289D01*
X119643194Y-162379179D01*
X119703537Y-162233497D01*
X119734300Y-162078842D01*
X119734300Y-161921158D01*
X119734300Y-161921155D01*
X119734299Y-161921153D01*
X119703537Y-161766503D01*
X119643594Y-161621786D01*
X119643197Y-161620827D01*
X119643190Y-161620814D01*
X119555589Y-161489711D01*
X119555586Y-161489707D01*
X119444092Y-161378213D01*
X119444088Y-161378210D01*
X119312985Y-161290609D01*
X119312972Y-161290602D01*
X119167301Y-161230264D01*
X119167289Y-161230261D01*
X119012645Y-161199500D01*
X119012642Y-161199500D01*
X118854958Y-161199500D01*
X118854955Y-161199500D01*
X118700310Y-161230261D01*
X118700298Y-161230264D01*
X118554627Y-161290602D01*
X118554614Y-161290609D01*
X118423511Y-161378210D01*
X118423507Y-161378213D01*
X118312013Y-161489707D01*
X118312010Y-161489711D01*
X118224409Y-161620814D01*
X118224402Y-161620827D01*
X118164064Y-161766498D01*
X118164061Y-161766510D01*
X118133300Y-161921153D01*
X51676342Y-161921153D01*
X51756100Y-161801787D01*
X51918231Y-161498462D01*
X52049850Y-161180705D01*
X52128585Y-160921153D01*
X107699500Y-160921153D01*
X107699500Y-161078846D01*
X107730261Y-161233489D01*
X107730264Y-161233501D01*
X107790602Y-161379172D01*
X107790609Y-161379185D01*
X107878210Y-161510288D01*
X107878213Y-161510292D01*
X107989707Y-161621786D01*
X107989711Y-161621789D01*
X108120814Y-161709390D01*
X108120827Y-161709397D01*
X108258683Y-161766498D01*
X108266503Y-161769737D01*
X108421153Y-161800499D01*
X108421156Y-161800500D01*
X108421158Y-161800500D01*
X108578844Y-161800500D01*
X108578845Y-161800499D01*
X108589179Y-161798443D01*
X108614287Y-161793450D01*
X108614292Y-161793449D01*
X108699800Y-161776439D01*
X108733497Y-161769737D01*
X108879179Y-161709394D01*
X109010289Y-161621789D01*
X109121789Y-161510289D01*
X109209394Y-161379179D01*
X109269737Y-161233497D01*
X109300500Y-161078842D01*
X109300500Y-160921158D01*
X109300500Y-160921155D01*
X109300499Y-160921153D01*
X109292128Y-160879069D01*
X109269737Y-160766503D01*
X109246080Y-160709390D01*
X109209397Y-160620827D01*
X109209390Y-160620814D01*
X109121789Y-160489711D01*
X109121786Y-160489707D01*
X109010292Y-160378213D01*
X109010288Y-160378210D01*
X108924897Y-160321153D01*
X115233299Y-160321153D01*
X115233299Y-160478846D01*
X115264060Y-160633489D01*
X115264063Y-160633501D01*
X115324401Y-160779172D01*
X115324408Y-160779185D01*
X115412009Y-160910288D01*
X115412012Y-160910292D01*
X115523506Y-161021786D01*
X115523510Y-161021789D01*
X115654613Y-161109390D01*
X115654626Y-161109397D01*
X115800297Y-161169735D01*
X115800302Y-161169737D01*
X115949930Y-161199500D01*
X115954952Y-161200499D01*
X115954955Y-161200500D01*
X115954957Y-161200500D01*
X116112643Y-161200500D01*
X116112644Y-161200499D01*
X116267296Y-161169737D01*
X116412978Y-161109394D01*
X116544088Y-161021789D01*
X116655588Y-160910289D01*
X116743193Y-160779179D01*
X116803536Y-160633497D01*
X116834299Y-160478842D01*
X116834299Y-160321158D01*
X116834299Y-160321155D01*
X116834298Y-160321153D01*
X116816218Y-160230261D01*
X116803536Y-160166503D01*
X116767226Y-160078842D01*
X116743196Y-160020827D01*
X116743189Y-160020814D01*
X116718562Y-159983957D01*
X116676597Y-159921153D01*
X119199500Y-159921153D01*
X119199500Y-160078846D01*
X119230261Y-160233489D01*
X119230264Y-160233501D01*
X119290602Y-160379172D01*
X119290609Y-160379185D01*
X119378210Y-160510288D01*
X119378213Y-160510292D01*
X119489707Y-160621786D01*
X119489711Y-160621789D01*
X119620814Y-160709390D01*
X119620827Y-160709397D01*
X119758683Y-160766498D01*
X119766503Y-160769737D01*
X119921153Y-160800499D01*
X119921156Y-160800500D01*
X119921158Y-160800500D01*
X120078844Y-160800500D01*
X120078845Y-160800499D01*
X120233497Y-160769737D01*
X120379179Y-160709394D01*
X120510289Y-160621789D01*
X120621789Y-160510289D01*
X120709394Y-160379179D01*
X120769737Y-160233497D01*
X120800500Y-160078842D01*
X120800500Y-159921158D01*
X120800500Y-159921155D01*
X120800499Y-159921153D01*
X120786183Y-159849178D01*
X120781976Y-159828031D01*
X127749500Y-159828031D01*
X127749500Y-160171969D01*
X127755559Y-160233489D01*
X127783210Y-160514249D01*
X127850308Y-160851572D01*
X127950150Y-161180706D01*
X128081770Y-161498464D01*
X128081772Y-161498469D01*
X128243893Y-161801775D01*
X128243904Y-161801793D01*
X128434975Y-162087751D01*
X128434985Y-162087765D01*
X128653176Y-162353632D01*
X128896367Y-162596823D01*
X128896372Y-162596827D01*
X128896373Y-162596828D01*
X129162240Y-162815019D01*
X129448213Y-163006100D01*
X129448222Y-163006105D01*
X129448224Y-163006106D01*
X129751530Y-163168227D01*
X129751532Y-163168227D01*
X129751538Y-163168231D01*
X130069295Y-163299850D01*
X130398422Y-163399690D01*
X130735750Y-163466789D01*
X131078031Y-163500500D01*
X131078034Y-163500500D01*
X131421966Y-163500500D01*
X131421969Y-163500500D01*
X131764250Y-163466789D01*
X132101578Y-163399690D01*
X132430705Y-163299850D01*
X132748462Y-163168231D01*
X133051787Y-163006100D01*
X133337760Y-162815019D01*
X133603627Y-162596828D01*
X133846828Y-162353627D01*
X134065019Y-162087760D01*
X134256100Y-161801787D01*
X134418231Y-161498462D01*
X134549850Y-161180705D01*
X134649690Y-160851578D01*
X134716789Y-160514250D01*
X134750500Y-160171969D01*
X134750500Y-159828031D01*
X134716789Y-159485750D01*
X134649690Y-159148422D01*
X134549850Y-158819295D01*
X134418231Y-158501538D01*
X134256100Y-158198213D01*
X134065019Y-157912240D01*
X133846828Y-157646373D01*
X133846827Y-157646372D01*
X133846823Y-157646367D01*
X133603632Y-157403176D01*
X133337765Y-157184985D01*
X133337764Y-157184984D01*
X133337760Y-157184981D01*
X133051787Y-156993900D01*
X133051782Y-156993897D01*
X133051775Y-156993893D01*
X132748469Y-156831772D01*
X132748464Y-156831770D01*
X132685349Y-156805627D01*
X132655394Y-156793219D01*
X132430706Y-156700150D01*
X132101572Y-156600308D01*
X131764248Y-156533210D01*
X131764249Y-156533210D01*
X131506456Y-156507821D01*
X131421969Y-156499500D01*
X131078031Y-156499500D01*
X130999966Y-156507188D01*
X130735750Y-156533210D01*
X130398427Y-156600308D01*
X130069293Y-156700150D01*
X129751535Y-156831770D01*
X129751530Y-156831772D01*
X129448224Y-156993893D01*
X129448206Y-156993904D01*
X129162248Y-157184975D01*
X129162234Y-157184985D01*
X128896367Y-157403176D01*
X128653176Y-157646367D01*
X128434985Y-157912234D01*
X128434975Y-157912248D01*
X128243904Y-158198206D01*
X128243893Y-158198224D01*
X128081772Y-158501530D01*
X128081770Y-158501535D01*
X127950150Y-158819293D01*
X127850308Y-159148427D01*
X127783210Y-159485750D01*
X127757188Y-159749966D01*
X127749500Y-159828031D01*
X120781976Y-159828031D01*
X120769738Y-159766508D01*
X120769737Y-159766507D01*
X120769737Y-159766503D01*
X120738298Y-159690602D01*
X120709397Y-159620827D01*
X120709390Y-159620814D01*
X120621789Y-159489711D01*
X120621786Y-159489707D01*
X120510292Y-159378213D01*
X120510288Y-159378210D01*
X120379185Y-159290609D01*
X120379172Y-159290602D01*
X120233501Y-159230264D01*
X120233489Y-159230261D01*
X120078845Y-159199500D01*
X120078842Y-159199500D01*
X119921158Y-159199500D01*
X119921155Y-159199500D01*
X119766510Y-159230261D01*
X119766498Y-159230264D01*
X119620827Y-159290602D01*
X119620814Y-159290609D01*
X119489711Y-159378210D01*
X119489707Y-159378213D01*
X119378213Y-159489707D01*
X119378210Y-159489711D01*
X119290609Y-159620814D01*
X119290602Y-159620827D01*
X119230264Y-159766498D01*
X119230261Y-159766510D01*
X119199500Y-159921153D01*
X116676597Y-159921153D01*
X116655588Y-159889711D01*
X116655585Y-159889707D01*
X116544091Y-159778213D01*
X116544087Y-159778210D01*
X116412984Y-159690609D01*
X116412971Y-159690602D01*
X116267300Y-159630264D01*
X116267288Y-159630261D01*
X116112644Y-159599500D01*
X116112641Y-159599500D01*
X115954957Y-159599500D01*
X115954954Y-159599500D01*
X115800309Y-159630261D01*
X115800297Y-159630264D01*
X115654626Y-159690602D01*
X115654613Y-159690609D01*
X115523510Y-159778210D01*
X115523506Y-159778213D01*
X115412012Y-159889707D01*
X115412009Y-159889711D01*
X115324408Y-160020814D01*
X115324401Y-160020827D01*
X115264063Y-160166498D01*
X115264060Y-160166510D01*
X115233299Y-160321153D01*
X108924897Y-160321153D01*
X108879185Y-160290609D01*
X108879172Y-160290602D01*
X108733501Y-160230264D01*
X108733489Y-160230261D01*
X108578845Y-160199500D01*
X108578842Y-160199500D01*
X108421158Y-160199500D01*
X108421155Y-160199500D01*
X108266510Y-160230261D01*
X108266498Y-160230264D01*
X108120827Y-160290602D01*
X108120814Y-160290609D01*
X107989711Y-160378210D01*
X107989707Y-160378213D01*
X107878213Y-160489707D01*
X107878210Y-160489711D01*
X107790609Y-160620814D01*
X107790602Y-160620827D01*
X107730264Y-160766498D01*
X107730261Y-160766510D01*
X107699500Y-160921153D01*
X52128585Y-160921153D01*
X52149690Y-160851578D01*
X52216789Y-160514250D01*
X52250500Y-160171969D01*
X52250500Y-159828031D01*
X52216789Y-159485750D01*
X52149690Y-159148422D01*
X52049850Y-158819295D01*
X51918231Y-158501538D01*
X51756100Y-158198213D01*
X51565019Y-157912240D01*
X51346828Y-157646373D01*
X51346827Y-157646372D01*
X51346823Y-157646367D01*
X51103632Y-157403176D01*
X50837765Y-157184985D01*
X50837764Y-157184984D01*
X50837760Y-157184981D01*
X50551787Y-156993900D01*
X50551782Y-156993897D01*
X50551775Y-156993893D01*
X50248469Y-156831772D01*
X50248464Y-156831770D01*
X50248462Y-156831769D01*
X50099916Y-156770239D01*
X49930706Y-156700150D01*
X49920826Y-156697153D01*
X107975500Y-156697153D01*
X107975500Y-156854846D01*
X108006261Y-157009489D01*
X108006264Y-157009501D01*
X108066602Y-157155172D01*
X108066609Y-157155185D01*
X108154210Y-157286288D01*
X108154213Y-157286292D01*
X108265707Y-157397786D01*
X108265711Y-157397789D01*
X108396814Y-157485390D01*
X108396827Y-157485397D01*
X108542498Y-157545735D01*
X108542503Y-157545737D01*
X108697153Y-157576499D01*
X108697156Y-157576500D01*
X108697158Y-157576500D01*
X108854844Y-157576500D01*
X108854845Y-157576499D01*
X109009497Y-157545737D01*
X109155179Y-157485394D01*
X109286289Y-157397789D01*
X109397789Y-157286289D01*
X109485394Y-157155179D01*
X109545737Y-157009497D01*
X109576500Y-156854842D01*
X109576500Y-156697158D01*
X109576500Y-156697155D01*
X109576499Y-156697153D01*
X109545737Y-156542503D01*
X109527925Y-156499500D01*
X109485397Y-156396827D01*
X109485390Y-156396814D01*
X109397789Y-156265711D01*
X109397786Y-156265707D01*
X109286292Y-156154213D01*
X109286288Y-156154210D01*
X109155185Y-156066609D01*
X109155172Y-156066602D01*
X109009501Y-156006264D01*
X109009489Y-156006261D01*
X108854845Y-155975500D01*
X108854842Y-155975500D01*
X108697158Y-155975500D01*
X108697155Y-155975500D01*
X108542510Y-156006261D01*
X108542498Y-156006264D01*
X108396827Y-156066602D01*
X108396814Y-156066609D01*
X108265711Y-156154210D01*
X108265707Y-156154213D01*
X108154213Y-156265707D01*
X108154210Y-156265711D01*
X108066609Y-156396814D01*
X108066602Y-156396827D01*
X108006264Y-156542498D01*
X108006261Y-156542510D01*
X107975500Y-156697153D01*
X49920826Y-156697153D01*
X49601572Y-156600308D01*
X49264248Y-156533210D01*
X49264249Y-156533210D01*
X49006456Y-156507821D01*
X48921969Y-156499500D01*
X48578031Y-156499500D01*
X48499966Y-156507188D01*
X48235750Y-156533210D01*
X47898427Y-156600308D01*
X47569293Y-156700150D01*
X47251535Y-156831770D01*
X47251530Y-156831772D01*
X46948224Y-156993893D01*
X46948206Y-156993904D01*
X46662248Y-157184975D01*
X46662234Y-157184985D01*
X46396367Y-157403176D01*
X46153176Y-157646367D01*
X45934985Y-157912234D01*
X45934975Y-157912248D01*
X45743904Y-158198206D01*
X45743893Y-158198224D01*
X45581772Y-158501530D01*
X45581770Y-158501535D01*
X45450150Y-158819293D01*
X45350308Y-159148427D01*
X45283210Y-159485750D01*
X45257188Y-159749966D01*
X45249500Y-159828031D01*
X32881500Y-159828031D01*
X32881500Y-152921153D01*
X97199500Y-152921153D01*
X97199500Y-153078846D01*
X97230261Y-153233489D01*
X97230264Y-153233501D01*
X97290602Y-153379172D01*
X97290609Y-153379185D01*
X97378210Y-153510288D01*
X97378213Y-153510292D01*
X97489707Y-153621786D01*
X97489711Y-153621789D01*
X97620814Y-153709390D01*
X97620827Y-153709397D01*
X97766498Y-153769735D01*
X97766503Y-153769737D01*
X97921153Y-153800499D01*
X97921156Y-153800500D01*
X97921158Y-153800500D01*
X98078844Y-153800500D01*
X98078845Y-153800499D01*
X98233497Y-153769737D01*
X98379179Y-153709394D01*
X98510289Y-153621789D01*
X98621789Y-153510289D01*
X98709394Y-153379179D01*
X98769737Y-153233497D01*
X98800500Y-153078842D01*
X98800500Y-152921158D01*
X98800500Y-152921155D01*
X98800499Y-152921153D01*
X108699500Y-152921153D01*
X108699500Y-153078846D01*
X108730261Y-153233489D01*
X108730264Y-153233501D01*
X108790602Y-153379172D01*
X108790609Y-153379185D01*
X108878210Y-153510288D01*
X108878213Y-153510292D01*
X108989707Y-153621786D01*
X108989711Y-153621789D01*
X109120814Y-153709390D01*
X109120827Y-153709397D01*
X109266498Y-153769735D01*
X109266503Y-153769737D01*
X109421153Y-153800499D01*
X109421156Y-153800500D01*
X109421158Y-153800500D01*
X109578844Y-153800500D01*
X109578845Y-153800499D01*
X109733497Y-153769737D01*
X109879179Y-153709394D01*
X110010289Y-153621789D01*
X110121789Y-153510289D01*
X110209394Y-153379179D01*
X110269737Y-153233497D01*
X110300500Y-153078842D01*
X110300500Y-152921158D01*
X110300500Y-152921155D01*
X110300499Y-152921153D01*
X110269738Y-152766510D01*
X110269737Y-152766503D01*
X110269735Y-152766498D01*
X110209397Y-152620827D01*
X110209390Y-152620814D01*
X110121789Y-152489711D01*
X110121786Y-152489707D01*
X110010292Y-152378213D01*
X110010288Y-152378210D01*
X109879185Y-152290609D01*
X109879172Y-152290602D01*
X109733501Y-152230264D01*
X109733489Y-152230261D01*
X109578845Y-152199500D01*
X109578842Y-152199500D01*
X109421158Y-152199500D01*
X109421155Y-152199500D01*
X109266510Y-152230261D01*
X109266498Y-152230264D01*
X109120827Y-152290602D01*
X109120814Y-152290609D01*
X108989711Y-152378210D01*
X108989707Y-152378213D01*
X108878213Y-152489707D01*
X108878210Y-152489711D01*
X108790609Y-152620814D01*
X108790602Y-152620827D01*
X108730264Y-152766498D01*
X108730261Y-152766510D01*
X108699500Y-152921153D01*
X98800499Y-152921153D01*
X98769738Y-152766510D01*
X98769737Y-152766503D01*
X98769735Y-152766498D01*
X98709397Y-152620827D01*
X98709390Y-152620814D01*
X98621789Y-152489711D01*
X98621786Y-152489707D01*
X98510292Y-152378213D01*
X98510288Y-152378210D01*
X98379185Y-152290609D01*
X98379172Y-152290602D01*
X98233501Y-152230264D01*
X98233489Y-152230261D01*
X98078845Y-152199500D01*
X98078842Y-152199500D01*
X97921158Y-152199500D01*
X97921155Y-152199500D01*
X97766510Y-152230261D01*
X97766498Y-152230264D01*
X97620827Y-152290602D01*
X97620814Y-152290609D01*
X97489711Y-152378210D01*
X97489707Y-152378213D01*
X97378213Y-152489707D01*
X97378210Y-152489711D01*
X97290609Y-152620814D01*
X97290602Y-152620827D01*
X97230264Y-152766498D01*
X97230261Y-152766510D01*
X97199500Y-152921153D01*
X32881500Y-152921153D01*
X32881500Y-150321153D01*
X78999500Y-150321153D01*
X78999500Y-150478846D01*
X79030261Y-150633489D01*
X79030264Y-150633501D01*
X79090602Y-150779172D01*
X79090609Y-150779185D01*
X79178210Y-150910288D01*
X79178213Y-150910292D01*
X79289707Y-151021786D01*
X79289711Y-151021789D01*
X79420814Y-151109390D01*
X79420827Y-151109397D01*
X79566498Y-151169735D01*
X79566503Y-151169737D01*
X79721153Y-151200499D01*
X79721156Y-151200500D01*
X79721158Y-151200500D01*
X79878844Y-151200500D01*
X79878845Y-151200499D01*
X80033497Y-151169737D01*
X80179179Y-151109394D01*
X80310289Y-151021789D01*
X80421789Y-150910289D01*
X80509394Y-150779179D01*
X80569737Y-150633497D01*
X80600500Y-150478842D01*
X80600500Y-150321158D01*
X80600500Y-150321155D01*
X80600499Y-150321153D01*
X80569738Y-150166510D01*
X80569737Y-150166503D01*
X80569735Y-150166498D01*
X80509397Y-150020827D01*
X80509390Y-150020814D01*
X80421789Y-149889711D01*
X80421786Y-149889707D01*
X80310292Y-149778213D01*
X80310288Y-149778210D01*
X80179185Y-149690609D01*
X80179172Y-149690602D01*
X80033501Y-149630264D01*
X80033489Y-149630261D01*
X79878845Y-149599500D01*
X79878842Y-149599500D01*
X79721158Y-149599500D01*
X79721155Y-149599500D01*
X79566510Y-149630261D01*
X79566498Y-149630264D01*
X79420827Y-149690602D01*
X79420814Y-149690609D01*
X79289711Y-149778210D01*
X79289707Y-149778213D01*
X79178213Y-149889707D01*
X79178210Y-149889711D01*
X79090609Y-150020814D01*
X79090602Y-150020827D01*
X79030264Y-150166498D01*
X79030261Y-150166510D01*
X78999500Y-150321153D01*
X32881500Y-150321153D01*
X32881500Y-148321153D01*
X100599500Y-148321153D01*
X100599500Y-148478846D01*
X100630261Y-148633489D01*
X100630264Y-148633501D01*
X100690602Y-148779172D01*
X100690609Y-148779185D01*
X100778210Y-148910288D01*
X100778213Y-148910292D01*
X100889707Y-149021786D01*
X100889711Y-149021789D01*
X101020814Y-149109390D01*
X101020827Y-149109397D01*
X101166498Y-149169735D01*
X101166503Y-149169737D01*
X101321153Y-149200499D01*
X101321156Y-149200500D01*
X101321158Y-149200500D01*
X101478844Y-149200500D01*
X101478845Y-149200499D01*
X101633497Y-149169737D01*
X101779179Y-149109394D01*
X101910289Y-149021789D01*
X102021789Y-148910289D01*
X102109394Y-148779179D01*
X102169737Y-148633497D01*
X102172192Y-148621153D01*
X104499500Y-148621153D01*
X104499500Y-148778846D01*
X104530261Y-148933489D01*
X104530264Y-148933501D01*
X104590602Y-149079172D01*
X104590609Y-149079185D01*
X104678210Y-149210288D01*
X104678213Y-149210292D01*
X104789707Y-149321786D01*
X104789711Y-149321789D01*
X104920814Y-149409390D01*
X104920827Y-149409397D01*
X105066498Y-149469735D01*
X105066503Y-149469737D01*
X105221153Y-149500499D01*
X105221156Y-149500500D01*
X105221158Y-149500500D01*
X105378844Y-149500500D01*
X105378845Y-149500499D01*
X105533497Y-149469737D01*
X105679179Y-149409394D01*
X105810289Y-149321789D01*
X105921789Y-149210289D01*
X106009394Y-149079179D01*
X106069737Y-148933497D01*
X106100500Y-148778842D01*
X106100500Y-148621158D01*
X106100500Y-148621155D01*
X106100499Y-148621153D01*
X106072192Y-148478846D01*
X106069737Y-148466503D01*
X106009534Y-148321158D01*
X106009397Y-148320827D01*
X106009390Y-148320814D01*
X105921789Y-148189711D01*
X105921786Y-148189707D01*
X105810292Y-148078213D01*
X105810288Y-148078210D01*
X105679185Y-147990609D01*
X105679172Y-147990602D01*
X105533501Y-147930264D01*
X105533489Y-147930261D01*
X105378845Y-147899500D01*
X105378842Y-147899500D01*
X105221158Y-147899500D01*
X105221155Y-147899500D01*
X105066510Y-147930261D01*
X105066498Y-147930264D01*
X104920827Y-147990602D01*
X104920814Y-147990609D01*
X104789711Y-148078210D01*
X104789707Y-148078213D01*
X104678213Y-148189707D01*
X104678210Y-148189711D01*
X104590609Y-148320814D01*
X104590602Y-148320827D01*
X104530264Y-148466498D01*
X104530261Y-148466510D01*
X104499500Y-148621153D01*
X102172192Y-148621153D01*
X102178216Y-148590874D01*
X102178216Y-148590873D01*
X102200499Y-148478846D01*
X102200500Y-148478844D01*
X102200500Y-148321155D01*
X102200499Y-148321153D01*
X102174353Y-148189711D01*
X102169737Y-148166503D01*
X102169735Y-148166498D01*
X102109397Y-148020827D01*
X102109390Y-148020814D01*
X102021789Y-147889711D01*
X102021786Y-147889707D01*
X101910292Y-147778213D01*
X101910288Y-147778210D01*
X101779185Y-147690609D01*
X101779172Y-147690602D01*
X101633501Y-147630264D01*
X101633489Y-147630261D01*
X101478845Y-147599500D01*
X101478842Y-147599500D01*
X101321158Y-147599500D01*
X101321155Y-147599500D01*
X101166510Y-147630261D01*
X101166498Y-147630264D01*
X101020827Y-147690602D01*
X101020814Y-147690609D01*
X100889711Y-147778210D01*
X100889707Y-147778213D01*
X100778213Y-147889707D01*
X100778210Y-147889711D01*
X100690609Y-148020814D01*
X100690602Y-148020827D01*
X100630264Y-148166498D01*
X100630261Y-148166510D01*
X100599500Y-148321153D01*
X32881500Y-148321153D01*
X32881500Y-146921153D01*
X42699500Y-146921153D01*
X42699500Y-147078846D01*
X42730261Y-147233489D01*
X42730264Y-147233501D01*
X42790602Y-147379172D01*
X42790609Y-147379185D01*
X42878210Y-147510288D01*
X42878213Y-147510292D01*
X42989707Y-147621786D01*
X42989711Y-147621789D01*
X43120814Y-147709390D01*
X43120827Y-147709397D01*
X43266498Y-147769735D01*
X43266503Y-147769737D01*
X43421153Y-147800499D01*
X43421156Y-147800500D01*
X43421158Y-147800500D01*
X43578844Y-147800500D01*
X43578845Y-147800499D01*
X43733497Y-147769737D01*
X43879179Y-147709394D01*
X44010289Y-147621789D01*
X44121789Y-147510289D01*
X44209394Y-147379179D01*
X44269737Y-147233497D01*
X44300500Y-147078842D01*
X44300500Y-146921158D01*
X44300500Y-146921155D01*
X44300499Y-146921153D01*
X57199500Y-146921153D01*
X57199500Y-147078846D01*
X57230261Y-147233489D01*
X57230264Y-147233501D01*
X57290602Y-147379172D01*
X57290609Y-147379185D01*
X57378210Y-147510288D01*
X57378213Y-147510292D01*
X57489707Y-147621786D01*
X57489711Y-147621789D01*
X57620814Y-147709390D01*
X57620827Y-147709397D01*
X57766498Y-147769735D01*
X57766503Y-147769737D01*
X57921153Y-147800499D01*
X57921156Y-147800500D01*
X57921158Y-147800500D01*
X58078844Y-147800500D01*
X58078845Y-147800499D01*
X58233497Y-147769737D01*
X58379179Y-147709394D01*
X58510289Y-147621789D01*
X58621789Y-147510289D01*
X58709394Y-147379179D01*
X58769737Y-147233497D01*
X58800500Y-147078842D01*
X58800500Y-146921158D01*
X58800500Y-146921155D01*
X58800499Y-146921153D01*
X111699500Y-146921153D01*
X111699500Y-147078846D01*
X111730261Y-147233489D01*
X111730264Y-147233501D01*
X111790602Y-147379172D01*
X111790609Y-147379185D01*
X111878210Y-147510288D01*
X111878213Y-147510292D01*
X111989707Y-147621786D01*
X111989711Y-147621789D01*
X112120814Y-147709390D01*
X112120827Y-147709397D01*
X112266498Y-147769735D01*
X112266503Y-147769737D01*
X112421153Y-147800499D01*
X112421156Y-147800500D01*
X112421158Y-147800500D01*
X112578844Y-147800500D01*
X112578845Y-147800499D01*
X112733497Y-147769737D01*
X112879179Y-147709394D01*
X113010289Y-147621789D01*
X113121789Y-147510289D01*
X113209394Y-147379179D01*
X113269737Y-147233497D01*
X113300500Y-147078842D01*
X113300500Y-146921158D01*
X113300500Y-146921155D01*
X113300499Y-146921153D01*
X144699500Y-146921153D01*
X144699500Y-147078846D01*
X144730261Y-147233489D01*
X144730264Y-147233501D01*
X144790602Y-147379172D01*
X144790609Y-147379185D01*
X144878210Y-147510288D01*
X144878213Y-147510292D01*
X144989707Y-147621786D01*
X144989711Y-147621789D01*
X145120814Y-147709390D01*
X145120827Y-147709397D01*
X145266498Y-147769735D01*
X145266503Y-147769737D01*
X145421153Y-147800499D01*
X145421156Y-147800500D01*
X145421158Y-147800500D01*
X145578844Y-147800500D01*
X145578845Y-147800499D01*
X145733497Y-147769737D01*
X145879179Y-147709394D01*
X146010289Y-147621789D01*
X146121789Y-147510289D01*
X146209394Y-147379179D01*
X146269737Y-147233497D01*
X146300500Y-147078842D01*
X146300500Y-146921158D01*
X146300500Y-146921155D01*
X146300499Y-146921153D01*
X146269738Y-146766510D01*
X146269737Y-146766503D01*
X146209794Y-146621786D01*
X146209397Y-146620827D01*
X146209390Y-146620814D01*
X146121789Y-146489711D01*
X146121786Y-146489707D01*
X146010292Y-146378213D01*
X146010288Y-146378210D01*
X145879185Y-146290609D01*
X145879172Y-146290602D01*
X145733501Y-146230264D01*
X145733489Y-146230261D01*
X145578845Y-146199500D01*
X145578842Y-146199500D01*
X145421158Y-146199500D01*
X145421155Y-146199500D01*
X145266510Y-146230261D01*
X145266498Y-146230264D01*
X145120827Y-146290602D01*
X145120814Y-146290609D01*
X144989711Y-146378210D01*
X144989707Y-146378213D01*
X144878213Y-146489707D01*
X144878210Y-146489711D01*
X144790609Y-146620814D01*
X144790602Y-146620827D01*
X144730264Y-146766498D01*
X144730261Y-146766510D01*
X144699500Y-146921153D01*
X113300499Y-146921153D01*
X113269738Y-146766510D01*
X113269737Y-146766503D01*
X113209794Y-146621786D01*
X113209397Y-146620827D01*
X113209390Y-146620814D01*
X113121789Y-146489711D01*
X113121786Y-146489707D01*
X113010292Y-146378213D01*
X113010288Y-146378210D01*
X112879185Y-146290609D01*
X112879172Y-146290602D01*
X112733501Y-146230264D01*
X112733489Y-146230261D01*
X112578845Y-146199500D01*
X112578842Y-146199500D01*
X112421158Y-146199500D01*
X112421155Y-146199500D01*
X112266510Y-146230261D01*
X112266498Y-146230264D01*
X112120827Y-146290602D01*
X112120814Y-146290609D01*
X111989711Y-146378210D01*
X111989707Y-146378213D01*
X111878213Y-146489707D01*
X111878210Y-146489711D01*
X111790609Y-146620814D01*
X111790602Y-146620827D01*
X111730264Y-146766498D01*
X111730261Y-146766510D01*
X111699500Y-146921153D01*
X58800499Y-146921153D01*
X58769738Y-146766510D01*
X58769737Y-146766503D01*
X58709794Y-146621786D01*
X58709397Y-146620827D01*
X58709390Y-146620814D01*
X58621789Y-146489711D01*
X58621786Y-146489707D01*
X58510292Y-146378213D01*
X58510288Y-146378210D01*
X58379185Y-146290609D01*
X58379172Y-146290602D01*
X58233501Y-146230264D01*
X58233489Y-146230261D01*
X58078845Y-146199500D01*
X58078842Y-146199500D01*
X57921158Y-146199500D01*
X57921155Y-146199500D01*
X57766510Y-146230261D01*
X57766498Y-146230264D01*
X57620827Y-146290602D01*
X57620814Y-146290609D01*
X57489711Y-146378210D01*
X57489707Y-146378213D01*
X57378213Y-146489707D01*
X57378210Y-146489711D01*
X57290609Y-146620814D01*
X57290602Y-146620827D01*
X57230264Y-146766498D01*
X57230261Y-146766510D01*
X57199500Y-146921153D01*
X44300499Y-146921153D01*
X44269738Y-146766510D01*
X44269737Y-146766503D01*
X44209794Y-146621786D01*
X44209397Y-146620827D01*
X44209390Y-146620814D01*
X44121789Y-146489711D01*
X44121786Y-146489707D01*
X44010292Y-146378213D01*
X44010288Y-146378210D01*
X43879185Y-146290609D01*
X43879172Y-146290602D01*
X43733501Y-146230264D01*
X43733489Y-146230261D01*
X43578845Y-146199500D01*
X43578842Y-146199500D01*
X43421158Y-146199500D01*
X43421155Y-146199500D01*
X43266510Y-146230261D01*
X43266498Y-146230264D01*
X43120827Y-146290602D01*
X43120814Y-146290609D01*
X42989711Y-146378210D01*
X42989707Y-146378213D01*
X42878213Y-146489707D01*
X42878210Y-146489711D01*
X42790609Y-146620814D01*
X42790602Y-146620827D01*
X42730264Y-146766498D01*
X42730261Y-146766510D01*
X42699500Y-146921153D01*
X32881500Y-146921153D01*
X32881500Y-145421153D01*
X35699500Y-145421153D01*
X35699500Y-145578846D01*
X35730261Y-145733489D01*
X35730264Y-145733501D01*
X35790602Y-145879172D01*
X35790609Y-145879185D01*
X35878210Y-146010288D01*
X35878213Y-146010292D01*
X35989707Y-146121786D01*
X35989711Y-146121789D01*
X36120814Y-146209390D01*
X36120827Y-146209397D01*
X36266498Y-146269735D01*
X36266503Y-146269737D01*
X36421153Y-146300499D01*
X36421156Y-146300500D01*
X36421158Y-146300500D01*
X36578844Y-146300500D01*
X36578845Y-146300499D01*
X36733497Y-146269737D01*
X36879179Y-146209394D01*
X37010289Y-146121789D01*
X37121789Y-146010289D01*
X37181348Y-145921153D01*
X40199500Y-145921153D01*
X40199500Y-146078846D01*
X40230261Y-146233489D01*
X40230264Y-146233501D01*
X40290602Y-146379172D01*
X40290609Y-146379185D01*
X40378210Y-146510288D01*
X40378213Y-146510292D01*
X40489707Y-146621786D01*
X40489711Y-146621789D01*
X40620814Y-146709390D01*
X40620827Y-146709397D01*
X40758683Y-146766498D01*
X40766503Y-146769737D01*
X40921153Y-146800499D01*
X40921156Y-146800500D01*
X40921158Y-146800500D01*
X41078844Y-146800500D01*
X41078845Y-146800499D01*
X41089179Y-146798443D01*
X41114287Y-146793450D01*
X41114292Y-146793449D01*
X41199800Y-146776439D01*
X41233497Y-146769737D01*
X41379179Y-146709394D01*
X41510289Y-146621789D01*
X41621789Y-146510289D01*
X41709394Y-146379179D01*
X41769737Y-146233497D01*
X41800500Y-146078842D01*
X41800500Y-145921158D01*
X41800500Y-145921155D01*
X41800499Y-145921153D01*
X46199500Y-145921153D01*
X46199500Y-146078846D01*
X46230261Y-146233489D01*
X46230264Y-146233501D01*
X46290602Y-146379172D01*
X46290609Y-146379185D01*
X46378210Y-146510288D01*
X46378213Y-146510292D01*
X46489707Y-146621786D01*
X46489711Y-146621789D01*
X46620814Y-146709390D01*
X46620827Y-146709397D01*
X46758683Y-146766498D01*
X46766503Y-146769737D01*
X46921153Y-146800499D01*
X46921156Y-146800500D01*
X46921158Y-146800500D01*
X47078844Y-146800500D01*
X47078845Y-146800499D01*
X47089179Y-146798443D01*
X47114287Y-146793450D01*
X47114292Y-146793449D01*
X47199800Y-146776439D01*
X47233497Y-146769737D01*
X47379179Y-146709394D01*
X47510289Y-146621789D01*
X47621789Y-146510289D01*
X47709394Y-146379179D01*
X47769737Y-146233497D01*
X47800500Y-146078842D01*
X47800500Y-145921158D01*
X47800500Y-145921155D01*
X47800499Y-145921153D01*
X113699500Y-145921153D01*
X113699500Y-146078846D01*
X113730261Y-146233489D01*
X113730264Y-146233501D01*
X113790602Y-146379172D01*
X113790609Y-146379185D01*
X113878210Y-146510288D01*
X113878213Y-146510292D01*
X113989707Y-146621786D01*
X113989711Y-146621789D01*
X114120814Y-146709390D01*
X114120827Y-146709397D01*
X114258683Y-146766498D01*
X114266503Y-146769737D01*
X114421153Y-146800499D01*
X114421156Y-146800500D01*
X114421158Y-146800500D01*
X114578844Y-146800500D01*
X114578845Y-146800499D01*
X114589179Y-146798443D01*
X114614287Y-146793450D01*
X114614292Y-146793449D01*
X114699800Y-146776439D01*
X114733497Y-146769737D01*
X114879179Y-146709394D01*
X115010289Y-146621789D01*
X115121789Y-146510289D01*
X115209394Y-146379179D01*
X115269737Y-146233497D01*
X115300500Y-146078842D01*
X115300500Y-145921158D01*
X115300500Y-145921155D01*
X115300499Y-145921153D01*
X115269738Y-145766510D01*
X115269737Y-145766503D01*
X115209794Y-145621786D01*
X115209397Y-145620827D01*
X115209390Y-145620814D01*
X115121789Y-145489711D01*
X115121786Y-145489707D01*
X115010292Y-145378213D01*
X115010288Y-145378210D01*
X114879185Y-145290609D01*
X114879172Y-145290602D01*
X114733501Y-145230264D01*
X114733489Y-145230261D01*
X114578845Y-145199500D01*
X114578842Y-145199500D01*
X114421158Y-145199500D01*
X114421155Y-145199500D01*
X114266510Y-145230261D01*
X114266498Y-145230264D01*
X114120827Y-145290602D01*
X114120814Y-145290609D01*
X113989711Y-145378210D01*
X113989707Y-145378213D01*
X113878213Y-145489707D01*
X113878210Y-145489711D01*
X113790609Y-145620814D01*
X113790602Y-145620827D01*
X113730264Y-145766498D01*
X113730261Y-145766510D01*
X113699500Y-145921153D01*
X47800499Y-145921153D01*
X47769738Y-145766510D01*
X47769737Y-145766503D01*
X47709794Y-145621786D01*
X47709397Y-145620827D01*
X47709390Y-145620814D01*
X47621789Y-145489711D01*
X47621786Y-145489707D01*
X47510292Y-145378213D01*
X47510288Y-145378210D01*
X47379185Y-145290609D01*
X47379172Y-145290602D01*
X47233501Y-145230264D01*
X47233489Y-145230261D01*
X47078845Y-145199500D01*
X47078842Y-145199500D01*
X46921158Y-145199500D01*
X46921155Y-145199500D01*
X46766510Y-145230261D01*
X46766498Y-145230264D01*
X46620827Y-145290602D01*
X46620814Y-145290609D01*
X46489711Y-145378210D01*
X46489707Y-145378213D01*
X46378213Y-145489707D01*
X46378210Y-145489711D01*
X46290609Y-145620814D01*
X46290602Y-145620827D01*
X46230264Y-145766498D01*
X46230261Y-145766510D01*
X46199500Y-145921153D01*
X41800499Y-145921153D01*
X41769738Y-145766510D01*
X41769737Y-145766503D01*
X41709794Y-145621786D01*
X41709397Y-145620827D01*
X41709390Y-145620814D01*
X41621789Y-145489711D01*
X41621786Y-145489707D01*
X41510292Y-145378213D01*
X41510288Y-145378210D01*
X41379185Y-145290609D01*
X41379172Y-145290602D01*
X41233501Y-145230264D01*
X41233489Y-145230261D01*
X41078845Y-145199500D01*
X41078842Y-145199500D01*
X40921158Y-145199500D01*
X40921155Y-145199500D01*
X40766510Y-145230261D01*
X40766498Y-145230264D01*
X40620827Y-145290602D01*
X40620814Y-145290609D01*
X40489711Y-145378210D01*
X40489707Y-145378213D01*
X40378213Y-145489707D01*
X40378210Y-145489711D01*
X40290609Y-145620814D01*
X40290602Y-145620827D01*
X40230264Y-145766498D01*
X40230261Y-145766510D01*
X40199500Y-145921153D01*
X37181348Y-145921153D01*
X37209394Y-145879179D01*
X37269737Y-145733497D01*
X37300500Y-145578842D01*
X37300500Y-145421158D01*
X37300500Y-145421155D01*
X37300499Y-145421153D01*
X37274531Y-145290606D01*
X37269737Y-145266503D01*
X37256062Y-145233489D01*
X37209397Y-145120827D01*
X37209390Y-145120814D01*
X37121789Y-144989711D01*
X37121786Y-144989707D01*
X37010292Y-144878213D01*
X37010288Y-144878210D01*
X36879185Y-144790609D01*
X36879173Y-144790602D01*
X36852674Y-144779627D01*
X36733501Y-144730264D01*
X36733489Y-144730261D01*
X36578845Y-144699500D01*
X36578842Y-144699500D01*
X36421158Y-144699500D01*
X36421155Y-144699500D01*
X36266510Y-144730261D01*
X36266498Y-144730264D01*
X36120827Y-144790602D01*
X36120814Y-144790609D01*
X35989711Y-144878210D01*
X35989707Y-144878213D01*
X35878213Y-144989707D01*
X35878210Y-144989711D01*
X35790609Y-145120814D01*
X35790602Y-145120827D01*
X35730264Y-145266498D01*
X35730261Y-145266510D01*
X35699500Y-145421153D01*
X32881500Y-145421153D01*
X32881500Y-144671153D01*
X106449500Y-144671153D01*
X106449500Y-144828846D01*
X106480261Y-144983489D01*
X106480264Y-144983501D01*
X106540602Y-145129172D01*
X106540609Y-145129185D01*
X106628210Y-145260288D01*
X106628213Y-145260292D01*
X106739707Y-145371786D01*
X106739711Y-145371789D01*
X106870814Y-145459390D01*
X106870827Y-145459397D01*
X107016498Y-145519735D01*
X107016503Y-145519737D01*
X107171153Y-145550499D01*
X107171156Y-145550500D01*
X107171158Y-145550500D01*
X107328844Y-145550500D01*
X107328845Y-145550499D01*
X107483497Y-145519737D01*
X107629179Y-145459394D01*
X107760289Y-145371789D01*
X107871789Y-145260289D01*
X107959394Y-145129179D01*
X107962854Y-145120827D01*
X108017163Y-144989711D01*
X108019737Y-144983497D01*
X108032138Y-144921153D01*
X142699500Y-144921153D01*
X142699500Y-145078846D01*
X142730261Y-145233489D01*
X142730264Y-145233501D01*
X142790602Y-145379172D01*
X142790609Y-145379185D01*
X142878210Y-145510288D01*
X142878213Y-145510292D01*
X142989707Y-145621786D01*
X142989711Y-145621789D01*
X143120814Y-145709390D01*
X143120827Y-145709397D01*
X143258683Y-145766498D01*
X143266503Y-145769737D01*
X143421153Y-145800499D01*
X143421156Y-145800500D01*
X143421158Y-145800500D01*
X143578844Y-145800500D01*
X143578845Y-145800499D01*
X143733497Y-145769737D01*
X143879179Y-145709394D01*
X144010289Y-145621789D01*
X144121789Y-145510289D01*
X144209394Y-145379179D01*
X144269737Y-145233497D01*
X144300500Y-145078842D01*
X144300500Y-144921158D01*
X144300500Y-144921155D01*
X144300499Y-144921153D01*
X144274531Y-144790606D01*
X144269737Y-144766503D01*
X144269735Y-144766498D01*
X144209397Y-144620827D01*
X144209390Y-144620814D01*
X144121789Y-144489711D01*
X144121786Y-144489707D01*
X144010292Y-144378213D01*
X144010288Y-144378210D01*
X143879185Y-144290609D01*
X143879172Y-144290602D01*
X143733501Y-144230264D01*
X143733489Y-144230261D01*
X143578845Y-144199500D01*
X143578842Y-144199500D01*
X143421158Y-144199500D01*
X143421155Y-144199500D01*
X143266510Y-144230261D01*
X143266498Y-144230264D01*
X143120827Y-144290602D01*
X143120814Y-144290609D01*
X142989711Y-144378210D01*
X142989707Y-144378213D01*
X142878213Y-144489707D01*
X142878210Y-144489711D01*
X142790609Y-144620814D01*
X142790602Y-144620827D01*
X142730264Y-144766498D01*
X142730261Y-144766510D01*
X142699500Y-144921153D01*
X108032138Y-144921153D01*
X108038161Y-144890874D01*
X108050500Y-144828844D01*
X108050500Y-144671155D01*
X108050499Y-144671153D01*
X108019738Y-144516510D01*
X108019737Y-144516503D01*
X108019735Y-144516498D01*
X107959397Y-144370827D01*
X107959390Y-144370814D01*
X107871789Y-144239711D01*
X107871786Y-144239707D01*
X107760292Y-144128213D01*
X107760288Y-144128210D01*
X107629185Y-144040609D01*
X107629172Y-144040602D01*
X107483501Y-143980264D01*
X107483489Y-143980261D01*
X107328845Y-143949500D01*
X107328842Y-143949500D01*
X107171158Y-143949500D01*
X107171155Y-143949500D01*
X107016510Y-143980261D01*
X107016498Y-143980264D01*
X106870827Y-144040602D01*
X106870814Y-144040609D01*
X106739711Y-144128210D01*
X106739707Y-144128213D01*
X106628213Y-144239707D01*
X106628210Y-144239711D01*
X106540609Y-144370814D01*
X106540602Y-144370827D01*
X106480264Y-144516498D01*
X106480261Y-144516510D01*
X106449500Y-144671153D01*
X32881500Y-144671153D01*
X32881500Y-142721153D01*
X101999500Y-142721153D01*
X101999500Y-142878846D01*
X102030261Y-143033489D01*
X102030264Y-143033501D01*
X102090602Y-143179172D01*
X102090609Y-143179185D01*
X102178210Y-143310288D01*
X102178213Y-143310292D01*
X102289707Y-143421786D01*
X102289711Y-143421789D01*
X102420814Y-143509390D01*
X102420827Y-143509397D01*
X102566498Y-143569735D01*
X102566503Y-143569737D01*
X102721153Y-143600499D01*
X102721156Y-143600500D01*
X102721158Y-143600500D01*
X102878844Y-143600500D01*
X102878845Y-143600499D01*
X103033497Y-143569737D01*
X103179179Y-143509394D01*
X103310289Y-143421789D01*
X103421789Y-143310289D01*
X103509394Y-143179179D01*
X103569737Y-143033497D01*
X103600500Y-142878842D01*
X103600500Y-142721158D01*
X103600500Y-142721155D01*
X103600499Y-142721153D01*
X103569738Y-142566510D01*
X103569737Y-142566503D01*
X103569735Y-142566498D01*
X103509397Y-142420827D01*
X103509390Y-142420814D01*
X103421789Y-142289711D01*
X103421786Y-142289707D01*
X103310292Y-142178213D01*
X103310288Y-142178210D01*
X103179185Y-142090609D01*
X103179172Y-142090602D01*
X103033501Y-142030264D01*
X103033489Y-142030261D01*
X102878845Y-141999500D01*
X102878842Y-141999500D01*
X102721158Y-141999500D01*
X102721155Y-141999500D01*
X102566510Y-142030261D01*
X102566498Y-142030264D01*
X102420827Y-142090602D01*
X102420814Y-142090609D01*
X102289711Y-142178210D01*
X102289707Y-142178213D01*
X102178213Y-142289707D01*
X102178210Y-142289711D01*
X102090609Y-142420814D01*
X102090602Y-142420827D01*
X102030264Y-142566498D01*
X102030261Y-142566510D01*
X101999500Y-142721153D01*
X32881500Y-142721153D01*
X32881500Y-140321153D01*
X112119500Y-140321153D01*
X112119500Y-140478846D01*
X112150261Y-140633489D01*
X112150264Y-140633501D01*
X112210602Y-140779172D01*
X112210609Y-140779185D01*
X112298210Y-140910288D01*
X112298213Y-140910292D01*
X112409707Y-141021786D01*
X112409711Y-141021789D01*
X112540814Y-141109390D01*
X112540827Y-141109397D01*
X112686498Y-141169735D01*
X112686503Y-141169737D01*
X112841153Y-141200499D01*
X112841156Y-141200500D01*
X112841158Y-141200500D01*
X112998844Y-141200500D01*
X112998845Y-141200499D01*
X113153497Y-141169737D01*
X113299179Y-141109394D01*
X113430289Y-141021789D01*
X113541789Y-140910289D01*
X113629394Y-140779179D01*
X113689737Y-140633497D01*
X113720500Y-140478842D01*
X113720500Y-140321158D01*
X113720500Y-140321155D01*
X113720499Y-140321153D01*
X113689738Y-140166510D01*
X113689737Y-140166503D01*
X113689735Y-140166498D01*
X113629397Y-140020827D01*
X113629390Y-140020814D01*
X113541789Y-139889711D01*
X113541786Y-139889707D01*
X113430292Y-139778213D01*
X113430288Y-139778210D01*
X113299185Y-139690609D01*
X113299172Y-139690602D01*
X113153501Y-139630264D01*
X113153489Y-139630261D01*
X112998845Y-139599500D01*
X112998842Y-139599500D01*
X112841158Y-139599500D01*
X112841155Y-139599500D01*
X112686510Y-139630261D01*
X112686498Y-139630264D01*
X112540827Y-139690602D01*
X112540814Y-139690609D01*
X112409711Y-139778210D01*
X112409707Y-139778213D01*
X112298213Y-139889707D01*
X112298210Y-139889711D01*
X112210609Y-140020814D01*
X112210602Y-140020827D01*
X112150264Y-140166498D01*
X112150261Y-140166510D01*
X112119500Y-140321153D01*
X32881500Y-140321153D01*
X32881500Y-134421153D01*
X35699500Y-134421153D01*
X35699500Y-134578846D01*
X35730261Y-134733489D01*
X35730264Y-134733501D01*
X35790602Y-134879172D01*
X35790609Y-134879185D01*
X35878210Y-135010288D01*
X35878213Y-135010292D01*
X35989707Y-135121786D01*
X35989711Y-135121789D01*
X36120814Y-135209390D01*
X36120827Y-135209397D01*
X36266498Y-135269735D01*
X36266503Y-135269737D01*
X36421153Y-135300499D01*
X36421156Y-135300500D01*
X36421158Y-135300500D01*
X36578844Y-135300500D01*
X36578845Y-135300499D01*
X36733497Y-135269737D01*
X36879179Y-135209394D01*
X37010289Y-135121789D01*
X37121789Y-135010289D01*
X37208075Y-134881153D01*
X119739500Y-134881153D01*
X119739500Y-135038846D01*
X119770261Y-135193489D01*
X119770264Y-135193501D01*
X119830602Y-135339172D01*
X119830609Y-135339185D01*
X119918210Y-135470288D01*
X119918213Y-135470292D01*
X120029707Y-135581786D01*
X120029711Y-135581789D01*
X120160814Y-135669390D01*
X120160827Y-135669397D01*
X120306498Y-135729735D01*
X120306503Y-135729737D01*
X120461153Y-135760499D01*
X120461156Y-135760500D01*
X120461158Y-135760500D01*
X120618844Y-135760500D01*
X120618845Y-135760499D01*
X120773497Y-135729737D01*
X120919179Y-135669394D01*
X121050289Y-135581789D01*
X121161789Y-135470289D01*
X121249394Y-135339179D01*
X121309737Y-135193497D01*
X121340500Y-135038842D01*
X121340500Y-134881158D01*
X121340500Y-134881155D01*
X121340499Y-134881153D01*
X121311128Y-134733497D01*
X121309737Y-134726503D01*
X121272003Y-134635404D01*
X121249397Y-134580827D01*
X121249390Y-134580814D01*
X121161789Y-134449711D01*
X121161786Y-134449707D01*
X121050292Y-134338213D01*
X121050288Y-134338210D01*
X120919185Y-134250609D01*
X120919172Y-134250602D01*
X120773501Y-134190264D01*
X120773489Y-134190261D01*
X120618845Y-134159500D01*
X120618842Y-134159500D01*
X120461158Y-134159500D01*
X120461155Y-134159500D01*
X120306510Y-134190261D01*
X120306498Y-134190264D01*
X120160827Y-134250602D01*
X120160814Y-134250609D01*
X120029711Y-134338210D01*
X120029707Y-134338213D01*
X119918213Y-134449707D01*
X119918210Y-134449711D01*
X119830609Y-134580814D01*
X119830602Y-134580827D01*
X119770264Y-134726498D01*
X119770261Y-134726510D01*
X119739500Y-134881153D01*
X37208075Y-134881153D01*
X37209394Y-134879179D01*
X37269737Y-134733497D01*
X37300500Y-134578842D01*
X37300500Y-134421158D01*
X37300500Y-134421155D01*
X37300499Y-134421153D01*
X37284001Y-134338213D01*
X37269737Y-134266503D01*
X37260767Y-134244848D01*
X37209397Y-134120827D01*
X37209390Y-134120814D01*
X37121790Y-133989712D01*
X37121784Y-133989705D01*
X37053232Y-133921153D01*
X39199500Y-133921153D01*
X39199500Y-134078846D01*
X39230261Y-134233489D01*
X39230264Y-134233501D01*
X39290602Y-134379172D01*
X39290609Y-134379185D01*
X39378210Y-134510288D01*
X39378213Y-134510292D01*
X39489707Y-134621786D01*
X39489711Y-134621789D01*
X39620814Y-134709390D01*
X39620827Y-134709397D01*
X39766498Y-134769735D01*
X39766503Y-134769737D01*
X39921153Y-134800499D01*
X39921156Y-134800500D01*
X39921158Y-134800500D01*
X40078844Y-134800500D01*
X40078845Y-134800499D01*
X40233497Y-134769737D01*
X40244766Y-134765069D01*
X40255786Y-134760505D01*
X40379172Y-134709397D01*
X40379172Y-134709396D01*
X40379179Y-134709394D01*
X40510289Y-134621789D01*
X40621789Y-134510289D01*
X40709394Y-134379179D01*
X40769737Y-134233497D01*
X40800500Y-134078842D01*
X40800500Y-133921158D01*
X40800500Y-133921155D01*
X40777380Y-133804927D01*
X40773779Y-133786822D01*
X142599631Y-133786822D01*
X142599631Y-133944515D01*
X142630392Y-134099158D01*
X142630395Y-134099170D01*
X142690733Y-134244841D01*
X142690740Y-134244854D01*
X142778341Y-134375957D01*
X142778344Y-134375961D01*
X142889838Y-134487455D01*
X142889842Y-134487458D01*
X143020945Y-134575059D01*
X143020958Y-134575066D01*
X143133752Y-134621786D01*
X143166634Y-134635406D01*
X143321284Y-134666168D01*
X143321287Y-134666169D01*
X143321289Y-134666169D01*
X143478975Y-134666169D01*
X143478976Y-134666168D01*
X143633628Y-134635406D01*
X143746297Y-134588736D01*
X143779303Y-134575066D01*
X143779303Y-134575065D01*
X143779310Y-134575063D01*
X143910420Y-134487458D01*
X144021920Y-134375958D01*
X144109525Y-134244848D01*
X144169868Y-134099166D01*
X144200631Y-133944511D01*
X144200631Y-133786827D01*
X144200631Y-133786824D01*
X144200630Y-133786822D01*
X144189380Y-133730264D01*
X144169868Y-133632172D01*
X144165166Y-133620821D01*
X144109528Y-133486496D01*
X144109521Y-133486483D01*
X144021920Y-133355380D01*
X144021917Y-133355376D01*
X143910423Y-133243882D01*
X143910419Y-133243879D01*
X143779316Y-133156278D01*
X143779303Y-133156271D01*
X143633632Y-133095933D01*
X143633620Y-133095930D01*
X143478976Y-133065169D01*
X143478973Y-133065169D01*
X143321289Y-133065169D01*
X143321286Y-133065169D01*
X143166641Y-133095930D01*
X143166629Y-133095933D01*
X143020958Y-133156271D01*
X143020945Y-133156278D01*
X142889842Y-133243879D01*
X142889838Y-133243882D01*
X142778344Y-133355376D01*
X142778341Y-133355380D01*
X142690740Y-133486483D01*
X142690733Y-133486496D01*
X142630395Y-133632167D01*
X142630392Y-133632179D01*
X142599631Y-133786822D01*
X40773779Y-133786822D01*
X40769737Y-133766503D01*
X40769735Y-133766498D01*
X40709397Y-133620827D01*
X40709390Y-133620814D01*
X40621789Y-133489711D01*
X40621786Y-133489707D01*
X40510292Y-133378213D01*
X40510288Y-133378210D01*
X40379185Y-133290609D01*
X40379172Y-133290602D01*
X40233501Y-133230264D01*
X40233489Y-133230261D01*
X40078845Y-133199500D01*
X40078842Y-133199500D01*
X39921158Y-133199500D01*
X39921155Y-133199500D01*
X39766510Y-133230261D01*
X39766498Y-133230264D01*
X39620827Y-133290602D01*
X39620814Y-133290609D01*
X39489711Y-133378210D01*
X39489707Y-133378213D01*
X39378213Y-133489707D01*
X39378210Y-133489711D01*
X39290609Y-133620814D01*
X39290602Y-133620827D01*
X39230264Y-133766498D01*
X39230261Y-133766510D01*
X39199500Y-133921153D01*
X37053232Y-133921153D01*
X37010292Y-133878213D01*
X37010288Y-133878210D01*
X36879185Y-133790609D01*
X36879172Y-133790602D01*
X36733501Y-133730264D01*
X36733489Y-133730261D01*
X36578845Y-133699500D01*
X36578842Y-133699500D01*
X36421158Y-133699500D01*
X36421155Y-133699500D01*
X36266510Y-133730261D01*
X36266498Y-133730264D01*
X36120827Y-133790602D01*
X36120814Y-133790609D01*
X35989711Y-133878210D01*
X35989707Y-133878213D01*
X35878213Y-133989707D01*
X35878210Y-133989711D01*
X35790609Y-134120814D01*
X35790602Y-134120827D01*
X35730264Y-134266498D01*
X35730261Y-134266510D01*
X35699500Y-134421153D01*
X32881500Y-134421153D01*
X32881500Y-129421153D01*
X39199500Y-129421153D01*
X39199500Y-129578846D01*
X39230261Y-129733489D01*
X39230264Y-129733501D01*
X39290602Y-129879172D01*
X39290609Y-129879185D01*
X39378210Y-130010288D01*
X39378213Y-130010292D01*
X39489707Y-130121786D01*
X39489711Y-130121789D01*
X39620814Y-130209390D01*
X39620827Y-130209397D01*
X39766498Y-130269735D01*
X39766503Y-130269737D01*
X39921153Y-130300499D01*
X39921156Y-130300500D01*
X39921158Y-130300500D01*
X40078844Y-130300500D01*
X40078845Y-130300499D01*
X40233497Y-130269737D01*
X40379179Y-130209394D01*
X40510289Y-130121789D01*
X40510925Y-130121153D01*
X44799500Y-130121153D01*
X44799500Y-130278846D01*
X44830261Y-130433489D01*
X44830264Y-130433501D01*
X44890602Y-130579172D01*
X44890609Y-130579185D01*
X44978210Y-130710288D01*
X44978213Y-130710292D01*
X45089707Y-130821786D01*
X45089711Y-130821789D01*
X45220814Y-130909390D01*
X45220827Y-130909397D01*
X45366498Y-130969735D01*
X45366503Y-130969737D01*
X45521153Y-131000499D01*
X45521156Y-131000500D01*
X45521158Y-131000500D01*
X45678844Y-131000500D01*
X45678845Y-131000499D01*
X45833497Y-130969737D01*
X45979179Y-130909394D01*
X46110289Y-130821789D01*
X46221789Y-130710289D01*
X46309394Y-130579179D01*
X46369737Y-130433497D01*
X46400500Y-130278842D01*
X46400500Y-130121158D01*
X46400500Y-130121155D01*
X46400499Y-130121153D01*
X46378447Y-130010292D01*
X46369737Y-129966503D01*
X46333569Y-129879185D01*
X46309397Y-129820827D01*
X46309390Y-129820814D01*
X46221789Y-129689711D01*
X46221786Y-129689707D01*
X46110292Y-129578213D01*
X46110288Y-129578210D01*
X45979185Y-129490609D01*
X45979172Y-129490602D01*
X45833501Y-129430264D01*
X45833489Y-129430261D01*
X45678845Y-129399500D01*
X45678842Y-129399500D01*
X45521158Y-129399500D01*
X45521155Y-129399500D01*
X45366510Y-129430261D01*
X45366498Y-129430264D01*
X45220827Y-129490602D01*
X45220814Y-129490609D01*
X45089711Y-129578210D01*
X45089707Y-129578213D01*
X44978213Y-129689707D01*
X44978210Y-129689711D01*
X44890609Y-129820814D01*
X44890602Y-129820827D01*
X44830264Y-129966498D01*
X44830261Y-129966510D01*
X44799500Y-130121153D01*
X40510925Y-130121153D01*
X40604694Y-130027385D01*
X40621786Y-130010292D01*
X40621789Y-130010289D01*
X40709394Y-129879179D01*
X40769737Y-129733497D01*
X40800500Y-129578842D01*
X40800500Y-129421158D01*
X40800500Y-129421155D01*
X40800499Y-129421153D01*
X40769738Y-129266510D01*
X40769737Y-129266503D01*
X40769735Y-129266498D01*
X40709397Y-129120827D01*
X40709390Y-129120814D01*
X40621789Y-128989711D01*
X40621786Y-128989707D01*
X40510292Y-128878213D01*
X40510288Y-128878210D01*
X40379185Y-128790609D01*
X40379172Y-128790602D01*
X40233501Y-128730264D01*
X40233489Y-128730261D01*
X40078845Y-128699500D01*
X40078842Y-128699500D01*
X39921158Y-128699500D01*
X39921155Y-128699500D01*
X39766510Y-128730261D01*
X39766498Y-128730264D01*
X39620827Y-128790602D01*
X39620814Y-128790609D01*
X39489711Y-128878210D01*
X39489707Y-128878213D01*
X39378213Y-128989707D01*
X39378210Y-128989711D01*
X39290609Y-129120814D01*
X39290602Y-129120827D01*
X39230264Y-129266498D01*
X39230261Y-129266510D01*
X39199500Y-129421153D01*
X32881500Y-129421153D01*
X32881500Y-127921153D01*
X60699500Y-127921153D01*
X60699500Y-128078846D01*
X60730261Y-128233489D01*
X60730264Y-128233501D01*
X60790602Y-128379172D01*
X60790609Y-128379185D01*
X60878210Y-128510288D01*
X60878213Y-128510292D01*
X60989707Y-128621786D01*
X60989711Y-128621789D01*
X61120814Y-128709390D01*
X61120827Y-128709397D01*
X61266498Y-128769735D01*
X61266503Y-128769737D01*
X61421153Y-128800499D01*
X61421156Y-128800500D01*
X61421158Y-128800500D01*
X61578844Y-128800500D01*
X61578845Y-128800499D01*
X61733497Y-128769737D01*
X61879179Y-128709394D01*
X62010289Y-128621789D01*
X62121789Y-128510289D01*
X62209394Y-128379179D01*
X62269737Y-128233497D01*
X62300500Y-128078842D01*
X62300500Y-127921158D01*
X62300500Y-127921155D01*
X62300499Y-127921153D01*
X62269738Y-127766510D01*
X62269737Y-127766503D01*
X62269735Y-127766498D01*
X62209397Y-127620827D01*
X62209390Y-127620814D01*
X62121789Y-127489711D01*
X62121786Y-127489707D01*
X62010292Y-127378213D01*
X62010288Y-127378210D01*
X61879185Y-127290609D01*
X61879172Y-127290602D01*
X61733501Y-127230264D01*
X61733489Y-127230261D01*
X61578845Y-127199500D01*
X61578842Y-127199500D01*
X61421158Y-127199500D01*
X61421155Y-127199500D01*
X61266510Y-127230261D01*
X61266498Y-127230264D01*
X61120827Y-127290602D01*
X61120814Y-127290609D01*
X60989711Y-127378210D01*
X60989707Y-127378213D01*
X60878213Y-127489707D01*
X60878210Y-127489711D01*
X60790609Y-127620814D01*
X60790602Y-127620827D01*
X60730264Y-127766498D01*
X60730261Y-127766510D01*
X60699500Y-127921153D01*
X32881500Y-127921153D01*
X32881500Y-122421153D01*
X40199500Y-122421153D01*
X40199500Y-122578846D01*
X40230261Y-122733489D01*
X40230264Y-122733501D01*
X40290602Y-122879172D01*
X40290609Y-122879185D01*
X40378210Y-123010288D01*
X40378213Y-123010292D01*
X40489707Y-123121786D01*
X40489711Y-123121789D01*
X40620814Y-123209390D01*
X40620827Y-123209397D01*
X40758683Y-123266498D01*
X40766503Y-123269737D01*
X40871418Y-123290606D01*
X40921153Y-123300499D01*
X40921156Y-123300500D01*
X40921158Y-123300500D01*
X41078844Y-123300500D01*
X41078845Y-123300499D01*
X41233497Y-123269737D01*
X41379179Y-123209394D01*
X41510289Y-123121789D01*
X41621789Y-123010289D01*
X41709394Y-122879179D01*
X41769737Y-122733497D01*
X41800500Y-122578842D01*
X41800500Y-122421158D01*
X41800500Y-122421155D01*
X41800499Y-122421153D01*
X41792148Y-122379172D01*
X41769737Y-122266503D01*
X41765490Y-122256249D01*
X41748356Y-122214884D01*
X42776200Y-122214884D01*
X42776200Y-122372577D01*
X42806961Y-122527220D01*
X42806964Y-122527232D01*
X42867302Y-122672903D01*
X42867309Y-122672916D01*
X42954910Y-122804019D01*
X42954913Y-122804023D01*
X43066407Y-122915517D01*
X43066411Y-122915520D01*
X43197514Y-123003121D01*
X43197527Y-123003128D01*
X43340837Y-123062488D01*
X43395241Y-123106328D01*
X43407946Y-123129597D01*
X43467304Y-123272903D01*
X43467311Y-123272916D01*
X43554912Y-123404019D01*
X43554915Y-123404023D01*
X43666410Y-123515518D01*
X43666413Y-123515520D01*
X43713232Y-123546804D01*
X43758038Y-123600415D01*
X43766745Y-123669740D01*
X43758903Y-123697358D01*
X43730264Y-123766498D01*
X43730261Y-123766510D01*
X43699500Y-123921153D01*
X43699500Y-124078846D01*
X43730261Y-124233489D01*
X43730264Y-124233501D01*
X43790602Y-124379172D01*
X43790609Y-124379185D01*
X43825304Y-124431109D01*
X43846182Y-124497786D01*
X43827698Y-124565167D01*
X43825304Y-124568891D01*
X43790609Y-124620814D01*
X43790602Y-124620827D01*
X43730264Y-124766498D01*
X43730261Y-124766510D01*
X43699500Y-124921153D01*
X43699500Y-125078846D01*
X43730261Y-125233489D01*
X43730264Y-125233501D01*
X43790602Y-125379172D01*
X43790609Y-125379185D01*
X43878210Y-125510288D01*
X43878213Y-125510292D01*
X43989707Y-125621786D01*
X43989711Y-125621789D01*
X44120814Y-125709390D01*
X44120827Y-125709397D01*
X44266498Y-125769735D01*
X44266503Y-125769737D01*
X44421153Y-125800499D01*
X44421156Y-125800500D01*
X44421158Y-125800500D01*
X44578844Y-125800500D01*
X44578845Y-125800499D01*
X44733497Y-125769737D01*
X44879179Y-125709394D01*
X45010289Y-125621789D01*
X45121789Y-125510289D01*
X45209394Y-125379179D01*
X45269737Y-125233497D01*
X45300500Y-125078842D01*
X45300500Y-124921158D01*
X45300500Y-124921155D01*
X45300499Y-124921153D01*
X45269738Y-124766510D01*
X45269737Y-124766503D01*
X45269735Y-124766498D01*
X45209396Y-124620825D01*
X45209394Y-124620822D01*
X45209394Y-124620821D01*
X45174694Y-124568889D01*
X45153816Y-124502215D01*
X45172300Y-124434835D01*
X45174676Y-124431136D01*
X45209394Y-124379179D01*
X45269737Y-124233497D01*
X45300500Y-124078842D01*
X45300500Y-123921158D01*
X45300500Y-123921155D01*
X45300499Y-123921153D01*
X45292148Y-123879172D01*
X45269737Y-123766503D01*
X45256062Y-123733489D01*
X45209397Y-123620827D01*
X45209390Y-123620814D01*
X45121790Y-123489712D01*
X45121784Y-123489705D01*
X45053232Y-123421153D01*
X59699500Y-123421153D01*
X59699500Y-123578846D01*
X59730261Y-123733489D01*
X59730264Y-123733501D01*
X59790602Y-123879172D01*
X59790609Y-123879185D01*
X59878210Y-124010288D01*
X59878213Y-124010292D01*
X59989707Y-124121786D01*
X59989711Y-124121789D01*
X60120814Y-124209390D01*
X60120827Y-124209397D01*
X60266498Y-124269735D01*
X60266503Y-124269737D01*
X60421153Y-124300499D01*
X60421156Y-124300500D01*
X60421158Y-124300500D01*
X60578844Y-124300500D01*
X60578845Y-124300499D01*
X60733497Y-124269737D01*
X60879179Y-124209394D01*
X61010289Y-124121789D01*
X61121789Y-124010289D01*
X61209394Y-123879179D01*
X61269737Y-123733497D01*
X61300500Y-123578842D01*
X61300500Y-123421158D01*
X61300500Y-123421155D01*
X61284209Y-123339258D01*
X61284209Y-123339257D01*
X61280608Y-123321153D01*
X94399500Y-123321153D01*
X94399500Y-123478846D01*
X94430261Y-123633489D01*
X94430264Y-123633501D01*
X94490602Y-123779172D01*
X94490609Y-123779185D01*
X94578210Y-123910288D01*
X94578213Y-123910292D01*
X94689707Y-124021786D01*
X94689711Y-124021789D01*
X94820814Y-124109390D01*
X94820827Y-124109397D01*
X94966498Y-124169735D01*
X94966503Y-124169737D01*
X95121153Y-124200499D01*
X95121156Y-124200500D01*
X95121158Y-124200500D01*
X95278844Y-124200500D01*
X95278845Y-124200499D01*
X95433497Y-124169737D01*
X95579179Y-124109394D01*
X95710289Y-124021789D01*
X95821789Y-123910289D01*
X95909394Y-123779179D01*
X95969737Y-123633497D01*
X96000500Y-123478842D01*
X96000500Y-123321158D01*
X96000500Y-123321155D01*
X96000499Y-123321153D01*
X95978269Y-123209397D01*
X95969737Y-123166503D01*
X95944812Y-123106328D01*
X95909397Y-123020827D01*
X95909390Y-123020814D01*
X95821789Y-122889711D01*
X95821786Y-122889707D01*
X95710292Y-122778213D01*
X95710288Y-122778210D01*
X95579185Y-122690609D01*
X95579172Y-122690602D01*
X95433501Y-122630264D01*
X95433489Y-122630261D01*
X95278845Y-122599500D01*
X95278842Y-122599500D01*
X95121158Y-122599500D01*
X95121155Y-122599500D01*
X94966510Y-122630261D01*
X94966498Y-122630264D01*
X94820827Y-122690602D01*
X94820814Y-122690609D01*
X94689711Y-122778210D01*
X94689707Y-122778213D01*
X94578213Y-122889707D01*
X94578210Y-122889711D01*
X94490609Y-123020814D01*
X94490602Y-123020827D01*
X94430264Y-123166498D01*
X94430261Y-123166510D01*
X94399500Y-123321153D01*
X61280608Y-123321153D01*
X61274215Y-123289014D01*
X61269737Y-123266503D01*
X61228314Y-123166498D01*
X61209397Y-123120827D01*
X61209390Y-123120814D01*
X61121789Y-122989711D01*
X61121786Y-122989707D01*
X61010292Y-122878213D01*
X61010288Y-122878210D01*
X60879185Y-122790609D01*
X60879172Y-122790602D01*
X60733501Y-122730264D01*
X60733489Y-122730261D01*
X60578845Y-122699500D01*
X60578842Y-122699500D01*
X60421158Y-122699500D01*
X60421155Y-122699500D01*
X60266510Y-122730261D01*
X60266498Y-122730264D01*
X60120827Y-122790602D01*
X60120814Y-122790609D01*
X59989711Y-122878210D01*
X59989707Y-122878213D01*
X59878213Y-122989707D01*
X59878210Y-122989711D01*
X59790609Y-123120814D01*
X59790602Y-123120827D01*
X59730264Y-123266498D01*
X59730261Y-123266510D01*
X59699500Y-123421153D01*
X45053232Y-123421153D01*
X45010289Y-123378210D01*
X44963468Y-123346926D01*
X44918663Y-123293314D01*
X44909956Y-123223989D01*
X44917794Y-123196382D01*
X44946439Y-123127228D01*
X44977202Y-122972573D01*
X44977202Y-122814889D01*
X44977202Y-122814886D01*
X44977201Y-122814884D01*
X44956218Y-122709397D01*
X44946439Y-122660234D01*
X44930515Y-122621789D01*
X44886099Y-122514558D01*
X44886092Y-122514545D01*
X44798491Y-122383442D01*
X44798488Y-122383438D01*
X44686994Y-122271944D01*
X44686990Y-122271941D01*
X44555887Y-122184340D01*
X44555874Y-122184333D01*
X44412564Y-122124973D01*
X44358160Y-122081132D01*
X44345455Y-122057864D01*
X44288829Y-121921153D01*
X114199500Y-121921153D01*
X114199500Y-122078846D01*
X114230261Y-122233489D01*
X114230264Y-122233501D01*
X114290602Y-122379172D01*
X114290609Y-122379185D01*
X114378210Y-122510288D01*
X114378213Y-122510292D01*
X114489707Y-122621786D01*
X114489711Y-122621789D01*
X114620814Y-122709390D01*
X114620827Y-122709397D01*
X114766498Y-122769735D01*
X114766503Y-122769737D01*
X114921153Y-122800499D01*
X114921156Y-122800500D01*
X114921158Y-122800500D01*
X115078844Y-122800500D01*
X115078845Y-122800499D01*
X115233497Y-122769737D01*
X115379179Y-122709394D01*
X115510289Y-122621789D01*
X115621789Y-122510289D01*
X115709394Y-122379179D01*
X115769737Y-122233497D01*
X115800500Y-122078842D01*
X115800500Y-121921158D01*
X115800500Y-121921155D01*
X115800499Y-121921153D01*
X115774531Y-121790606D01*
X115769737Y-121766503D01*
X115769735Y-121766498D01*
X115709397Y-121620827D01*
X115709390Y-121620814D01*
X115621789Y-121489711D01*
X115621786Y-121489707D01*
X115510292Y-121378213D01*
X115510288Y-121378210D01*
X115379185Y-121290609D01*
X115379172Y-121290602D01*
X115233501Y-121230264D01*
X115233489Y-121230261D01*
X115078845Y-121199500D01*
X115078842Y-121199500D01*
X114921158Y-121199500D01*
X114921155Y-121199500D01*
X114766510Y-121230261D01*
X114766498Y-121230264D01*
X114620827Y-121290602D01*
X114620814Y-121290609D01*
X114489711Y-121378210D01*
X114489707Y-121378213D01*
X114378213Y-121489707D01*
X114378210Y-121489711D01*
X114290609Y-121620814D01*
X114290602Y-121620827D01*
X114230264Y-121766498D01*
X114230261Y-121766510D01*
X114199500Y-121921153D01*
X44288829Y-121921153D01*
X44286097Y-121914557D01*
X44286090Y-121914545D01*
X44198489Y-121783442D01*
X44198486Y-121783438D01*
X44086992Y-121671944D01*
X44086988Y-121671941D01*
X43955885Y-121584340D01*
X43955872Y-121584333D01*
X43810201Y-121523995D01*
X43810189Y-121523992D01*
X43655545Y-121493231D01*
X43655542Y-121493231D01*
X43497858Y-121493231D01*
X43497855Y-121493231D01*
X43343210Y-121523992D01*
X43343198Y-121523995D01*
X43197527Y-121584333D01*
X43197514Y-121584340D01*
X43066411Y-121671941D01*
X43066407Y-121671944D01*
X42954913Y-121783438D01*
X42954910Y-121783442D01*
X42867309Y-121914545D01*
X42867302Y-121914558D01*
X42806964Y-122060229D01*
X42806961Y-122060241D01*
X42776200Y-122214884D01*
X41748356Y-122214884D01*
X41709397Y-122120827D01*
X41709390Y-122120814D01*
X41621789Y-121989711D01*
X41621786Y-121989707D01*
X41510292Y-121878213D01*
X41510288Y-121878210D01*
X41379185Y-121790609D01*
X41379172Y-121790602D01*
X41233501Y-121730264D01*
X41233489Y-121730261D01*
X41078845Y-121699500D01*
X41078842Y-121699500D01*
X40921158Y-121699500D01*
X40921155Y-121699500D01*
X40766510Y-121730261D01*
X40766498Y-121730264D01*
X40620827Y-121790602D01*
X40620814Y-121790609D01*
X40489711Y-121878210D01*
X40489707Y-121878213D01*
X40378213Y-121989707D01*
X40378210Y-121989711D01*
X40290609Y-122120814D01*
X40290602Y-122120827D01*
X40230264Y-122266498D01*
X40230261Y-122266510D01*
X40199500Y-122421153D01*
X32881500Y-122421153D01*
X32881500Y-120921153D01*
X67699500Y-120921153D01*
X67699500Y-121078846D01*
X67730261Y-121233489D01*
X67730264Y-121233501D01*
X67790602Y-121379172D01*
X67790609Y-121379185D01*
X67878210Y-121510288D01*
X67878213Y-121510292D01*
X67989707Y-121621786D01*
X67989711Y-121621789D01*
X68120814Y-121709390D01*
X68120827Y-121709397D01*
X68258683Y-121766498D01*
X68266503Y-121769737D01*
X68421153Y-121800499D01*
X68421156Y-121800500D01*
X68421158Y-121800500D01*
X68578844Y-121800500D01*
X68578845Y-121800499D01*
X68589179Y-121798443D01*
X68614287Y-121793450D01*
X68614292Y-121793449D01*
X68699800Y-121776439D01*
X68733497Y-121769737D01*
X68879179Y-121709394D01*
X69010289Y-121621789D01*
X69121789Y-121510289D01*
X69209394Y-121379179D01*
X69269737Y-121233497D01*
X69300500Y-121078842D01*
X69300500Y-120921158D01*
X69300500Y-120921155D01*
X69300499Y-120921153D01*
X123699500Y-120921153D01*
X123699500Y-121078846D01*
X123730261Y-121233489D01*
X123730264Y-121233501D01*
X123790602Y-121379172D01*
X123790609Y-121379185D01*
X123878210Y-121510288D01*
X123878213Y-121510292D01*
X123989707Y-121621786D01*
X123989711Y-121621789D01*
X124120814Y-121709390D01*
X124120827Y-121709397D01*
X124258683Y-121766498D01*
X124266503Y-121769737D01*
X124421153Y-121800499D01*
X124421156Y-121800500D01*
X124421158Y-121800500D01*
X124578844Y-121800500D01*
X124578845Y-121800499D01*
X124733497Y-121769737D01*
X124879179Y-121709394D01*
X125010289Y-121621789D01*
X125121789Y-121510289D01*
X125209394Y-121379179D01*
X125269737Y-121233497D01*
X125300500Y-121078842D01*
X125300500Y-120921158D01*
X125300500Y-120921155D01*
X125300499Y-120921153D01*
X125269738Y-120766510D01*
X125269737Y-120766503D01*
X125209794Y-120621786D01*
X125209397Y-120620827D01*
X125209390Y-120620814D01*
X125121789Y-120489711D01*
X125121786Y-120489707D01*
X125010292Y-120378213D01*
X125010288Y-120378210D01*
X124879185Y-120290609D01*
X124879172Y-120290602D01*
X124733501Y-120230264D01*
X124733489Y-120230261D01*
X124578845Y-120199500D01*
X124578842Y-120199500D01*
X124421158Y-120199500D01*
X124421155Y-120199500D01*
X124266510Y-120230261D01*
X124266498Y-120230264D01*
X124120827Y-120290602D01*
X124120814Y-120290609D01*
X123989711Y-120378210D01*
X123989707Y-120378213D01*
X123878213Y-120489707D01*
X123878210Y-120489711D01*
X123790609Y-120620814D01*
X123790602Y-120620827D01*
X123730264Y-120766498D01*
X123730261Y-120766510D01*
X123699500Y-120921153D01*
X69300499Y-120921153D01*
X69269738Y-120766510D01*
X69269737Y-120766503D01*
X69209794Y-120621786D01*
X69209397Y-120620827D01*
X69209390Y-120620814D01*
X69121789Y-120489711D01*
X69121786Y-120489707D01*
X69010292Y-120378213D01*
X69010288Y-120378210D01*
X68879185Y-120290609D01*
X68879172Y-120290602D01*
X68733501Y-120230264D01*
X68733489Y-120230261D01*
X68578845Y-120199500D01*
X68578842Y-120199500D01*
X68421158Y-120199500D01*
X68421155Y-120199500D01*
X68266510Y-120230261D01*
X68266498Y-120230264D01*
X68120827Y-120290602D01*
X68120814Y-120290609D01*
X67989711Y-120378210D01*
X67989707Y-120378213D01*
X67878213Y-120489707D01*
X67878210Y-120489711D01*
X67790609Y-120620814D01*
X67790602Y-120620827D01*
X67730264Y-120766498D01*
X67730261Y-120766510D01*
X67699500Y-120921153D01*
X32881500Y-120921153D01*
X32881500Y-119921153D01*
X94699500Y-119921153D01*
X94699500Y-120078846D01*
X94730261Y-120233489D01*
X94730264Y-120233501D01*
X94790602Y-120379172D01*
X94790609Y-120379185D01*
X94878210Y-120510288D01*
X94878213Y-120510292D01*
X94989707Y-120621786D01*
X94989711Y-120621789D01*
X95120814Y-120709390D01*
X95120827Y-120709397D01*
X95258683Y-120766498D01*
X95266503Y-120769737D01*
X95421153Y-120800499D01*
X95421156Y-120800500D01*
X95421158Y-120800500D01*
X95578844Y-120800500D01*
X95578845Y-120800499D01*
X95733497Y-120769737D01*
X95879179Y-120709394D01*
X96010289Y-120621789D01*
X96121789Y-120510289D01*
X96209394Y-120379179D01*
X96269737Y-120233497D01*
X96300500Y-120078842D01*
X96300500Y-119921158D01*
X96300500Y-119921155D01*
X96300499Y-119921153D01*
X103699500Y-119921153D01*
X103699500Y-120078846D01*
X103730261Y-120233489D01*
X103730264Y-120233501D01*
X103790602Y-120379172D01*
X103790609Y-120379185D01*
X103878210Y-120510288D01*
X103878213Y-120510292D01*
X103989707Y-120621786D01*
X103989711Y-120621789D01*
X104120814Y-120709390D01*
X104120827Y-120709397D01*
X104258683Y-120766498D01*
X104266503Y-120769737D01*
X104421153Y-120800499D01*
X104421156Y-120800500D01*
X104421158Y-120800500D01*
X104578844Y-120800500D01*
X104578845Y-120800499D01*
X104589179Y-120798443D01*
X104614287Y-120793450D01*
X104614292Y-120793449D01*
X104699800Y-120776439D01*
X104733497Y-120769737D01*
X104879179Y-120709394D01*
X105010289Y-120621789D01*
X105121789Y-120510289D01*
X105209394Y-120379179D01*
X105269737Y-120233497D01*
X105300500Y-120078842D01*
X105300500Y-119921158D01*
X105300500Y-119921155D01*
X105300499Y-119921153D01*
X105269738Y-119766510D01*
X105269737Y-119766503D01*
X105250424Y-119719879D01*
X105242956Y-119650410D01*
X105274231Y-119587931D01*
X105334320Y-119552279D01*
X105404145Y-119554773D01*
X105452667Y-119584746D01*
X105489707Y-119621786D01*
X105489711Y-119621789D01*
X105620814Y-119709390D01*
X105620827Y-119709397D01*
X105758683Y-119766498D01*
X105766503Y-119769737D01*
X105921153Y-119800499D01*
X105921156Y-119800500D01*
X105921158Y-119800500D01*
X106078844Y-119800500D01*
X106078845Y-119800499D01*
X106233497Y-119769737D01*
X106379179Y-119709394D01*
X106510289Y-119621789D01*
X106621789Y-119510289D01*
X106709394Y-119379179D01*
X106769737Y-119233497D01*
X106800500Y-119078842D01*
X106800500Y-118921158D01*
X106800500Y-118921155D01*
X106800499Y-118921153D01*
X106769738Y-118766510D01*
X106769737Y-118766503D01*
X106769735Y-118766498D01*
X106709397Y-118620827D01*
X106709390Y-118620814D01*
X106621789Y-118489711D01*
X106621786Y-118489707D01*
X106510292Y-118378213D01*
X106510288Y-118378210D01*
X106379185Y-118290609D01*
X106379172Y-118290602D01*
X106233501Y-118230264D01*
X106233489Y-118230261D01*
X106078845Y-118199500D01*
X106078842Y-118199500D01*
X105921158Y-118199500D01*
X105921155Y-118199500D01*
X105766510Y-118230261D01*
X105766498Y-118230264D01*
X105620827Y-118290602D01*
X105620814Y-118290609D01*
X105489711Y-118378210D01*
X105489707Y-118378213D01*
X105378213Y-118489707D01*
X105378210Y-118489711D01*
X105290609Y-118620814D01*
X105290602Y-118620827D01*
X105230264Y-118766498D01*
X105230261Y-118766510D01*
X105199500Y-118921153D01*
X105199500Y-119078846D01*
X105230261Y-119233489D01*
X105230263Y-119233497D01*
X105249575Y-119280120D01*
X105257043Y-119349590D01*
X105225767Y-119412069D01*
X105165678Y-119447721D01*
X105095853Y-119445226D01*
X105047332Y-119415253D01*
X105010292Y-119378213D01*
X105010288Y-119378210D01*
X104879185Y-119290609D01*
X104879172Y-119290602D01*
X104733501Y-119230264D01*
X104733489Y-119230261D01*
X104578845Y-119199500D01*
X104578842Y-119199500D01*
X104421158Y-119199500D01*
X104421155Y-119199500D01*
X104266510Y-119230261D01*
X104266498Y-119230264D01*
X104120827Y-119290602D01*
X104120814Y-119290609D01*
X103989711Y-119378210D01*
X103989707Y-119378213D01*
X103878213Y-119489707D01*
X103878210Y-119489711D01*
X103790609Y-119620814D01*
X103790602Y-119620827D01*
X103730264Y-119766498D01*
X103730261Y-119766510D01*
X103699500Y-119921153D01*
X96300499Y-119921153D01*
X96269738Y-119766510D01*
X96269737Y-119766503D01*
X96209794Y-119621786D01*
X96209397Y-119620827D01*
X96209390Y-119620814D01*
X96121789Y-119489711D01*
X96121786Y-119489707D01*
X96010292Y-119378213D01*
X96010288Y-119378210D01*
X95879185Y-119290609D01*
X95879172Y-119290602D01*
X95733501Y-119230264D01*
X95733489Y-119230261D01*
X95578845Y-119199500D01*
X95578842Y-119199500D01*
X95421158Y-119199500D01*
X95421155Y-119199500D01*
X95266510Y-119230261D01*
X95266498Y-119230264D01*
X95120827Y-119290602D01*
X95120814Y-119290609D01*
X94989711Y-119378210D01*
X94989707Y-119378213D01*
X94878213Y-119489707D01*
X94878210Y-119489711D01*
X94790609Y-119620814D01*
X94790602Y-119620827D01*
X94730264Y-119766498D01*
X94730261Y-119766510D01*
X94699500Y-119921153D01*
X32881500Y-119921153D01*
X32881500Y-117429528D01*
X114699500Y-117429528D01*
X114699500Y-117587221D01*
X114730261Y-117741864D01*
X114730264Y-117741876D01*
X114790602Y-117887547D01*
X114790609Y-117887560D01*
X114878210Y-118018663D01*
X114878213Y-118018667D01*
X114989707Y-118130161D01*
X114989711Y-118130164D01*
X115120814Y-118217765D01*
X115120827Y-118217772D01*
X115266498Y-118278110D01*
X115266503Y-118278112D01*
X115421153Y-118308874D01*
X115421156Y-118308875D01*
X115421158Y-118308875D01*
X115578844Y-118308875D01*
X115578845Y-118308874D01*
X115733497Y-118278112D01*
X115879179Y-118217769D01*
X116010289Y-118130164D01*
X116121789Y-118018664D01*
X116209394Y-117887554D01*
X116269737Y-117741872D01*
X116300500Y-117587217D01*
X116300500Y-117429533D01*
X116300500Y-117429530D01*
X116300499Y-117429528D01*
X116269738Y-117274885D01*
X116269737Y-117274878D01*
X116269735Y-117274873D01*
X116209397Y-117129202D01*
X116209390Y-117129189D01*
X116121789Y-116998086D01*
X116121786Y-116998082D01*
X116010292Y-116886588D01*
X116010288Y-116886585D01*
X115879185Y-116798984D01*
X115879172Y-116798977D01*
X115733501Y-116738639D01*
X115733489Y-116738636D01*
X115578845Y-116707875D01*
X115578842Y-116707875D01*
X115421158Y-116707875D01*
X115421155Y-116707875D01*
X115266510Y-116738636D01*
X115266498Y-116738639D01*
X115120827Y-116798977D01*
X115120814Y-116798984D01*
X114989711Y-116886585D01*
X114989707Y-116886588D01*
X114878213Y-116998082D01*
X114878210Y-116998086D01*
X114790609Y-117129189D01*
X114790602Y-117129202D01*
X114730264Y-117274873D01*
X114730261Y-117274885D01*
X114699500Y-117429528D01*
X32881500Y-117429528D01*
X32881500Y-116171153D01*
X108199500Y-116171153D01*
X108199500Y-116328846D01*
X108230261Y-116483489D01*
X108230264Y-116483501D01*
X108290602Y-116629172D01*
X108290609Y-116629185D01*
X108378210Y-116760288D01*
X108378213Y-116760292D01*
X108489707Y-116871786D01*
X108489711Y-116871789D01*
X108620814Y-116959390D01*
X108620827Y-116959397D01*
X108714232Y-116998086D01*
X108766503Y-117019737D01*
X108921153Y-117050499D01*
X108921156Y-117050500D01*
X108921158Y-117050500D01*
X109078844Y-117050500D01*
X109078845Y-117050499D01*
X109233497Y-117019737D01*
X109379179Y-116959394D01*
X109510289Y-116871789D01*
X109621789Y-116760289D01*
X109709394Y-116629179D01*
X109769737Y-116483497D01*
X109800500Y-116328842D01*
X109800500Y-116171158D01*
X109800500Y-116171155D01*
X109800499Y-116171153D01*
X109788188Y-116109257D01*
X109784587Y-116091153D01*
X112119500Y-116091153D01*
X112119500Y-116248846D01*
X112150261Y-116403489D01*
X112150264Y-116403501D01*
X112210602Y-116549172D01*
X112210609Y-116549185D01*
X112298210Y-116680288D01*
X112298213Y-116680292D01*
X112409707Y-116791786D01*
X112409711Y-116791789D01*
X112540814Y-116879390D01*
X112540827Y-116879397D01*
X112686498Y-116939735D01*
X112686503Y-116939737D01*
X112841153Y-116970499D01*
X112841156Y-116970500D01*
X112841158Y-116970500D01*
X112998844Y-116970500D01*
X112998845Y-116970499D01*
X113153497Y-116939737D01*
X113299179Y-116879394D01*
X113430289Y-116791789D01*
X113541789Y-116680289D01*
X113629394Y-116549179D01*
X113689737Y-116403497D01*
X113720500Y-116248842D01*
X113720500Y-116091158D01*
X113720500Y-116091155D01*
X113720499Y-116091153D01*
X113689738Y-115936510D01*
X113689737Y-115936503D01*
X113689735Y-115936498D01*
X113629397Y-115790827D01*
X113629390Y-115790814D01*
X113541789Y-115659711D01*
X113541786Y-115659707D01*
X113430292Y-115548213D01*
X113430288Y-115548210D01*
X113299185Y-115460609D01*
X113299172Y-115460602D01*
X113153501Y-115400264D01*
X113153489Y-115400261D01*
X112998845Y-115369500D01*
X112998842Y-115369500D01*
X112841158Y-115369500D01*
X112841155Y-115369500D01*
X112686510Y-115400261D01*
X112686498Y-115400264D01*
X112540827Y-115460602D01*
X112540814Y-115460609D01*
X112409711Y-115548210D01*
X112409707Y-115548213D01*
X112298213Y-115659707D01*
X112298210Y-115659711D01*
X112210609Y-115790814D01*
X112210602Y-115790827D01*
X112150264Y-115936498D01*
X112150261Y-115936510D01*
X112119500Y-116091153D01*
X109784587Y-116091153D01*
X109769738Y-116016508D01*
X109769737Y-116016507D01*
X109769737Y-116016503D01*
X109736598Y-115936498D01*
X109709397Y-115870827D01*
X109709390Y-115870814D01*
X109621789Y-115739711D01*
X109621786Y-115739707D01*
X109510292Y-115628213D01*
X109510288Y-115628210D01*
X109379185Y-115540609D01*
X109379172Y-115540602D01*
X109233501Y-115480264D01*
X109233489Y-115480261D01*
X109078845Y-115449500D01*
X109078842Y-115449500D01*
X108921158Y-115449500D01*
X108921155Y-115449500D01*
X108766510Y-115480261D01*
X108766498Y-115480264D01*
X108620827Y-115540602D01*
X108620814Y-115540609D01*
X108489711Y-115628210D01*
X108489707Y-115628213D01*
X108378213Y-115739707D01*
X108378210Y-115739711D01*
X108290609Y-115870814D01*
X108290602Y-115870827D01*
X108230264Y-116016498D01*
X108230261Y-116016510D01*
X108199500Y-116171153D01*
X32881500Y-116171153D01*
X32881500Y-114523678D01*
X36904550Y-114523678D01*
X36904550Y-114681371D01*
X36935311Y-114836014D01*
X36935314Y-114836026D01*
X36995652Y-114981697D01*
X36995659Y-114981710D01*
X37083260Y-115112813D01*
X37083263Y-115112817D01*
X37194757Y-115224311D01*
X37194761Y-115224314D01*
X37325864Y-115311915D01*
X37325877Y-115311922D01*
X37464885Y-115369500D01*
X37471553Y-115372262D01*
X37612313Y-115400261D01*
X37626203Y-115403024D01*
X37626206Y-115403025D01*
X37626208Y-115403025D01*
X37783894Y-115403025D01*
X37783895Y-115403024D01*
X37938547Y-115372262D01*
X38084229Y-115311919D01*
X38215339Y-115224314D01*
X38326839Y-115112814D01*
X38414444Y-114981704D01*
X38474787Y-114836022D01*
X38505550Y-114681367D01*
X38505550Y-114523683D01*
X38505550Y-114523680D01*
X38505549Y-114523678D01*
X38474788Y-114369035D01*
X38474787Y-114369028D01*
X38433659Y-114269735D01*
X38414447Y-114223352D01*
X38414440Y-114223339D01*
X38326839Y-114092236D01*
X38326836Y-114092232D01*
X38215342Y-113980738D01*
X38215338Y-113980735D01*
X38084235Y-113893134D01*
X38084222Y-113893127D01*
X37938551Y-113832789D01*
X37938539Y-113832786D01*
X37783895Y-113802025D01*
X37783892Y-113802025D01*
X37626208Y-113802025D01*
X37626205Y-113802025D01*
X37471560Y-113832786D01*
X37471548Y-113832789D01*
X37325877Y-113893127D01*
X37325864Y-113893134D01*
X37194761Y-113980735D01*
X37194757Y-113980738D01*
X37083263Y-114092232D01*
X37083260Y-114092236D01*
X36995659Y-114223339D01*
X36995652Y-114223352D01*
X36935314Y-114369023D01*
X36935311Y-114369035D01*
X36904550Y-114523678D01*
X32881500Y-114523678D01*
X32881500Y-113421153D01*
X57199500Y-113421153D01*
X57199500Y-113578846D01*
X57230261Y-113733489D01*
X57230264Y-113733501D01*
X57290602Y-113879172D01*
X57290609Y-113879185D01*
X57378210Y-114010288D01*
X57378213Y-114010292D01*
X57489707Y-114121786D01*
X57489711Y-114121789D01*
X57620814Y-114209390D01*
X57620827Y-114209397D01*
X57766498Y-114269735D01*
X57766503Y-114269737D01*
X57921153Y-114300499D01*
X57921156Y-114300500D01*
X57921158Y-114300500D01*
X58078844Y-114300500D01*
X58078845Y-114300499D01*
X58233497Y-114269737D01*
X58379179Y-114209394D01*
X58510289Y-114121789D01*
X58621789Y-114010289D01*
X58709394Y-113879179D01*
X58769737Y-113733497D01*
X58800500Y-113578842D01*
X58800500Y-113421158D01*
X58800500Y-113421155D01*
X58800499Y-113421153D01*
X58769738Y-113266510D01*
X58769737Y-113266503D01*
X58769735Y-113266498D01*
X58709397Y-113120827D01*
X58709390Y-113120814D01*
X58621789Y-112989711D01*
X58621786Y-112989707D01*
X58510292Y-112878213D01*
X58510288Y-112878210D01*
X58379185Y-112790609D01*
X58379172Y-112790602D01*
X58233501Y-112730264D01*
X58233489Y-112730261D01*
X58078845Y-112699500D01*
X58078842Y-112699500D01*
X57921158Y-112699500D01*
X57921155Y-112699500D01*
X57766510Y-112730261D01*
X57766498Y-112730264D01*
X57620827Y-112790602D01*
X57620814Y-112790609D01*
X57489711Y-112878210D01*
X57489707Y-112878213D01*
X57378213Y-112989707D01*
X57378210Y-112989711D01*
X57290609Y-113120814D01*
X57290602Y-113120827D01*
X57230264Y-113266498D01*
X57230261Y-113266510D01*
X57199500Y-113421153D01*
X32881500Y-113421153D01*
X32881500Y-108421153D01*
X50199500Y-108421153D01*
X50199500Y-108578846D01*
X50230261Y-108733489D01*
X50230264Y-108733501D01*
X50290602Y-108879172D01*
X50290609Y-108879185D01*
X50378210Y-109010288D01*
X50378213Y-109010292D01*
X50489707Y-109121786D01*
X50489711Y-109121789D01*
X50620814Y-109209390D01*
X50620827Y-109209397D01*
X50766498Y-109269735D01*
X50766503Y-109269737D01*
X50921153Y-109300499D01*
X50921156Y-109300500D01*
X50921158Y-109300500D01*
X51078844Y-109300500D01*
X51078845Y-109300499D01*
X51233497Y-109269737D01*
X51379179Y-109209394D01*
X51510289Y-109121789D01*
X51621789Y-109010289D01*
X51709394Y-108879179D01*
X51769737Y-108733497D01*
X51800500Y-108578842D01*
X51800500Y-108421158D01*
X51800500Y-108421155D01*
X51800499Y-108421153D01*
X51769738Y-108266510D01*
X51769737Y-108266503D01*
X51756062Y-108233489D01*
X51709397Y-108120827D01*
X51709390Y-108120814D01*
X51621790Y-107989712D01*
X51621784Y-107989705D01*
X51553232Y-107921153D01*
X101199500Y-107921153D01*
X101199500Y-108078846D01*
X101230261Y-108233489D01*
X101230264Y-108233501D01*
X101290602Y-108379172D01*
X101290609Y-108379185D01*
X101378210Y-108510288D01*
X101378213Y-108510292D01*
X101489707Y-108621786D01*
X101489711Y-108621789D01*
X101620814Y-108709390D01*
X101620827Y-108709397D01*
X101766498Y-108769735D01*
X101766503Y-108769737D01*
X101921153Y-108800499D01*
X101921156Y-108800500D01*
X101921158Y-108800500D01*
X102078844Y-108800500D01*
X102078845Y-108800499D01*
X102233497Y-108769737D01*
X102379179Y-108709394D01*
X102510289Y-108621789D01*
X102621789Y-108510289D01*
X102709394Y-108379179D01*
X102769737Y-108233497D01*
X102800500Y-108078842D01*
X102800500Y-107921158D01*
X102800500Y-107921155D01*
X102800499Y-107921153D01*
X102774531Y-107790606D01*
X102769737Y-107766503D01*
X102769735Y-107766498D01*
X102709397Y-107620827D01*
X102709390Y-107620814D01*
X102621789Y-107489711D01*
X102621786Y-107489707D01*
X102510292Y-107378213D01*
X102510288Y-107378210D01*
X102379185Y-107290609D01*
X102379172Y-107290602D01*
X102233501Y-107230264D01*
X102233489Y-107230261D01*
X102078845Y-107199500D01*
X102078842Y-107199500D01*
X101921158Y-107199500D01*
X101921155Y-107199500D01*
X101766510Y-107230261D01*
X101766498Y-107230264D01*
X101620827Y-107290602D01*
X101620814Y-107290609D01*
X101489711Y-107378210D01*
X101489707Y-107378213D01*
X101378213Y-107489707D01*
X101378210Y-107489711D01*
X101290609Y-107620814D01*
X101290602Y-107620827D01*
X101230264Y-107766498D01*
X101230261Y-107766510D01*
X101199500Y-107921153D01*
X51553232Y-107921153D01*
X51510292Y-107878213D01*
X51510288Y-107878210D01*
X51379185Y-107790609D01*
X51379172Y-107790602D01*
X51233501Y-107730264D01*
X51233489Y-107730261D01*
X51078845Y-107699500D01*
X51078842Y-107699500D01*
X50921158Y-107699500D01*
X50921155Y-107699500D01*
X50766510Y-107730261D01*
X50766498Y-107730264D01*
X50620827Y-107790602D01*
X50620814Y-107790609D01*
X50489711Y-107878210D01*
X50489707Y-107878213D01*
X50378213Y-107989707D01*
X50378210Y-107989711D01*
X50290609Y-108120814D01*
X50290602Y-108120827D01*
X50230264Y-108266498D01*
X50230261Y-108266510D01*
X50199500Y-108421153D01*
X32881500Y-108421153D01*
X32881500Y-106671153D01*
X94949500Y-106671153D01*
X94949500Y-106828846D01*
X94980261Y-106983489D01*
X94980264Y-106983501D01*
X95040602Y-107129172D01*
X95040609Y-107129185D01*
X95128210Y-107260288D01*
X95128213Y-107260292D01*
X95239707Y-107371786D01*
X95239711Y-107371789D01*
X95370814Y-107459390D01*
X95370827Y-107459397D01*
X95444013Y-107489711D01*
X95516503Y-107519737D01*
X95671153Y-107550499D01*
X95671156Y-107550500D01*
X95671158Y-107550500D01*
X95828844Y-107550500D01*
X95828845Y-107550499D01*
X95983497Y-107519737D01*
X96129179Y-107459394D01*
X96260289Y-107371789D01*
X96371789Y-107260289D01*
X96459394Y-107129179D01*
X96519737Y-106983497D01*
X96550500Y-106828842D01*
X96550500Y-106671158D01*
X96550500Y-106671155D01*
X96550499Y-106671153D01*
X96519738Y-106516510D01*
X96519737Y-106516503D01*
X96519735Y-106516498D01*
X96459397Y-106370827D01*
X96459390Y-106370814D01*
X96371789Y-106239711D01*
X96371786Y-106239707D01*
X96260292Y-106128213D01*
X96260288Y-106128210D01*
X96129185Y-106040609D01*
X96129172Y-106040602D01*
X95983501Y-105980264D01*
X95983489Y-105980261D01*
X95828845Y-105949500D01*
X95828842Y-105949500D01*
X95671158Y-105949500D01*
X95671155Y-105949500D01*
X95516510Y-105980261D01*
X95516498Y-105980264D01*
X95370827Y-106040602D01*
X95370814Y-106040609D01*
X95239711Y-106128210D01*
X95239707Y-106128213D01*
X95128213Y-106239707D01*
X95128210Y-106239711D01*
X95040609Y-106370814D01*
X95040602Y-106370827D01*
X94980264Y-106516498D01*
X94980261Y-106516510D01*
X94949500Y-106671153D01*
X32881500Y-106671153D01*
X32881500Y-104671153D01*
X92528726Y-104671153D01*
X92528726Y-104828846D01*
X92559487Y-104983489D01*
X92559490Y-104983501D01*
X92619828Y-105129172D01*
X92619835Y-105129185D01*
X92707436Y-105260288D01*
X92707439Y-105260292D01*
X92818933Y-105371786D01*
X92818937Y-105371789D01*
X92950040Y-105459390D01*
X92950053Y-105459397D01*
X93095724Y-105519735D01*
X93095729Y-105519737D01*
X93250379Y-105550499D01*
X93250382Y-105550500D01*
X93250384Y-105550500D01*
X93408070Y-105550500D01*
X93408071Y-105550499D01*
X93562723Y-105519737D01*
X93708405Y-105459394D01*
X93765637Y-105421153D01*
X109278726Y-105421153D01*
X109278726Y-105578846D01*
X109309487Y-105733489D01*
X109309490Y-105733501D01*
X109369828Y-105879172D01*
X109369835Y-105879185D01*
X109457436Y-106010288D01*
X109457439Y-106010292D01*
X109568933Y-106121786D01*
X109568937Y-106121789D01*
X109700040Y-106209390D01*
X109700053Y-106209397D01*
X109773239Y-106239711D01*
X109845729Y-106269737D01*
X110000379Y-106300499D01*
X110000382Y-106300500D01*
X110000384Y-106300500D01*
X110158070Y-106300500D01*
X110158071Y-106300499D01*
X110312723Y-106269737D01*
X110458405Y-106209394D01*
X110589515Y-106121789D01*
X110701015Y-106010289D01*
X110788620Y-105879179D01*
X110848963Y-105733497D01*
X110879726Y-105578842D01*
X110879726Y-105421158D01*
X110879726Y-105421155D01*
X110879725Y-105421153D01*
X110848964Y-105266510D01*
X110848963Y-105266503D01*
X110846389Y-105260288D01*
X110788623Y-105120827D01*
X110788616Y-105120814D01*
X110701015Y-104989711D01*
X110701012Y-104989707D01*
X110589518Y-104878213D01*
X110589514Y-104878210D01*
X110458411Y-104790609D01*
X110458398Y-104790602D01*
X110312727Y-104730264D01*
X110312715Y-104730261D01*
X110158071Y-104699500D01*
X110158068Y-104699500D01*
X110000384Y-104699500D01*
X110000381Y-104699500D01*
X109845736Y-104730261D01*
X109845724Y-104730264D01*
X109700053Y-104790602D01*
X109700040Y-104790609D01*
X109568937Y-104878210D01*
X109568933Y-104878213D01*
X109457439Y-104989707D01*
X109457436Y-104989711D01*
X109369835Y-105120814D01*
X109369828Y-105120827D01*
X109309490Y-105266498D01*
X109309487Y-105266510D01*
X109278726Y-105421153D01*
X93765637Y-105421153D01*
X93839515Y-105371789D01*
X93839518Y-105371786D01*
X93883920Y-105327385D01*
X93951012Y-105260292D01*
X93951015Y-105260289D01*
X94038620Y-105129179D01*
X94042080Y-105120827D01*
X94096389Y-104989711D01*
X94098963Y-104983497D01*
X94129726Y-104828842D01*
X94129726Y-104671158D01*
X94129726Y-104671155D01*
X94129725Y-104671153D01*
X94098964Y-104516510D01*
X94098963Y-104516503D01*
X94098961Y-104516498D01*
X94038623Y-104370827D01*
X94038616Y-104370814D01*
X93951015Y-104239711D01*
X93951012Y-104239707D01*
X93839518Y-104128213D01*
X93839514Y-104128210D01*
X93708411Y-104040609D01*
X93708398Y-104040602D01*
X93562727Y-103980264D01*
X93562715Y-103980261D01*
X93408071Y-103949500D01*
X93408068Y-103949500D01*
X93250384Y-103949500D01*
X93250381Y-103949500D01*
X93095736Y-103980261D01*
X93095724Y-103980264D01*
X92950053Y-104040602D01*
X92950040Y-104040609D01*
X92818937Y-104128210D01*
X92818933Y-104128213D01*
X92707439Y-104239707D01*
X92707436Y-104239711D01*
X92619835Y-104370814D01*
X92619828Y-104370827D01*
X92559490Y-104516498D01*
X92559487Y-104516510D01*
X92528726Y-104671153D01*
X32881500Y-104671153D01*
X32881500Y-100421153D01*
X35699500Y-100421153D01*
X35699500Y-100578846D01*
X35730261Y-100733489D01*
X35730264Y-100733501D01*
X35790602Y-100879172D01*
X35790609Y-100879185D01*
X35878210Y-101010288D01*
X35878213Y-101010292D01*
X35989707Y-101121786D01*
X35989711Y-101121789D01*
X36120814Y-101209390D01*
X36120827Y-101209397D01*
X36266498Y-101269735D01*
X36266503Y-101269737D01*
X36421153Y-101300499D01*
X36421156Y-101300500D01*
X36421158Y-101300500D01*
X36578844Y-101300500D01*
X36578845Y-101300499D01*
X36733497Y-101269737D01*
X36879179Y-101209394D01*
X37010289Y-101121789D01*
X37121789Y-101010289D01*
X37209394Y-100879179D01*
X37269737Y-100733497D01*
X37300500Y-100578842D01*
X37300500Y-100421158D01*
X37300500Y-100421155D01*
X37300499Y-100421153D01*
X37293632Y-100386632D01*
X37269737Y-100266503D01*
X37216421Y-100137785D01*
X37209397Y-100120827D01*
X37209390Y-100120814D01*
X37121790Y-99989712D01*
X37121784Y-99989705D01*
X37053232Y-99921153D01*
X56699500Y-99921153D01*
X56699500Y-100078846D01*
X56730261Y-100233489D01*
X56730264Y-100233501D01*
X56790602Y-100379172D01*
X56790609Y-100379185D01*
X56878210Y-100510288D01*
X56878213Y-100510292D01*
X56989707Y-100621786D01*
X56989711Y-100621789D01*
X57120814Y-100709390D01*
X57120827Y-100709397D01*
X57266498Y-100769735D01*
X57266503Y-100769737D01*
X57421153Y-100800499D01*
X57421156Y-100800500D01*
X57421158Y-100800500D01*
X57578844Y-100800500D01*
X57578845Y-100800499D01*
X57733497Y-100769737D01*
X57879179Y-100709394D01*
X58010289Y-100621789D01*
X58121789Y-100510289D01*
X58209394Y-100379179D01*
X58269737Y-100233497D01*
X58300500Y-100078842D01*
X58300500Y-99921158D01*
X58300500Y-99921155D01*
X58300499Y-99921153D01*
X58291957Y-99878210D01*
X58269737Y-99766503D01*
X58269735Y-99766498D01*
X58209397Y-99620827D01*
X58209390Y-99620814D01*
X58121789Y-99489711D01*
X58121786Y-99489707D01*
X58010292Y-99378213D01*
X58010288Y-99378210D01*
X57879185Y-99290609D01*
X57879172Y-99290602D01*
X57733501Y-99230264D01*
X57733489Y-99230261D01*
X57578845Y-99199500D01*
X57578842Y-99199500D01*
X57421158Y-99199500D01*
X57421155Y-99199500D01*
X57266510Y-99230261D01*
X57266498Y-99230264D01*
X57120827Y-99290602D01*
X57120814Y-99290609D01*
X56989711Y-99378210D01*
X56989707Y-99378213D01*
X56878213Y-99489707D01*
X56878210Y-99489711D01*
X56790609Y-99620814D01*
X56790602Y-99620827D01*
X56730264Y-99766498D01*
X56730261Y-99766510D01*
X56699500Y-99921153D01*
X37053232Y-99921153D01*
X37010292Y-99878213D01*
X37010288Y-99878210D01*
X36879185Y-99790609D01*
X36879172Y-99790602D01*
X36733501Y-99730264D01*
X36733489Y-99730261D01*
X36578845Y-99699500D01*
X36578842Y-99699500D01*
X36421158Y-99699500D01*
X36421155Y-99699500D01*
X36266510Y-99730261D01*
X36266498Y-99730264D01*
X36120827Y-99790602D01*
X36120814Y-99790609D01*
X35989711Y-99878210D01*
X35989707Y-99878213D01*
X35878213Y-99989707D01*
X35878210Y-99989711D01*
X35790609Y-100120814D01*
X35790602Y-100120827D01*
X35730264Y-100266498D01*
X35730261Y-100266510D01*
X35699500Y-100421153D01*
X32881500Y-100421153D01*
X32881500Y-98348543D01*
X95249499Y-98348543D01*
X95287947Y-98541829D01*
X95287950Y-98541839D01*
X95363364Y-98723906D01*
X95363370Y-98723917D01*
X95418289Y-98806110D01*
X95439166Y-98872788D01*
X95420681Y-98940168D01*
X95418289Y-98943890D01*
X95363370Y-99026082D01*
X95363364Y-99026093D01*
X95287950Y-99208160D01*
X95287947Y-99208170D01*
X95249500Y-99401456D01*
X95249500Y-99401459D01*
X95249500Y-99598541D01*
X95249500Y-99598543D01*
X95249499Y-99598543D01*
X95287947Y-99791829D01*
X95287950Y-99791839D01*
X95363364Y-99973907D01*
X95363371Y-99973920D01*
X95472860Y-100137781D01*
X95472863Y-100137785D01*
X95612214Y-100277136D01*
X95612218Y-100277139D01*
X95776079Y-100386628D01*
X95776092Y-100386635D01*
X95958160Y-100462049D01*
X95958165Y-100462051D01*
X95958169Y-100462051D01*
X95958170Y-100462052D01*
X96151456Y-100500500D01*
X96151459Y-100500500D01*
X96348543Y-100500500D01*
X96478582Y-100474632D01*
X96541835Y-100462051D01*
X96640572Y-100421153D01*
X142699500Y-100421153D01*
X142699500Y-100578846D01*
X142730261Y-100733489D01*
X142730264Y-100733501D01*
X142790602Y-100879172D01*
X142790609Y-100879185D01*
X142878210Y-101010288D01*
X142878213Y-101010292D01*
X142989707Y-101121786D01*
X142989711Y-101121789D01*
X143120814Y-101209390D01*
X143120827Y-101209397D01*
X143266498Y-101269735D01*
X143266503Y-101269737D01*
X143421153Y-101300499D01*
X143421156Y-101300500D01*
X143421158Y-101300500D01*
X143578844Y-101300500D01*
X143578845Y-101300499D01*
X143733497Y-101269737D01*
X143879179Y-101209394D01*
X144010289Y-101121789D01*
X144121789Y-101010289D01*
X144209394Y-100879179D01*
X144269737Y-100733497D01*
X144300500Y-100578842D01*
X144300500Y-100421158D01*
X144300500Y-100421155D01*
X144300499Y-100421153D01*
X144293632Y-100386632D01*
X144269737Y-100266503D01*
X144216421Y-100137785D01*
X144209397Y-100120827D01*
X144209390Y-100120814D01*
X144121789Y-99989711D01*
X144121786Y-99989707D01*
X144010292Y-99878213D01*
X144010288Y-99878210D01*
X143879185Y-99790609D01*
X143879172Y-99790602D01*
X143733501Y-99730264D01*
X143733489Y-99730261D01*
X143578845Y-99699500D01*
X143578842Y-99699500D01*
X143421158Y-99699500D01*
X143421155Y-99699500D01*
X143266510Y-99730261D01*
X143266498Y-99730264D01*
X143120827Y-99790602D01*
X143120814Y-99790609D01*
X142989711Y-99878210D01*
X142989707Y-99878213D01*
X142878213Y-99989707D01*
X142878210Y-99989711D01*
X142790609Y-100120814D01*
X142790602Y-100120827D01*
X142730264Y-100266498D01*
X142730261Y-100266510D01*
X142699500Y-100421153D01*
X96640572Y-100421153D01*
X96723914Y-100386632D01*
X96887782Y-100277139D01*
X97027139Y-100137782D01*
X97136632Y-99973914D01*
X97212051Y-99791835D01*
X97246067Y-99620827D01*
X97250500Y-99598543D01*
X97250500Y-99401456D01*
X97212052Y-99208170D01*
X97212051Y-99208169D01*
X97212051Y-99208165D01*
X97136635Y-99026093D01*
X97136635Y-99026092D01*
X97136633Y-99026088D01*
X97136632Y-99026086D01*
X97081711Y-98943891D01*
X97060833Y-98877214D01*
X97079317Y-98809834D01*
X97081711Y-98806109D01*
X97096771Y-98783568D01*
X97136632Y-98723914D01*
X97212051Y-98541835D01*
X97250500Y-98348541D01*
X97250500Y-98151459D01*
X97250500Y-98151456D01*
X97212052Y-97958170D01*
X97212051Y-97958169D01*
X97212051Y-97958165D01*
X97179334Y-97879179D01*
X97136635Y-97776092D01*
X97136628Y-97776079D01*
X97027139Y-97612218D01*
X97027136Y-97612214D01*
X96887785Y-97472863D01*
X96887781Y-97472860D01*
X96723920Y-97363371D01*
X96723907Y-97363364D01*
X96541839Y-97287950D01*
X96541829Y-97287947D01*
X96348543Y-97249500D01*
X96348541Y-97249500D01*
X96151459Y-97249500D01*
X96151457Y-97249500D01*
X95958170Y-97287947D01*
X95958160Y-97287950D01*
X95776092Y-97363364D01*
X95776079Y-97363371D01*
X95612218Y-97472860D01*
X95612214Y-97472863D01*
X95472863Y-97612214D01*
X95472860Y-97612218D01*
X95363371Y-97776079D01*
X95363364Y-97776092D01*
X95287950Y-97958160D01*
X95287947Y-97958170D01*
X95249500Y-98151456D01*
X95249500Y-98151459D01*
X95249500Y-98348541D01*
X95249500Y-98348543D01*
X95249499Y-98348543D01*
X32881500Y-98348543D01*
X32881500Y-97171153D01*
X53449500Y-97171153D01*
X53449500Y-97328846D01*
X53480261Y-97483489D01*
X53480264Y-97483501D01*
X53540602Y-97629172D01*
X53540609Y-97629185D01*
X53628210Y-97760288D01*
X53628213Y-97760292D01*
X53739707Y-97871786D01*
X53739711Y-97871789D01*
X53870814Y-97959390D01*
X53870827Y-97959397D01*
X54016498Y-98019735D01*
X54016503Y-98019737D01*
X54171153Y-98050499D01*
X54171156Y-98050500D01*
X54171158Y-98050500D01*
X54328844Y-98050500D01*
X54328845Y-98050499D01*
X54483497Y-98019737D01*
X54629179Y-97959394D01*
X54760289Y-97871789D01*
X54871789Y-97760289D01*
X54959394Y-97629179D01*
X55019737Y-97483497D01*
X55032138Y-97421153D01*
X60449500Y-97421153D01*
X60449500Y-97578846D01*
X60480261Y-97733489D01*
X60480264Y-97733501D01*
X60540602Y-97879172D01*
X60540609Y-97879185D01*
X60628210Y-98010288D01*
X60628213Y-98010292D01*
X60739707Y-98121786D01*
X60739711Y-98121789D01*
X60870814Y-98209390D01*
X60870827Y-98209397D01*
X61016498Y-98269735D01*
X61016503Y-98269737D01*
X61171153Y-98300499D01*
X61171156Y-98300500D01*
X61171158Y-98300500D01*
X61328844Y-98300500D01*
X61328845Y-98300499D01*
X61483497Y-98269737D01*
X61629179Y-98209394D01*
X61760289Y-98121789D01*
X61760292Y-98121786D01*
X61824393Y-98057686D01*
X61871786Y-98010292D01*
X61871789Y-98010289D01*
X61959394Y-97879179D01*
X62019737Y-97733497D01*
X62050500Y-97578842D01*
X62050500Y-97421158D01*
X62050500Y-97421155D01*
X62050499Y-97421153D01*
X62024003Y-97287949D01*
X62019737Y-97266503D01*
X61980242Y-97171153D01*
X61959397Y-97120827D01*
X61959390Y-97120814D01*
X61871789Y-96989711D01*
X61871786Y-96989707D01*
X61760292Y-96878213D01*
X61760288Y-96878210D01*
X61629185Y-96790609D01*
X61629172Y-96790602D01*
X61483501Y-96730264D01*
X61483489Y-96730261D01*
X61328845Y-96699500D01*
X61328842Y-96699500D01*
X61171158Y-96699500D01*
X61171155Y-96699500D01*
X61016510Y-96730261D01*
X61016498Y-96730264D01*
X60870827Y-96790602D01*
X60870814Y-96790609D01*
X60739711Y-96878210D01*
X60739707Y-96878213D01*
X60628213Y-96989707D01*
X60628210Y-96989711D01*
X60540609Y-97120814D01*
X60540602Y-97120827D01*
X60480264Y-97266498D01*
X60480261Y-97266510D01*
X60449500Y-97421153D01*
X55032138Y-97421153D01*
X55043633Y-97363364D01*
X55050500Y-97328844D01*
X55050500Y-97171155D01*
X55050499Y-97171153D01*
X55019738Y-97016510D01*
X55019737Y-97016503D01*
X55019735Y-97016498D01*
X54959397Y-96870827D01*
X54959390Y-96870814D01*
X54871789Y-96739711D01*
X54871786Y-96739707D01*
X54760292Y-96628213D01*
X54760288Y-96628210D01*
X54629185Y-96540609D01*
X54629172Y-96540602D01*
X54483501Y-96480264D01*
X54483489Y-96480261D01*
X54328845Y-96449500D01*
X54328842Y-96449500D01*
X54171158Y-96449500D01*
X54171155Y-96449500D01*
X54016510Y-96480261D01*
X54016498Y-96480264D01*
X53870827Y-96540602D01*
X53870814Y-96540609D01*
X53739711Y-96628210D01*
X53739707Y-96628213D01*
X53628213Y-96739707D01*
X53628210Y-96739711D01*
X53540609Y-96870814D01*
X53540602Y-96870827D01*
X53480264Y-97016498D01*
X53480261Y-97016510D01*
X53449500Y-97171153D01*
X32881500Y-97171153D01*
X32881500Y-95421153D01*
X51199500Y-95421153D01*
X51199500Y-95578846D01*
X51230261Y-95733489D01*
X51230264Y-95733501D01*
X51290602Y-95879172D01*
X51290609Y-95879185D01*
X51378210Y-96010288D01*
X51378213Y-96010292D01*
X51489707Y-96121786D01*
X51489711Y-96121789D01*
X51620814Y-96209390D01*
X51620827Y-96209397D01*
X51766498Y-96269735D01*
X51766503Y-96269737D01*
X51877617Y-96291839D01*
X51921153Y-96300499D01*
X51921156Y-96300500D01*
X51921158Y-96300500D01*
X52078844Y-96300500D01*
X52078845Y-96300499D01*
X52233497Y-96269737D01*
X52265959Y-96256290D01*
X52335423Y-96248821D01*
X52397903Y-96280093D01*
X52401091Y-96283170D01*
X52489707Y-96371786D01*
X52489711Y-96371789D01*
X52620814Y-96459390D01*
X52620827Y-96459397D01*
X52766498Y-96519735D01*
X52766503Y-96519737D01*
X52921153Y-96550499D01*
X52921156Y-96550500D01*
X52921158Y-96550500D01*
X53078844Y-96550500D01*
X53078845Y-96550499D01*
X53233497Y-96519737D01*
X53379179Y-96459394D01*
X53510289Y-96371789D01*
X53621789Y-96260289D01*
X53709394Y-96129179D01*
X53769737Y-95983497D01*
X53800500Y-95828842D01*
X53800500Y-95671158D01*
X53800500Y-95671155D01*
X53800499Y-95671153D01*
X59699500Y-95671153D01*
X59699500Y-95828846D01*
X59730261Y-95983489D01*
X59730264Y-95983501D01*
X59790602Y-96129172D01*
X59790609Y-96129185D01*
X59878210Y-96260288D01*
X59878213Y-96260292D01*
X59989707Y-96371786D01*
X59989711Y-96371789D01*
X60120814Y-96459390D01*
X60120827Y-96459397D01*
X60266498Y-96519735D01*
X60266503Y-96519737D01*
X60421153Y-96550499D01*
X60421156Y-96550500D01*
X60421158Y-96550500D01*
X60578844Y-96550500D01*
X60578845Y-96550499D01*
X60733497Y-96519737D01*
X60879179Y-96459394D01*
X61010289Y-96371789D01*
X61121789Y-96260289D01*
X61209394Y-96129179D01*
X61269737Y-95983497D01*
X61300500Y-95828842D01*
X61300500Y-95671158D01*
X61300500Y-95671155D01*
X61300499Y-95671153D01*
X61282137Y-95578842D01*
X61269737Y-95516503D01*
X61269735Y-95516498D01*
X61209397Y-95370827D01*
X61209390Y-95370814D01*
X61121789Y-95239711D01*
X61121786Y-95239707D01*
X61010292Y-95128213D01*
X61010288Y-95128210D01*
X60879185Y-95040609D01*
X60879172Y-95040602D01*
X60733501Y-94980264D01*
X60733489Y-94980261D01*
X60578845Y-94949500D01*
X60578842Y-94949500D01*
X60421158Y-94949500D01*
X60421155Y-94949500D01*
X60266510Y-94980261D01*
X60266498Y-94980264D01*
X60120827Y-95040602D01*
X60120814Y-95040609D01*
X59989711Y-95128210D01*
X59989707Y-95128213D01*
X59878213Y-95239707D01*
X59878210Y-95239711D01*
X59790609Y-95370814D01*
X59790602Y-95370827D01*
X59730264Y-95516498D01*
X59730261Y-95516510D01*
X59699500Y-95671153D01*
X53800499Y-95671153D01*
X53782137Y-95578842D01*
X53769737Y-95516503D01*
X53769735Y-95516498D01*
X53709397Y-95370827D01*
X53709390Y-95370814D01*
X53621789Y-95239711D01*
X53621786Y-95239707D01*
X53510292Y-95128213D01*
X53510288Y-95128210D01*
X53379185Y-95040609D01*
X53379172Y-95040602D01*
X53233501Y-94980264D01*
X53233489Y-94980261D01*
X53078845Y-94949500D01*
X53078842Y-94949500D01*
X52921158Y-94949500D01*
X52921155Y-94949500D01*
X52766511Y-94980260D01*
X52766501Y-94980263D01*
X52734041Y-94993709D01*
X52664571Y-95001178D01*
X52602092Y-94969902D01*
X52598908Y-94966829D01*
X52510292Y-94878213D01*
X52510288Y-94878210D01*
X52465889Y-94848543D01*
X95249499Y-94848543D01*
X95287947Y-95041829D01*
X95287950Y-95041839D01*
X95363364Y-95223906D01*
X95363370Y-95223917D01*
X95418289Y-95306110D01*
X95439166Y-95372788D01*
X95420681Y-95440168D01*
X95418289Y-95443890D01*
X95363370Y-95526082D01*
X95363364Y-95526093D01*
X95287950Y-95708160D01*
X95287947Y-95708170D01*
X95249500Y-95901456D01*
X95249500Y-95901459D01*
X95249500Y-96098541D01*
X95249500Y-96098543D01*
X95249499Y-96098543D01*
X95287947Y-96291829D01*
X95287950Y-96291839D01*
X95363364Y-96473907D01*
X95363371Y-96473920D01*
X95472860Y-96637781D01*
X95472863Y-96637785D01*
X95612214Y-96777136D01*
X95612218Y-96777139D01*
X95776079Y-96886628D01*
X95776092Y-96886635D01*
X95958160Y-96962049D01*
X95958165Y-96962051D01*
X95958169Y-96962051D01*
X95958170Y-96962052D01*
X96151456Y-97000500D01*
X96151459Y-97000500D01*
X96348543Y-97000500D01*
X96478582Y-96974632D01*
X96541835Y-96962051D01*
X96723914Y-96886632D01*
X96887782Y-96777139D01*
X97027139Y-96637782D01*
X97136632Y-96473914D01*
X97212051Y-96291835D01*
X97228451Y-96209390D01*
X97250500Y-96098543D01*
X97250500Y-95901456D01*
X97212052Y-95708170D01*
X97212051Y-95708169D01*
X97212051Y-95708165D01*
X97136635Y-95526093D01*
X97136635Y-95526092D01*
X97136633Y-95526088D01*
X97136632Y-95526086D01*
X97136628Y-95526080D01*
X97081711Y-95443891D01*
X97060833Y-95377214D01*
X97079317Y-95309834D01*
X97081711Y-95306109D01*
X97108178Y-95266498D01*
X97136632Y-95223914D01*
X97212051Y-95041835D01*
X97244598Y-94878213D01*
X97250500Y-94848543D01*
X97250500Y-94651456D01*
X97212052Y-94458170D01*
X97212051Y-94458169D01*
X97212051Y-94458165D01*
X97176272Y-94371786D01*
X97136635Y-94276092D01*
X97136628Y-94276079D01*
X97027139Y-94112218D01*
X97027136Y-94112214D01*
X96887785Y-93972863D01*
X96887781Y-93972860D01*
X96723920Y-93863371D01*
X96723907Y-93863364D01*
X96541839Y-93787950D01*
X96541829Y-93787947D01*
X96348543Y-93749500D01*
X96348541Y-93749500D01*
X96151459Y-93749500D01*
X96151457Y-93749500D01*
X95958170Y-93787947D01*
X95958160Y-93787950D01*
X95776092Y-93863364D01*
X95776079Y-93863371D01*
X95612218Y-93972860D01*
X95612214Y-93972863D01*
X95472863Y-94112214D01*
X95472860Y-94112218D01*
X95363371Y-94276079D01*
X95363364Y-94276092D01*
X95287950Y-94458160D01*
X95287947Y-94458170D01*
X95249500Y-94651456D01*
X95249500Y-94651459D01*
X95249500Y-94848541D01*
X95249500Y-94848543D01*
X95249499Y-94848543D01*
X52465889Y-94848543D01*
X52379185Y-94790609D01*
X52379172Y-94790602D01*
X52233501Y-94730264D01*
X52233489Y-94730261D01*
X52078845Y-94699500D01*
X52078842Y-94699500D01*
X51921158Y-94699500D01*
X51921155Y-94699500D01*
X51766510Y-94730261D01*
X51766498Y-94730264D01*
X51620827Y-94790602D01*
X51620814Y-94790609D01*
X51489711Y-94878210D01*
X51489707Y-94878213D01*
X51378213Y-94989707D01*
X51378210Y-94989711D01*
X51290609Y-95120814D01*
X51290602Y-95120827D01*
X51230264Y-95266498D01*
X51230261Y-95266510D01*
X51199500Y-95421153D01*
X32881500Y-95421153D01*
X32881500Y-93671153D01*
X81199500Y-93671153D01*
X81199500Y-93828846D01*
X81230261Y-93983489D01*
X81230264Y-93983501D01*
X81290602Y-94129172D01*
X81290609Y-94129185D01*
X81378210Y-94260288D01*
X81378213Y-94260292D01*
X81489707Y-94371786D01*
X81489711Y-94371789D01*
X81620814Y-94459390D01*
X81620827Y-94459397D01*
X81766498Y-94519735D01*
X81766503Y-94519737D01*
X81921153Y-94550499D01*
X81921156Y-94550500D01*
X81921158Y-94550500D01*
X82078844Y-94550500D01*
X82213324Y-94523750D01*
X82213324Y-94523749D01*
X82233497Y-94519737D01*
X82379179Y-94459394D01*
X82510289Y-94371789D01*
X82621789Y-94260289D01*
X82709394Y-94129179D01*
X82769737Y-93983497D01*
X82800500Y-93828842D01*
X82800500Y-93671158D01*
X82800500Y-93671155D01*
X82800499Y-93671153D01*
X82769738Y-93516510D01*
X82769737Y-93516503D01*
X82769735Y-93516498D01*
X82709397Y-93370827D01*
X82709390Y-93370814D01*
X82621789Y-93239711D01*
X82621786Y-93239707D01*
X82510292Y-93128213D01*
X82510288Y-93128210D01*
X82379185Y-93040609D01*
X82379172Y-93040602D01*
X82233501Y-92980264D01*
X82233489Y-92980261D01*
X82078845Y-92949500D01*
X82078842Y-92949500D01*
X81921158Y-92949500D01*
X81921155Y-92949500D01*
X81766510Y-92980261D01*
X81766498Y-92980264D01*
X81620827Y-93040602D01*
X81620814Y-93040609D01*
X81489711Y-93128210D01*
X81489707Y-93128213D01*
X81378213Y-93239707D01*
X81378210Y-93239711D01*
X81290609Y-93370814D01*
X81290602Y-93370827D01*
X81230264Y-93516498D01*
X81230261Y-93516510D01*
X81199500Y-93671153D01*
X32881500Y-93671153D01*
X32881500Y-91921153D01*
X54699500Y-91921153D01*
X54699500Y-92078846D01*
X54730261Y-92233489D01*
X54730264Y-92233501D01*
X54790602Y-92379172D01*
X54790609Y-92379185D01*
X54878210Y-92510288D01*
X54878213Y-92510292D01*
X54989707Y-92621786D01*
X54989711Y-92621789D01*
X55120814Y-92709390D01*
X55120827Y-92709397D01*
X55266498Y-92769735D01*
X55266503Y-92769737D01*
X55421153Y-92800499D01*
X55421156Y-92800500D01*
X55421158Y-92800500D01*
X55578844Y-92800500D01*
X55578845Y-92800499D01*
X55733497Y-92769737D01*
X55879179Y-92709394D01*
X56010289Y-92621789D01*
X56121789Y-92510289D01*
X56209394Y-92379179D01*
X56269737Y-92233497D01*
X56300500Y-92078842D01*
X56300500Y-91921158D01*
X56300500Y-91921155D01*
X56300499Y-91921153D01*
X56269738Y-91766510D01*
X56269737Y-91766503D01*
X56269735Y-91766498D01*
X56209397Y-91620827D01*
X56209390Y-91620814D01*
X56121789Y-91489711D01*
X56121786Y-91489707D01*
X56010292Y-91378213D01*
X56010288Y-91378210D01*
X55879185Y-91290609D01*
X55879172Y-91290602D01*
X55733501Y-91230264D01*
X55733489Y-91230261D01*
X55578845Y-91199500D01*
X55578842Y-91199500D01*
X55421158Y-91199500D01*
X55421155Y-91199500D01*
X55266510Y-91230261D01*
X55266498Y-91230264D01*
X55120827Y-91290602D01*
X55120814Y-91290609D01*
X54989711Y-91378210D01*
X54989707Y-91378213D01*
X54878213Y-91489707D01*
X54878210Y-91489711D01*
X54790609Y-91620814D01*
X54790602Y-91620827D01*
X54730264Y-91766498D01*
X54730261Y-91766510D01*
X54699500Y-91921153D01*
X32881500Y-91921153D01*
X32881500Y-89421153D01*
X35699500Y-89421153D01*
X35699500Y-89578846D01*
X35730261Y-89733489D01*
X35730264Y-89733501D01*
X35790602Y-89879172D01*
X35790609Y-89879185D01*
X35878210Y-90010288D01*
X35878213Y-90010292D01*
X35989707Y-90121786D01*
X35989711Y-90121789D01*
X36120814Y-90209390D01*
X36120827Y-90209397D01*
X36266498Y-90269735D01*
X36266503Y-90269737D01*
X36421153Y-90300499D01*
X36421156Y-90300500D01*
X36421158Y-90300500D01*
X36578844Y-90300500D01*
X36578845Y-90300499D01*
X36733497Y-90269737D01*
X36879179Y-90209394D01*
X37010289Y-90121789D01*
X37121789Y-90010289D01*
X37209394Y-89879179D01*
X37269737Y-89733497D01*
X37300500Y-89578842D01*
X37300500Y-89421158D01*
X37300500Y-89421155D01*
X37300499Y-89421153D01*
X142699500Y-89421153D01*
X142699500Y-89578846D01*
X142730261Y-89733489D01*
X142730264Y-89733501D01*
X142790602Y-89879172D01*
X142790609Y-89879185D01*
X142878210Y-90010288D01*
X142878213Y-90010292D01*
X142989707Y-90121786D01*
X142989711Y-90121789D01*
X143120814Y-90209390D01*
X143120827Y-90209397D01*
X143266498Y-90269735D01*
X143266503Y-90269737D01*
X143421153Y-90300499D01*
X143421156Y-90300500D01*
X143421158Y-90300500D01*
X143578844Y-90300500D01*
X143578845Y-90300499D01*
X143733497Y-90269737D01*
X143879179Y-90209394D01*
X144010289Y-90121789D01*
X144121789Y-90010289D01*
X144209394Y-89879179D01*
X144269737Y-89733497D01*
X144300500Y-89578842D01*
X144300500Y-89421158D01*
X144300500Y-89421155D01*
X144300499Y-89421153D01*
X144269738Y-89266510D01*
X144269737Y-89266503D01*
X144242564Y-89200900D01*
X144209397Y-89120827D01*
X144209390Y-89120814D01*
X144121789Y-88989711D01*
X144121786Y-88989707D01*
X144010292Y-88878213D01*
X144010288Y-88878210D01*
X143879185Y-88790609D01*
X143879172Y-88790602D01*
X143733501Y-88730264D01*
X143733489Y-88730261D01*
X143578845Y-88699500D01*
X143578842Y-88699500D01*
X143421158Y-88699500D01*
X143421155Y-88699500D01*
X143266510Y-88730261D01*
X143266498Y-88730264D01*
X143120827Y-88790602D01*
X143120814Y-88790609D01*
X142989711Y-88878210D01*
X142989707Y-88878213D01*
X142878213Y-88989707D01*
X142878210Y-88989711D01*
X142790609Y-89120814D01*
X142790602Y-89120827D01*
X142730264Y-89266498D01*
X142730261Y-89266510D01*
X142699500Y-89421153D01*
X37300499Y-89421153D01*
X37269738Y-89266510D01*
X37269737Y-89266503D01*
X37242564Y-89200900D01*
X37209397Y-89120827D01*
X37209390Y-89120814D01*
X37121789Y-88989711D01*
X37121786Y-88989707D01*
X37010292Y-88878213D01*
X37010288Y-88878210D01*
X36879185Y-88790609D01*
X36879172Y-88790602D01*
X36733501Y-88730264D01*
X36733489Y-88730261D01*
X36578845Y-88699500D01*
X36578842Y-88699500D01*
X36421158Y-88699500D01*
X36421155Y-88699500D01*
X36266510Y-88730261D01*
X36266498Y-88730264D01*
X36120827Y-88790602D01*
X36120814Y-88790609D01*
X35989711Y-88878210D01*
X35989707Y-88878213D01*
X35878213Y-88989707D01*
X35878210Y-88989711D01*
X35790609Y-89120814D01*
X35790602Y-89120827D01*
X35730264Y-89266498D01*
X35730261Y-89266510D01*
X35699500Y-89421153D01*
X32881500Y-89421153D01*
X32881500Y-87948629D01*
X42325500Y-87948629D01*
X42325500Y-88131370D01*
X42352288Y-88300499D01*
X42354085Y-88311845D01*
X42410552Y-88485631D01*
X42493509Y-88648444D01*
X42600915Y-88796276D01*
X42730124Y-88925485D01*
X42877956Y-89032891D01*
X43040769Y-89115848D01*
X43214555Y-89172315D01*
X43282235Y-89183034D01*
X43395030Y-89200900D01*
X43395035Y-89200900D01*
X43577770Y-89200900D01*
X43678031Y-89185019D01*
X43758245Y-89172315D01*
X43932031Y-89115848D01*
X44094844Y-89032891D01*
X44242676Y-88925485D01*
X44371885Y-88796276D01*
X44431140Y-88714717D01*
X44434727Y-88710600D01*
X44459733Y-88694619D01*
X44483241Y-88676492D01*
X44489557Y-88675560D01*
X44493601Y-88672977D01*
X44499854Y-88672993D01*
X45080001Y-88092846D01*
X45080001Y-88093504D01*
X45107696Y-88196865D01*
X45161200Y-88289536D01*
X45236865Y-88365201D01*
X45329536Y-88418705D01*
X45432897Y-88446400D01*
X45433554Y-88446400D01*
X44860420Y-89019531D01*
X44878218Y-89032462D01*
X45040957Y-89115383D01*
X45214672Y-89171827D01*
X45395071Y-89200400D01*
X45577731Y-89200400D01*
X45758129Y-89171827D01*
X45931844Y-89115383D01*
X46094579Y-89032465D01*
X46112380Y-89019531D01*
X45539249Y-88446400D01*
X45539905Y-88446400D01*
X45643266Y-88418705D01*
X45735937Y-88365201D01*
X45811602Y-88289536D01*
X45865106Y-88196865D01*
X45892801Y-88093504D01*
X45892801Y-88092847D01*
X46465932Y-88665978D01*
X46478866Y-88648178D01*
X46561784Y-88485443D01*
X46618228Y-88311728D01*
X46646801Y-88131330D01*
X46646801Y-87948669D01*
X46618228Y-87768271D01*
X46561784Y-87594556D01*
X46499012Y-87471361D01*
X46478863Y-87431817D01*
X46471115Y-87421153D01*
X62199500Y-87421153D01*
X62199500Y-87578846D01*
X62230261Y-87733489D01*
X62230264Y-87733501D01*
X62290602Y-87879172D01*
X62290609Y-87879185D01*
X62378210Y-88010288D01*
X62378213Y-88010292D01*
X62489707Y-88121786D01*
X62489711Y-88121789D01*
X62620814Y-88209390D01*
X62620827Y-88209397D01*
X62766498Y-88269735D01*
X62766503Y-88269737D01*
X62866039Y-88289536D01*
X62921153Y-88300499D01*
X62921156Y-88300500D01*
X62921158Y-88300500D01*
X63078844Y-88300500D01*
X63078845Y-88300499D01*
X63233497Y-88269737D01*
X63379179Y-88209394D01*
X63510289Y-88121789D01*
X63621789Y-88010289D01*
X63709394Y-87879179D01*
X63769737Y-87733497D01*
X63800500Y-87578842D01*
X63800500Y-87421158D01*
X63800500Y-87421155D01*
X63800499Y-87421153D01*
X63795736Y-87397208D01*
X63769737Y-87266503D01*
X63739034Y-87192379D01*
X63709397Y-87120827D01*
X63709390Y-87120814D01*
X63621789Y-86989711D01*
X63621786Y-86989707D01*
X63510292Y-86878213D01*
X63510288Y-86878210D01*
X63379185Y-86790609D01*
X63379172Y-86790602D01*
X63233501Y-86730264D01*
X63233489Y-86730261D01*
X63078845Y-86699500D01*
X63078842Y-86699500D01*
X62921158Y-86699500D01*
X62921155Y-86699500D01*
X62766510Y-86730261D01*
X62766498Y-86730264D01*
X62620827Y-86790602D01*
X62620814Y-86790609D01*
X62489711Y-86878210D01*
X62489707Y-86878213D01*
X62378213Y-86989707D01*
X62378210Y-86989711D01*
X62290609Y-87120814D01*
X62290602Y-87120827D01*
X62230264Y-87266498D01*
X62230261Y-87266510D01*
X62199500Y-87421153D01*
X46471115Y-87421153D01*
X46465932Y-87414020D01*
X46465932Y-87414019D01*
X45892801Y-87987151D01*
X45892801Y-87986496D01*
X45865106Y-87883135D01*
X45811602Y-87790464D01*
X45735937Y-87714799D01*
X45643266Y-87661295D01*
X45539905Y-87633600D01*
X45539248Y-87633600D01*
X46112379Y-87060467D01*
X46094579Y-87047535D01*
X45931844Y-86964616D01*
X45758129Y-86908172D01*
X45577731Y-86879600D01*
X45395071Y-86879600D01*
X45214672Y-86908172D01*
X45040957Y-86964616D01*
X44878214Y-87047539D01*
X44878209Y-87047543D01*
X44860421Y-87060465D01*
X44860421Y-87060468D01*
X45433555Y-87633600D01*
X45432897Y-87633600D01*
X45329536Y-87661295D01*
X45236865Y-87714799D01*
X45161200Y-87790464D01*
X45107696Y-87883135D01*
X45080001Y-87986496D01*
X45080001Y-87987152D01*
X44495501Y-87402652D01*
X44469582Y-87397208D01*
X44464841Y-87393425D01*
X44461460Y-87392442D01*
X44449566Y-87381238D01*
X44434727Y-87369398D01*
X44431131Y-87365270D01*
X44371885Y-87283724D01*
X44242676Y-87154515D01*
X44094844Y-87047109D01*
X43932031Y-86964152D01*
X43758245Y-86907685D01*
X43758243Y-86907684D01*
X43758241Y-86907684D01*
X43577770Y-86879100D01*
X43577765Y-86879100D01*
X43395035Y-86879100D01*
X43395030Y-86879100D01*
X43214558Y-86907684D01*
X43040766Y-86964153D01*
X42877955Y-87047109D01*
X42730121Y-87154517D01*
X42600917Y-87283721D01*
X42493509Y-87431555D01*
X42410553Y-87594366D01*
X42354084Y-87768158D01*
X42325500Y-87948629D01*
X32881500Y-87948629D01*
X32881500Y-85681313D01*
X86289500Y-85681313D01*
X86289500Y-85870286D01*
X86319059Y-86056918D01*
X86377454Y-86236636D01*
X86463104Y-86404733D01*
X86463240Y-86404999D01*
X86574310Y-86557873D01*
X86707927Y-86691490D01*
X86860801Y-86802560D01*
X86940347Y-86843090D01*
X87029163Y-86888345D01*
X87029165Y-86888345D01*
X87029168Y-86888347D01*
X87088681Y-86907684D01*
X87208881Y-86946740D01*
X87395514Y-86976300D01*
X87395519Y-86976300D01*
X87584486Y-86976300D01*
X87771118Y-86946740D01*
X87772623Y-86946251D01*
X87950832Y-86888347D01*
X88119199Y-86802560D01*
X88145182Y-86783682D01*
X91915669Y-86783682D01*
X91915670Y-86783683D01*
X91941059Y-86802129D01*
X92109362Y-86887885D01*
X92288997Y-86946251D01*
X92475553Y-86975800D01*
X92664447Y-86975800D01*
X92851002Y-86946251D01*
X93030637Y-86887885D01*
X93198937Y-86802131D01*
X93224328Y-86783683D01*
X93224328Y-86783682D01*
X92570001Y-86129354D01*
X92570000Y-86129354D01*
X91915669Y-86783682D01*
X88145182Y-86783682D01*
X88272073Y-86691490D01*
X88405690Y-86557873D01*
X88516760Y-86404999D01*
X88602547Y-86236632D01*
X88660940Y-86056918D01*
X88671427Y-85990705D01*
X88690500Y-85870286D01*
X88690500Y-85681352D01*
X91370000Y-85681352D01*
X91370000Y-85870247D01*
X91399548Y-86056802D01*
X91457914Y-86236437D01*
X91543666Y-86404733D01*
X91562116Y-86430128D01*
X92216446Y-85775800D01*
X92216446Y-85775799D01*
X92170369Y-85729722D01*
X92220000Y-85729722D01*
X92220000Y-85821878D01*
X92243852Y-85910895D01*
X92289930Y-85990705D01*
X92355095Y-86055870D01*
X92434905Y-86101948D01*
X92523922Y-86125800D01*
X92616078Y-86125800D01*
X92705095Y-86101948D01*
X92784905Y-86055870D01*
X92850070Y-85990705D01*
X92896148Y-85910895D01*
X92920000Y-85821878D01*
X92920000Y-85775799D01*
X92923554Y-85775799D01*
X92923554Y-85775800D01*
X93577882Y-86430128D01*
X93577883Y-86430128D01*
X93596331Y-86404737D01*
X93682085Y-86236437D01*
X93740451Y-86056802D01*
X93770000Y-85870247D01*
X93770000Y-85681352D01*
X93740451Y-85494797D01*
X93682085Y-85315162D01*
X93596329Y-85146859D01*
X93577883Y-85121470D01*
X93577882Y-85121469D01*
X92923554Y-85775799D01*
X92920000Y-85775799D01*
X92920000Y-85729722D01*
X92896148Y-85640705D01*
X92850070Y-85560895D01*
X92784905Y-85495730D01*
X92705095Y-85449652D01*
X92616078Y-85425800D01*
X92523922Y-85425800D01*
X92434905Y-85449652D01*
X92355095Y-85495730D01*
X92289930Y-85560895D01*
X92243852Y-85640705D01*
X92220000Y-85729722D01*
X92170369Y-85729722D01*
X91562116Y-85121469D01*
X91562116Y-85121470D01*
X91543669Y-85146860D01*
X91457914Y-85315162D01*
X91399548Y-85494797D01*
X91370000Y-85681352D01*
X88690500Y-85681352D01*
X88690500Y-85681313D01*
X88660940Y-85494681D01*
X88602545Y-85314963D01*
X88557290Y-85226147D01*
X88516760Y-85146601D01*
X88405690Y-84993727D01*
X88272073Y-84860110D01*
X88145179Y-84767916D01*
X91915669Y-84767916D01*
X92570000Y-85422246D01*
X92570001Y-85422246D01*
X93224328Y-84767916D01*
X93198933Y-84749466D01*
X93030637Y-84663714D01*
X92851002Y-84605348D01*
X92664447Y-84575800D01*
X92475553Y-84575800D01*
X92288997Y-84605348D01*
X92109362Y-84663714D01*
X91941060Y-84749469D01*
X91915670Y-84767916D01*
X91915669Y-84767916D01*
X88145179Y-84767916D01*
X88119199Y-84749040D01*
X87950836Y-84663254D01*
X87771118Y-84604859D01*
X87584486Y-84575300D01*
X87584481Y-84575300D01*
X87395519Y-84575300D01*
X87395514Y-84575300D01*
X87208881Y-84604859D01*
X87029163Y-84663254D01*
X86860800Y-84749040D01*
X86773579Y-84812410D01*
X86707927Y-84860110D01*
X86707925Y-84860112D01*
X86707924Y-84860112D01*
X86574312Y-84993724D01*
X86574312Y-84993725D01*
X86574310Y-84993727D01*
X86526610Y-85059379D01*
X86463240Y-85146600D01*
X86377454Y-85314963D01*
X86319059Y-85494681D01*
X86289500Y-85681313D01*
X32881500Y-85681313D01*
X32881500Y-85502706D01*
X32881618Y-85497297D01*
X32883698Y-85449652D01*
X32898839Y-85102854D01*
X32899779Y-85092122D01*
X32950959Y-84703368D01*
X32952832Y-84692738D01*
X33037704Y-84309910D01*
X33040497Y-84299489D01*
X33158407Y-83925525D01*
X33162093Y-83915397D01*
X33312152Y-83553121D01*
X33316710Y-83543347D01*
X33497765Y-83195545D01*
X33503160Y-83186200D01*
X33713846Y-82855487D01*
X33720028Y-82846659D01*
X33958746Y-82535556D01*
X33965675Y-82527299D01*
X34230580Y-82238206D01*
X34238206Y-82230580D01*
X34527299Y-81965675D01*
X34535556Y-81958746D01*
X34846659Y-81720028D01*
X34855487Y-81713846D01*
X35186200Y-81503160D01*
X35195545Y-81497765D01*
X35543347Y-81316710D01*
X35553121Y-81312152D01*
X35915397Y-81162093D01*
X35925525Y-81158407D01*
X36299489Y-81040497D01*
X36309910Y-81037704D01*
X36692738Y-80952832D01*
X36703368Y-80950959D01*
X37092122Y-80899779D01*
X37102854Y-80898839D01*
X37497297Y-80881617D01*
X37502706Y-80881500D01*
X37554851Y-80881500D01*
X142445149Y-80881500D01*
X142497294Y-80881500D01*
X142502702Y-80881617D01*
G37*
%TD.AperFunction*%
%TD*%
M02*
